<?xml version="1.0" encoding="UTF-8"?><svg xmlns="http://www.w3.org/2000/svg" xmlns:xlink="http://www.w3.org/1999/xlink" viewBox="0 0 50 50" version="1.1"><path d="M18.61 3.96c-.926-.026-1.575.478-2.25 1.9-.391.956-.485 2.007-.485 3.156.29 1.242.578 2.484.965 3.726.562 1.719 1.785 5.29 2.719 8.028.05.023.101.043.18.078.37.23.519.355.683.5.191.168.406.386.625.625.195-.434.492-.844.918-1.203 1.156-.766 2.512-.286 3.77-.286l1.35.13c-1.065-3.235-2.968-9.22-4.194-11.645-.676-1.34-1.352-2.582-2.22-3.727-.386-.574-.87-1.05-1.644-1.242a2.643 2.643 0 0 0-.418-.04zm18.12 1.134c-.597.05-1.253.402-1.93 1.023-.19.192-.484.383-.581.668-1.063 1.242-1.836 2.774-2.512 4.207-1.16 2.2-2.852 6.953-3.625 9.344-.035.129-.086.242-.129.367.649.063 1.293.129 1.645.164 1.078.117 3.82.465 5.718.738.782-2.23 2.079-5.894 2.696-7.714.48-1.625.965-3.25 1.16-4.875.094-1.149-.102-2.2-.875-3.157-.434-.57-.969-.816-1.567-.765zM17.63 21.754a1.41 1.41 0 0 0-.332.027c-1.027.192-1.895.805-2.582 1.57-.047.051-.082.106-.125.157-.246.394-.39.8-.367 1.16v.094c0 .738.293 1.05.484 1.531.676 1.332 2.031 3.055 3.512 4.687.07.075.14.149.207.223.41.445.828.89 1.242 1.328.707.696 1.516 1.852 2.656 1.356.715-.317 1.422-1.117 1.676-1.856.055-.144.082-.289.082-.433 0-1.598-3.473-7.035-4.73-8.66-.454-.586-.977-1.165-1.723-1.184zm8.008.262c-.676 0-1.258 0-1.934.187-.484.192-.871.48-.871 1.05-.039.474.027.903.156 1.306.196.316.387.652.575 1 .156.164.32.328.527.472.676.477 1.547.762 2.414.953 1.937.383 3.965.383 5.996.383.48 0 .871 0 1.355.098.48.094.579.476.676.953.094.383-.195.574-.484.672-.578.285-1.067.476-1.645.664-2.32.863-4.058 2.39-5.316 4.496-.871 1.527-1.16 3.152-.48 4.875.19.379.289.762.382 1.238.098.387.196.864.098 1.34-.965-.191-1.547-.668-2.027-1.433-.387-.766-.582-1.625-.68-2.485-.094-.476-.098-.957-.098-1.433.067-.594.157-1.082.266-1.504-.277.289-.594.566-.988.797-.493.324-1.235.359-1.864.304.051.11.102.219.145.324 0 .192.098.286.098.383.289 1.149-.196 2.2-1.16 2.867-.774.575-1.739.57-2.61.383-1.547-.383-2.957-1.41-3.922-2.652-.484-.668-.969-1.434-1.062-2.195-.293-.766-.293-1.149.191-1.625.094.187.29.285.387.472.48.574.867 1.153 1.351 1.723.578.672 1.41 1.41 2.184 1.695.676.285 1.258.285 1.933 0 .579-.285.676-.668.582-1.242-.097-.191-.195-.383-.292-.57-.676-1.34-1.547-2.582-2.61-3.637-.578-.57-3.16-3.5-4.773-2.719-1.121.715-1.852 1.817-2.063 3.278-.191 1.625 0 3.058.485 4.586.968 3.058 4.254 6.402 7.539 7.742a15.669 15.669 0 0 0 7.828 1.144c1.937-.093 3.867-.664 5.605-1.527 3.48-1.719 5.801-4.492 7.25-8.027.68-1.72 1.067-3.633 1.16-5.543.016-.215.024-.43.032-.641 0-.605 0-1.64-.055-2.574-.04-.36-.098-.727-.168-1.09-.07-.305-.156-.61-.254-.91-.297-.578-.726-1.074-1.348-1.38-.484-.19-.867-.382-1.351-.573-2.996-1.055-8.067-1.34-11.16-1.625zm-.559 6.593c.367.582.738 1.172.852 1.961.058.403.062 1.09-.106 1.856l.297-.38c.77-1.144 1.836-1.91 2.992-2.769-1.425-.09-2.77-.27-4.035-.668z" id="surface1"/><metadata><rdf:RDF xmlns:rdf="http://www.w3.org/1999/02/22-rdf-syntax-ns#" xmlns:rdfs="http://www.w3.org/2000/01/rdf-schema#" xmlns:dc="http://purl.org/dc/elements/1.1/"><rdf:Description about="https://iconscout.com/legal#licenses" dc:title="angellist,filled" dc:description="angellist,filled" dc:publisher="Iconscout" dc:date="2017-12-09" dc:format="image/svg+xml" dc:language="en"><dc:creator><rdf:Bag><rdf:li>Icons8</rdf:li></rdf:Bag></dc:creator></rdf:Description></rdf:RDF></metadata></svg>