<svg width="30" height="22" viewBox="0 0 30 22" fill="none" xmlns="http://www.w3.org/2000/svg">
<path d="M10.7673 15.7557C9.80791 17.7944 7.40946 18.6738 5.37078 17.7144C3.3321 16.755 2.45267 14.3166 3.41205 12.2779C4.37143 10.2393 6.76987 9.35984 8.80855 10.3192C9.68798 10.7589 10.4075 11.4785 10.8073 12.3579H13.9652C13.0458 8.56035 9.20829 6.20188 5.41075 7.16126C1.61321 8.12064 -0.745263 11.9182 0.214116 15.7157C1.1735 19.5133 4.97104 21.8717 8.76858 20.9124C11.3269 20.2728 13.3656 18.2741 13.9652 15.7157H10.7673V15.7557Z" fill="currentColor"/>
<path d="M22.8395 6.96145H22.3198C21.0806 7.04139 19.8814 7.48111 18.842 8.20064V0.285767H15.9639V20.5926H18.842V19.8331C22.04 22.0717 26.4771 21.3122 28.7157 18.1142C30.9542 14.9163 30.1947 10.4792 26.9968 8.24062C25.7975 7.40116 24.3185 6.92147 22.8395 6.96145ZM26.8768 14.5565V14.6765L26.7569 15.1561C26.7169 15.316 26.637 15.5159 26.5571 15.6758V15.7558C25.9974 16.915 24.9581 17.7145 23.7189 17.9943L23.3191 18.0743H22.7995C22.5996 18.0743 22.4397 18.0743 22.2398 18.0343H22.1199C21.7602 17.9943 21.4004 17.8744 21.0806 17.7145H21.0006C20.6809 17.5546 20.3611 17.3547 20.0812 17.1149C19.8014 16.875 19.5616 16.5552 19.3617 16.2754C19.2818 16.1155 19.1618 15.9556 19.0819 15.7558C18.6022 14.6765 18.6422 13.4772 19.1219 12.3979C19.7215 11.1188 20.9607 10.2393 22.3997 10.0794H22.7995C24.9981 10.1194 26.7569 11.8383 26.7969 14.0369C26.9168 14.1968 26.9168 14.3567 26.8768 14.5565Z" fill="currentColor"/>
</svg>
