<svg width="30" height="30" viewBox="0 0 30 30" fill="none" xmlns="http://www.w3.org/2000/svg">
<path d="M14.8275 2C17.2111 2 19.4065 2.55594 21.4451 3.63693C23.4837 4.71791 25.0519 6.2313 26.2123 8.1153C27.4041 10.092 28 12.2231 28 14.5703C28 17.4118 27.1846 19.9753 25.5537 22.2299C23.9228 24.4846 21.8215 26.0288 19.187 26.8936C18.9047 26.9554 18.6852 26.9245 18.5283 26.801C18.3715 26.6774 18.2774 26.4921 18.2774 26.2759V21.952C18.2774 20.8401 17.9952 20.0679 17.3993 19.5738C18.6852 19.4502 19.6574 19.2649 20.2847 19.0487C21.2569 18.709 22.0096 18.1839 22.5428 17.5045C23.1387 16.6088 23.421 15.3734 23.421 13.8291C23.421 13.1805 23.2955 12.5937 23.0446 12.1304C22.8565 11.7907 22.5428 11.3583 22.041 10.8332C22.1665 10.4935 22.2606 10.0611 22.2919 9.5978C22.3233 8.82567 22.1978 8.08442 21.9156 7.31228C21.6333 7.25051 21.1315 7.34317 20.5042 7.59025C20.0965 7.77557 19.5947 7.99176 19.0302 8.30062L18.3402 8.7639C17.2425 8.45504 16.1448 8.30062 15.0157 8.30062C13.8866 8.30062 12.7889 8.45504 11.7539 8.7639L11.0639 8.30062C10.4994 7.99176 9.99759 7.74468 9.5585 7.59025C8.93124 7.34317 8.4608 7.2814 8.14717 7.37406C7.83353 8.14619 7.70808 8.88744 7.77081 9.65957C7.77081 10.1537 7.83353 10.5244 7.99035 10.8332C7.58263 11.3583 7.269 11.8216 7.08082 12.2539C6.89264 12.6863 6.79855 13.2114 6.79855 13.8909C6.79855 15.4351 7.08082 16.6397 7.64536 17.5045C8.14717 18.2148 8.86852 18.7708 9.84077 19.1105C10.468 19.3267 11.4089 19.4811 12.6635 19.6355C12.2244 20.0371 11.9421 20.6239 11.8166 21.396C11.2207 21.674 10.6562 21.7666 10.0917 21.7049C9.18215 21.6431 8.49216 21.1798 7.99035 20.315C7.77081 19.9444 7.48854 19.6355 7.14355 19.3885C6.89264 19.2649 6.64174 19.1414 6.35947 19.0178L5.98311 18.9561C5.60676 18.9561 5.38721 19.0178 5.38721 19.1414C5.35585 19.2649 5.44994 19.3885 5.63812 19.5429L5.88902 19.7591C6.13993 19.8826 6.39083 20.1297 6.61037 20.4386C6.82992 20.6857 6.98673 20.9636 7.14355 21.2725L7.36309 21.674C7.55127 22.199 7.8649 22.6005 8.36671 22.8476C8.77443 23.0947 9.3076 23.2491 9.87214 23.3109C10.2799 23.3418 10.7189 23.3418 11.1894 23.2491L11.7539 23.1874L11.8166 26.3377C11.8166 26.5539 11.7226 26.7083 11.5657 26.8627C11.4089 26.9863 11.1894 27.048 10.9071 26.9554C8.24125 26.0906 6.10856 24.5463 4.44632 22.2917C2.81544 20.0062 2 17.4427 2 14.6012C2 12.2539 2.56454 10.1229 3.66224 8.20796C4.79131 6.29307 6.32811 4.77968 8.27262 3.66781C10.2485 2.55594 12.4439 2 14.8275 2ZM6.51628 19.3885C6.57901 19.3267 6.6731 19.2958 6.76719 19.3576C6.86128 19.4194 6.89264 19.4811 6.86128 19.5738C6.82992 19.6664 6.73583 19.6664 6.61037 19.6047C6.48492 19.5429 6.48492 19.4502 6.51628 19.3885ZM7.08082 19.8209C7.14355 19.7591 7.23764 19.7591 7.33173 19.8826C7.42581 19.9753 7.45718 20.0679 7.39445 20.1297C7.33173 20.1915 7.23764 20.1915 7.14355 20.0679C7.01809 19.9753 7.01809 19.8826 7.08082 19.8209ZM7.61399 20.4695C7.67672 20.4386 7.73945 20.4386 7.80217 20.4386C7.8649 20.4695 7.89626 20.5003 7.92762 20.5621C8.02171 20.6857 8.02171 20.8092 7.92762 20.871C7.89626 20.9018 7.83353 20.9018 7.80217 20.871C7.77081 20.8401 7.67672 20.8092 7.61399 20.7783C7.55127 20.6239 7.55127 20.5003 7.61399 20.4695ZM8.24125 21.2107C8.27262 21.1798 8.33534 21.1798 8.39807 21.1798C8.4608 21.2107 8.52352 21.2416 8.58625 21.2725C8.64897 21.3342 8.68034 21.396 8.68034 21.4578C8.7117 21.5196 8.68034 21.5813 8.64897 21.6122C8.55489 21.7049 8.42943 21.7049 8.27262 21.5504C8.20989 21.4887 8.17853 21.4269 8.17853 21.3342C8.17853 21.2416 8.20989 21.2416 8.24125 21.2107ZM9.08806 21.8593C9.11942 21.7358 9.21351 21.674 9.40169 21.7358C9.58987 21.7975 9.65259 21.8593 9.65259 21.952C9.62123 22.0446 9.58987 22.1064 9.52714 22.1373C9.46442 22.1681 9.40169 22.1681 9.3076 22.1373C9.21351 22.1064 9.18215 22.0446 9.11942 22.0137C9.05669 21.952 9.05669 21.9211 9.08806 21.8593ZM10.6876 22.0755C10.6876 22.0446 10.6562 22.0137 10.5935 21.9828C10.5308 21.952 10.468 21.9211 10.3426 21.9211C10.1544 21.9211 10.0917 21.9828 10.0917 22.1373C10.0917 22.2608 10.1858 22.3226 10.3739 22.3226C10.5935 22.2917 10.6876 22.2299 10.6876 22.0755ZM11.3776 21.7666C11.5657 21.7666 11.6598 21.8284 11.6598 21.9211C11.6912 22.0137 11.5971 22.1064 11.4089 22.1682C11.3462 22.1682 11.2835 22.1681 11.2207 22.1373C11.158 22.1064 11.1267 22.0446 11.1267 21.952C11.1267 21.8593 11.2207 21.7975 11.3776 21.7666Z" fill="currentColor"/>
</svg>
