<svg width="24" height="24" viewBox="0 0 24 24" fill="none" xmlns="http://www.w3.org/2000/svg">
<path d="M21.9983 22H17.8573V15.5037C17.8573 13.9546 17.8297 11.9605 15.7036 11.9605C13.5468 11.9605 13.2168 13.6483 13.2168 15.3909V21.9996H9.07586V8.6406H13.0512V10.4662H13.1068C13.5047 9.78483 14.0796 9.22427 14.7703 8.84426C15.461 8.46425 16.2416 8.27903 17.0291 8.30831C21.2262 8.30831 22 11.0738 22 14.6715L21.9983 22ZM4.40348 6.81452C3.9282 6.81461 3.46356 6.67351 3.06833 6.40906C2.67311 6.14462 2.36506 5.76871 2.1831 5.32888C2.00114 4.88904 1.95345 4.40503 2.04609 3.93805C2.13873 3.47107 2.36753 3.0421 2.70354 2.70538C3.03955 2.36866 3.4677 2.13931 3.93383 2.04634C4.39996 1.95337 4.88313 2.00096 5.32226 2.18308C5.7614 2.3652 6.13675 2.67367 6.40088 3.0695C6.665 3.46532 6.80602 3.93072 6.80611 4.40683C6.80617 4.72296 6.74406 5.036 6.62334 5.32808C6.50263 5.62016 6.32569 5.88557 6.10258 6.10914C5.87948 6.33272 5.61458 6.51008 5.32305 6.63111C5.03152 6.75214 4.71906 6.81446 4.40348 6.81452ZM6.47396 22H2.32869V8.6406H6.47396V22Z" fill="currentColor"/>
</svg>
