<svg width="80" height="80" viewBox="0 0 80 80" fill="none" xmlns="http://www.w3.org/2000/svg">
<path d="M28.4038 45.2771C28.4038 47.5898 26.5146 49.479 24.2019 49.479C21.8892 49.479 20 47.5898 20 45.2771C20 42.9644 21.8892 41.0752 24.2019 41.0752H28.4038V45.2771Z" fill="#E01E5A"/>
<path d="M30.5205 45.2771C30.5205 42.9644 32.4097 41.0752 34.7224 41.0752C37.0351 41.0752 38.9243 42.9644 38.9243 45.2771V55.7982C38.9243 58.1109 37.0351 60.0002 34.7224 60.0002C32.4097 60.0002 30.5205 58.1109 30.5205 55.7982V45.2771Z" fill="#E01E5A"/>
<path d="M34.7224 28.4038C32.4097 28.4038 30.5205 26.5146 30.5205 24.2019C30.5205 21.8892 32.4097 20 34.7224 20C37.0351 20 38.9243 21.8892 38.9243 24.2019V28.4038H34.7224Z" fill="#36C5F0"/>
<path d="M34.723 30.5208C37.0357 30.5208 38.925 32.41 38.925 34.7227C38.925 37.0354 37.0357 38.9246 34.723 38.9246H24.2019C21.8892 38.9246 20 37.0354 20 34.7227C20 32.41 21.8892 30.5208 24.2019 30.5208H34.723Z" fill="#36C5F0"/>
<path d="M51.5967 34.7227C51.5967 32.41 53.4859 30.5208 55.7986 30.5208C58.1113 30.5208 60.0005 32.41 60.0005 34.7227C60.0005 37.0354 58.1113 38.9246 55.7986 38.9246H51.5967V34.7227Z" fill="#2EB67D"/>
<path d="M49.4781 34.723C49.4781 37.0357 47.5888 38.925 45.2761 38.925C42.9635 38.925 41.0742 37.0357 41.0742 34.723V24.2019C41.0742 21.8892 42.9635 20 45.2761 20C47.5888 20 49.4781 21.8892 49.4781 24.2019V34.723Z" fill="#2EB67D"/>
<path d="M45.2761 51.5957C47.5888 51.5957 49.4781 53.4849 49.4781 55.7976C49.4781 58.1103 47.5888 59.9995 45.2761 59.9995C42.9635 59.9995 41.0742 58.1103 41.0742 55.7976V51.5957H45.2761Z" fill="#ECB22E"/>
<path d="M45.2761 49.479C42.9635 49.479 41.0742 47.5898 41.0742 45.2771C41.0742 42.9644 42.9635 41.0752 45.2761 41.0752H55.7972C58.1099 41.0752 59.9992 42.9644 59.9992 45.2771C59.9992 47.5898 58.1099 49.479 55.7972 49.479H45.2761Z" fill="#ECB22E"/>
</svg>
