<svg width="30" height="30" viewBox="0 0 30 30" fill="none" xmlns="http://www.w3.org/2000/svg">
<path d="M24.0111 10.5202C24.0111 12.7592 23.4821 14.921 22.4239 17.0055C21.328 19.2059 19.7787 20.9816 17.8136 22.2941C15.6596 23.761 13.1654 24.4945 10.369 24.4945C7.68593 24.4945 5.2296 23.761 3 22.2941C3.34011 22.3327 3.71801 22.3327 4.13369 22.3327C6.36329 22.3327 8.36615 21.6379 10.1423 20.2482C9.08415 20.2482 8.13941 19.9393 7.34582 19.2831C6.55224 18.6268 5.98539 17.8548 5.68307 16.8897C5.98539 16.9283 6.28771 16.9283 6.55224 16.9283C6.96793 16.9283 7.4214 16.8897 7.83709 16.7739C6.74119 16.5423 5.83423 15.9632 5.07844 15.0368C4.32264 14.1103 3.98253 13.1066 3.98253 11.9485V11.8713C4.66275 12.2574 5.38076 12.489 6.13655 12.5276C5.49413 12.0643 4.96507 11.4853 4.58717 10.7518C4.20927 10.0184 3.90696 9.24632 3.90696 8.39706C3.90696 7.54779 4.13369 6.73713 4.58717 5.92647C5.75866 7.47059 7.23246 8.66728 8.97079 9.55515C10.7091 10.443 12.523 10.9449 14.4881 11.0607C14.4125 10.6746 14.4125 10.3272 14.4125 9.94118C14.4125 9.05331 14.6392 8.24265 15.0549 7.47059C15.4706 6.69853 16.0753 6.11949 16.7933 5.65625C17.5113 5.19301 18.3049 5 19.174 5C19.892 5 20.5345 5.15441 21.1013 5.42463C21.6681 5.69485 22.235 6.08088 22.6885 6.54412C23.7844 6.3125 24.8047 5.92647 25.7494 5.38603C25.3715 6.54412 24.6913 7.43199 23.6332 8.08824C24.5402 7.97243 25.4471 7.70221 26.3919 7.27757C25.7117 8.28125 24.9181 9.13051 23.9733 9.86397C23.9733 10.057 24.0111 10.25 24.0111 10.5202Z" fill="currentColor"/>
</svg>
