<svg width="124" height="28" xmlns="http://www.w3.org/2000/svg"><g fill-rule="nonzero" fill="none"><path fill="#FF6492" d="M24.266 7.038L12.135 0v4.87l12.13 7.007v-4.84z"/><path fill="#141446" d="M24.267 11.877L20.628 14l-8.494-4.919-4.853 2.8-3.64-1.967 8.495-5.044 12.131 7.007z"/><path fill="#A14474" d="M7.28 11.881L3.64 9.914V14z"/><path fill="#141446" d="M0 20.962L12.133 14l12.134 6.962L12.133 28z"/><path fill="#FF6492" d="M24.266 16.13L12.133 9.005V14l12.133 6.962z"/><path fill="#7A77FF" d="M3.64 14V9.914l8.496-5.044V0L0 7.038v13.924L12.133 14V9.005z"/><path d="M31.967 15.154c0-4.21 3.333-7.485 7.533-7.485 2.695 0 4.78 1.316 5.997 3.332l-2.143 1.696c-.928-1.316-2.115-2.193-3.824-2.193-2.608 0-4.462 2.046-4.462 4.648 0 2.66 1.854 4.676 4.462 4.676 1.68 0 2.868-.847 3.824-2.163l2.143 1.668c-1.246 2.016-3.333 3.332-5.997 3.332-4.2.002-7.533-3.274-7.533-7.511zm16.166 1.169V7.992h3.013v8.565c0 2.016 1.418 3.273 3.216 3.273 1.738 0 3.13-1.257 3.13-3.273V7.992h3.042v8.331c0 3.889-2.695 6.343-6.17 6.343-3.536 0-6.231-2.454-6.231-6.343zm30.86-1.141c0 4.268-2.926 7.485-6.953 7.485-2.087 0-3.913-.847-4.984-2.309v1.988h-2.84V.42h3.044v9.326c1.072-1.316 2.781-2.075 4.751-2.075 4.056-.002 6.982 3.243 6.982 7.511zm-3.13-.028c0-2.778-1.912-4.677-4.347-4.677-2.143 0-4.288 1.462-4.288 4.707 0 3.273 2.173 4.676 4.288 4.676 2.464 0 4.347-1.928 4.347-4.706zm18.862 1.023H84.121c.406 2.368 2.202 3.77 4.635 3.77 1.652 0 2.954-.643 4.144-1.695l1.449 2.106c-1.508 1.431-3.42 2.309-5.68 2.309-4.403 0-7.65-3.245-7.65-7.485 0-4.21 3.217-7.513 7.36-7.513 3.796 0 6.578 2.806 6.578 6.577 0 .624-.077 1.268-.232 1.931zm-10.546-2.398h7.736c-.058-2.252-1.708-3.509-3.65-3.509-2 .002-3.623 1.375-4.086 3.509zm13.268 6.636c0-1.316 1.015-2.28 2.288-2.28 1.246 0 2.232.964 2.232 2.28 0 1.315-.984 2.252-2.231 2.252-1.274 0-2.289-.937-2.289-2.252zm5.707 7.251v-2.601c.463.059.811.087 1.246.087 1.709 0 2.723-.613 2.723-2.485V7.992h3.043v14.939c0 3.478-2.057 5-5.041 5-.84-.003-1.449-.09-1.971-.265zm3.42-25.024c0-1.14.927-2.047 2.087-2.047 1.129 0 2.056.905 2.056 2.047 0 1.139-.927 2.016-2.056 2.016-1.16.002-2.087-.875-2.087-2.016zm6.084 17.247l1.739-1.93c1.129 1.199 2.377 2.047 3.999 2.047 1.246 0 2.288-.525 2.288-1.608 0-.936-.839-1.316-1.998-1.782l-1.449-.614c-2.289-.964-3.709-2.016-3.709-4.18 0-2.66 2.201-4.151 5.013-4.151 2.057 0 3.737.79 4.925 2.221l-1.653 1.9c-.897-.935-2.087-1.461-3.332-1.461-1.13 0-1.943.439-1.943 1.375 0 .759.58 1.139 1.884 1.695l1.363.556c2.578 1.083 3.882 2.222 3.882 4.328 0 2.893-2.433 4.384-5.273 4.384-2.52-.002-4.518-1.172-5.736-2.78z" fill="#141446"/></g></svg>