<svg width="164" height="36" viewBox="0 0 164 36" fill="none" xmlns="http://www.w3.org/2000/svg">
<path d="M43.3478 17.9392C43.3478 14.3767 46.2134 11.6047 49.8248 11.6047C52.1418 11.6047 53.9345 12.7183 54.9814 14.4248L53.1385 15.8598C52.3408 14.7462 51.3199 14.0038 49.8507 14.0038C47.6081 14.0038 46.0144 15.736 46.0144 17.9375C46.0144 20.1887 47.6081 21.8952 49.8507 21.8952C51.2956 21.8952 52.3166 21.1786 53.1385 20.065L54.9814 21.4759C53.9103 23.1824 52.1158 24.296 49.8248 24.296C46.2134 24.2977 43.3478 21.5257 43.3478 17.9392Z" fill="#141446"/>
<path d="M57.248 18.9291V11.8781H59.8385V19.1268C59.8385 20.8333 61.0584 21.897 62.6036 21.897C64.0987 21.897 65.2944 20.8333 65.2944 19.1268V11.8781H67.9108V18.9291C67.9108 22.2201 65.5938 24.2978 62.6054 24.2978C59.5651 24.2978 57.248 22.2201 57.248 18.9291Z" fill="#141446"/>
<path d="M83.7805 17.9632C83.7805 21.5755 81.2644 24.2977 77.8019 24.2977C76.0075 24.2977 74.438 23.5811 73.5174 22.3437V24.0261H71.0758V5.4696H73.6922V13.3628C74.6145 12.2492 76.0836 11.6064 77.7777 11.6064C81.2644 11.6047 83.7805 14.3509 83.7805 17.9632ZM81.0897 17.9392C81.0897 15.5882 79.4458 13.9814 77.352 13.9814C75.5091 13.9814 73.6645 15.2187 73.6645 17.9649C73.6645 20.7352 75.5333 21.9227 77.352 21.9227C79.47 21.9227 81.0897 20.2901 81.0897 17.9392Z" fill="#141446"/>
<path d="M97.3071 18.8053H88.1896C88.5391 20.8091 90.0826 21.9966 92.1747 21.9966C93.5954 21.9966 94.7149 21.4518 95.7376 20.5616L96.9835 22.3437C95.6874 23.5553 94.0435 24.2977 92.1003 24.2977C88.3141 24.2977 85.523 21.5515 85.523 17.9632C85.523 14.4008 88.2882 11.6047 91.8511 11.6047C95.1147 11.6047 97.5061 13.9797 97.5061 17.171C97.5061 17.8395 97.3815 18.484 97.3071 18.8053ZM88.2397 16.7757H94.8914C94.8413 14.8699 93.4223 13.8062 91.7525 13.8062C90.0324 13.8079 88.6377 14.9696 88.2397 16.7757Z" fill="#141446"/>
<g opacity="0.4">
<path d="M108.483 24.6696C110.786 24.6696 112.639 23.5992 113.777 21.968L112.321 20.8721C111.368 22.0955 110.151 22.8601 108.51 22.8601C105.81 22.8601 103.824 20.7957 103.824 18.1706C103.824 15.5709 105.81 13.5065 108.51 13.5065C110.177 13.5065 111.395 14.2966 112.348 15.52L113.804 14.3986C112.665 12.7674 110.812 11.697 108.483 11.697C104.724 11.697 101.733 14.5515 101.733 18.1706C101.733 21.8151 104.724 24.6696 108.483 24.6696Z" fill="#141446"/>
<path d="M116.445 24.3893H118.483V5.27441H116.445V24.3893Z" fill="#141446"/>
<path d="M127.962 24.6441C131.747 24.6441 134.738 21.7642 134.738 18.1706C134.738 14.5515 131.747 11.697 127.988 11.697C124.203 11.697 121.238 14.526 121.238 18.1706C121.238 21.7642 124.203 24.6441 127.962 24.6441ZM127.962 22.8346C125.315 22.8346 123.329 20.8466 123.329 18.1961C123.329 15.52 125.315 13.5065 127.988 13.5065C130.635 13.5065 132.647 15.52 132.647 18.1961C132.647 20.8212 130.609 22.8346 127.962 22.8346Z" fill="#141446"/>
<path d="M142.715 24.6696C145.679 24.6696 148.035 22.6307 148.035 19.4449V11.9774H145.997V19.5723C145.997 21.6112 144.515 22.8601 142.715 22.8601C140.862 22.8601 139.38 21.6112 139.38 19.5723V11.9774H137.368V19.4449C137.368 22.6307 139.697 24.6696 142.715 24.6696Z" fill="#141446"/>
<path d="M161.762 5.27441V13.8124C160.729 12.4871 158.929 11.697 156.997 11.697C153.318 11.697 150.618 14.526 150.618 18.1961C150.618 21.8406 153.318 24.6696 156.997 24.6696C159.009 24.6696 160.862 23.8286 161.868 22.4268V24.3893H163.8V5.27441H161.762ZM157.288 22.8601C154.641 22.8601 152.709 20.8721 152.709 18.1706C152.709 15.469 154.668 13.5065 157.288 13.5065C159.512 13.5065 161.788 14.9338 161.788 18.1961C161.788 21.4583 159.512 22.8601 157.288 22.8601Z" fill="#141446"/>
</g>
<path d="M33 9.04865L18.0028 0V6.26087L33 15.2707L33 9.04865Z" fill="#FF6492"/>
<path d="M33 15.2706L28.5008 18L18 11.6757L12 15.2757L7.5 12.7459L18.0028 6.26086L33 15.2706Z" fill="#141446"/>
<path d="M12 15.2757L7.5 12.746V18L12 15.2757Z" fill="#A14474"/>
<path d="M3 26.9514L18 18L33 26.9514L18 36L3 26.9514Z" fill="#141446"/>
<path d="M33 20.7391L18 11.5784V18L33 26.9513L33 20.7391Z" fill="#FF6492"/>
<path d="M7.5 18V12.7459L18.0028 6.26087V0L3 9.04865V26.9514L18 18V11.5784L7.5 18Z" fill="#7A77FF"/>
</svg>
