<svg width="237" height="52" fill="none" xmlns="http://www.w3.org/2000/svg">
    <path d="M62.946 30.142c0-5.103 4.14-9.074 9.359-9.074 3.348 0 5.938 1.595 7.451 4.04l-2.663 2.055c-1.152-1.595-2.628-2.658-4.75-2.658-3.241 0-5.544 2.481-5.544 5.634 0 3.225 2.303 5.67 5.543 5.67 2.088 0 3.564-1.027 4.751-2.622l2.663 2.021c-1.547 2.445-4.14 4.04-7.451 4.04-5.219.002-9.36-3.968-9.36-9.106zm20.086 1.418v-10.1h3.743v10.383c0 2.445 1.763 3.968 3.995 3.968 2.16 0 3.889-1.523 3.889-3.968V21.46h3.78v10.1c0 4.714-3.348 7.69-7.666 7.69-4.393 0-7.741-2.976-7.741-7.69zm38.339-1.384c0 5.175-3.636 9.074-8.639 9.074-2.593 0-4.861-1.026-6.191-2.799v2.41h-3.528V12.28h3.78v11.306c1.333-1.595 3.456-2.515 5.904-2.515 5.038-.003 8.674 3.93 8.674 9.105zm-3.888-.034c0-3.368-2.376-5.67-5.401-5.67-2.663 0-5.329 1.773-5.329 5.707 0 3.968 2.701 5.67 5.329 5.67 3.06 0 5.401-2.34 5.401-5.707zm23.434 1.241h-13.175c.505 2.87 2.736 4.571 5.759 4.571 2.053 0 3.671-.78 5.148-2.056l1.801 2.553c-1.873 1.736-4.249 2.8-7.057 2.8-5.471 0-9.504-3.935-9.504-9.075 0-5.103 3.996-9.108 9.144-9.108 4.716 0 8.172 3.402 8.172 7.973 0 .958-.18 1.881-.288 2.342zm-13.102-2.908h9.612c-.073-2.73-2.123-4.254-4.536-4.254-2.486.003-4.501 1.667-5.076 4.254z"
          fill="currentColor"/>
    <path d="M157.067 39.783c3.327 0 6.005-1.533 7.649-3.87l-2.103-1.57c-1.377 1.753-3.137 2.848-5.508 2.848-3.902 0-6.77-2.957-6.77-6.718 0-3.724 2.868-6.68 6.77-6.68 2.41 0 4.169 1.131 5.546 2.883l2.104-1.606c-1.645-2.337-4.322-3.87-7.688-3.87-5.432 0-9.754 4.09-9.754 9.273 0 5.221 4.322 9.31 9.754 9.31zm11.504-.402h2.945V12h-2.945v27.381zm16.642.365c5.47 0 9.792-4.125 9.792-9.273 0-5.184-4.322-9.273-9.753-9.273-5.47 0-9.754 4.053-9.754 9.273 0 5.148 4.284 9.273 9.715 9.273zm0-2.592c-3.825 0-6.693-2.847-6.693-6.644 0-3.834 2.868-6.718 6.732-6.718 3.825 0 6.732 2.884 6.732 6.718 0 3.76-2.946 6.644-6.771 6.644zm21.319 2.629c4.284 0 7.688-2.92 7.688-7.484V21.602h-2.945v10.88c0 2.92-2.142 4.709-4.743 4.709-2.678 0-4.82-1.79-4.82-4.71v-10.88h-2.907V32.3c0 4.563 3.366 7.484 7.727 7.484zM234.055 12v12.23c-1.492-1.898-4.093-3.03-6.885-3.03-5.317 0-9.218 4.053-9.218 9.31 0 5.22 3.901 9.273 9.218 9.273 2.907 0 5.584-1.205 7.038-3.213v2.811H237V12h-2.945zm-6.464 25.19c-3.825 0-6.617-2.847-6.617-6.717 0-3.87 2.83-6.68 6.617-6.68 3.213 0 6.502 2.044 6.502 6.717s-3.289 6.68-6.502 6.68z"
          opacity=".4" fill="currentColor"/>
    <g clip-path="url(#clip0)">
        <path d="M38.996 51.792l12.896-7.33-12.896-7.39-12.896 7.39 12.896 7.33z"
              fill="#141446"/>
        <path d="M51.892 44.463V29.727l-12.896-7.392v14.736l12.896 7.392z" fill="#FF6492"/>
        <path d="M26.1 44.463V29.727l12.896-7.392v14.736L26.1 44.464z" fill="#7A77FF"/>
        <path d="M26.1 29.665l12.896-7.33L26.1 14.944l-12.896 7.391 12.896 7.33z"
              fill="#141446"/>
        <path d="M38.996 22.335V7.6L26.1.208v14.736l12.896 7.391z" fill="#FF6492"/>
        <path d="M13.204 22.335V7.6L26.1.208v14.736l-12.896 7.391z" fill="#7A77FF"/>
        <path d="M13.204 51.792l12.896-7.33-12.896-7.39-12.896 7.39 12.896 7.33z"
              fill="#141446"/>
        <path d="M26.1 44.463V29.727l-12.896-7.392v14.736L26.1 44.464z" fill="#FF6492"/>
        <path d="M.308 44.463V29.727l12.896-7.392v14.736L.308 44.464z" fill="#7A77FF"/>
    </g>
    <defs>
        <clipPath id="clip0">
            <path fill="#fff" transform="translate(.308 .208)" d="M0 0h51.584v51.584H0z"/>
        </clipPath>
    </defs>
</svg>
