<svg width="90" height="90" fill="none" xmlns="http://www.w3.org/2000/svg"><g clip-path="url(#clip0)"><path d="M75.783 7.3l.095 52.042-11.85 6.92-.19-52.138L75.784 7.3z" fill="#C0C0EA"/><path d="M64.029 66.263l-12.513-7.3-.19-52.043 12.513 7.205.19 52.138z" fill="#E5E5F6"/><path d="M63.84 14.124L51.325 6.92 63.27 0l12.514 7.3-11.945 6.824z" fill="#fff"/><path opacity=".2" d="M75.783 7.3l.095 52.042-11.85 6.92-.19-52.138L75.784 7.3z" fill="#C0C0EA"/><path d="M56.426 47.891l.095 23.415-11.944 6.92-.095-23.51 11.944-6.825z" fill="#C0C0EA"/><path d="M44.577 78.226l-12.514-7.204v-23.51l12.419 7.205.095 23.509z" fill="#E5E5F6"/><path d="M44.482 54.716l-12.419-7.204 11.945-6.92 12.418 7.3-11.944 6.824z" fill="#fff"/><path d="M36.49 43.455l.096 39.624L24.64 90l-.095-39.72 11.945-6.825z" fill="#C0C0EA"/><path d="M24.641 90l-12.418-7.3-.095-39.624 12.418 7.204.095 39.72z" fill="#E5E5F6"/><path d="M24.546 50.28l-12.418-7.205 11.944-6.92 12.419 7.3-11.945 6.825z" fill="#fff"/></g><defs><clipPath id="clip0"><path fill="#fff" d="M0 0h90v90H0z"/></clipPath></defs></svg>