<svg width="90" height="90" fill="none" xmlns="http://www.w3.org/2000/svg"><path d="M78 49.771l-.104 10.505c0 4.87-3.186 9.74-9.557 13.461-12.812 7.479-33.693 7.479-46.574 0C15.22 69.981 12 65.042 12 60.102l.104-10.505c0 4.94 3.22 9.88 9.73 13.636 12.916 7.478 33.762 7.478 46.574 0C74.78 59.51 77.965 54.64 78 49.77z" fill="url(#paint0_linear)"/><path d="M78 49.772l-.104 10.504c0 3.827-2.008 7.687-5.956 10.957l.104-10.505c3.948-3.27 5.922-7.13 5.956-10.956z" fill="url(#paint1_linear)"/><path d="M72.044 60.728l-.104 10.505c-.589.487-1.178.94-1.87 1.391l.104-10.504c.658-.453 1.28-.94 1.87-1.392z" fill="url(#paint2_linear)"/><path d="M70.174 62.12l-.104 10.505c-.52.347-1.039.695-1.593 1.008l.104-10.504c.554-.348 1.108-.661 1.593-1.01z" fill="url(#paint3_linear)"/><path d="M68.581 63.128l-.104 10.505c-.069.035-.104.07-.173.104-.415.244-.866.487-1.316.73l.104-10.504c.45-.244.9-.487 1.316-.73.07-.035.104-.07.173-.105z" fill="url(#paint4_linear)"/><path d="M67.092 63.963l-.104 10.505c-.45.244-.935.487-1.42.696l.104-10.505c.485-.243.97-.452 1.42-.696z" fill="url(#paint5_linear)"/><path d="M65.672 64.66l-.104 10.504c-.45.209-.9.417-1.385.626l.104-10.505c.485-.209.935-.417 1.385-.626z" fill="url(#paint6_linear)"/><path d="M64.287 65.25l-.104 10.505c-.45.174-.865.348-1.315.522l.104-10.505c.45-.14.9-.313 1.315-.522z" fill="url(#paint7_linear)"/><path d="M62.971 65.772l-.103 10.504c-.45.174-.9.314-1.316.487l.104-10.504c.45-.14.865-.313 1.316-.487z" fill="url(#paint8_linear)"/><path d="M61.656 66.259l-.104 10.505c-.45.139-.865.278-1.316.417l.104-10.505c.416-.139.866-.278 1.316-.417z" fill="url(#paint9_linear)"/><path d="M60.305 66.676l-.103 10.505c-.45.14-.9.243-1.35.383l.103-10.505c.485-.105.935-.244 1.35-.383z" fill="url(#paint10_linear)"/><path d="M58.99 67.059l-.104 10.505c-.45.104-.9.243-1.35.347l.103-10.504c.45-.105.9-.209 1.35-.348z" fill="url(#paint11_linear)"/><path d="M57.639 67.407l-.104 10.505c-.45.104-.9.209-1.385.313l.104-10.505c.485-.104.935-.209 1.385-.313z" fill="url(#paint12_linear)"/><path d="M56.254 67.72l-.104 10.505c-.45.104-.935.174-1.385.278l.103-10.505c.45-.104.935-.174 1.386-.278z" fill="url(#paint13_linear)"/><path d="M54.868 67.998l-.104 10.504c-.484.07-.97.175-1.42.244l.105-10.505c.45-.104.935-.174 1.42-.243z" fill="url(#paint14_linear)"/><path d="M53.414 68.207l-.104 10.505c-.485.07-.97.139-1.489.208l.104-10.505c.52-.034 1.004-.104 1.49-.208z" fill="url(#paint15_linear)"/><path d="M51.96 68.416l-.104 10.504c-.485.07-1.004.105-1.523.174l.103-10.504c.52-.035 1.005-.105 1.524-.174z" fill="url(#paint16_linear)"/><path d="M50.437 68.59l-.104 10.504c-.52.035-1.04.105-1.559.14l.104-10.505c.52-.035 1.04-.105 1.559-.14z" fill="url(#paint17_linear)"/><path d="M48.878 68.728l-.103 10.505c-.52.035-1.074.07-1.628.07l.104-10.505c.554-.035 1.108-.035 1.627-.07z" fill="url(#paint18_linear)"/><path d="M47.285 68.798l-.104 10.505c-.554.035-1.143.035-1.697.035l.104-10.505c.554 0 1.108 0 1.697-.035z" fill="url(#paint19_linear)"/><path d="M45.589 68.833l-.104 10.505h-1.836l.104-10.505h1.836z" fill="url(#paint20_linear)"/><path d="M43.753 68.833l-.104 10.505c-.693 0-1.385-.035-2.043-.105l.104-10.505c.658.035 1.35.07 2.043.105z" fill="url(#paint21_linear)"/><path d="M41.676 68.729l-.104 10.504c-.866-.07-1.766-.139-2.632-.208l.104-10.505c.9.07 1.766.139 2.632.209z" fill="url(#paint22_linear)"/><path d="M39.044 68.52l-.104 10.505c-3.81-.418-7.514-1.218-10.942-2.435l.103-10.505a50.629 50.629 0 0010.943 2.435z" fill="url(#paint23_linear)"/><path d="M28.136 66.085l-.104 10.505c-.97-.348-1.904-.696-2.805-1.113l.104-10.505c.9.417 1.836.765 2.805 1.113z" fill="url(#paint24_linear)"/><path d="M25.297 64.972l-.104 10.505a55.704 55.704 0 01-2.078-.974l.104-10.505c.693.348 1.385.66 2.078.974z" fill="url(#paint25_linear)"/><path d="M23.253 63.998l-.104 10.505c-.484-.244-.97-.522-1.42-.765-.069-.035-.172-.105-.242-.14l.104-10.504c.07.035.173.104.243.139.45.243.934.522 1.42.765z" fill="url(#paint26_linear)"/><path d="M21.592 63.094l-.104 10.504a12.903 12.903 0 01-1.35-.87l.103-10.504c.416.278.866.557 1.35.87z" fill="url(#paint27_linear)"/><path d="M20.206 62.224l-.103 10.505c-.381-.278-.797-.522-1.143-.8l.104-10.505c.38.278.762.522 1.142.8z" fill="url(#paint28_linear)"/><path d="M19.064 61.424L18.96 71.93c-.347-.278-.693-.522-1.004-.8l.103-10.505c.312.243.658.522 1.005.8z" fill="url(#paint29_linear)"/><path d="M18.06 60.624l-.104 10.505c-.312-.244-.589-.522-.9-.766l.104-10.504c.311.243.588.487.9.765z" fill="url(#paint30_linear)"/><path d="M17.16 59.824l-.104 10.505a17.288 17.288 0 01-.797-.766l.104-10.504c.277.278.52.521.797.765z" fill="url(#paint31_linear)"/><path d="M16.363 59.059l-.104 10.504c-.242-.243-.485-.522-.727-.765l.104-10.505c.242.244.484.522.727.766z" fill="url(#paint32_linear)"/><path d="M15.671 58.293l-.104 10.505c-.208-.243-.45-.522-.623-.765l.104-10.505c.173.244.38.487.623.765z" fill="url(#paint33_linear)"/><path d="M15.013 57.493l-.104 10.505c-.208-.278-.38-.522-.589-.8l.104-10.505c.208.279.381.557.589.8z" fill="url(#paint34_linear)"/><path d="M14.459 56.728l-.104 10.505c-.173-.279-.346-.522-.52-.8l.104-10.505c.139.243.312.522.52.8z" fill="url(#paint35_linear)"/><path d="M13.94 55.928l-.105 10.505a9.849 9.849 0 01-.45-.835l.104-10.505c.139.278.277.557.45.835z" fill="url(#paint36_linear)"/><path d="M13.454 55.093l-.104 10.505c-.138-.278-.277-.556-.415-.87l.104-10.504c.138.278.277.591.415.87z" fill="url(#paint37_linear)"/><path d="M13.074 54.224l-.104 10.504a9.678 9.678 0 01-.347-.904l.104-10.505c.104.313.208.626.347.904z" fill="url(#paint38_linear)"/><path d="M12.727 53.32l-.104 10.504a9.607 9.607 0 01-.277-.94l.104-10.47c.07.314.173.592.277.905z" fill="url(#paint39_linear)"/><path d="M12.45 52.415l-.104 10.505c-.07-.348-.139-.661-.208-1.01l.104-10.504c.07.313.139.661.208 1.009z" fill="url(#paint40_linear)"/><path d="M12.242 51.406l-.104 10.505c-.069-.348-.103-.73-.138-1.078l.139-10.505c0 .348.034.696.103 1.078z" fill="url(#paint41_linear)"/><path d="M12.139 50.328l-.104 10.505c0-.244-.035-.487-.035-.73l.104-10.506c0 .21 0 .453.035.73z" fill="url(#paint42_linear)"/><path d="M68.201 36.101c12.917 7.479 12.986 19.618.139 27.097-12.812 7.479-33.693 7.479-46.574 0S8.816 43.615 21.628 36.1c12.812-7.513 33.692-7.478 46.573 0z" fill="url(#paint43_linear)"/><path d="M78 27.292l-.104 10.505c0 4.87-3.186 9.74-9.557 13.461-12.812 7.479-33.693 7.479-46.574 0C15.22 47.502 12 42.562 12 37.623l.104-10.505c0 4.94 3.22 9.879 9.73 13.636 12.916 7.478 33.762 7.478 46.574 0 6.372-3.722 9.557-8.592 9.592-13.462z" fill="url(#paint44_linear)"/><path d="M78 27.292l-.104 10.505c0 3.826-2.008 7.687-5.956 10.957l.104-10.505c3.948-3.27 5.922-7.13 5.956-10.957z" fill="url(#paint45_linear)"/><path d="M72.044 38.249l-.104 10.505a20.16 20.16 0 01-1.87 1.391l.104-10.505c.658-.452 1.28-.939 1.87-1.391z" fill="url(#paint46_linear)"/><path d="M70.174 39.64l-.104 10.505c-.52.348-1.039.696-1.593 1.009l.104-10.505c.554-.348 1.108-.66 1.593-1.009z" fill="url(#paint47_linear)"/><path d="M68.581 40.649l-.104 10.505c-.069.034-.104.07-.173.104-.415.243-.866.487-1.316.73l.104-10.504c.45-.244.9-.487 1.316-.73.07-.036.104-.07.173-.105z" fill="url(#paint48_linear)"/><path d="M67.092 41.484l-.104 10.505c-.45.243-.935.487-1.42.696l.104-10.505c.485-.244.97-.452 1.42-.696z" fill="url(#paint49_linear)"/><path d="M65.672 42.18l-.104 10.504c-.45.209-.9.418-1.385.626l.104-10.504c.485-.209.935-.418 1.385-.626z" fill="url(#paint50_linear)"/><path d="M64.287 42.77l-.104 10.505c-.45.174-.865.348-1.315.522l.104-10.505c.45-.139.9-.313 1.315-.521z" fill="url(#paint51_linear)"/><path d="M62.971 43.292l-.103 10.505c-.45.174-.9.313-1.316.487l.104-10.505c.45-.139.865-.313 1.316-.487z" fill="url(#paint52_linear)"/><path d="M61.656 43.78l-.104 10.504c-.45.14-.865.279-1.316.418l.104-10.505c.416-.14.866-.278 1.316-.417z" fill="url(#paint53_linear)"/><path d="M60.305 44.197l-.103 10.505c-.45.139-.9.243-1.35.382l.103-10.504a12.52 12.52 0 001.35-.383z" fill="url(#paint54_linear)"/><path d="M58.99 44.58l-.104 10.504c-.45.105-.9.244-1.35.348l.103-10.505c.45-.104.9-.208 1.35-.347z" fill="url(#paint55_linear)"/><path d="M57.639 44.928l-.104 10.504c-.45.105-.9.21-1.385.313l.104-10.504c.485-.105.935-.209 1.385-.313z" fill="url(#paint56_linear)"/><path d="M56.254 45.24l-.104 10.505c-.45.105-.935.174-1.385.279l.103-10.505c.45-.105.935-.174 1.386-.279z" fill="url(#paint57_linear)"/><path d="M54.868 45.519l-.104 10.504c-.484.07-.97.174-1.42.244l.105-10.505c.45-.104.935-.174 1.42-.243z" fill="url(#paint58_linear)"/><path d="M53.414 45.727l-.104 10.505c-.485.07-.97.14-1.489.209l.104-10.505a10.22 10.22 0 001.49-.209z" fill="url(#paint59_linear)"/><path d="M51.96 45.936l-.104 10.505c-.485.07-1.004.104-1.523.174l.103-10.505c.52-.035 1.005-.104 1.524-.174z" fill="url(#paint60_linear)"/><path d="M50.437 46.11l-.104 10.505c-.52.035-1.04.104-1.559.14l.104-10.506c.52-.034 1.04-.104 1.559-.139z" fill="url(#paint61_linear)"/><path d="M48.878 46.25l-.103 10.504c-.52.035-1.074.07-1.628.07l.104-10.505c.554-.035 1.108-.035 1.627-.07z" fill="url(#paint62_linear)"/><path d="M47.285 46.319l-.104 10.505c-.554.034-1.143.034-1.697.034l.104-10.505c.554 0 1.108 0 1.697-.034z" fill="url(#paint63_linear)"/><path d="M45.589 46.354l-.104 10.505h-1.836l.104-10.505h1.836z" fill="url(#paint64_linear)"/><path d="M43.753 46.353l-.104 10.505a19.58 19.58 0 01-2.043-.104l.104-10.505c.658.035 1.35.07 2.043.104z" fill="url(#paint65_linear)"/><path d="M41.676 46.25l-.104 10.504c-.866-.07-1.766-.14-2.632-.209l.104-10.505c.9.07 1.766.14 2.632.21z" fill="url(#paint66_linear)"/><path d="M39.044 46.04l-.104 10.505c-3.81-.417-7.514-1.217-10.942-2.435l.103-10.504a50.635 50.635 0 0010.943 2.434z" fill="url(#paint67_linear)"/><path d="M28.136 43.605l-.104 10.505c-.97-.348-1.904-.696-2.805-1.113l.104-10.505c.9.418 1.836.766 2.805 1.113z" fill="url(#paint68_linear)"/><path d="M25.297 42.492l-.104 10.505a55.4 55.4 0 01-2.078-.974l.104-10.504c.693.347 1.385.66 2.078.974z" fill="url(#paint69_linear)"/><path d="M23.253 41.519l-.104 10.504c-.484-.243-.97-.521-1.42-.765-.069-.035-.172-.104-.242-.139l.104-10.505c.07.035.173.105.243.14.45.243.934.521 1.42.765z" fill="url(#paint70_linear)"/><path d="M21.592 40.614l-.104 10.505a12.887 12.887 0 01-1.35-.87l.103-10.504c.416.278.866.556 1.35.87z" fill="url(#paint71_linear)"/><path d="M20.206 39.745l-.103 10.505c-.381-.279-.797-.522-1.143-.8l.104-10.505c.38.278.762.522 1.142.8z" fill="url(#paint72_linear)"/><path d="M19.064 38.945L18.96 49.45c-.347-.279-.693-.522-1.004-.8l.103-10.505c.312.243.658.521 1.005.8z" fill="url(#paint73_linear)"/><path d="M18.06 38.145l-.104 10.504c-.312-.243-.589-.521-.9-.765l.104-10.505c.311.244.588.487.9.766z" fill="url(#paint74_linear)"/><path d="M17.16 37.345l-.104 10.504a16.765 16.765 0 01-.797-.765l.104-10.505c.277.279.52.522.797.766z" fill="url(#paint75_linear)"/><path d="M16.363 36.58l-.104 10.504c-.242-.244-.485-.522-.727-.765l.104-10.505c.242.243.484.522.727.765z" fill="url(#paint76_linear)"/><path d="M15.671 35.814l-.104 10.505c-.208-.243-.45-.522-.623-.765l.104-10.505c.173.244.38.487.623.765z" fill="url(#paint77_linear)"/><path d="M15.013 35.014l-.104 10.505c-.208-.279-.38-.522-.589-.8l.104-10.505c.208.278.381.556.589.8z" fill="url(#paint78_linear)"/><path d="M14.459 34.249l-.104 10.504c-.173-.278-.346-.521-.52-.8l.104-10.504c.139.243.312.521.52.8z" fill="url(#paint79_linear)"/><path d="M13.94 33.449l-.105 10.504a9.85 9.85 0 01-.45-.835l.104-10.504c.139.278.277.556.45.835z" fill="url(#paint80_linear)"/><path d="M13.454 32.614l-.104 10.505a20.568 20.568 0 01-.415-.87l.104-10.505c.138.279.277.592.415.87z" fill="url(#paint81_linear)"/><path d="M13.074 31.744l-.104 10.54a9.67 9.67 0 01-.347-.904l.104-10.505c.104.278.208.591.347.87z" fill="url(#paint82_linear)"/><path d="M12.727 30.84l-.104 10.54c-.104-.314-.208-.627-.277-.94l.104-10.504c.07.313.173.591.277.904z" fill="url(#paint83_linear)"/><path d="M12.45 29.936l-.104 10.504c-.07-.347-.139-.66-.208-1.008l.104-10.505c.07.313.139.66.208 1.009z" fill="url(#paint84_linear)"/><path d="M12.242 28.927l-.104 10.505c-.069-.348-.103-.73-.138-1.079l.139-10.504c0 .348.034.695.103 1.078z" fill="url(#paint85_linear)"/><path d="M12.139 27.849l-.104 10.504C12 38.11 12 37.866 12 37.623l.104-10.505c0 .209 0 .452.035.73z" fill="url(#paint86_linear)"/><path d="M68.201 13.622c12.917 7.479 12.986 19.618.139 27.097-12.847 7.478-33.693 7.478-46.574 0-12.881-7.479-12.95-19.584-.138-27.097 12.812-7.513 33.692-7.479 46.573 0z" fill="#fff"/><defs><linearGradient id="paint0_linear" x1="8.739" y1="64.463" x2="79.97" y2="64.463" gradientUnits="userSpaceOnUse"><stop stop-color="#E5E5F6"/><stop offset="1" stop-color="#C0C0EA"/></linearGradient><linearGradient id="paint1_linear" x1="8.739" y1="60.497" x2="79.97" y2="60.497" gradientUnits="userSpaceOnUse"><stop stop-color="#E5E5F6"/><stop offset="1" stop-color="#C0C0EA"/></linearGradient><linearGradient id="paint2_linear" x1="8.739" y1="66.669" x2="79.969" y2="66.669" gradientUnits="userSpaceOnUse"><stop stop-color="#E5E5F6"/><stop offset="1" stop-color="#C0C0EA"/></linearGradient><linearGradient id="paint3_linear" x1="8.739" y1="67.874" x2="79.97" y2="67.874" gradientUnits="userSpaceOnUse"><stop stop-color="#E5E5F6"/><stop offset="1" stop-color="#C0C0EA"/></linearGradient><linearGradient id="paint4_linear" x1="8.739" y1="68.794" x2="79.97" y2="68.794" gradientUnits="userSpaceOnUse"><stop stop-color="#E5E5F6"/><stop offset="1" stop-color="#C0C0EA"/></linearGradient><linearGradient id="paint5_linear" x1="8.738" y1="69.557" x2="79.97" y2="69.557" gradientUnits="userSpaceOnUse"><stop stop-color="#E5E5F6"/><stop offset="1" stop-color="#C0C0EA"/></linearGradient><linearGradient id="paint6_linear" x1="8.738" y1="70.214" x2="79.97" y2="70.214" gradientUnits="userSpaceOnUse"><stop stop-color="#E5E5F6"/><stop offset="1" stop-color="#C0C0EA"/></linearGradient><linearGradient id="paint7_linear" x1="8.739" y1="70.783" x2="79.97" y2="70.783" gradientUnits="userSpaceOnUse"><stop stop-color="#E5E5F6"/><stop offset="1" stop-color="#C0C0EA"/></linearGradient><linearGradient id="paint8_linear" x1="8.739" y1="71.283" x2="79.97" y2="71.283" gradientUnits="userSpaceOnUse"><stop stop-color="#E5E5F6"/><stop offset="1" stop-color="#C0C0EA"/></linearGradient><linearGradient id="paint9_linear" x1="8.74" y1="71.733" x2="79.97" y2="71.733" gradientUnits="userSpaceOnUse"><stop stop-color="#E5E5F6"/><stop offset="1" stop-color="#C0C0EA"/></linearGradient><linearGradient id="paint10_linear" x1="8.74" y1="72.135" x2="79.97" y2="72.135" gradientUnits="userSpaceOnUse"><stop stop-color="#E5E5F6"/><stop offset="1" stop-color="#C0C0EA"/></linearGradient><linearGradient id="paint11_linear" x1="8.74" y1="72.497" x2="79.97" y2="72.497" gradientUnits="userSpaceOnUse"><stop stop-color="#E5E5F6"/><stop offset="1" stop-color="#C0C0EA"/></linearGradient><linearGradient id="paint12_linear" x1="8.739" y1="72.822" x2="79.97" y2="72.822" gradientUnits="userSpaceOnUse"><stop stop-color="#E5E5F6"/><stop offset="1" stop-color="#C0C0EA"/></linearGradient><linearGradient id="paint13_linear" x1="8.738" y1="73.109" x2="79.97" y2="73.109" gradientUnits="userSpaceOnUse"><stop stop-color="#E5E5F6"/><stop offset="1" stop-color="#C0C0EA"/></linearGradient><linearGradient id="paint14_linear" x1="8.738" y1="73.362" x2="79.97" y2="73.362" gradientUnits="userSpaceOnUse"><stop stop-color="#E5E5F6"/><stop offset="1" stop-color="#C0C0EA"/></linearGradient><linearGradient id="paint15_linear" x1="8.738" y1="73.582" x2="79.97" y2="73.582" gradientUnits="userSpaceOnUse"><stop stop-color="#E5E5F6"/><stop offset="1" stop-color="#C0C0EA"/></linearGradient><linearGradient id="paint16_linear" x1="8.739" y1="73.764" x2="79.97" y2="73.764" gradientUnits="userSpaceOnUse"><stop stop-color="#E5E5F6"/><stop offset="1" stop-color="#C0C0EA"/></linearGradient><linearGradient id="paint17_linear" x1="8.739" y1="73.908" x2="79.97" y2="73.908" gradientUnits="userSpaceOnUse"><stop stop-color="#E5E5F6"/><stop offset="1" stop-color="#C0C0EA"/></linearGradient><linearGradient id="paint18_linear" x1="8.739" y1="74.012" x2="79.97" y2="74.012" gradientUnits="userSpaceOnUse"><stop stop-color="#E5E5F6"/><stop offset="1" stop-color="#C0C0EA"/></linearGradient><linearGradient id="paint19_linear" x1="8.739" y1="74.073" x2="79.97" y2="74.073" gradientUnits="userSpaceOnUse"><stop stop-color="#E5E5F6"/><stop offset="1" stop-color="#C0C0EA"/></linearGradient><linearGradient id="paint20_linear" x1="8.739" y1="74.085" x2="79.97" y2="74.085" gradientUnits="userSpaceOnUse"><stop stop-color="#E5E5F6"/><stop offset="1" stop-color="#C0C0EA"/></linearGradient><linearGradient id="paint21_linear" x1="8.739" y1="74.032" x2="79.969" y2="74.032" gradientUnits="userSpaceOnUse"><stop stop-color="#E5E5F6"/><stop offset="1" stop-color="#C0C0EA"/></linearGradient><linearGradient id="paint22_linear" x1="8.739" y1="73.876" x2="79.97" y2="73.876" gradientUnits="userSpaceOnUse"><stop stop-color="#E5E5F6"/><stop offset="1" stop-color="#C0C0EA"/></linearGradient><linearGradient id="paint23_linear" x1="8.739" y1="72.553" x2="79.97" y2="72.553" gradientUnits="userSpaceOnUse"><stop stop-color="#E5E5F6"/><stop offset="1" stop-color="#C0C0EA"/></linearGradient><linearGradient id="paint24_linear" x1="8.739" y1="70.791" x2="79.97" y2="70.791" gradientUnits="userSpaceOnUse"><stop stop-color="#E5E5F6"/><stop offset="1" stop-color="#C0C0EA"/></linearGradient><linearGradient id="paint25_linear" x1="8.739" y1="69.747" x2="79.97" y2="69.747" gradientUnits="userSpaceOnUse"><stop stop-color="#E5E5F6"/><stop offset="1" stop-color="#C0C0EA"/></linearGradient><linearGradient id="paint26_linear" x1="8.738" y1="68.795" x2="79.969" y2="68.795" gradientUnits="userSpaceOnUse"><stop stop-color="#E5E5F6"/><stop offset="1" stop-color="#C0C0EA"/></linearGradient><linearGradient id="paint27_linear" x1="8.739" y1="67.907" x2="79.97" y2="67.907" gradientUnits="userSpaceOnUse"><stop stop-color="#E5E5F6"/><stop offset="1" stop-color="#C0C0EA"/></linearGradient><linearGradient id="paint28_linear" x1="8.739" y1="67.075" x2="79.97" y2="67.075" gradientUnits="userSpaceOnUse"><stop stop-color="#E5E5F6"/><stop offset="1" stop-color="#C0C0EA"/></linearGradient><linearGradient id="paint29_linear" x1="8.739" y1="66.271" x2="79.97" y2="66.271" gradientUnits="userSpaceOnUse"><stop stop-color="#E5E5F6"/><stop offset="1" stop-color="#C0C0EA"/></linearGradient><linearGradient id="paint30_linear" x1="8.739" y1="65.482" x2="79.97" y2="65.482" gradientUnits="userSpaceOnUse"><stop stop-color="#E5E5F6"/><stop offset="1" stop-color="#C0C0EA"/></linearGradient><linearGradient id="paint31_linear" x1="8.739" y1="64.708" x2="79.97" y2="64.708" gradientUnits="userSpaceOnUse"><stop stop-color="#E5E5F6"/><stop offset="1" stop-color="#C0C0EA"/></linearGradient><linearGradient id="paint32_linear" x1="8.739" y1="63.933" x2="79.97" y2="63.933" gradientUnits="userSpaceOnUse"><stop stop-color="#E5E5F6"/><stop offset="1" stop-color="#C0C0EA"/></linearGradient><linearGradient id="paint33_linear" x1="8.74" y1="63.157" x2="79.971" y2="63.157" gradientUnits="userSpaceOnUse"><stop stop-color="#E5E5F6"/><stop offset="1" stop-color="#C0C0EA"/></linearGradient><linearGradient id="paint34_linear" x1="8.739" y1="62.373" x2="79.97" y2="62.373" gradientUnits="userSpaceOnUse"><stop stop-color="#E5E5F6"/><stop offset="1" stop-color="#C0C0EA"/></linearGradient><linearGradient id="paint35_linear" x1="8.739" y1="61.574" x2="79.97" y2="61.574" gradientUnits="userSpaceOnUse"><stop stop-color="#E5E5F6"/><stop offset="1" stop-color="#C0C0EA"/></linearGradient><linearGradient id="paint36_linear" x1="8.739" y1="60.756" x2="79.97" y2="60.756" gradientUnits="userSpaceOnUse"><stop stop-color="#E5E5F6"/><stop offset="1" stop-color="#C0C0EA"/></linearGradient><linearGradient id="paint37_linear" x1="8.739" y1="59.915" x2="79.97" y2="59.915" gradientUnits="userSpaceOnUse"><stop stop-color="#E5E5F6"/><stop offset="1" stop-color="#C0C0EA"/></linearGradient><linearGradient id="paint38_linear" x1="8.739" y1="59.039" x2="79.97" y2="59.039" gradientUnits="userSpaceOnUse"><stop stop-color="#E5E5F6"/><stop offset="1" stop-color="#C0C0EA"/></linearGradient><linearGradient id="paint39_linear" x1="8.739" y1="58.124" x2="79.97" y2="58.124" gradientUnits="userSpaceOnUse"><stop stop-color="#E5E5F6"/><stop offset="1" stop-color="#C0C0EA"/></linearGradient><linearGradient id="paint40_linear" x1="8.739" y1="57.158" x2="79.97" y2="57.158" gradientUnits="userSpaceOnUse"><stop stop-color="#E5E5F6"/><stop offset="1" stop-color="#C0C0EA"/></linearGradient><linearGradient id="paint41_linear" x1="8.739" y1="56.114" x2="79.97" y2="56.114" gradientUnits="userSpaceOnUse"><stop stop-color="#E5E5F6"/><stop offset="1" stop-color="#C0C0EA"/></linearGradient><linearGradient id="paint42_linear" x1="8.739" y1="55.2" x2="79.97" y2="55.2" gradientUnits="userSpaceOnUse"><stop stop-color="#E5E5F6"/><stop offset="1" stop-color="#C0C0EA"/></linearGradient><linearGradient id="paint43_linear" x1="16.356" y1="32.12" x2="67.705" y2="63.301" gradientUnits="userSpaceOnUse"><stop stop-color="#F3F3FB"/><stop offset="1" stop-color="#fff"/></linearGradient><linearGradient id="paint44_linear" x1="8.739" y1="41.983" x2="79.97" y2="41.983" gradientUnits="userSpaceOnUse"><stop stop-color="#E5E5F6"/><stop offset="1" stop-color="#C0C0EA"/></linearGradient><linearGradient id="paint45_linear" x1="8.739" y1="38.018" x2="79.97" y2="38.018" gradientUnits="userSpaceOnUse"><stop stop-color="#E5E5F6"/><stop offset="1" stop-color="#C0C0EA"/></linearGradient><linearGradient id="paint46_linear" x1="8.739" y1="44.189" x2="79.969" y2="44.189" gradientUnits="userSpaceOnUse"><stop stop-color="#E5E5F6"/><stop offset="1" stop-color="#C0C0EA"/></linearGradient><linearGradient id="paint47_linear" x1="8.739" y1="45.394" x2="79.97" y2="45.394" gradientUnits="userSpaceOnUse"><stop stop-color="#E5E5F6"/><stop offset="1" stop-color="#C0C0EA"/></linearGradient><linearGradient id="paint48_linear" x1="8.739" y1="46.314" x2="79.97" y2="46.314" gradientUnits="userSpaceOnUse"><stop stop-color="#E5E5F6"/><stop offset="1" stop-color="#C0C0EA"/></linearGradient><linearGradient id="paint49_linear" x1="8.738" y1="47.077" x2="79.97" y2="47.077" gradientUnits="userSpaceOnUse"><stop stop-color="#E5E5F6"/><stop offset="1" stop-color="#C0C0EA"/></linearGradient><linearGradient id="paint50_linear" x1="8.738" y1="47.735" x2="79.97" y2="47.735" gradientUnits="userSpaceOnUse"><stop stop-color="#E5E5F6"/><stop offset="1" stop-color="#C0C0EA"/></linearGradient><linearGradient id="paint51_linear" x1="8.739" y1="48.304" x2="79.97" y2="48.304" gradientUnits="userSpaceOnUse"><stop stop-color="#E5E5F6"/><stop offset="1" stop-color="#C0C0EA"/></linearGradient><linearGradient id="paint52_linear" x1="8.739" y1="48.804" x2="79.97" y2="48.804" gradientUnits="userSpaceOnUse"><stop stop-color="#E5E5F6"/><stop offset="1" stop-color="#C0C0EA"/></linearGradient><linearGradient id="paint53_linear" x1="8.74" y1="49.254" x2="79.97" y2="49.254" gradientUnits="userSpaceOnUse"><stop stop-color="#E5E5F6"/><stop offset="1" stop-color="#C0C0EA"/></linearGradient><linearGradient id="paint54_linear" x1="8.74" y1="49.656" x2="79.97" y2="49.656" gradientUnits="userSpaceOnUse"><stop stop-color="#E5E5F6"/><stop offset="1" stop-color="#C0C0EA"/></linearGradient><linearGradient id="paint55_linear" x1="8.74" y1="50.018" x2="79.97" y2="50.018" gradientUnits="userSpaceOnUse"><stop stop-color="#E5E5F6"/><stop offset="1" stop-color="#C0C0EA"/></linearGradient><linearGradient id="paint56_linear" x1="8.739" y1="50.342" x2="79.97" y2="50.342" gradientUnits="userSpaceOnUse"><stop stop-color="#E5E5F6"/><stop offset="1" stop-color="#C0C0EA"/></linearGradient><linearGradient id="paint57_linear" x1="8.738" y1="50.63" x2="79.97" y2="50.63" gradientUnits="userSpaceOnUse"><stop stop-color="#E5E5F6"/><stop offset="1" stop-color="#C0C0EA"/></linearGradient><linearGradient id="paint58_linear" x1="8.738" y1="50.883" x2="79.97" y2="50.883" gradientUnits="userSpaceOnUse"><stop stop-color="#E5E5F6"/><stop offset="1" stop-color="#C0C0EA"/></linearGradient><linearGradient id="paint59_linear" x1="8.738" y1="51.102" x2="79.97" y2="51.102" gradientUnits="userSpaceOnUse"><stop stop-color="#E5E5F6"/><stop offset="1" stop-color="#C0C0EA"/></linearGradient><linearGradient id="paint60_linear" x1="8.739" y1="51.285" x2="79.97" y2="51.285" gradientUnits="userSpaceOnUse"><stop stop-color="#E5E5F6"/><stop offset="1" stop-color="#C0C0EA"/></linearGradient><linearGradient id="paint61_linear" x1="8.739" y1="51.429" x2="79.97" y2="51.429" gradientUnits="userSpaceOnUse"><stop stop-color="#E5E5F6"/><stop offset="1" stop-color="#C0C0EA"/></linearGradient><linearGradient id="paint62_linear" x1="8.739" y1="51.533" x2="79.97" y2="51.533" gradientUnits="userSpaceOnUse"><stop stop-color="#E5E5F6"/><stop offset="1" stop-color="#C0C0EA"/></linearGradient><linearGradient id="paint63_linear" x1="8.739" y1="51.593" x2="79.97" y2="51.593" gradientUnits="userSpaceOnUse"><stop stop-color="#E5E5F6"/><stop offset="1" stop-color="#C0C0EA"/></linearGradient><linearGradient id="paint64_linear" x1="8.739" y1="51.606" x2="79.97" y2="51.606" gradientUnits="userSpaceOnUse"><stop stop-color="#E5E5F6"/><stop offset="1" stop-color="#C0C0EA"/></linearGradient><linearGradient id="paint65_linear" x1="8.739" y1="51.552" x2="79.969" y2="51.552" gradientUnits="userSpaceOnUse"><stop stop-color="#E5E5F6"/><stop offset="1" stop-color="#C0C0EA"/></linearGradient><linearGradient id="paint66_linear" x1="8.739" y1="51.396" x2="79.97" y2="51.396" gradientUnits="userSpaceOnUse"><stop stop-color="#E5E5F6"/><stop offset="1" stop-color="#C0C0EA"/></linearGradient><linearGradient id="paint67_linear" x1="8.739" y1="50.074" x2="79.97" y2="50.074" gradientUnits="userSpaceOnUse"><stop stop-color="#E5E5F6"/><stop offset="1" stop-color="#C0C0EA"/></linearGradient><linearGradient id="paint68_linear" x1="8.739" y1="48.312" x2="79.97" y2="48.312" gradientUnits="userSpaceOnUse"><stop stop-color="#E5E5F6"/><stop offset="1" stop-color="#C0C0EA"/></linearGradient><linearGradient id="paint69_linear" x1="8.739" y1="47.267" x2="79.97" y2="47.267" gradientUnits="userSpaceOnUse"><stop stop-color="#E5E5F6"/><stop offset="1" stop-color="#C0C0EA"/></linearGradient><linearGradient id="paint70_linear" x1="8.738" y1="46.315" x2="79.969" y2="46.315" gradientUnits="userSpaceOnUse"><stop stop-color="#E5E5F6"/><stop offset="1" stop-color="#C0C0EA"/></linearGradient><linearGradient id="paint71_linear" x1="8.739" y1="45.428" x2="79.97" y2="45.428" gradientUnits="userSpaceOnUse"><stop stop-color="#E5E5F6"/><stop offset="1" stop-color="#C0C0EA"/></linearGradient><linearGradient id="paint72_linear" x1="8.739" y1="44.596" x2="79.97" y2="44.596" gradientUnits="userSpaceOnUse"><stop stop-color="#E5E5F6"/><stop offset="1" stop-color="#C0C0EA"/></linearGradient><linearGradient id="paint73_linear" x1="8.739" y1="43.791" x2="79.97" y2="43.791" gradientUnits="userSpaceOnUse"><stop stop-color="#E5E5F6"/><stop offset="1" stop-color="#C0C0EA"/></linearGradient><linearGradient id="paint74_linear" x1="8.739" y1="43.003" x2="79.97" y2="43.003" gradientUnits="userSpaceOnUse"><stop stop-color="#E5E5F6"/><stop offset="1" stop-color="#C0C0EA"/></linearGradient><linearGradient id="paint75_linear" x1="8.739" y1="42.228" x2="79.97" y2="42.228" gradientUnits="userSpaceOnUse"><stop stop-color="#E5E5F6"/><stop offset="1" stop-color="#C0C0EA"/></linearGradient><linearGradient id="paint76_linear" x1="8.739" y1="41.454" x2="79.97" y2="41.454" gradientUnits="userSpaceOnUse"><stop stop-color="#E5E5F6"/><stop offset="1" stop-color="#C0C0EA"/></linearGradient><linearGradient id="paint77_linear" x1="8.74" y1="40.678" x2="79.971" y2="40.678" gradientUnits="userSpaceOnUse"><stop stop-color="#E5E5F6"/><stop offset="1" stop-color="#C0C0EA"/></linearGradient><linearGradient id="paint78_linear" x1="8.739" y1="39.894" x2="79.97" y2="39.894" gradientUnits="userSpaceOnUse"><stop stop-color="#E5E5F6"/><stop offset="1" stop-color="#C0C0EA"/></linearGradient><linearGradient id="paint79_linear" x1="8.739" y1="39.095" x2="79.97" y2="39.095" gradientUnits="userSpaceOnUse"><stop stop-color="#E5E5F6"/><stop offset="1" stop-color="#C0C0EA"/></linearGradient><linearGradient id="paint80_linear" x1="8.739" y1="38.276" x2="79.97" y2="38.276" gradientUnits="userSpaceOnUse"><stop stop-color="#E5E5F6"/><stop offset="1" stop-color="#C0C0EA"/></linearGradient><linearGradient id="paint81_linear" x1="8.739" y1="37.436" x2="79.97" y2="37.436" gradientUnits="userSpaceOnUse"><stop stop-color="#E5E5F6"/><stop offset="1" stop-color="#C0C0EA"/></linearGradient><linearGradient id="paint82_linear" x1="8.739" y1="36.56" x2="79.97" y2="36.56" gradientUnits="userSpaceOnUse"><stop stop-color="#E5E5F6"/><stop offset="1" stop-color="#C0C0EA"/></linearGradient><linearGradient id="paint83_linear" x1="8.739" y1="35.644" x2="79.97" y2="35.644" gradientUnits="userSpaceOnUse"><stop stop-color="#E5E5F6"/><stop offset="1" stop-color="#C0C0EA"/></linearGradient><linearGradient id="paint84_linear" x1="8.739" y1="34.679" x2="79.97" y2="34.679" gradientUnits="userSpaceOnUse"><stop stop-color="#E5E5F6"/><stop offset="1" stop-color="#C0C0EA"/></linearGradient><linearGradient id="paint85_linear" x1="8.739" y1="33.634" x2="79.97" y2="33.634" gradientUnits="userSpaceOnUse"><stop stop-color="#E5E5F6"/><stop offset="1" stop-color="#C0C0EA"/></linearGradient><linearGradient id="paint86_linear" x1="8.739" y1="32.721" x2="79.97" y2="32.721" gradientUnits="userSpaceOnUse"><stop stop-color="#E5E5F6"/><stop offset="1" stop-color="#C0C0EA"/></linearGradient></defs></svg>