<svg width="451" height="298" viewBox="0 0 451 298" fill="none" xmlns="http://www.w3.org/2000/svg">
<g>
<path d="M177.316 241.859L95.6758 194.504C93.0072 192.915 88.6583 192.915 85.9897 194.504L4.84328 241.859C2.17464 243.447 2.17464 245.929 4.84328 247.517L86.4839 294.872C89.1525 296.461 93.5014 296.461 96.17 294.872L177.316 247.517C180.084 245.929 179.985 243.447 177.316 241.859Z" fill="#F3F3FB"/>
<path d="M446.157 85.994L364.516 38.639C361.848 37.0506 357.499 37.0506 354.83 38.639L273.684 85.994C271.015 87.5824 271.015 90.0644 273.684 91.6528L355.324 139.008C357.993 140.596 362.342 140.596 365.01 139.008L446.157 91.6528C448.924 90.0644 448.825 87.5824 446.157 85.994Z" fill="#F3F3FB"/>
<path d="M132.839 221.209L320.237 111.409" stroke="#F3F3FB" stroke-width="1.2747" stroke-miterlimit="10"/>
<path d="M309.068 161.742C313.12 164.125 313.219 167.997 309.068 170.379L234.148 214.16C230.096 216.543 223.474 216.543 219.323 214.16L143.909 170.379C139.857 167.997 139.758 164.125 143.909 161.742L218.829 117.961C222.881 115.578 229.503 115.578 233.654 117.961L309.068 161.742Z" fill="url(#paint0_linear)"/>
<path d="M388.633 24.7403L388.732 79.2432L376.377 86.4904L376.18 31.8882L388.633 24.7403Z" fill="#C0C0EA"/>
<path d="M376.377 86.4903L363.331 78.846L363.133 24.3431L376.179 31.8881L376.377 86.4903Z" fill="#F3F3FB"/>
<path d="M376.18 31.8882L363.133 24.3431L375.586 17.0959L388.633 24.7402L376.18 31.8882Z" fill="url(#paint1_linear)"/>
<g opacity="0.2">
<path opacity="0.2" d="M388.633 24.7403L388.732 79.2432L376.377 86.4904L376.18 31.8882L388.633 24.7403Z" fill="#C0C0EA"/>
</g>
<path d="M370.447 65.2451L370.546 89.7665L358.092 97.0137L357.993 72.3931L370.447 65.2451Z" fill="#C0C0EA"/>
<path d="M358.092 97.0136L345.045 89.4686V64.848L357.993 72.393L358.092 97.0136Z" fill="#F3F3FB"/>
<path d="M357.993 72.393L345.045 64.848L357.499 57.6008L370.447 65.2451L357.993 72.393Z" fill="white"/>
<g opacity="0.2">
<path opacity="0.2" d="M370.447 65.2451L370.546 89.7665L358.092 97.0137L357.993 72.3931L370.447 65.2451Z" fill="#C0C0EA"/>
</g>
<path d="M352.656 58.5937L352.755 100.091L340.301 107.339L340.202 65.7416L352.656 58.5937Z" fill="#C0C0EA"/>
<path d="M340.301 107.338L327.353 99.6942L327.254 58.1965L340.202 65.7415L340.301 107.338Z" fill="#F3F3FB"/>
<path d="M340.202 65.7415L327.254 58.1965L339.708 50.9493L352.656 58.5936L340.202 65.7415Z" fill="white"/>
<path d="M310.847 1.6087L310.946 1.70798C310.946 1.70798 310.946 1.6087 310.847 1.6087Z" fill="url(#paint2_linear)"/>
<path d="M310.551 1.21162C310.452 1.11234 310.452 1.11234 310.353 1.01306C310.452 1.11234 310.452 1.11234 310.551 1.21162Z" fill="url(#paint3_linear)"/>
<path d="M311.341 2.20441C311.341 2.20441 311.341 2.30368 311.44 2.30368C311.341 2.20441 311.341 2.20441 311.341 2.20441Z" fill="url(#paint4_linear)"/>
<path d="M309.661 0.516663C309.76 0.516663 309.76 0.615939 309.859 0.615939C309.859 0.615939 309.76 0.516663 309.661 0.516663Z" fill="url(#paint5_linear)"/>
<path d="M312.033 4.6863C311.934 6.17545 310.946 7.56532 308.969 8.65737L233.951 52.4384C231.875 53.6298 229.108 54.2254 226.439 54.2254V215.947H226.538C226.735 215.947 226.834 215.947 227.032 215.947C227.23 215.947 227.329 215.947 227.526 215.947C227.724 215.947 227.823 215.947 228.02 215.947C228.218 215.947 228.317 215.947 228.515 215.947C228.712 215.947 228.811 215.947 229.009 215.848C229.206 215.848 229.305 215.749 229.503 215.749C229.701 215.749 229.799 215.649 229.997 215.649C230.195 215.649 230.392 215.55 230.491 215.55C230.689 215.55 230.887 215.451 231.084 215.451C231.282 215.352 231.48 215.352 231.677 215.252C231.875 215.153 232.073 215.054 232.369 215.054C232.666 214.955 232.863 214.855 233.16 214.756C233.456 214.657 233.654 214.458 233.951 214.359L308.969 170.578C310.946 169.387 312.033 167.897 312.033 166.309L312.132 4.58702C312.033 4.48774 312.033 4.58702 312.033 4.6863Z" fill="url(#paint6_linear)"/>
<path d="M142.031 1.6087L141.932 1.70798C142.031 1.70798 142.031 1.6087 142.031 1.6087Z" fill="url(#paint7_linear)"/>
<path d="M142.426 1.21162C142.525 1.11234 142.525 1.11234 142.624 1.01306C142.525 1.11234 142.525 1.11234 142.426 1.21162Z" fill="url(#paint8_linear)"/>
<path d="M141.636 2.20441C141.636 2.20441 141.636 2.30368 141.537 2.30368C141.537 2.20441 141.636 2.20441 141.636 2.20441Z" fill="url(#paint9_linear)"/>
<path d="M143.217 0.516663C143.118 0.516663 143.118 0.615939 143.02 0.615939C143.118 0.615939 143.217 0.516663 143.217 0.516663Z" fill="url(#paint10_linear)"/>
<path d="M140.944 4.68626C141.043 6.17541 142.031 7.56528 144.008 8.65733L219.026 52.4384C221.102 53.6297 223.869 54.2254 226.538 54.2254V215.947H226.439C226.241 215.947 226.143 215.947 225.945 215.947C225.747 215.947 225.648 215.947 225.451 215.947C225.253 215.947 225.154 215.947 224.957 215.947C224.759 215.947 224.66 215.947 224.462 215.947C224.265 215.947 224.166 215.947 223.968 215.848C223.771 215.848 223.672 215.749 223.474 215.749C223.276 215.749 223.177 215.649 222.98 215.649C222.782 215.649 222.584 215.55 222.486 215.55C222.288 215.55 222.09 215.451 221.893 215.451C221.695 215.352 221.497 215.352 221.3 215.252C221.102 215.153 220.904 215.054 220.608 215.054C220.311 214.954 220.113 214.855 219.817 214.756C219.52 214.657 219.323 214.458 219.026 214.359L144.008 170.578C142.031 169.386 140.944 167.897 140.944 166.309V4.38843C140.944 4.4877 140.944 4.58698 140.944 4.68626Z" fill="url(#paint11_linear)"/>
<path d="M138.967 249.999L139.066 250.099L138.967 249.999ZM102.298 178.024C98.8385 176.038 96.1698 190.93 89.943 187.256C77.5882 180.108 77.687 214.359 77.687 214.359L77.7859 214.26L139.066 249.9C139.066 249.9 134.816 223.294 128.787 219.819C124.042 217.039 119.693 220.216 114.554 217.238C105.362 212.076 108.525 181.697 102.298 178.024Z" fill="#C0C0EA"/>
<path d="M84.8036 208.899C81.2455 206.814 75.8094 211.678 72.4488 209.792C66.8151 206.516 60.1929 224.684 60.1929 224.684L121.67 260.324L121.572 260.225C121.572 260.225 115.444 228.853 111.292 226.471C107.438 224.187 100.914 233.221 97.0596 231.335C97.0596 231.335 96.9608 231.335 96.9608 231.236C92.6119 228.754 89.2514 211.48 84.8036 208.899Z" fill="#F3F3FB"/>
<path d="M102.594 271.344L102.496 271.244C102.496 271.443 102.496 271.443 102.594 271.344ZM90.2396 231.236C84.1116 227.662 83.914 242.057 77.8848 238.483C72.7452 235.505 70.7685 247.021 65.53 243.943C60.3904 240.965 56.5357 220.514 51.3961 217.536C46.6519 214.855 41.0181 235.703 41.0181 235.703L41.1169 235.604L102.397 271.145C102.199 269.06 97.949 235.703 90.2396 231.236Z" fill="white"/>
<path d="M268.05 80.7323L226.34 56.4095V73.1872L268.05 97.4108V80.7323Z" fill="#FF6492"/>
<path d="M267.951 97.4108L255.399 104.757L226.34 87.7809L209.636 97.4108L197.084 90.66L226.34 73.2865L267.951 97.4108Z" fill="#141446"/>
<path d="M209.636 97.4108L197.084 90.6599V104.757L209.636 97.4108Z" fill="#A14474"/>
<path d="M184.63 128.782L226.34 104.757L268.05 128.782L226.34 153.006L184.63 128.782Z" fill="#141446"/>
<path d="M268.05 112.104L226.34 87.483V104.757L268.05 128.782V112.104Z" fill="#FF6492"/>
<path d="M197.084 104.757V90.66L226.34 73.1872V56.4095L184.63 80.7323V128.782L226.34 104.757V87.4831L197.084 104.757Z" fill="#7A77FF"/>
</g>
<defs>
<linearGradient id="paint0_linear" x1="140.806" y1="166.062" x2="312.146" y2="166.062" gradientUnits="userSpaceOnUse">
<stop stop-color="#E5E5F6"/>
<stop offset="1" stop-color="#C0C0EA"/>
</linearGradient>
<linearGradient id="paint1_linear" x1="375.9" y1="11.0669" x2="375.9" y2="34.7259" gradientUnits="userSpaceOnUse">
<stop stop-color="#F3F3FB"/>
<stop offset="1" stop-color="white"/>
</linearGradient>
<linearGradient id="paint2_linear" x1="399.924" y1="199.118" x2="325.329" y2="35.0031" gradientUnits="userSpaceOnUse">
<stop stop-color="#FF80A5"/>
<stop offset="0.1389" stop-color="#FF97B5" stop-opacity="0.8611"/>
<stop offset="0.386" stop-color="#FFBACE" stop-opacity="0.614"/>
<stop offset="0.619" stop-color="#FFD3E0" stop-opacity="0.381"/>
<stop offset="0.8302" stop-color="#FFE3EB" stop-opacity="0.1698"/>
<stop offset="1" stop-color="#FFE8EF" stop-opacity="0"/>
</linearGradient>
<linearGradient id="paint3_linear" x1="399.692" y1="199.223" x2="325.098" y2="35.1084" gradientUnits="userSpaceOnUse">
<stop stop-color="#FF80A5"/>
<stop offset="0.1389" stop-color="#FF97B5" stop-opacity="0.8611"/>
<stop offset="0.386" stop-color="#FFBACE" stop-opacity="0.614"/>
<stop offset="0.619" stop-color="#FFD3E0" stop-opacity="0.381"/>
<stop offset="0.8302" stop-color="#FFE3EB" stop-opacity="0.1698"/>
<stop offset="1" stop-color="#FFE8EF" stop-opacity="0"/>
</linearGradient>
<linearGradient id="paint4_linear" x1="400.061" y1="199.055" x2="325.467" y2="34.9402" gradientUnits="userSpaceOnUse">
<stop stop-color="#FF80A5"/>
<stop offset="0.1389" stop-color="#FF97B5" stop-opacity="0.8611"/>
<stop offset="0.386" stop-color="#FFBACE" stop-opacity="0.614"/>
<stop offset="0.619" stop-color="#FFD3E0" stop-opacity="0.381"/>
<stop offset="0.8302" stop-color="#FFE3EB" stop-opacity="0.1698"/>
<stop offset="1" stop-color="#FFE8EF" stop-opacity="0"/>
</linearGradient>
<linearGradient id="paint5_linear" x1="399.361" y1="199.374" x2="324.766" y2="35.2593" gradientUnits="userSpaceOnUse">
<stop stop-color="#FF80A5"/>
<stop offset="0.1389" stop-color="#FF97B5" stop-opacity="0.8611"/>
<stop offset="0.386" stop-color="#FFBACE" stop-opacity="0.614"/>
<stop offset="0.619" stop-color="#FFD3E0" stop-opacity="0.381"/>
<stop offset="0.8302" stop-color="#FFE3EB" stop-opacity="0.1698"/>
<stop offset="1" stop-color="#FFE8EF" stop-opacity="0"/>
</linearGradient>
<linearGradient id="paint6_linear" x1="299.702" y1="177.7" x2="246.391" y2="60.4209" gradientUnits="userSpaceOnUse">
<stop stop-color="#FF80A5"/>
<stop offset="0.1389" stop-color="#FF97B5" stop-opacity="0.8611"/>
<stop offset="0.386" stop-color="#FFBACE" stop-opacity="0.614"/>
<stop offset="0.619" stop-color="#FFD3E0" stop-opacity="0.381"/>
<stop offset="0.8302" stop-color="#FFE3EB" stop-opacity="0.1698"/>
<stop offset="1" stop-color="#FFE8EF" stop-opacity="0"/>
</linearGradient>
<linearGradient id="paint7_linear" x1="53.069" y1="199.118" x2="127.686" y2="35.0292" gradientUnits="userSpaceOnUse">
<stop stop-color="#FF80A5"/>
<stop offset="0.1389" stop-color="#FF97B5" stop-opacity="0.8611"/>
<stop offset="0.386" stop-color="#FFBACE" stop-opacity="0.614"/>
<stop offset="0.619" stop-color="#FFD3E0" stop-opacity="0.381"/>
<stop offset="0.8302" stop-color="#FFE3EB" stop-opacity="0.1698"/>
<stop offset="1" stop-color="#FFE8EF" stop-opacity="0"/>
</linearGradient>
<linearGradient id="paint8_linear" x1="53.2664" y1="199.223" x2="127.864" y2="35.1127" gradientUnits="userSpaceOnUse">
<stop stop-color="#FF80A5"/>
<stop offset="0.1389" stop-color="#FF97B5" stop-opacity="0.8611"/>
<stop offset="0.386" stop-color="#FFBACE" stop-opacity="0.614"/>
<stop offset="0.619" stop-color="#FFD3E0" stop-opacity="0.381"/>
<stop offset="0.8302" stop-color="#FFE3EB" stop-opacity="0.1698"/>
<stop offset="1" stop-color="#FFE8EF" stop-opacity="0"/>
</linearGradient>
<linearGradient id="paint9_linear" x1="52.9038" y1="199.055" x2="127.506" y2="34.9489" gradientUnits="userSpaceOnUse">
<stop stop-color="#FF80A5"/>
<stop offset="0.1389" stop-color="#FF97B5" stop-opacity="0.8611"/>
<stop offset="0.386" stop-color="#FFBACE" stop-opacity="0.614"/>
<stop offset="0.619" stop-color="#FFD3E0" stop-opacity="0.381"/>
<stop offset="0.8302" stop-color="#FFE3EB" stop-opacity="0.1698"/>
<stop offset="1" stop-color="#FFE8EF" stop-opacity="0"/>
</linearGradient>
<linearGradient id="paint10_linear" x1="53.5986" y1="199.374" x2="128.197" y2="35.2636" gradientUnits="userSpaceOnUse">
<stop stop-color="#FF80A5"/>
<stop offset="0.1389" stop-color="#FF97B5" stop-opacity="0.8611"/>
<stop offset="0.386" stop-color="#FFBACE" stop-opacity="0.614"/>
<stop offset="0.619" stop-color="#FFD3E0" stop-opacity="0.381"/>
<stop offset="0.8302" stop-color="#FFE3EB" stop-opacity="0.1698"/>
<stop offset="1" stop-color="#FFE8EF" stop-opacity="0"/>
</linearGradient>
<linearGradient id="paint11_linear" x1="153.25" y1="177.7" x2="206.56" y2="60.4208" gradientUnits="userSpaceOnUse">
<stop stop-color="#FF80A5"/>
<stop offset="0.1389" stop-color="#FF97B5" stop-opacity="0.8611"/>
<stop offset="0.386" stop-color="#FFBACE" stop-opacity="0.614"/>
<stop offset="0.619" stop-color="#FFD3E0" stop-opacity="0.381"/>
<stop offset="0.8302" stop-color="#FFE3EB" stop-opacity="0.1698"/>
<stop offset="1" stop-color="#FFE8EF" stop-opacity="0"/>
</linearGradient>
<clipPath id="clip0">
<rect width="451" height="297.135" fill="white" transform="translate(0 0.516663)"/>
</clipPath>
</defs>
</svg>
