<svg width="128" height="40" fill="none" xmlns="http://www.w3.org/2000/svg"><path d="M34.77 10L17.39 0v6.92l17.382 9.956V10z" fill="#FF6492"/><path d="M34.77 16.876l-5.214 3.016-12.17-6.989-6.955 3.979-5.215-2.796L17.389 6.92l17.382 9.957z" fill="#141446"/><path d="M10.431 16.882l-5.215-2.796v5.806l5.215-3.01z" fill="#A14474"/><path d="M0 29.785l17.385-9.892 17.386 9.892-17.386 10L0 29.785z" fill="#141446"/><path d="M34.77 22.92L17.386 12.795v7.096l17.386 9.893v-6.866z" fill="#FF6492"/><path d="M5.216 19.892v-5.806l12.173-7.167V0L0 10v19.785l17.385-9.893v-7.096l-12.17 7.096z" fill="#7A77FF"/><path d="M42.812 20.572c0-3.85 3.096-6.845 6.998-6.845 2.503 0 4.44 1.203 5.571 3.047l-1.991 1.551c-.862-1.203-1.965-2.005-3.552-2.005-2.423 0-4.145 1.872-4.145 4.25 0 2.433 1.722 4.278 4.145 4.278 1.56 0 2.664-.775 3.552-1.978l1.991 1.525c-1.157 1.844-3.096 3.047-5.571 3.047-3.902.002-6.998-2.994-6.998-6.87zm15.018 1.07v-7.62h2.8v7.834c0 1.844 1.317 2.994 2.987 2.994 1.615 0 2.907-1.15 2.907-2.994v-7.834h2.827v7.62c0 3.557-2.503 5.802-5.732 5.802-3.285 0-5.789-2.245-5.789-5.802zm28.668-1.043c0 3.903-2.719 6.845-6.46 6.845-1.939 0-3.635-.774-4.63-2.111v1.818h-2.637V7.097h2.827v8.53c.996-1.204 2.584-1.898 4.414-1.898 3.767-.002 6.486 2.966 6.486 6.87zm-2.908-.026c0-2.541-1.776-4.278-4.038-4.278-1.991 0-3.984 1.338-3.984 4.305 0 2.994 2.019 4.277 3.984 4.277 2.288 0 4.038-1.764 4.038-4.304zm17.523.936h-9.852c.378 2.165 2.046 3.448 4.306 3.448 1.535 0 2.745-.588 3.85-1.55l1.346 1.925c-1.4 1.31-3.177 2.112-5.276 2.112-4.09 0-7.107-2.968-7.107-6.846 0-3.85 2.988-6.871 6.838-6.871 3.526 0 6.11 2.567 6.11 6.015 0 .723-.135 1.42-.215 1.767zm-9.797-2.194h7.187c-.055-2.06-1.588-3.21-3.392-3.21-1.858.003-3.365 1.258-3.795 3.21zm12.326 6.069c0-1.203.943-2.085 2.126-2.085 1.157 0 2.074.882 2.074 2.085 0 1.204-.915 2.06-2.074 2.06-1.183 0-2.126-.856-2.126-2.06zm5.303 6.633v-2.38c.43.054.753.08 1.157.08 1.587 0 2.53-.56 2.53-2.273V14.022h2.826v13.664c0 3.18-1.91 4.572-4.683 4.572-.78-.002-1.346-.082-1.83-.242zm3.176-22.889c0-1.041.862-1.872 1.939-1.872 1.049 0 1.911.829 1.911 1.872 0 1.042-.862 1.845-1.911 1.845-1.077.002-1.939-.8-1.939-1.845zm5.652 15.776l1.615-1.765c1.049 1.096 2.208 1.872 3.715 1.872 1.158 0 2.126-.48 2.126-1.47 0-.857-.78-1.204-1.856-1.631l-1.347-.561c-2.125-.882-3.445-1.844-3.445-3.824 0-2.433 2.045-3.796 4.657-3.796 1.911 0 3.472.722 4.575 2.032l-1.535 1.738c-.834-.856-1.939-1.337-3.096-1.337-1.049 0-1.804.4-1.804 1.257 0 .695.538 1.042 1.75 1.55l1.265.51c2.395.99 3.607 2.031 3.607 3.957 0 2.647-2.26 4.01-4.899 4.01-2.34-.002-4.197-1.072-5.328-2.543z" fill="#141446"/></svg>
