<svg width="80" height="80" fill="none" xmlns="http://www.w3.org/2000/svg"><path d="M20.121 11.394L39.94 22.81l19.94-11.393L40.06 0 20.121 11.394z" fill="#fff"/><path d="M59.879 11.418L39.939 22.81 20.121 11.394 40.061 0l19.818 11.418z" fill="#fff"/><path d="M40.012 45.455L20 34.06l.073-22.691 19.94 11.393" fill="#E5E5F6"/><path d="M60 34.06L39.988 45.456V22.763l19.94-11.393L60 34.06z" fill="#C0C0EA"/><path d="M.121 45.03L19.94 56.447l19.94-11.393-19.82-11.418L.12 45.03z" fill="#fff"/><path d="M39.879 45.054l-19.94 11.393L.121 45.03l19.94-11.394 19.818 11.418z" fill="#fff"/><path d="M20.012 79.09L0 67.698l.073-22.691L20.013 56.4" fill="#E5E5F6"/><path d="M40 67.697L19.988 79.091V56.4l19.94-11.394L40 67.697z" fill="#C0C0EA"/><path d="M40.121 45.03L59.94 56.447l19.94-11.393-19.82-11.418L40.121 45.03z" fill="#fff"/><path d="M79.879 45.054l-19.94 11.393L40.121 45.03l19.94-11.394 19.818 11.418z" fill="#fff"/><path d="M60.012 79.09L40 67.698l.073-22.691L60.013 56.4" fill="#E5E5F6"/><path d="M80 67.697L59.988 79.091V56.4l19.94-11.394L80 67.697z" fill="#C0C0EA"/></svg>