<svg width="486" height="344" viewBox="0 0 486 344" fill="none" xmlns="http://www.w3.org/2000/svg">
<rect width="286" height="296" rx="8" fill="#F3F3FB"/>
<path d="M103.714 59.9392C103.714 56.3767 106.604 53.6047 110.246 53.6047C112.583 53.6047 114.391 54.7183 115.446 56.4248L113.588 57.8598C112.783 56.7462 111.754 56.0038 110.272 56.0038C108.011 56.0038 106.403 57.736 106.403 59.9375C106.403 62.1887 108.011 63.8952 110.272 63.8952C111.729 63.8952 112.759 63.1786 113.588 62.065L115.446 63.4759C114.366 65.1824 112.556 66.296 110.246 66.296C106.604 66.2977 103.714 63.5257 103.714 59.9392Z" fill="#141446"/>
<path d="M117.732 60.9291V53.8781H120.344V61.1268C120.344 62.8333 121.575 63.897 123.133 63.897C124.641 63.897 125.847 62.8333 125.847 61.1268V53.8781H128.485V60.9291C128.485 64.2201 126.148 66.2978 123.135 66.2978C120.069 66.2978 117.732 64.2201 117.732 60.9291Z" fill="#141446"/>
<path d="M144.489 59.9632C144.489 63.5755 141.952 66.2977 138.46 66.2977C136.65 66.2977 135.067 65.581 134.139 64.3437V66.0261H131.677V47.4696H134.315V55.3628C135.245 54.2492 136.727 53.6064 138.435 53.6064C141.952 53.6047 144.489 56.3509 144.489 59.9632ZM141.775 59.9392C141.775 57.5882 140.117 55.9814 138.006 55.9814C136.148 55.9814 134.287 57.2187 134.287 59.9649C134.287 62.7352 136.172 63.9227 138.006 63.9227C140.142 63.9227 141.775 62.2901 141.775 59.9392Z" fill="#141446"/>
<path d="M158.13 60.8053H148.935C149.288 62.8091 150.844 63.9966 152.954 63.9966C154.387 63.9966 155.516 63.4518 156.547 62.5616L157.804 64.3437C156.496 65.5553 154.839 66.2977 152.879 66.2977C149.061 66.2977 146.246 63.5515 146.246 59.9632C146.246 56.4008 149.035 53.6047 152.628 53.6047C155.919 53.6047 158.331 55.9797 158.331 59.171C158.331 59.8395 158.205 60.484 158.13 60.8053ZM148.986 58.7757H155.694C155.643 56.8699 154.212 55.8062 152.528 55.8062C150.794 55.8079 149.387 56.9696 148.986 58.7757Z" fill="#141446"/>
<g opacity="0.4">
<path d="M169.4 66.6696C171.723 66.6696 173.591 65.5992 174.739 63.968L173.271 62.8721C172.31 64.0955 171.082 64.8601 169.427 64.8601C166.704 64.8601 164.702 62.7957 164.702 60.1706C164.702 57.5709 166.704 55.5065 169.427 55.5065C171.109 55.5065 172.336 56.2966 173.297 57.52L174.766 56.3986C173.618 54.7674 171.749 53.697 169.4 53.697C165.61 53.697 162.593 56.5515 162.593 60.1706C162.593 63.8151 165.61 66.6696 169.4 66.6696Z" fill="#141446"/>
<path d="M177.429 66.3893H179.485V47.2744H177.429V66.3893Z" fill="#141446"/>
<path d="M189.043 66.6441C192.861 66.6441 195.877 63.7642 195.877 60.1706C195.877 56.5515 192.861 53.697 189.07 53.697C185.253 53.697 182.263 56.526 182.263 60.1706C182.263 63.7642 185.253 66.6441 189.043 66.6441ZM189.043 64.8346C186.374 64.8346 184.372 62.8466 184.372 60.196C184.372 57.52 186.374 55.5065 189.07 55.5065C191.739 55.5065 193.768 57.52 193.768 60.196C193.768 62.8212 191.713 64.8346 189.043 64.8346Z" fill="#141446"/>
<path d="M203.921 66.6696C206.911 66.6696 209.287 64.6307 209.287 61.4449V53.9774H207.231V61.5723C207.231 63.6112 205.736 64.8601 203.921 64.8601C202.053 64.8601 200.558 63.6112 200.558 61.5723V53.9774H198.529V61.4449C198.529 64.6307 200.878 66.6696 203.921 66.6696Z" fill="#141446"/>
<path d="M223.129 47.2744V55.8124C222.088 54.4871 220.273 53.697 218.324 53.697C214.614 53.697 211.891 56.526 211.891 60.196C211.891 63.8406 214.614 66.6696 218.324 66.6696C220.353 66.6696 222.222 65.8286 223.236 64.4268V66.3893H225.185V47.2744H223.129ZM218.618 64.8601C215.949 64.8601 214 62.8721 214 60.1706C214 57.469 215.975 55.5065 218.618 55.5065C220.86 55.5065 223.156 56.9338 223.156 60.196C223.156 63.4583 220.86 64.8601 218.618 64.8601Z" fill="#141446"/>
</g>
<g clip-path="url(#clip0)">
<path d="M87 75L96 69.885L87 64.7267L78 69.885L87 75Z" fill="#141446"/>
<path d="M96 69.885V59.6008L87 54.4425V64.7267L96 69.885Z" fill="#FF6492"/>
<path d="M78 69.885V59.6008L87 54.4425V64.7267L78 69.885Z" fill="#7A77FF"/>
<path d="M78 59.5575L87 54.4425L78 49.2842L69 54.4425L78 59.5575Z" fill="#141446"/>
<path d="M87 54.4425V44.1583L78 39V49.2842L87 54.4425Z" fill="#FF6492"/>
<path d="M69 54.4425V44.1583L78 39V49.2842L69 54.4425Z" fill="#7A77FF"/>
<path d="M69 75L78 69.885L69 64.7267L60 69.885L69 75Z" fill="#141446"/>
<path d="M78 69.885V59.6008L69 54.4425V64.7267L78 69.885Z" fill="#FF6492"/>
<path d="M60 69.885V59.6008L69 54.4425V64.7267L60 69.885Z" fill="#7A77FF"/>
</g>
<rect x="20" y="110" width="136" height="30" rx="4" fill="white"/>
<path d="M36.256 130.176C38.176 130.176 39.792 129.248 40.64 127.904L39.712 127.168C38.928 128.32 37.744 129.024 36.272 129.024C33.888 129.024 32.064 127.184 32.064 124.72C32.064 122.256 33.888 120.416 36.272 120.416C37.744 120.416 38.928 121.12 39.712 122.272L40.64 121.536C39.76 120.192 38.176 119.264 36.256 119.264C33.2 119.264 30.768 121.632 30.768 124.72C30.768 127.808 33.2 130.176 36.256 130.176ZM45.9335 130.176C47.7255 130.176 49.1495 128.896 49.1495 126.896V122.208H47.9175V126.976C47.9175 128.256 47.0215 129.04 45.9335 129.04C44.8135 129.04 43.9175 128.256 43.9175 126.976V122.208H42.7015V126.896C42.7015 128.896 44.1095 130.176 45.9335 130.176ZM55.8466 122.032C54.6786 122.032 53.6066 122.528 52.9826 123.344V118H51.7506V130H52.9026V128.768C53.5106 129.648 54.6466 130.176 55.8626 130.176C58.0866 130.176 59.7026 128.4 59.7026 126.112C59.7026 123.808 58.0706 122.032 55.8466 122.032ZM55.6706 129.04C54.3266 129.04 52.9666 128.16 52.9666 126.112C52.9666 124.064 54.3106 123.168 55.6706 123.168C57.2546 123.168 58.4386 124.4 58.4386 126.096C58.4386 127.792 57.2706 129.04 55.6706 129.04ZM68.836 125.552C68.836 123.472 67.284 122.032 65.284 122.032C63.044 122.032 61.3 123.84 61.3 126.112C61.3 128.4 63.076 130.176 65.428 130.176C66.708 130.176 67.764 129.648 68.548 128.816L67.828 127.984C67.188 128.624 66.42 129.04 65.444 129.04C63.908 129.04 62.74 128.032 62.58 126.48H68.74C68.772 126.32 68.836 125.968 68.836 125.552ZM65.252 123.152C66.484 123.152 67.556 123.952 67.572 125.392H62.628C62.9 124.048 63.94 123.152 65.252 123.152ZM71.8806 130.176C72.4246 130.176 72.8886 129.76 72.8886 129.168C72.8886 128.576 72.4246 128.16 71.8806 128.16C71.3366 128.16 70.8726 128.576 70.8726 129.168C70.8726 129.76 71.3366 130.176 71.8806 130.176ZM77.0621 120.128C77.5581 120.128 77.9741 119.744 77.9741 119.232C77.9741 118.736 77.5581 118.336 77.0621 118.336C76.5501 118.336 76.1341 118.736 76.1341 119.232C76.1341 119.744 76.5501 120.128 77.0621 120.128ZM75.1101 133.056C76.5981 133.056 77.6701 132.304 77.6701 130.528V122.208H76.4381V130.448C76.4381 131.6 75.7821 131.936 74.8381 131.936C74.5821 131.936 74.3901 131.92 74.1181 131.888V132.928C74.4061 133.008 74.7101 133.056 75.1101 133.056ZM82.6796 130.176C84.1196 130.176 85.4156 129.408 85.4156 127.888C85.4156 126.784 84.7436 126.176 83.3516 125.584L82.6316 125.28C81.7676 124.912 81.3676 124.672 81.3676 124.144C81.3676 123.504 81.9276 123.168 82.6636 123.168C83.3996 123.168 84.0716 123.504 84.5836 124.032L85.3356 123.264C84.7276 122.512 83.8476 122.032 82.7276 122.032C81.3036 122.032 80.1036 122.8 80.1036 124.208C80.1036 125.312 80.8556 125.872 82.0396 126.368L82.7916 126.688C83.5756 127.008 84.1516 127.264 84.1516 127.936C84.1516 128.64 83.4796 129.04 82.6636 129.04C81.7196 129.04 81.0636 128.512 80.4236 127.84L79.6396 128.656C80.2636 129.488 81.3036 130.176 82.6796 130.176ZM95.3096 130.176C97.2616 130.176 98.7176 129.008 98.7176 127.232C98.7176 125.792 97.7896 125.024 96.2536 124.288L95.0856 123.728C94.1256 123.264 93.3896 122.912 93.3896 121.952C93.3896 120.912 94.2856 120.416 95.2616 120.416C96.2216 120.416 97.1016 120.896 97.6776 121.744L98.5896 121.056C97.9336 120.016 96.7176 119.264 95.2776 119.264C93.5656 119.264 92.0936 120.336 92.0936 122.016C92.0936 123.584 93.3736 124.32 94.4776 124.848L95.6616 125.408C96.7016 125.904 97.4216 126.288 97.4216 127.264C97.4216 128.336 96.5416 129.024 95.2936 129.024C93.9336 129.024 92.9896 128.192 92.3496 127.216L91.4216 127.904C92.2376 129.296 93.6296 130.176 95.3096 130.176ZM108.024 125.552C108.024 123.472 106.472 122.032 104.472 122.032C102.232 122.032 100.488 123.84 100.488 126.112C100.488 128.4 102.264 130.176 104.616 130.176C105.896 130.176 106.952 129.648 107.736 128.816L107.016 127.984C106.376 128.624 105.608 129.04 104.632 129.04C103.096 129.04 101.928 128.032 101.768 126.48H107.928C107.96 126.32 108.024 125.968 108.024 125.552ZM104.44 123.152C105.672 123.152 106.744 123.952 106.76 125.392H101.816C102.088 124.048 103.128 123.152 104.44 123.152ZM113.756 122.144C112.828 122.144 111.916 122.544 111.34 123.312V122.208H110.188V130H111.42V125.584C111.42 124.096 112.604 123.296 113.868 123.296H114.332V122.208C114.172 122.176 114.012 122.144 113.756 122.144ZM121.521 122.208L118.945 128.08L116.353 122.208H115.041L118.721 130.176H119.169L122.833 122.208H121.521ZM131.274 125.552C131.274 123.472 129.722 122.032 127.722 122.032C125.482 122.032 123.738 123.84 123.738 126.112C123.738 128.4 125.514 130.176 127.866 130.176C129.146 130.176 130.202 129.648 130.986 128.816L130.266 127.984C129.626 128.624 128.858 129.04 127.882 129.04C126.346 129.04 125.178 128.032 125.018 126.48H131.178C131.21 126.32 131.274 125.968 131.274 125.552ZM127.69 123.152C128.922 123.152 129.994 123.952 130.01 125.392H125.066C125.338 124.048 126.378 123.152 127.69 123.152ZM137.006 122.144C136.078 122.144 135.166 122.544 134.59 123.312V122.208H133.438V130H134.67V125.584C134.67 124.096 135.854 123.296 137.118 123.296H137.582V122.208C137.422 122.176 137.262 122.144 137.006 122.144ZM141.539 130.176C142.979 130.176 144.275 129.408 144.275 127.888C144.275 126.784 143.603 126.176 142.211 125.584L141.491 125.28C140.627 124.912 140.227 124.672 140.227 124.144C140.227 123.504 140.787 123.168 141.523 123.168C142.259 123.168 142.931 123.504 143.443 124.032L144.195 123.264C143.587 122.512 142.707 122.032 141.587 122.032C140.163 122.032 138.963 122.8 138.963 124.208C138.963 125.312 139.715 125.872 140.899 126.368L141.651 126.688C142.435 127.008 143.011 127.264 143.011 127.936C143.011 128.64 142.339 129.04 141.523 129.04C140.579 129.04 139.923 128.512 139.283 127.84L138.499 128.656C139.123 129.488 140.163 130.176 141.539 130.176Z" fill="#43436B"/>
<rect x="164" y="110" width="61" height="30" rx="4" fill="white"/>
<path d="M183.696 130L180.32 125.424C181.712 125.024 182.544 123.92 182.544 122.496C182.544 120.72 181.248 119.44 179.168 119.44H175.456V130H176.704V125.568H178.96L182.24 130H183.696ZM176.704 120.56H179.12C180.512 120.56 181.248 121.392 181.248 122.512C181.248 123.648 180.512 124.448 179.12 124.448H176.704V120.56ZM192.055 125.552C192.055 123.472 190.503 122.032 188.503 122.032C186.263 122.032 184.519 123.84 184.519 126.112C184.519 128.4 186.295 130.176 188.647 130.176C189.927 130.176 190.983 129.648 191.767 128.816L191.047 127.984C190.407 128.624 189.639 129.04 188.663 129.04C187.127 129.04 185.959 128.032 185.799 126.48H191.959C191.991 126.32 192.055 125.968 192.055 125.552ZM188.471 123.152C189.703 123.152 190.775 123.952 190.791 125.392H185.847C186.119 124.048 187.159 123.152 188.471 123.152ZM200.395 118V123.36C199.771 122.528 198.683 122.032 197.515 122.032C195.291 122.032 193.659 123.808 193.659 126.112C193.659 128.4 195.291 130.176 197.515 130.176C198.731 130.176 199.851 129.648 200.459 128.768V130H201.627V118H200.395ZM197.691 129.04C196.091 129.04 194.923 127.792 194.923 126.096C194.923 124.4 196.107 123.168 197.691 123.168C199.035 123.168 200.411 124.064 200.411 126.112C200.411 128.16 199.035 129.04 197.691 129.04ZM204.953 120.128C205.449 120.128 205.865 119.744 205.865 119.232C205.865 118.736 205.449 118.336 204.953 118.336C204.441 118.336 204.025 118.736 204.025 119.232C204.025 119.744 204.441 120.128 204.953 120.128ZM204.329 130H205.561V122.208H204.329V130ZM210.57 130.176C212.01 130.176 213.306 129.408 213.306 127.888C213.306 126.784 212.634 126.176 211.242 125.584L210.522 125.28C209.658 124.912 209.258 124.672 209.258 124.144C209.258 123.504 209.818 123.168 210.554 123.168C211.29 123.168 211.962 123.504 212.474 124.032L213.226 123.264C212.618 122.512 211.738 122.032 210.618 122.032C209.194 122.032 207.994 122.8 207.994 124.208C207.994 125.312 208.746 125.872 209.93 126.368L210.682 126.688C211.466 127.008 212.042 127.264 212.042 127.936C212.042 128.64 211.37 129.04 210.554 129.04C209.61 129.04 208.954 128.512 208.314 127.84L207.53 128.656C208.154 129.488 209.194 130.176 210.57 130.176Z" fill="#43436B"/>
<rect x="20" y="148" width="223" height="30" rx="4" fill="white"/>
<path d="M31.456 168H32.704V163.584H35.168C37.248 163.584 38.544 162.288 38.544 160.496C38.544 158.72 37.248 157.44 35.168 157.44H31.456V168ZM32.704 162.464V158.56H35.136C36.528 158.56 37.248 159.392 37.248 160.512C37.248 161.648 36.528 162.464 35.136 162.464H32.704ZM44.0843 160.144C43.1562 160.144 42.2443 160.544 41.6683 161.312V160.208H40.5163V168H41.7483V163.584C41.7483 162.096 42.9323 161.296 44.1963 161.296H44.6603V160.208C44.5003 160.176 44.3403 160.144 44.0843 160.144ZM53.1329 163.552C53.1329 161.472 51.5809 160.032 49.5809 160.032C47.3409 160.032 45.5969 161.84 45.5969 164.112C45.5969 166.4 47.3729 168.176 49.7249 168.176C51.0049 168.176 52.0609 167.648 52.8449 166.816L52.1249 165.984C51.4849 166.624 50.7169 167.04 49.7409 167.04C48.2049 167.04 47.0369 166.032 46.8769 164.48H53.0369C53.0689 164.32 53.1329 163.968 53.1329 163.552ZM49.5489 161.152C50.7809 161.152 51.8529 161.952 51.8689 163.392H46.9249C47.1969 162.048 48.2369 161.152 49.5489 161.152ZM54.7855 163.488H58.6095V162.448H54.7855V163.488ZM67.6121 168H68.9401L64.3641 157.264H63.9001L59.3241 168H60.6361L61.5321 165.856H66.7161L67.6121 168ZM66.2361 164.736H62.0121L64.1241 159.536L66.2361 164.736ZM76.8675 160.208V161.456C76.2595 160.56 75.1395 160.032 73.9075 160.032C71.7155 160.032 70.0835 161.728 70.0835 163.984C70.0835 166.256 71.7155 167.92 73.9075 167.92C75.0755 167.92 76.1795 167.44 76.8035 166.624V167.312C76.8035 169.04 75.7955 169.92 74.2115 169.92C72.9315 169.92 72.0515 169.344 71.2995 168.688L70.5795 169.552C71.3475 170.32 72.6115 171.056 74.2435 171.056C76.5155 171.056 78.0355 169.648 78.0355 167.248V160.208H76.8675ZM74.0995 166.784C72.5155 166.784 71.3315 165.648 71.3315 164C71.3315 162.352 72.5155 161.2 74.0995 161.2C75.4435 161.2 76.8195 162.032 76.8195 163.984C76.8195 165.936 75.4595 166.784 74.0995 166.784ZM87.055 160.208V161.456C86.447 160.56 85.327 160.032 84.095 160.032C81.903 160.032 80.271 161.728 80.271 163.984C80.271 166.256 81.903 167.92 84.095 167.92C85.263 167.92 86.367 167.44 86.991 166.624V167.312C86.991 169.04 85.983 169.92 84.399 169.92C83.119 169.92 82.239 169.344 81.487 168.688L80.767 169.552C81.535 170.32 82.799 171.056 84.431 171.056C86.703 171.056 88.223 169.648 88.223 167.248V160.208H87.055ZM84.287 166.784C82.703 166.784 81.519 165.648 81.519 164C81.519 162.352 82.703 161.2 84.287 161.2C85.631 161.2 87.007 162.032 87.007 163.984C87.007 165.936 85.647 166.784 84.287 166.784ZM94.4905 160.144C93.5625 160.144 92.6505 160.544 92.0745 161.312V160.208H90.9225V168H92.1545V163.584C92.1545 162.096 93.3385 161.296 94.6025 161.296H95.0665V160.208C94.9065 160.176 94.7465 160.144 94.4905 160.144ZM103.539 163.552C103.539 161.472 101.987 160.032 99.9871 160.032C97.7471 160.032 96.0031 161.84 96.0031 164.112C96.0031 166.4 97.7791 168.176 100.131 168.176C101.411 168.176 102.467 167.648 103.251 166.816L102.531 165.984C101.891 166.624 101.123 167.04 100.147 167.04C98.6111 167.04 97.4431 166.032 97.2831 164.48H103.443C103.475 164.32 103.539 163.968 103.539 163.552ZM99.9551 161.152C101.187 161.152 102.259 161.952 102.275 163.392H97.3311C97.6031 162.048 98.6431 161.152 99.9551 161.152ZM112.024 160.208V161.456C111.416 160.56 110.296 160.032 109.064 160.032C106.872 160.032 105.24 161.728 105.24 163.984C105.24 166.256 106.872 167.92 109.064 167.92C110.232 167.92 111.336 167.44 111.96 166.624V167.312C111.96 169.04 110.952 169.92 109.368 169.92C108.088 169.92 107.208 169.344 106.456 168.688L105.736 169.552C106.504 170.32 107.768 171.056 109.4 171.056C111.672 171.056 113.192 169.648 113.192 167.248V160.208H112.024ZM109.256 166.784C107.672 166.784 106.488 165.648 106.488 164C106.488 162.352 107.672 161.2 109.256 161.2C110.6 161.2 111.976 162.032 111.976 163.984C111.976 165.936 110.616 166.784 109.256 166.784ZM118.691 160.032C117.443 160.032 116.259 160.56 115.523 161.744L116.339 162.416C116.947 161.632 117.635 161.168 118.611 161.168C119.763 161.168 120.499 161.824 120.499 163.136V163.808H118.035C116.339 163.808 115.235 164.672 115.235 165.984C115.235 167.344 116.387 168.176 117.955 168.176C119.107 168.176 120.019 167.744 120.579 166.992V168H121.731V163.2C121.731 161.104 120.467 160.032 118.691 160.032ZM118.115 167.152C117.251 167.152 116.499 166.752 116.499 165.92C116.499 165.184 117.091 164.816 118.179 164.816H120.499V165.008C120.499 166.224 119.395 167.152 118.115 167.152ZM127.56 167.056C126.584 167.056 125.912 166.736 125.912 165.568V161.312H128.344V160.208H125.912V158.08H124.68V160.208H123.368V161.312H124.68V165.648C124.68 167.424 125.768 168.176 127.304 168.176C127.8 168.176 128.2 168.096 128.6 168V166.96C128.2 167.024 127.864 167.056 127.56 167.056ZM131.062 158.128C131.558 158.128 131.974 157.744 131.974 157.232C131.974 156.736 131.558 156.336 131.062 156.336C130.55 156.336 130.134 156.736 130.134 157.232C130.134 157.744 130.55 158.128 131.062 158.128ZM130.438 168H131.67V160.208H130.438V168ZM137.88 168.16C140.168 168.16 141.976 166.352 141.976 164.096C141.976 161.824 140.168 160.032 137.896 160.032C135.608 160.032 133.816 161.808 133.816 164.096C133.816 166.352 135.608 168.16 137.88 168.16ZM137.88 167.024C136.28 167.024 135.08 165.776 135.08 164.112C135.08 162.432 136.28 161.168 137.896 161.168C139.496 161.168 140.712 162.432 140.712 164.112C140.712 165.76 139.48 167.024 137.88 167.024ZM147.693 160.032C146.685 160.032 145.853 160.416 145.293 161.04V160.208H144.141V168H145.373V163.248C145.373 162.032 146.221 161.168 147.421 161.168C148.621 161.168 149.357 162.016 149.357 163.248V168H150.589V163.104C150.589 161.296 149.533 160.032 147.693 160.032ZM157.784 168H160.92C164.504 168 166.664 165.728 166.664 162.704C166.664 159.632 164.504 157.44 160.92 157.44H157.784V168ZM159.032 166.88V158.56H160.904C163.736 158.56 165.368 160.288 165.368 162.704C165.368 165.072 163.736 166.88 160.904 166.88H159.032ZM171.598 160.032C170.35 160.032 169.166 160.56 168.43 161.744L169.246 162.416C169.854 161.632 170.542 161.168 171.518 161.168C172.67 161.168 173.406 161.824 173.406 163.136V163.808H170.942C169.246 163.808 168.142 164.672 168.142 165.984C168.142 167.344 169.294 168.176 170.862 168.176C172.014 168.176 172.926 167.744 173.486 166.992V168H174.638V163.2C174.638 161.104 173.374 160.032 171.598 160.032ZM171.022 167.152C170.158 167.152 169.406 166.752 169.406 165.92C169.406 165.184 169.998 164.816 171.086 164.816H173.406V165.008C173.406 166.224 172.302 167.152 171.022 167.152ZM180.467 167.056C179.491 167.056 178.819 166.736 178.819 165.568V161.312H181.251V160.208H178.819V158.08H177.587V160.208H176.275V161.312H177.587V165.648C177.587 167.424 178.675 168.176 180.211 168.176C180.707 168.176 181.107 168.096 181.507 168V166.96C181.107 167.024 180.771 167.056 180.467 167.056ZM186.144 160.032C184.896 160.032 183.712 160.56 182.976 161.744L183.792 162.416C184.4 161.632 185.088 161.168 186.064 161.168C187.216 161.168 187.952 161.824 187.952 163.136V163.808H185.488C183.792 163.808 182.688 164.672 182.688 165.984C182.688 167.344 183.84 168.176 185.408 168.176C186.56 168.176 187.472 167.744 188.032 166.992V168H189.184V163.2C189.184 161.104 187.92 160.032 186.144 160.032ZM185.568 167.152C184.704 167.152 183.952 166.752 183.952 165.92C183.952 165.184 184.544 164.816 185.632 164.816H187.952V165.008C187.952 166.224 186.848 167.152 185.568 167.152ZM195.894 160.032C194.726 160.032 193.654 160.528 193.03 161.344V156H191.798V168H192.95V166.768C193.558 167.648 194.694 168.176 195.91 168.176C198.134 168.176 199.75 166.4 199.75 164.112C199.75 161.808 198.118 160.032 195.894 160.032ZM195.718 167.04C194.374 167.04 193.014 166.16 193.014 164.112C193.014 162.064 194.358 161.168 195.718 161.168C197.302 161.168 198.486 162.4 198.486 164.096C198.486 165.792 197.318 167.04 195.718 167.04ZM204.707 160.032C203.459 160.032 202.275 160.56 201.539 161.744L202.355 162.416C202.963 161.632 203.651 161.168 204.627 161.168C205.779 161.168 206.515 161.824 206.515 163.136V163.808H204.051C202.355 163.808 201.251 164.672 201.251 165.984C201.251 167.344 202.403 168.176 203.971 168.176C205.123 168.176 206.035 167.744 206.595 166.992V168H207.747V163.2C207.747 161.104 206.483 160.032 204.707 160.032ZM204.131 167.152C203.267 167.152 202.515 166.752 202.515 165.92C202.515 165.184 203.107 164.816 204.195 164.816H206.515V165.008C206.515 166.224 205.411 167.152 204.131 167.152ZM212.664 168.176C214.104 168.176 215.4 167.408 215.4 165.888C215.4 164.784 214.728 164.176 213.336 163.584L212.616 163.28C211.752 162.912 211.352 162.672 211.352 162.144C211.352 161.504 211.912 161.168 212.648 161.168C213.384 161.168 214.056 161.504 214.568 162.032L215.32 161.264C214.712 160.512 213.832 160.032 212.712 160.032C211.288 160.032 210.088 160.8 210.088 162.208C210.088 163.312 210.84 163.872 212.024 164.368L212.776 164.688C213.56 165.008 214.136 165.264 214.136 165.936C214.136 166.64 213.464 167.04 212.648 167.04C211.704 167.04 211.048 166.512 210.408 165.84L209.624 166.656C210.248 167.488 211.288 168.176 212.664 168.176ZM224.602 163.552C224.602 161.472 223.05 160.032 221.05 160.032C218.81 160.032 217.066 161.84 217.066 164.112C217.066 166.4 218.842 168.176 221.194 168.176C222.474 168.176 223.53 167.648 224.314 166.816L223.594 165.984C222.954 166.624 222.186 167.04 221.21 167.04C219.674 167.04 218.506 166.032 218.346 164.48H224.506C224.538 164.32 224.602 163.968 224.602 163.552ZM221.018 161.152C222.25 161.152 223.322 161.952 223.338 163.392H218.394C218.666 162.048 219.706 161.152 221.018 161.152ZM229.07 168.176C230.51 168.176 231.806 167.408 231.806 165.888C231.806 164.784 231.134 164.176 229.742 163.584L229.022 163.28C228.158 162.912 227.758 162.672 227.758 162.144C227.758 161.504 228.318 161.168 229.054 161.168C229.79 161.168 230.462 161.504 230.974 162.032L231.726 161.264C231.118 160.512 230.238 160.032 229.118 160.032C227.694 160.032 226.494 160.8 226.494 162.208C226.494 163.312 227.246 163.872 228.43 164.368L229.182 164.688C229.966 165.008 230.542 165.264 230.542 165.936C230.542 166.64 229.87 167.04 229.054 167.04C228.11 167.04 227.454 166.512 226.814 165.84L226.03 166.656C226.654 167.488 227.694 168.176 229.07 168.176Z" fill="#43436B"/>
<rect x="20" y="186" width="195" height="30" rx="4" fill="white"/>
<path d="M37.088 200.192C37.728 199.712 38.096 198.992 38.096 198.112C38.096 196.576 36.96 195.44 35.088 195.44H31.456V206H35.808C37.904 206 39.152 204.704 39.152 202.96C39.152 201.6 38.4 200.576 37.088 200.192ZM34.96 196.56C36.208 196.56 36.816 197.216 36.816 198.192C36.816 199.168 36.192 199.84 34.96 199.84H32.704V196.56H34.96ZM35.68 204.88H32.704V200.976H35.68C37.104 200.976 37.872 201.792 37.872 202.928C37.872 204.08 37.104 204.88 35.68 204.88ZM44.0194 198.032C42.7714 198.032 41.5874 198.56 40.8514 199.744L41.6674 200.416C42.2754 199.632 42.9634 199.168 43.9394 199.168C45.0914 199.168 45.8274 199.824 45.8274 201.136V201.808H43.3634C41.6674 201.808 40.5634 202.672 40.5634 203.984C40.5634 205.344 41.7154 206.176 43.2834 206.176C44.4354 206.176 45.3474 205.744 45.9074 204.992V206H47.0594V201.2C47.0594 199.104 45.7954 198.032 44.0194 198.032ZM43.4434 205.152C42.5794 205.152 41.8274 204.752 41.8274 203.92C41.8274 203.184 42.4194 202.816 43.5074 202.816H45.8274V203.008C45.8274 204.224 44.7234 205.152 43.4434 205.152ZM53.1925 206.176C54.5845 206.176 55.7045 205.504 56.3925 204.48L55.5125 203.792C54.9365 204.56 54.2005 205.04 53.2085 205.04C51.5765 205.04 50.3765 203.744 50.3765 202.096C50.3765 200.464 51.5765 199.168 53.2085 199.168C54.2165 199.168 54.9525 199.664 55.5285 200.432L56.4085 199.728C55.7205 198.704 54.6005 198.032 53.1925 198.032C50.9205 198.032 49.1125 199.824 49.1125 202.096C49.1125 204.384 50.9205 206.176 53.1925 206.176ZM58.485 206H59.717V194H58.485V206ZM61.333 201.632L64.709 198.208H63.093L59.845 201.616L63.429 206H65.013L61.333 201.632ZM72.5863 198.208V199.456C71.9783 198.56 70.8583 198.032 69.6263 198.032C67.4343 198.032 65.8023 199.728 65.8023 201.984C65.8023 204.256 67.4343 205.92 69.6263 205.92C70.7943 205.92 71.8983 205.44 72.5223 204.624V205.312C72.5223 207.04 71.5143 207.92 69.9303 207.92C68.6503 207.92 67.7703 207.344 67.0182 206.688L66.2983 207.552C67.0663 208.32 68.3303 209.056 69.9623 209.056C72.2343 209.056 73.7543 207.648 73.7543 205.248V198.208H72.5863ZM69.8183 204.784C68.2343 204.784 67.0503 203.648 67.0503 202C67.0503 200.352 68.2343 199.2 69.8183 199.2C71.1623 199.2 72.5383 200.032 72.5383 201.984C72.5383 203.936 71.1783 204.784 69.8183 204.784ZM80.0218 198.144C79.0938 198.144 78.1818 198.544 77.6058 199.312V198.208H76.4538V206H77.6858V201.584C77.6858 200.096 78.8698 199.296 80.1338 199.296H80.5978V198.208C80.4378 198.176 80.2778 198.144 80.0218 198.144ZM85.5984 206.16C87.8864 206.16 89.6944 204.352 89.6944 202.096C89.6944 199.824 87.8864 198.032 85.6144 198.032C83.3264 198.032 81.5344 199.808 81.5344 202.096C81.5344 204.352 83.3264 206.16 85.5984 206.16ZM85.5984 205.024C83.9984 205.024 82.7984 203.776 82.7984 202.112C82.7984 200.432 83.9984 199.168 85.6144 199.168C87.2144 199.168 88.4304 200.432 88.4304 202.112C88.4304 203.76 87.1984 205.024 85.5984 205.024ZM94.996 206.176C96.788 206.176 98.212 204.896 98.212 202.896V198.208H96.98V202.976C96.98 204.256 96.084 205.04 94.996 205.04C93.876 205.04 92.98 204.256 92.98 202.976V198.208H91.764V202.896C91.764 204.896 93.172 206.176 94.996 206.176ZM104.365 198.032C103.357 198.032 102.525 198.416 101.965 199.04V198.208H100.813V206H102.045V201.248C102.045 200.032 102.893 199.168 104.093 199.168C105.293 199.168 106.029 200.016 106.029 201.248V206H107.261V201.104C107.261 199.296 106.205 198.032 104.365 198.032ZM116.052 194V199.36C115.428 198.528 114.34 198.032 113.172 198.032C110.948 198.032 109.316 199.808 109.316 202.112C109.316 204.4 110.948 206.176 113.172 206.176C114.388 206.176 115.508 205.648 116.116 204.768V206H117.284V194H116.052ZM113.348 205.04C111.748 205.04 110.58 203.792 110.58 202.096C110.58 200.4 111.764 199.168 113.348 199.168C114.692 199.168 116.068 200.064 116.068 202.112C116.068 204.16 114.692 205.04 113.348 205.04ZM127.653 206.176C129.605 206.176 131.061 205.008 131.061 203.232C131.061 201.792 130.133 201.024 128.597 200.288L127.429 199.728C126.469 199.264 125.733 198.912 125.733 197.952C125.733 196.912 126.629 196.416 127.605 196.416C128.565 196.416 129.445 196.896 130.021 197.744L130.933 197.056C130.277 196.016 129.061 195.264 127.621 195.264C125.909 195.264 124.437 196.336 124.437 198.016C124.437 199.584 125.717 200.32 126.821 200.848L128.005 201.408C129.045 201.904 129.765 202.288 129.765 203.264C129.765 204.336 128.885 205.024 127.637 205.024C126.277 205.024 125.333 204.192 124.693 203.216L123.765 203.904C124.581 205.296 125.973 206.176 127.653 206.176ZM136.911 206.176C138.303 206.176 139.423 205.504 140.111 204.48L139.231 203.792C138.655 204.56 137.919 205.04 136.927 205.04C135.295 205.04 134.095 203.744 134.095 202.096C134.095 200.464 135.295 199.168 136.927 199.168C137.935 199.168 138.671 199.664 139.247 200.432L140.127 199.728C139.439 198.704 138.319 198.032 136.911 198.032C134.639 198.032 132.831 199.824 132.831 202.096C132.831 204.384 134.639 206.176 136.911 206.176ZM145.772 198.032C144.764 198.032 143.964 198.432 143.436 199.088V194H142.204V206H143.436V201.264C143.436 200.048 144.284 199.168 145.484 199.168C146.684 199.168 147.42 200.032 147.42 201.264V206H148.652V201.104C148.652 199.296 147.596 198.032 145.772 198.032ZM158.242 201.552C158.242 199.472 156.69 198.032 154.69 198.032C152.45 198.032 150.706 199.84 150.706 202.112C150.706 204.4 152.482 206.176 154.834 206.176C156.114 206.176 157.17 205.648 157.954 204.816L157.234 203.984C156.594 204.624 155.826 205.04 154.85 205.04C153.314 205.04 152.146 204.032 151.986 202.48H158.146C158.178 202.32 158.242 201.968 158.242 201.552ZM154.658 199.152C155.89 199.152 156.962 199.952 156.978 201.392H152.034C152.306 200.048 153.346 199.152 154.658 199.152ZM166.583 194V199.36C165.959 198.528 164.871 198.032 163.703 198.032C161.479 198.032 159.847 199.808 159.847 202.112C159.847 204.4 161.479 206.176 163.703 206.176C164.919 206.176 166.039 205.648 166.647 204.768V206H167.815V194H166.583ZM163.879 205.04C162.279 205.04 161.111 203.792 161.111 202.096C161.111 200.4 162.295 199.168 163.879 199.168C165.223 199.168 166.599 200.064 166.599 202.112C166.599 204.16 165.223 205.04 163.879 205.04ZM173.652 206.176C175.444 206.176 176.868 204.896 176.868 202.896V198.208H175.636V202.976C175.636 204.256 174.74 205.04 173.652 205.04C172.532 205.04 171.636 204.256 171.636 202.976V198.208H170.42V202.896C170.42 204.896 171.828 206.176 173.652 206.176ZM179.469 206H180.701V194H179.469V206ZM190.383 201.552C190.383 199.472 188.831 198.032 186.831 198.032C184.591 198.032 182.847 199.84 182.847 202.112C182.847 204.4 184.623 206.176 186.975 206.176C188.255 206.176 189.311 205.648 190.095 204.816L189.375 203.984C188.735 204.624 187.967 205.04 186.991 205.04C185.455 205.04 184.287 204.032 184.127 202.48H190.287C190.319 202.32 190.383 201.968 190.383 201.552ZM186.799 199.152C188.031 199.152 189.103 199.952 189.119 201.392H184.175C184.447 200.048 185.487 199.152 186.799 199.152ZM196.116 198.144C195.188 198.144 194.276 198.544 193.7 199.312V198.208H192.548V206H193.78V201.584C193.78 200.096 194.964 199.296 196.228 199.296H196.692V198.208C196.532 198.176 196.372 198.144 196.116 198.144ZM200.648 206.176C202.088 206.176 203.384 205.408 203.384 203.888C203.384 202.784 202.712 202.176 201.32 201.584L200.6 201.28C199.736 200.912 199.336 200.672 199.336 200.144C199.336 199.504 199.896 199.168 200.632 199.168C201.368 199.168 202.04 199.504 202.552 200.032L203.304 199.264C202.696 198.512 201.816 198.032 200.696 198.032C199.272 198.032 198.072 198.8 198.072 200.208C198.072 201.312 198.824 201.872 200.008 202.368L200.76 202.688C201.544 203.008 202.12 203.264 202.12 203.936C202.12 204.64 201.448 205.04 200.632 205.04C199.688 205.04 199.032 204.512 198.392 203.84L197.608 204.656C198.232 205.488 199.272 206.176 200.648 206.176Z" fill="#43436B"/>
<path d="M286 142H357" stroke="#141446" stroke-width="0.5"/>
<rect x="357" y="82" width="120" height="120" rx="8" fill="#F3F3FB"/>
<g clip-path="url(#clip1)">
<path d="M445.647 146.033L445.556 155.259C445.556 159.536 442.774 163.813 437.209 167.081C426.018 173.65 407.78 173.65 396.529 167.081C390.813 163.782 388 159.444 388 155.106L388.091 145.88C388.091 150.218 390.904 154.556 396.59 157.855C407.871 164.424 426.079 164.424 437.269 157.855C442.834 154.586 445.617 150.309 445.647 146.033Z" fill="url(#paint0_linear)"/>
<path d="M445.647 146.032L445.556 155.259C445.556 158.619 443.802 162.01 440.354 164.882L440.445 155.656C443.893 152.784 445.617 149.393 445.647 146.032Z" fill="url(#paint1_linear)"/>
<path d="M440.445 155.656L440.354 164.882C439.84 165.309 439.326 165.707 438.721 166.104L438.811 156.878C439.386 156.48 439.931 156.053 440.445 155.656Z" fill="url(#paint2_linear)"/>
<path d="M438.812 156.878L438.721 166.104C438.267 166.409 437.814 166.715 437.33 166.99L437.42 157.764C437.904 157.458 438.388 157.183 438.812 156.878Z" fill="url(#paint3_linear)"/>
<path d="M437.42 157.764L437.329 166.99C437.269 167.02 437.239 167.051 437.178 167.081C436.815 167.295 436.422 167.509 436.029 167.723L436.12 158.497C436.513 158.283 436.906 158.069 437.269 157.855C437.329 157.825 437.36 157.794 437.42 157.764Z" fill="url(#paint4_linear)"/>
<path d="M436.12 158.497L436.029 167.723C435.636 167.937 435.212 168.151 434.789 168.334L434.88 159.108C435.303 158.894 435.727 158.711 436.12 158.497Z" fill="url(#paint5_linear)"/>
<path d="M434.88 159.108L434.789 168.334C434.396 168.517 434.003 168.701 433.579 168.884L433.67 159.658C434.094 159.475 434.487 159.291 434.88 159.108Z" fill="url(#paint6_linear)"/>
<path d="M433.67 159.627L433.579 168.853C433.186 169.006 432.823 169.159 432.43 169.312L432.521 160.086C432.914 159.963 433.307 159.811 433.67 159.627Z" fill="url(#paint7_linear)"/>
<path d="M432.521 160.085L432.43 169.311C432.037 169.464 431.643 169.586 431.281 169.739L431.371 160.513C431.764 160.391 432.127 160.238 432.521 160.085Z" fill="url(#paint8_linear)"/>
<path d="M431.372 160.513L431.281 169.739C430.888 169.861 430.525 169.984 430.132 170.106L430.222 160.88C430.585 160.757 430.978 160.635 431.372 160.513Z" fill="url(#paint9_linear)"/>
<path d="M430.192 160.88L430.101 170.106C429.708 170.228 429.315 170.32 428.922 170.442L429.013 161.216C429.436 161.124 429.829 161.002 430.192 160.88Z" fill="url(#paint10_linear)"/>
<path d="M429.043 161.216L428.952 170.442C428.559 170.534 428.166 170.656 427.772 170.747L427.863 161.521C428.256 161.43 428.65 161.338 429.043 161.216Z" fill="url(#paint11_linear)"/>
<path d="M427.863 161.521L427.772 170.748C427.379 170.839 426.986 170.931 426.562 171.023L426.653 161.796C427.077 161.705 427.47 161.613 427.863 161.521Z" fill="url(#paint12_linear)"/>
<path d="M426.653 161.796L426.563 171.022C426.169 171.114 425.746 171.175 425.353 171.267L425.444 162.041C425.837 161.949 426.26 161.888 426.653 161.796Z" fill="url(#paint13_linear)"/>
<path d="M425.443 162.041L425.353 171.267C424.929 171.328 424.506 171.419 424.113 171.48L424.203 162.254C424.596 162.163 425.02 162.102 425.443 162.041Z" fill="url(#paint14_linear)"/>
<path d="M424.173 162.224L424.082 171.45C423.659 171.511 423.235 171.572 422.782 171.633L422.872 162.407C423.326 162.377 423.75 162.316 424.173 162.224Z" fill="url(#paint15_linear)"/>
<path d="M422.902 162.407L422.812 171.633C422.388 171.695 421.935 171.725 421.481 171.786L421.572 162.56C422.025 162.53 422.449 162.468 422.902 162.407Z" fill="url(#paint16_linear)"/>
<path d="M421.572 162.56L421.481 171.786C421.027 171.817 420.574 171.878 420.12 171.908L420.211 162.682C420.665 162.652 421.118 162.591 421.572 162.56Z" fill="url(#paint17_linear)"/>
<path d="M420.211 162.682L420.12 171.908C419.667 171.939 419.183 171.969 418.699 171.969L418.789 162.743C419.273 162.713 419.757 162.713 420.211 162.682Z" fill="url(#paint18_linear)"/>
<path d="M418.82 162.743L418.729 171.969C418.245 172 417.731 172 417.247 172L417.338 162.774C417.822 162.774 418.306 162.774 418.82 162.743Z" fill="url(#paint19_linear)"/>
<path d="M417.338 162.774L417.247 172C416.703 172 416.188 172 415.644 172L415.735 162.774C416.249 162.774 416.793 162.774 417.338 162.774Z" fill="url(#paint20_linear)"/>
<path d="M415.735 162.774L415.644 172C415.039 172 414.434 171.969 413.859 171.908L413.95 162.682C414.525 162.713 415.13 162.743 415.735 162.774Z" fill="url(#paint21_linear)"/>
<path d="M413.92 162.682L413.829 171.908C413.073 171.847 412.287 171.786 411.531 171.725L411.621 162.499C412.408 162.56 413.164 162.621 413.92 162.682Z" fill="url(#paint22_linear)"/>
<path d="M411.622 162.499L411.531 171.725C408.204 171.358 404.968 170.656 401.973 169.586L402.064 160.36C405.058 161.399 408.295 162.132 411.622 162.499Z" fill="url(#paint23_linear)"/>
<path d="M402.094 160.36L402.004 169.586C401.157 169.281 400.34 168.975 399.554 168.609L399.644 159.383C400.431 159.749 401.247 160.055 402.094 160.36Z" fill="url(#paint24_linear)"/>
<path d="M399.614 159.383L399.523 168.609C398.918 168.334 398.313 168.059 397.708 167.753L397.799 158.527C398.404 158.833 399.009 159.108 399.614 159.383Z" fill="url(#paint25_linear)"/>
<path d="M397.829 158.527L397.739 167.754C397.315 167.54 396.892 167.295 396.499 167.081C396.438 167.051 396.347 166.99 396.287 166.959L396.378 157.733C396.438 157.764 396.529 157.825 396.589 157.855C396.983 158.069 397.406 158.314 397.829 158.527Z" fill="url(#paint26_linear)"/>
<path d="M396.378 157.733L396.287 166.959C395.864 166.715 395.471 166.47 395.108 166.196L395.198 156.969C395.561 157.214 395.955 157.458 396.378 157.733Z" fill="url(#paint27_linear)"/>
<path d="M395.168 156.969L395.077 166.195C394.744 165.951 394.382 165.737 394.079 165.493L394.17 156.267C394.503 156.511 394.835 156.725 395.168 156.969Z" fill="url(#paint28_linear)"/>
<path d="M394.17 156.267L394.079 165.493C393.777 165.249 393.474 165.035 393.202 164.79L393.293 155.564C393.565 155.778 393.867 156.022 394.17 156.267Z" fill="url(#paint29_linear)"/>
<path d="M393.293 155.564L393.202 164.79C392.93 164.576 392.688 164.332 392.416 164.118L392.507 154.892C392.779 155.106 393.021 155.32 393.293 155.564Z" fill="url(#paint30_linear)"/>
<path d="M392.507 154.861L392.416 164.087C392.174 163.874 391.932 163.629 391.72 163.415L391.811 154.189C392.053 154.434 392.265 154.648 392.507 154.861Z" fill="url(#paint31_linear)"/>
<path d="M391.811 154.189L391.72 163.415C391.508 163.201 391.297 162.957 391.085 162.743L391.176 153.517C391.387 153.731 391.599 153.975 391.811 154.189Z" fill="url(#paint32_linear)"/>
<path d="M391.206 153.517L391.115 162.743C390.934 162.529 390.722 162.285 390.571 162.071L390.662 152.845C390.813 153.059 390.994 153.273 391.206 153.517Z" fill="url(#paint33_linear)"/>
<path d="M390.632 152.814L390.541 162.041C390.359 161.796 390.208 161.582 390.027 161.338L390.117 152.112C390.299 152.356 390.45 152.601 390.632 152.814Z" fill="url(#paint34_linear)"/>
<path d="M390.147 152.142L390.057 161.368C389.905 161.124 389.754 160.91 389.603 160.666L389.694 151.44C389.815 151.654 389.966 151.898 390.147 152.142Z" fill="url(#paint35_linear)"/>
<path d="M389.694 151.44L389.603 160.666C389.452 160.421 389.331 160.177 389.21 159.933L389.3 150.707C389.421 150.951 389.542 151.195 389.694 151.44Z" fill="url(#paint36_linear)"/>
<path d="M389.27 150.707L389.18 159.933C389.059 159.688 388.938 159.444 388.817 159.169L388.907 149.943C389.028 150.187 389.149 150.462 389.27 150.707Z" fill="url(#paint37_linear)"/>
<path d="M388.938 149.943L388.847 159.169C388.726 158.894 388.635 158.649 388.544 158.375L388.635 149.148C388.726 149.423 388.817 149.698 388.938 149.943Z" fill="url(#paint38_linear)"/>
<path d="M388.635 149.149L388.544 158.375C388.453 158.1 388.363 157.825 388.302 157.55L388.393 148.354C388.453 148.629 388.544 148.874 388.635 149.149Z" fill="url(#paint39_linear)"/>
<path d="M388.393 148.354L388.302 157.58C388.242 157.275 388.181 157 388.121 156.694L388.212 147.468C388.272 147.743 388.333 148.049 388.393 148.354Z" fill="url(#paint40_linear)"/>
<path d="M388.212 147.469L388.121 156.695C388.06 156.389 388.03 156.053 388 155.748L388.121 146.521C388.121 146.827 388.151 147.132 388.212 147.469Z" fill="url(#paint41_linear)"/>
<path d="M388.121 146.521L388.03 155.747C388.03 155.534 388 155.32 388 155.106L388.091 145.88C388.091 146.063 388.091 146.277 388.121 146.521Z" fill="url(#paint42_linear)"/>
<path d="M437.088 134.026C448.369 140.595 448.43 151.257 437.209 157.825C426.018 164.393 407.78 164.393 396.529 157.825C385.278 151.257 385.218 140.625 396.408 134.026C407.599 127.428 425.837 127.458 437.088 134.026Z" fill="white"/>
<path d="M445.647 128.925L445.556 138.151C445.556 142.428 442.774 146.705 437.209 149.974C426.018 156.542 407.78 156.542 396.529 149.974C390.813 146.674 388 142.336 388 137.998L388.091 128.772C388.091 133.11 390.904 137.448 396.59 140.748C407.871 147.316 426.079 147.316 437.269 140.748C442.834 137.479 445.617 133.202 445.647 128.925Z" fill="url(#paint43_linear)"/>
<path d="M445.647 128.925L445.556 138.151C445.556 141.511 443.802 144.902 440.354 147.774L440.445 138.548C443.893 135.676 445.617 132.285 445.647 128.925Z" fill="url(#paint44_linear)"/>
<path d="M440.445 138.548L440.354 147.774C439.84 148.202 439.326 148.599 438.721 148.996L438.811 139.77C439.386 139.373 439.931 138.945 440.445 138.548Z" fill="url(#paint45_linear)"/>
<path d="M438.812 139.77L438.721 148.996C438.267 149.301 437.814 149.607 437.33 149.882L437.42 140.656C437.904 140.35 438.388 140.075 438.812 139.77Z" fill="url(#paint46_linear)"/>
<path d="M437.42 140.656L437.329 149.882C437.269 149.912 437.239 149.943 437.178 149.973C436.815 150.187 436.422 150.401 436.029 150.615L436.12 141.389C436.513 141.175 436.906 140.961 437.269 140.747C437.329 140.717 437.36 140.686 437.42 140.656Z" fill="url(#paint47_linear)"/>
<path d="M436.12 141.389L436.029 150.615C435.636 150.829 435.212 151.043 434.789 151.226L434.88 142C435.303 141.786 435.727 141.603 436.12 141.389Z" fill="url(#paint48_linear)"/>
<path d="M434.88 142L434.789 151.226C434.396 151.41 434.003 151.593 433.579 151.776L433.67 142.55C434.094 142.367 434.487 142.183 434.88 142Z" fill="url(#paint49_linear)"/>
<path d="M433.67 142.52L433.579 151.746C433.186 151.898 432.823 152.051 432.43 152.204L432.521 142.978C432.914 142.856 433.307 142.703 433.67 142.52Z" fill="url(#paint50_linear)"/>
<path d="M432.521 142.978L432.43 152.204C432.037 152.356 431.643 152.479 431.281 152.631L431.371 143.405C431.764 143.283 432.127 143.13 432.521 142.978Z" fill="url(#paint51_linear)"/>
<path d="M431.372 143.405L431.281 152.631C430.888 152.754 430.525 152.876 430.132 152.998L430.222 143.772C430.585 143.65 430.978 143.527 431.372 143.405Z" fill="url(#paint52_linear)"/>
<path d="M430.192 143.772L430.101 152.998C429.708 153.12 429.315 153.212 428.922 153.334L429.013 144.108C429.436 144.016 429.829 143.894 430.192 143.772Z" fill="url(#paint53_linear)"/>
<path d="M429.043 144.108L428.952 153.334C428.559 153.426 428.166 153.548 427.772 153.64L427.863 144.414C428.256 144.322 428.65 144.23 429.043 144.108Z" fill="url(#paint54_linear)"/>
<path d="M427.863 144.414L427.772 153.64C427.379 153.731 426.986 153.823 426.562 153.915L426.653 144.689C427.077 144.597 427.47 144.505 427.863 144.414Z" fill="url(#paint55_linear)"/>
<path d="M426.653 144.688L426.563 153.914C426.169 154.006 425.746 154.067 425.353 154.159L425.444 144.933C425.837 144.841 426.26 144.78 426.653 144.688Z" fill="url(#paint56_linear)"/>
<path d="M425.443 144.933L425.353 154.159C424.929 154.22 424.506 154.312 424.113 154.373L424.203 145.147C424.596 145.055 425.02 144.994 425.443 144.933Z" fill="url(#paint57_linear)"/>
<path d="M424.173 145.116L424.082 154.342C423.659 154.404 423.235 154.465 422.782 154.526L422.872 145.3C423.326 145.269 423.75 145.208 424.173 145.116Z" fill="url(#paint58_linear)"/>
<path d="M422.902 145.3L422.812 154.526C422.388 154.587 421.935 154.617 421.481 154.678L421.572 145.452C422.025 145.422 422.449 145.361 422.902 145.3Z" fill="url(#paint59_linear)"/>
<path d="M421.572 145.452L421.481 154.678C421.027 154.709 420.574 154.77 420.12 154.801L420.211 145.574C420.665 145.544 421.118 145.483 421.572 145.452Z" fill="url(#paint60_linear)"/>
<path d="M420.211 145.574L420.12 154.801C419.667 154.831 419.183 154.862 418.699 154.862L418.789 145.636C419.273 145.605 419.757 145.605 420.211 145.574Z" fill="url(#paint61_linear)"/>
<path d="M418.82 145.635L418.729 154.861C418.245 154.892 417.731 154.892 417.247 154.892L417.338 145.666C417.822 145.666 418.306 145.666 418.82 145.635Z" fill="url(#paint62_linear)"/>
<path d="M417.338 145.666L417.247 154.892C416.703 154.892 416.188 154.892 415.644 154.892L415.735 145.666C416.249 145.666 416.793 145.666 417.338 145.666Z" fill="url(#paint63_linear)"/>
<path d="M415.735 145.666L415.644 154.892C415.039 154.892 414.434 154.862 413.859 154.801L413.95 145.574C414.525 145.605 415.13 145.636 415.735 145.666Z" fill="url(#paint64_linear)"/>
<path d="M413.92 145.574L413.829 154.8C413.073 154.739 412.287 154.678 411.531 154.617L411.621 145.391C412.408 145.452 413.164 145.513 413.92 145.574Z" fill="url(#paint65_linear)"/>
<path d="M411.622 145.391L411.531 154.617C408.204 154.251 404.968 153.548 401.973 152.479L402.064 143.253C405.058 144.291 408.295 145.024 411.622 145.391Z" fill="url(#paint66_linear)"/>
<path d="M402.094 143.252L402.004 152.478C401.157 152.173 400.34 151.867 399.554 151.501L399.644 142.275C400.431 142.641 401.247 142.947 402.094 143.252Z" fill="url(#paint67_linear)"/>
<path d="M399.614 142.275L399.523 151.501C398.918 151.226 398.313 150.951 397.708 150.646L397.799 141.42C398.404 141.725 399.009 142 399.614 142.275Z" fill="url(#paint68_linear)"/>
<path d="M397.829 141.42L397.739 150.646C397.315 150.432 396.892 150.187 396.499 149.974C396.438 149.943 396.347 149.882 396.287 149.851L396.378 140.625C396.438 140.656 396.529 140.717 396.589 140.748C396.983 140.961 397.406 141.206 397.829 141.42Z" fill="url(#paint69_linear)"/>
<path d="M396.378 140.625L396.287 149.852C395.864 149.607 395.471 149.363 395.108 149.088L395.198 139.862C395.561 140.106 395.955 140.35 396.378 140.625Z" fill="url(#paint70_linear)"/>
<path d="M395.168 139.862L395.077 149.088C394.744 148.843 394.382 148.629 394.079 148.385L394.17 139.159C394.503 139.403 394.835 139.617 395.168 139.862Z" fill="url(#paint71_linear)"/>
<path d="M394.17 139.159L394.079 148.385C393.777 148.141 393.474 147.927 393.202 147.682L393.293 138.456C393.565 138.67 393.867 138.915 394.17 139.159Z" fill="url(#paint72_linear)"/>
<path d="M393.293 138.456L393.202 147.682C392.93 147.469 392.688 147.224 392.416 147.01L392.507 137.784C392.779 137.998 393.021 138.212 393.293 138.456Z" fill="url(#paint73_linear)"/>
<path d="M392.507 137.754L392.416 146.98C392.174 146.766 391.932 146.521 391.72 146.308L391.811 137.082C392.053 137.326 392.265 137.54 392.507 137.754Z" fill="url(#paint74_linear)"/>
<path d="M391.811 137.081L391.72 146.307C391.508 146.094 391.297 145.849 391.085 145.635L391.176 136.409C391.387 136.623 391.599 136.868 391.811 137.081Z" fill="url(#paint75_linear)"/>
<path d="M391.206 136.41L391.115 145.636C390.934 145.422 390.722 145.177 390.571 144.964L390.662 135.738C390.813 135.951 390.994 136.165 391.206 136.41Z" fill="url(#paint76_linear)"/>
<path d="M390.632 135.707L390.541 144.933C390.359 144.688 390.208 144.474 390.027 144.23L390.117 135.004C390.299 135.248 390.45 135.493 390.632 135.707Z" fill="url(#paint77_linear)"/>
<path d="M390.147 135.035L390.057 144.261C389.905 144.016 389.754 143.802 389.603 143.558L389.694 134.332C389.815 134.546 389.966 134.79 390.147 135.035Z" fill="url(#paint78_linear)"/>
<path d="M389.694 134.332L389.603 143.558C389.452 143.314 389.331 143.069 389.21 142.825L389.3 133.599C389.421 133.843 389.542 134.088 389.694 134.332Z" fill="url(#paint79_linear)"/>
<path d="M389.27 133.599L389.18 142.825C389.059 142.581 388.938 142.336 388.817 142.061L388.907 132.835C389.028 133.079 389.149 133.354 389.27 133.599Z" fill="url(#paint80_linear)"/>
<path d="M388.938 132.835L388.847 142.092C388.726 141.817 388.635 141.572 388.544 141.297L388.635 132.071C388.726 132.316 388.817 132.591 388.938 132.835Z" fill="url(#paint81_linear)"/>
<path d="M388.635 132.041L388.544 141.297C388.453 141.023 388.363 140.748 388.302 140.473L388.393 131.247C388.453 131.522 388.544 131.766 388.635 132.041Z" fill="url(#paint82_linear)"/>
<path d="M388.393 131.247L388.302 140.473C388.242 140.167 388.181 139.892 388.121 139.587L388.212 130.361C388.272 130.636 388.333 130.941 388.393 131.247Z" fill="url(#paint83_linear)"/>
<path d="M388.212 130.361L388.121 139.587C388.06 139.281 388.03 138.945 388 138.64L388.121 129.414C388.121 129.719 388.151 130.025 388.212 130.361Z" fill="url(#paint84_linear)"/>
<path d="M388.121 129.414L388.03 138.64C388 138.426 388 138.212 388 137.998L388.091 128.772C388.091 128.955 388.091 129.169 388.121 129.414Z" fill="url(#paint85_linear)"/>
<path d="M437.088 116.919C448.369 123.487 448.43 134.149 437.209 140.717C425.988 147.285 407.78 147.285 396.529 140.717C385.278 134.149 385.218 123.517 396.408 116.919C407.599 110.32 425.837 110.35 437.088 116.919Z" fill="white"/>
</g>
<path d="M366.581 231.12H364.475L361.523 236.286L358.589 231.12H356.465L360.569 238.212V243H362.477V238.212L366.581 231.12ZM371.101 243.198C373.729 243.198 375.799 241.146 375.799 238.572C375.799 235.998 373.729 233.964 371.101 233.964C368.491 233.964 366.439 235.98 366.439 238.572C366.439 241.146 368.491 243.198 371.101 243.198ZM371.101 241.452C369.535 241.452 368.365 240.228 368.365 238.59C368.365 236.934 369.535 235.692 371.119 235.692C372.667 235.692 373.855 236.934 373.855 238.59C373.855 240.21 372.667 241.452 371.101 241.452ZM381.746 243.198C383.906 243.198 385.58 241.686 385.58 239.292V234.162H383.69V239.436C383.69 240.678 382.826 241.452 381.746 241.452C380.63 241.452 379.748 240.678 379.748 239.436V234.162H377.876V239.292C377.876 241.686 379.55 243.198 381.746 243.198ZM392.569 234.072C391.561 234.072 390.625 234.504 389.995 235.314V234.162H388.231V243H390.121V238.284C390.121 236.646 391.309 235.836 392.713 235.836H393.289V234.162C393.091 234.108 392.875 234.072 392.569 234.072ZM400.152 243H403.878C407.802 243 410.34 240.498 410.34 237.042C410.34 233.532 407.802 231.12 403.878 231.12H400.152V243ZM402.06 241.29V232.848H403.86C406.65 232.848 408.378 234.504 408.378 237.042C408.378 239.508 406.65 241.29 403.86 241.29H402.06ZM415.891 233.964C414.397 233.964 413.083 234.558 412.165 235.854L413.263 236.97C413.965 236.142 414.685 235.656 415.711 235.656C416.917 235.656 417.601 236.322 417.601 237.546V238.122H415.099C413.119 238.122 411.841 239.094 411.841 240.642C411.841 242.172 413.065 243.198 414.919 243.198C416.143 243.198 417.115 242.766 417.745 242.01V243H419.509V237.654C419.509 235.206 418.015 233.964 415.891 233.964ZM415.315 241.74C414.451 241.74 413.767 241.344 413.767 240.57C413.767 239.85 414.325 239.49 415.333 239.49H417.601V239.652C417.601 240.858 416.557 241.74 415.315 241.74ZM426.225 241.488C425.127 241.488 424.479 241.128 424.479 239.958V235.8H427.107V234.162H424.479V231.84H422.571V234.162H421.131V235.8H422.571V240.12C422.571 242.262 423.867 243.198 425.829 243.198C426.423 243.198 426.909 243.108 427.395 243V241.398C426.927 241.452 426.549 241.488 426.225 241.488ZM432.713 233.964C431.219 233.964 429.905 234.558 428.987 235.854L430.085 236.97C430.787 236.142 431.507 235.656 432.533 235.656C433.739 235.656 434.423 236.322 434.423 237.546V238.122H431.921C429.941 238.122 428.663 239.094 428.663 240.642C428.663 242.172 429.887 243.198 431.741 243.198C432.965 243.198 433.937 242.766 434.567 242.01V243H436.331V237.654C436.331 235.206 434.837 233.964 432.713 233.964ZM432.137 241.74C431.273 241.74 430.589 241.344 430.589 240.57C430.589 239.85 431.147 239.49 432.155 239.49H434.423V239.652C434.423 240.858 433.379 241.74 432.137 241.74ZM443.804 233.964C442.58 233.964 441.518 234.432 440.852 235.242V229.5H438.962V243H440.726V241.776C441.392 242.676 442.526 243.198 443.822 243.198C446.324 243.198 448.142 241.218 448.142 238.59C448.142 235.962 446.324 233.964 443.804 233.964ZM443.498 241.47C442.184 241.47 440.834 240.606 440.834 238.59C440.834 236.592 442.166 235.692 443.498 235.692C445.01 235.692 446.198 236.862 446.198 238.572C446.198 240.282 445.028 241.47 443.498 241.47ZM453.719 233.964C452.225 233.964 450.911 234.558 449.993 235.854L451.091 236.97C451.793 236.142 452.513 235.656 453.539 235.656C454.745 235.656 455.429 236.322 455.429 237.546V238.122H452.927C450.947 238.122 449.669 239.094 449.669 240.642C449.669 242.172 450.893 243.198 452.747 243.198C453.971 243.198 454.943 242.766 455.573 242.01V243H457.337V237.654C457.337 235.206 455.843 233.964 453.719 233.964ZM453.143 241.74C452.279 241.74 451.595 241.344 451.595 240.57C451.595 239.85 452.153 239.49 453.161 239.49H455.429V239.652C455.429 240.858 454.385 241.74 453.143 241.74ZM462.704 243.198C464.468 243.198 465.98 242.28 465.98 240.498C465.98 239.202 465.17 238.5 463.568 237.834L462.722 237.492C461.912 237.15 461.552 236.916 461.552 236.448C461.552 235.872 462.056 235.602 462.758 235.602C463.532 235.602 464.27 235.926 464.828 236.502L465.854 235.332C465.116 234.45 464.072 233.964 462.794 233.964C461.048 233.964 459.68 234.882 459.68 236.52C459.68 237.852 460.562 238.5 461.984 239.094L462.884 239.472C463.604 239.76 464.126 239.994 464.126 240.57C464.126 241.236 463.478 241.56 462.704 241.56C461.696 241.56 460.922 241.038 460.22 240.3L459.14 241.488C459.896 242.478 461.138 243.198 462.704 243.198ZM476.259 238.014C476.259 235.692 474.531 233.964 472.173 233.964C469.599 233.964 467.601 235.998 467.601 238.59C467.601 241.2 469.617 243.198 472.353 243.198C473.757 243.198 474.945 242.658 475.881 241.776L474.981 240.48C474.243 241.128 473.433 241.524 472.407 241.524C470.895 241.524 469.779 240.66 469.527 239.202H476.115C476.169 238.968 476.259 238.5 476.259 238.014ZM472.101 235.566C473.307 235.566 474.333 236.34 474.369 237.726H469.563C469.851 236.412 470.859 235.566 472.101 235.566Z" fill="#141446"/>
<path d="M90.5454 337.198C92.7774 337.198 94.6494 336.118 95.6394 334.462L94.1994 333.4C93.3714 334.678 92.1474 335.452 90.5634 335.452C88.1154 335.452 86.2794 333.598 86.2794 331.06C86.2794 328.522 88.1154 326.668 90.5634 326.668C92.1474 326.668 93.3714 327.442 94.1994 328.72L95.6394 327.658C94.6314 326.002 92.7774 324.922 90.5454 324.922C87.0714 324.922 84.2994 327.586 84.2994 331.06C84.2994 334.552 87.0714 337.198 90.5454 337.198ZM101.576 337.198C103.736 337.198 105.41 335.686 105.41 333.292V328.162H103.52V333.436C103.52 334.678 102.656 335.452 101.576 335.452C100.46 335.452 99.5777 334.678 99.5777 333.436V328.162H97.7057V333.292C97.7057 335.686 99.3797 337.198 101.576 337.198ZM112.903 327.964C111.679 327.964 110.617 328.432 109.951 329.242V323.5H108.061V337H109.825V335.776C110.491 336.676 111.625 337.198 112.921 337.198C115.423 337.198 117.241 335.218 117.241 332.59C117.241 329.962 115.423 327.964 112.903 327.964ZM112.597 335.47C111.283 335.47 109.933 334.606 109.933 332.59C109.933 330.592 111.265 329.692 112.597 329.692C114.109 329.692 115.297 330.862 115.297 332.572C115.297 334.282 114.127 335.47 112.597 335.47ZM127.517 332.014C127.517 329.692 125.789 327.964 123.431 327.964C120.857 327.964 118.859 329.998 118.859 332.59C118.859 335.2 120.875 337.198 123.611 337.198C125.015 337.198 126.203 336.658 127.139 335.776L126.239 334.48C125.501 335.128 124.691 335.524 123.665 335.524C122.153 335.524 121.037 334.66 120.785 333.202H127.373C127.427 332.968 127.517 332.5 127.517 332.014ZM123.359 329.566C124.565 329.566 125.591 330.34 125.627 331.726H120.821C121.109 330.412 122.117 329.566 123.359 329.566ZM140.379 337.198C142.611 337.198 144.483 336.118 145.473 334.462L144.033 333.4C143.205 334.678 141.981 335.452 140.397 335.452C137.949 335.452 136.113 333.598 136.113 331.06C136.113 328.522 137.949 326.668 140.397 326.668C141.981 326.668 143.205 327.442 144.033 328.72L145.473 327.658C144.465 326.002 142.611 324.922 140.379 324.922C136.905 324.922 134.133 327.586 134.133 331.06C134.133 334.552 136.905 337.198 140.379 337.198ZM147.63 337H149.52V323.5H147.63V337ZM156.357 337.198C158.985 337.198 161.055 335.146 161.055 332.572C161.055 329.998 158.985 327.964 156.357 327.964C153.747 327.964 151.695 329.98 151.695 332.572C151.695 335.146 153.747 337.198 156.357 337.198ZM156.357 335.452C154.791 335.452 153.621 334.228 153.621 332.59C153.621 330.934 154.791 329.692 156.375 329.692C157.923 329.692 159.111 330.934 159.111 332.59C159.111 334.21 157.923 335.452 156.357 335.452ZM167.002 337.198C169.162 337.198 170.836 335.686 170.836 333.292V328.162H168.946V333.436C168.946 334.678 168.082 335.452 167.002 335.452C165.886 335.452 165.004 334.678 165.004 333.436V328.162H163.132V333.292C163.132 335.686 164.806 337.198 167.002 337.198ZM180.201 323.5V329.242C179.535 328.432 178.473 327.964 177.249 327.964C174.747 327.964 172.929 329.962 172.929 332.59C172.929 335.218 174.729 337.198 177.249 337.198C178.563 337.198 179.697 336.658 180.345 335.74V337H182.109V323.5H180.201ZM177.573 335.47C176.025 335.47 174.855 334.282 174.855 332.572C174.855 330.862 176.043 329.692 177.573 329.692C178.887 329.692 180.237 330.592 180.237 332.59C180.237 334.606 178.887 335.47 177.573 335.47Z" fill="#141446"/>
<g clip-path="url(#clip2)">
<path d="M146.211 253.605L148.755 251.012L148.926 249.919C144.294 245.628 136.946 246.116 132.771 250.93C131.607 252.267 130.751 253.93 130.295 255.663L131.207 255.535L136.285 254.686L136.673 254.279C138.932 251.756 142.754 251.407 145.355 253.558L146.211 253.605Z" fill="#EA4335"/>
<path d="M152.372 255.593C151.79 253.407 150.592 251.43 148.926 249.93L145.366 253.558C146.873 254.814 147.728 256.698 147.694 258.674V259.314C149.451 259.314 150.866 260.756 150.866 262.546C150.866 264.337 149.451 265.744 147.694 265.744H141.339L140.711 266.43V270.302L141.339 270.907H147.694C152.246 270.942 155.977 267.244 156.011 262.605C156.023 259.814 154.654 257.174 152.372 255.593Z" fill="#4285F4"/>
<path d="M134.995 270.93H141.339V265.756H134.995C134.539 265.756 134.105 265.651 133.695 265.465L132.793 265.744L130.238 268.337L130.01 269.221C131.447 270.314 133.193 270.942 134.995 270.93Z" fill="#34A853"/>
<path d="M134.995 254.14C130.443 254.163 126.769 257.954 126.792 262.593C126.804 265.186 127.99 267.628 130.01 269.209L133.683 265.465C132.086 264.733 131.379 262.814 132.097 261.186C132.816 259.558 134.699 258.837 136.296 259.57C137.004 259.895 137.563 260.465 137.882 261.186L141.556 257.442C140.004 255.349 137.563 254.128 134.995 254.14Z" fill="#FBBC05"/>
<path d="M81.1999 257.221C81.1999 257.651 81.2455 258 81.3254 258.256C81.4167 258.512 81.5308 258.791 81.6905 259.093C81.7476 259.186 81.7704 259.279 81.7704 259.36C81.7704 259.477 81.7019 259.593 81.5536 259.709L80.8348 260.198C80.7321 260.267 80.6294 260.302 80.5382 260.302C80.4241 260.302 80.31 260.244 80.1959 260.14C80.0361 259.965 79.8992 259.779 79.7851 259.593C79.671 259.395 79.557 259.174 79.4315 258.907C78.5415 259.977 77.4234 260.512 76.0771 260.512C75.1187 260.512 74.3543 260.233 73.7952 259.674C73.2362 259.116 72.9509 258.372 72.9509 257.442C72.9509 256.454 73.2932 255.651 73.9892 255.047C74.6852 254.442 75.6093 254.14 76.7845 254.14C77.1724 254.14 77.5717 254.174 77.9939 254.233C78.416 254.291 78.8496 254.384 79.3059 254.488V253.64C79.3059 252.756 79.1234 252.14 78.7697 251.779C78.4046 251.419 77.7885 251.244 76.91 251.244C76.5107 251.244 76.0999 251.291 75.6778 251.395C75.2556 251.5 74.8449 251.628 74.4456 251.791C74.263 251.872 74.1261 251.919 74.0462 251.942C73.9664 251.965 73.9093 251.977 73.8637 251.977C73.7039 251.977 73.6241 251.86 73.6241 251.616V251.047C73.6241 250.86 73.6469 250.721 73.7039 250.64C73.761 250.558 73.8637 250.477 74.0234 250.395C74.4227 250.186 74.9019 250.012 75.461 249.872C76.02 249.721 76.6133 249.651 77.2409 249.651C78.5986 249.651 79.5912 249.965 80.2301 250.593C80.8576 251.221 81.1771 252.174 81.1771 253.454V257.221H81.1999ZM76.5677 258.988C76.9442 258.988 77.3321 258.919 77.7429 258.779C78.1536 258.64 78.5187 258.384 78.8268 258.035C79.0093 257.814 79.1462 257.57 79.2147 257.291C79.2831 257.012 79.3288 256.674 79.3288 256.279V255.791C78.9979 255.709 78.6442 255.64 78.2791 255.593C77.914 255.547 77.5603 255.523 77.2066 255.523C76.4422 255.523 75.8831 255.674 75.5066 255.988C75.1301 256.302 74.9476 256.744 74.9476 257.326C74.9476 257.872 75.0845 258.279 75.3697 258.558C75.6435 258.849 76.0429 258.988 76.5677 258.988ZM85.7294 260.244C85.5241 260.244 85.3871 260.209 85.2959 260.128C85.2046 260.058 85.1247 259.895 85.0563 259.674L82.3751 250.686C82.3066 250.454 82.2724 250.302 82.2724 250.221C82.2724 250.035 82.3637 249.93 82.5462 249.93H83.6643C83.8811 249.93 84.0294 249.965 84.1093 250.047C84.2006 250.116 84.269 250.279 84.3375 250.5L86.2543 258.198L88.0341 250.5C88.0912 250.267 88.1596 250.116 88.2509 250.047C88.3422 249.977 88.5019 249.93 88.7073 249.93H89.62C89.8368 249.93 89.9851 249.965 90.0764 250.047C90.1677 250.116 90.2475 250.279 90.2932 250.5L92.0959 258.291L94.0697 250.5C94.1381 250.267 94.218 250.116 94.2979 250.047C94.3891 249.977 94.5375 249.93 94.7428 249.93H95.8039C95.9865 249.93 96.0891 250.023 96.0891 250.221C96.0891 250.279 96.0777 250.337 96.0663 250.407C96.0549 250.477 96.0321 250.57 95.9865 250.698L93.2368 259.686C93.1683 259.919 93.0885 260.07 92.9972 260.14C92.9059 260.209 92.7576 260.256 92.5636 260.256H91.5824C91.3657 260.256 91.2173 260.221 91.1261 260.14C91.0348 260.058 90.9549 259.907 90.9093 259.674L89.1408 252.174L87.3838 259.663C87.3267 259.895 87.2583 260.047 87.167 260.128C87.0757 260.209 86.916 260.244 86.7106 260.244H85.7294ZM100.39 260.558C99.7972 260.558 99.2039 260.488 98.6334 260.349C98.063 260.209 97.618 260.058 97.3214 259.884C97.1388 259.779 97.0133 259.663 96.9677 259.558C96.922 259.454 96.8992 259.337 96.8992 259.233V258.64C96.8992 258.395 96.9905 258.279 97.1616 258.279C97.2301 258.279 97.2985 258.291 97.367 258.314C97.4354 258.337 97.5381 258.384 97.6522 258.43C98.0401 258.605 98.4623 258.744 98.9073 258.837C99.3636 258.93 99.8086 258.977 100.265 258.977C100.984 258.977 101.543 258.849 101.931 258.593C102.319 258.337 102.524 257.965 102.524 257.488C102.524 257.163 102.421 256.895 102.216 256.674C102.011 256.454 101.623 256.256 101.064 256.07L99.4093 255.547C98.5764 255.279 97.9603 254.884 97.5838 254.36C97.2073 253.849 97.0133 253.279 97.0133 252.674C97.0133 252.186 97.116 251.756 97.3214 251.384C97.5267 251.012 97.8006 250.686 98.1428 250.43C98.4851 250.163 98.873 249.965 99.3294 249.826C99.7858 249.686 100.265 249.628 100.767 249.628C101.018 249.628 101.28 249.64 101.531 249.674C101.794 249.709 102.033 249.756 102.273 249.802C102.501 249.86 102.718 249.919 102.923 249.988C103.129 250.058 103.288 250.128 103.403 250.198C103.562 250.291 103.676 250.384 103.745 250.488C103.813 250.581 103.848 250.709 103.848 250.872V251.419C103.848 251.663 103.756 251.791 103.585 251.791C103.494 251.791 103.346 251.744 103.152 251.651C102.501 251.349 101.771 251.198 100.961 251.198C100.311 251.198 99.7972 251.302 99.4435 251.523C99.0898 251.744 98.9073 252.081 98.9073 252.558C98.9073 252.884 99.0213 253.163 99.2495 253.384C99.4777 253.605 99.8999 253.826 100.505 254.023L102.125 254.547C102.946 254.814 103.539 255.186 103.893 255.663C104.247 256.14 104.418 256.686 104.418 257.291C104.418 257.791 104.315 258.244 104.121 258.64C103.916 259.035 103.642 259.384 103.288 259.663C102.935 259.954 102.513 260.163 102.022 260.314C101.509 260.477 100.972 260.558 100.39 260.558Z" fill="#252F3E"/>
<path d="M102.547 266.209C98.7932 269.035 93.3395 270.535 88.6502 270.535C82.0784 270.535 76.1569 268.058 71.6844 263.942C71.3308 263.616 71.6502 263.174 72.0724 263.43C76.9099 266.291 82.8771 268.023 89.0495 268.023C93.214 268.023 97.7891 267.14 101.999 265.326C102.627 265.035 103.163 265.744 102.547 266.209Z" fill="#FF9900"/>
<path d="M104.11 264.395C103.631 263.767 100.938 264.093 99.7173 264.244C99.3522 264.291 99.2951 263.965 99.626 263.721C101.771 262.186 105.296 262.628 105.707 263.14C106.118 263.663 105.593 267.256 103.585 268.977C103.277 269.244 102.98 269.105 103.117 268.756C103.574 267.605 104.589 265.012 104.11 264.395Z" fill="#FF9900"/>
<path d="M26.4691 257.477C27.7356 252.453 32.2081 248.744 37.5248 248.744C41.5523 248.744 45.0893 250.872 47.1201 254.07C51.9349 254.116 55.8255 258.116 55.8255 263.035C55.8255 267.988 51.8893 272 47.0289 272C45.4201 272 28.8651 272 27.1423 272C23.1946 272 20 268.744 20 264.721C20 260.93 22.8409 257.826 26.4691 257.477Z" fill="#35A8E1"/>
<path d="M28.1689 260.686C29.675 260.477 31.181 260.256 32.6871 260.047C32.6871 261.395 32.6871 262.744 32.6871 264.093C31.181 264.093 29.675 264.093 28.1689 264.093C28.1689 262.965 28.1689 261.826 28.1689 260.686Z" fill="white"/>
<path d="M49.7556 260.709C49.9153 260.5 50.2233 260.442 50.4287 260.593C50.269 260.64 50.075 260.628 49.9267 260.709C49.8012 260.895 49.8697 261.14 49.8468 261.349C50.1435 261.349 50.4401 261.349 50.7482 261.349C50.7482 261.128 50.7596 260.907 50.7596 260.686H50.9193C50.9193 260.907 50.9193 261.128 50.9193 261.337C51.0791 261.337 51.2388 261.337 51.3871 261.349V261.477C51.2274 261.477 51.0676 261.477 50.9193 261.477C50.9193 261.953 50.9193 262.419 50.9193 262.895C50.9307 263.023 50.8851 263.198 51.0106 263.279C51.1133 263.372 51.273 263.349 51.3985 263.372C51.3985 263.407 51.3985 263.465 51.3985 263.488C51.1589 263.488 50.8166 263.442 50.7824 263.14C50.7482 262.581 50.7824 262.023 50.771 261.465C50.4744 261.465 50.1663 261.465 49.8697 261.465C49.8697 262.14 49.8697 262.814 49.8697 263.488C49.8354 263.477 49.767 263.453 49.7213 263.442C49.6871 262.791 49.7099 262.128 49.7099 261.477C49.5616 261.453 49.3562 261.535 49.2764 261.36C49.4133 261.349 49.5616 261.337 49.7099 261.337C49.6985 261.14 49.6757 260.907 49.7556 260.709Z" fill="white"/>
<path d="M34.9921 260.535C35.0606 260.547 35.1861 260.57 35.2431 260.593C35.6881 261.477 36.0532 262.395 36.4639 263.291C36.9317 262.419 37.274 261.477 37.6847 260.581C37.776 260.581 37.8673 260.581 37.9586 260.581C37.9586 261.558 37.9586 262.523 37.9586 263.512C37.9129 263.512 37.8102 263.5 37.7646 263.488C37.7646 262.593 37.776 261.698 37.7646 260.791C37.3425 261.686 36.9774 262.593 36.5666 263.488C36.521 263.488 36.4297 263.488 36.3955 263.488C36.1217 262.895 35.8592 262.291 35.5854 261.686C35.4599 261.395 35.3572 261.093 35.1633 260.849C35.129 261.721 35.1519 262.605 35.1519 263.488C35.1062 263.488 35.0149 263.488 34.9807 263.5C34.9921 262.5 34.9807 261.512 34.9921 260.535Z" fill="white"/>
<path d="M38.5402 260.57C38.5744 260.57 38.6543 260.57 38.6885 260.57V260.965C38.6543 260.965 38.5744 260.965 38.5288 260.965C38.5402 260.826 38.5402 260.698 38.5402 260.57Z" fill="white"/>
<path d="M24.5637 261.198C25.7047 261.035 26.857 260.895 27.998 260.698C28.0094 261.837 27.998 262.965 27.998 264.105C26.857 264.116 25.7047 264.093 24.5637 264.116C24.5637 263.14 24.5751 262.174 24.5637 261.198Z" fill="white"/>
<path d="M39.4187 261.593C39.8979 261.081 40.9133 261.232 41.0959 261.965C41.0617 261.977 40.9932 262 40.9476 262.023C40.8221 261.325 39.7838 261.232 39.4415 261.791C39.2019 262.174 39.2133 262.732 39.4758 263.105C39.8066 263.546 40.6509 263.512 40.8563 262.965C40.9133 262.86 40.9476 262.709 41.1073 262.744C41.0046 263.325 40.3885 263.674 39.8409 263.5C39.065 263.302 38.8825 262.139 39.4187 261.593Z" fill="white"/>
<path d="M38.5403 261.349H38.7C38.7 262.058 38.7 262.767 38.7 263.477L38.5517 263.488C38.5403 262.779 38.5403 262.07 38.5403 261.349Z" fill="white"/>
<path d="M41.5067 261.36C41.5409 261.36 41.6208 261.36 41.6664 261.36C41.6664 261.488 41.6664 261.616 41.6778 261.756C41.906 261.547 42.1799 261.314 42.5221 261.372C42.545 261.395 42.5792 261.442 42.5906 261.465C42.2027 261.488 41.7805 261.686 41.7007 262.105C41.6436 262.581 41.7007 263.058 41.6664 263.535C41.6322 263.512 41.5638 263.465 41.5295 263.453C41.4953 262.744 41.5067 262.058 41.5067 261.36Z" fill="white"/>
<path d="M43.355 261.465C42.5906 261.709 42.545 262.977 43.2523 263.337C43.5604 263.465 43.9597 263.442 44.1993 263.186C44.5644 262.802 44.5758 262.116 44.2449 261.709C44.0282 261.442 43.6631 261.384 43.355 261.465ZM43.2751 261.36C43.6402 261.233 44.0852 261.314 44.3476 261.593C44.7812 262.058 44.7469 262.895 44.2563 263.314C43.8 263.686 43.0356 263.57 42.7503 263.035C42.4194 262.477 42.6134 261.581 43.2751 261.36Z" fill="white"/>
<path d="M45.306 261.442C45.6596 261.256 46.116 261.244 46.4469 261.454C46.6409 261.558 46.6751 261.802 46.7321 261.988C46.4811 261.988 46.5382 261.663 46.3556 261.558C46.0704 261.384 45.6939 261.395 45.4086 261.547C45.1805 261.674 45.1805 262.047 45.4201 262.163C45.7852 262.36 46.2415 262.302 46.5952 262.523C46.8006 262.651 46.8348 262.954 46.7549 263.163C46.6523 263.407 46.367 263.488 46.1388 263.523C45.7737 263.581 45.3402 263.5 45.1234 263.163C45.0435 263.035 44.9409 262.826 45.1234 262.744C45.1919 262.919 45.2261 263.116 45.3858 263.244C45.6711 263.465 46.0704 263.442 46.3898 263.326C46.6751 263.233 46.7435 262.791 46.4811 262.628C46.1046 262.419 45.614 262.488 45.2603 262.233C44.9979 262.047 45.0207 261.593 45.306 261.442Z" fill="white"/>
<path d="M48.0214 261.442C47.3368 261.5 47.0858 262.384 47.3597 262.942C47.5536 263.419 48.2154 263.558 48.6147 263.267C49.0368 262.942 49.0939 262.267 48.8201 261.825C48.6489 261.535 48.3295 261.395 48.0214 261.442ZM47.7019 261.384C48.1013 261.209 48.6033 261.302 48.8885 261.639C49.2422 262.093 49.2308 262.802 48.8429 263.232C48.4778 263.605 47.8274 263.639 47.4509 263.279C46.8919 262.791 46.9946 261.686 47.7019 261.384Z" fill="white"/>
<path d="M24.5752 264.267C25.7161 264.267 26.8685 264.267 28.0094 264.267C28.0094 265.395 28.0094 266.523 28.0094 267.651C26.8571 267.547 25.7161 267.326 24.5752 267.186C24.5638 266.209 24.5638 265.244 24.5752 264.267Z" fill="white"/>
<path d="M28.1689 267.686C28.1804 266.547 28.1575 265.407 28.1804 264.256C29.6864 264.267 31.1924 264.256 32.6871 264.256C32.6871 265.616 32.6871 266.965 32.6871 268.314C31.181 268.128 29.675 267.907 28.1689 267.686Z" fill="white"/>
<path d="M35.5853 266.302C35.9504 266.302 36.3041 266.302 36.6692 266.302C36.4981 265.837 36.3383 265.372 36.1444 264.93C35.9276 265.372 35.7793 265.849 35.5853 266.302ZM35.9162 264.581C36.0759 264.581 36.2242 264.581 36.3726 264.593C36.7719 265.57 37.1712 266.547 37.5934 267.523C37.4451 267.523 37.2967 267.523 37.137 267.523C37.0229 267.233 36.9088 266.942 36.8061 266.651C36.3497 266.651 35.9048 266.651 35.4598 266.651C35.3457 266.942 35.2316 267.233 35.1061 267.523C34.9692 267.523 34.8323 267.523 34.7068 267.523C35.1061 266.535 35.5054 265.547 35.9162 264.581Z" fill="white"/>
<path d="M42.7046 265.791C42.91 265.523 43.1838 265.291 43.5489 265.302C43.5489 265.419 43.5489 265.535 43.5489 265.663C43.2408 265.674 42.8757 265.802 42.7845 266.14C42.6818 266.581 42.7502 267.046 42.7274 267.5C42.6019 267.5 42.4764 267.5 42.3623 267.5C42.3623 266.791 42.3623 266.07 42.3623 265.36H42.7046V265.791Z" fill="white"/>
<path d="M43.9824 266.244C44.4388 266.256 44.8952 266.256 45.363 266.244C45.2945 265.895 44.9979 265.558 44.61 265.616C44.2563 265.605 44.0509 265.942 43.9824 266.244ZM43.8798 265.709C44.2449 265.244 45.0207 265.198 45.4086 265.64C45.6254 265.884 45.6939 266.233 45.7053 266.546C45.1234 266.546 44.5529 266.546 43.9824 266.546C44.0281 266.721 44.0395 266.919 44.1764 267.046C44.5073 267.384 45.169 267.314 45.3516 266.837C45.4428 266.837 45.614 266.837 45.6939 266.849C45.4885 267.593 44.4845 267.756 43.9596 267.279C43.5603 266.872 43.5147 266.151 43.8798 265.709Z" fill="white"/>
<path d="M37.7186 265.372C38.3233 265.372 38.9166 265.36 39.5213 265.372C39.5099 265.605 39.3273 265.767 39.1904 265.942C38.8367 266.36 38.4716 266.779 38.1179 267.198C38.5971 267.291 39.0763 267.139 39.5555 267.256C39.5555 267.314 39.5555 267.442 39.5555 267.512C38.928 267.512 38.2891 267.512 37.6501 267.512V267.244C38.0951 266.732 38.5629 266.232 38.985 265.698C38.5743 265.663 38.1636 265.698 37.7528 265.663C37.7414 265.593 37.73 265.453 37.7186 265.372Z" fill="white"/>
<path d="M39.8864 265.372C40.0119 265.372 40.126 265.372 40.2515 265.372C40.2629 265.895 40.2287 266.43 40.2629 266.953C40.4569 267.523 41.4038 267.256 41.4038 266.686C41.4153 266.244 41.4038 265.802 41.4038 265.36C41.4951 265.36 41.6663 265.36 41.7575 265.36C41.7575 266.07 41.7575 266.791 41.7575 267.5C41.6777 267.5 41.5179 267.5 41.4267 267.5C41.4153 267.43 41.4038 267.291 41.3924 267.209C41.0958 267.547 40.6052 267.64 40.2059 267.453C39.9549 267.337 39.875 267.047 39.875 266.791C39.8864 266.314 39.8978 265.849 39.8864 265.372Z" fill="white"/>
</g>
<defs>
<linearGradient id="paint0_linear" x1="385.152" y1="158.936" x2="447.368" y2="158.936" gradientUnits="userSpaceOnUse">
<stop stop-color="#E5E5F6"/>
<stop offset="1" stop-color="#C0C0EA"/>
</linearGradient>
<linearGradient id="paint1_linear" x1="385.152" y1="155.453" x2="447.368" y2="155.453" gradientUnits="userSpaceOnUse">
<stop stop-color="#E5E5F6"/>
<stop offset="1" stop-color="#C0C0EA"/>
</linearGradient>
<linearGradient id="paint2_linear" x1="385.152" y1="160.873" x2="447.368" y2="160.873" gradientUnits="userSpaceOnUse">
<stop stop-color="#E5E5F6"/>
<stop offset="1" stop-color="#C0C0EA"/>
</linearGradient>
<linearGradient id="paint3_linear" x1="385.152" y1="161.931" x2="447.368" y2="161.931" gradientUnits="userSpaceOnUse">
<stop stop-color="#E5E5F6"/>
<stop offset="1" stop-color="#C0C0EA"/>
</linearGradient>
<linearGradient id="paint4_linear" x1="385.152" y1="162.74" x2="447.367" y2="162.74" gradientUnits="userSpaceOnUse">
<stop stop-color="#E5E5F6"/>
<stop offset="1" stop-color="#C0C0EA"/>
</linearGradient>
<linearGradient id="paint5_linear" x1="385.152" y1="163.41" x2="447.368" y2="163.41" gradientUnits="userSpaceOnUse">
<stop stop-color="#E5E5F6"/>
<stop offset="1" stop-color="#C0C0EA"/>
</linearGradient>
<linearGradient id="paint6_linear" x1="385.152" y1="163.987" x2="447.368" y2="163.987" gradientUnits="userSpaceOnUse">
<stop stop-color="#E5E5F6"/>
<stop offset="1" stop-color="#C0C0EA"/>
</linearGradient>
<linearGradient id="paint7_linear" x1="385.152" y1="164.487" x2="447.368" y2="164.487" gradientUnits="userSpaceOnUse">
<stop stop-color="#E5E5F6"/>
<stop offset="1" stop-color="#C0C0EA"/>
</linearGradient>
<linearGradient id="paint8_linear" x1="385.152" y1="164.926" x2="447.367" y2="164.926" gradientUnits="userSpaceOnUse">
<stop stop-color="#E5E5F6"/>
<stop offset="1" stop-color="#C0C0EA"/>
</linearGradient>
<linearGradient id="paint9_linear" x1="385.152" y1="165.321" x2="447.368" y2="165.321" gradientUnits="userSpaceOnUse">
<stop stop-color="#E5E5F6"/>
<stop offset="1" stop-color="#C0C0EA"/>
</linearGradient>
<linearGradient id="paint10_linear" x1="385.152" y1="165.674" x2="447.368" y2="165.674" gradientUnits="userSpaceOnUse">
<stop stop-color="#E5E5F6"/>
<stop offset="1" stop-color="#C0C0EA"/>
</linearGradient>
<linearGradient id="paint11_linear" x1="385.153" y1="165.992" x2="447.368" y2="165.992" gradientUnits="userSpaceOnUse">
<stop stop-color="#E5E5F6"/>
<stop offset="1" stop-color="#C0C0EA"/>
</linearGradient>
<linearGradient id="paint12_linear" x1="385.152" y1="166.277" x2="447.368" y2="166.277" gradientUnits="userSpaceOnUse">
<stop stop-color="#E5E5F6"/>
<stop offset="1" stop-color="#C0C0EA"/>
</linearGradient>
<linearGradient id="paint13_linear" x1="385.152" y1="166.53" x2="447.368" y2="166.53" gradientUnits="userSpaceOnUse">
<stop stop-color="#E5E5F6"/>
<stop offset="1" stop-color="#C0C0EA"/>
</linearGradient>
<linearGradient id="paint14_linear" x1="385.151" y1="166.752" x2="447.368" y2="166.752" gradientUnits="userSpaceOnUse">
<stop stop-color="#E5E5F6"/>
<stop offset="1" stop-color="#C0C0EA"/>
</linearGradient>
<linearGradient id="paint15_linear" x1="385.152" y1="166.945" x2="447.368" y2="166.945" gradientUnits="userSpaceOnUse">
<stop stop-color="#E5E5F6"/>
<stop offset="1" stop-color="#C0C0EA"/>
</linearGradient>
<linearGradient id="paint16_linear" x1="385.151" y1="167.104" x2="447.368" y2="167.104" gradientUnits="userSpaceOnUse">
<stop stop-color="#E5E5F6"/>
<stop offset="1" stop-color="#C0C0EA"/>
</linearGradient>
<linearGradient id="paint17_linear" x1="385.152" y1="167.231" x2="447.368" y2="167.231" gradientUnits="userSpaceOnUse">
<stop stop-color="#E5E5F6"/>
<stop offset="1" stop-color="#C0C0EA"/>
</linearGradient>
<linearGradient id="paint18_linear" x1="385.152" y1="167.323" x2="447.368" y2="167.323" gradientUnits="userSpaceOnUse">
<stop stop-color="#E5E5F6"/>
<stop offset="1" stop-color="#C0C0EA"/>
</linearGradient>
<linearGradient id="paint19_linear" x1="385.152" y1="167.376" x2="447.368" y2="167.376" gradientUnits="userSpaceOnUse">
<stop stop-color="#E5E5F6"/>
<stop offset="1" stop-color="#C0C0EA"/>
</linearGradient>
<linearGradient id="paint20_linear" x1="385.152" y1="167.386" x2="447.368" y2="167.386" gradientUnits="userSpaceOnUse">
<stop stop-color="#E5E5F6"/>
<stop offset="1" stop-color="#C0C0EA"/>
</linearGradient>
<linearGradient id="paint21_linear" x1="385.152" y1="167.34" x2="447.368" y2="167.34" gradientUnits="userSpaceOnUse">
<stop stop-color="#E5E5F6"/>
<stop offset="1" stop-color="#C0C0EA"/>
</linearGradient>
<linearGradient id="paint22_linear" x1="385.152" y1="167.203" x2="447.368" y2="167.203" gradientUnits="userSpaceOnUse">
<stop stop-color="#E5E5F6"/>
<stop offset="1" stop-color="#C0C0EA"/>
</linearGradient>
<linearGradient id="paint23_linear" x1="385.152" y1="166.042" x2="447.368" y2="166.042" gradientUnits="userSpaceOnUse">
<stop stop-color="#E5E5F6"/>
<stop offset="1" stop-color="#C0C0EA"/>
</linearGradient>
<linearGradient id="paint24_linear" x1="385.152" y1="164.494" x2="447.368" y2="164.494" gradientUnits="userSpaceOnUse">
<stop stop-color="#E5E5F6"/>
<stop offset="1" stop-color="#C0C0EA"/>
</linearGradient>
<linearGradient id="paint25_linear" x1="385.152" y1="163.576" x2="447.368" y2="163.576" gradientUnits="userSpaceOnUse">
<stop stop-color="#E5E5F6"/>
<stop offset="1" stop-color="#C0C0EA"/>
</linearGradient>
<linearGradient id="paint26_linear" x1="385.151" y1="162.74" x2="447.368" y2="162.74" gradientUnits="userSpaceOnUse">
<stop stop-color="#E5E5F6"/>
<stop offset="1" stop-color="#C0C0EA"/>
</linearGradient>
<linearGradient id="paint27_linear" x1="385.152" y1="161.961" x2="447.368" y2="161.961" gradientUnits="userSpaceOnUse">
<stop stop-color="#E5E5F6"/>
<stop offset="1" stop-color="#C0C0EA"/>
</linearGradient>
<linearGradient id="paint28_linear" x1="385.152" y1="161.23" x2="447.368" y2="161.23" gradientUnits="userSpaceOnUse">
<stop stop-color="#E5E5F6"/>
<stop offset="1" stop-color="#C0C0EA"/>
</linearGradient>
<linearGradient id="paint29_linear" x1="385.152" y1="160.523" x2="447.367" y2="160.523" gradientUnits="userSpaceOnUse">
<stop stop-color="#E5E5F6"/>
<stop offset="1" stop-color="#C0C0EA"/>
</linearGradient>
<linearGradient id="paint30_linear" x1="385.152" y1="159.831" x2="447.368" y2="159.831" gradientUnits="userSpaceOnUse">
<stop stop-color="#E5E5F6"/>
<stop offset="1" stop-color="#C0C0EA"/>
</linearGradient>
<linearGradient id="paint31_linear" x1="385.152" y1="159.151" x2="447.368" y2="159.151" gradientUnits="userSpaceOnUse">
<stop stop-color="#E5E5F6"/>
<stop offset="1" stop-color="#C0C0EA"/>
</linearGradient>
<linearGradient id="paint32_linear" x1="385.152" y1="158.471" x2="447.368" y2="158.471" gradientUnits="userSpaceOnUse">
<stop stop-color="#E5E5F6"/>
<stop offset="1" stop-color="#C0C0EA"/>
</linearGradient>
<linearGradient id="paint33_linear" x1="385.152" y1="157.788" x2="447.368" y2="157.788" gradientUnits="userSpaceOnUse">
<stop stop-color="#E5E5F6"/>
<stop offset="1" stop-color="#C0C0EA"/>
</linearGradient>
<linearGradient id="paint34_linear" x1="385.152" y1="157.1" x2="447.368" y2="157.1" gradientUnits="userSpaceOnUse">
<stop stop-color="#E5E5F6"/>
<stop offset="1" stop-color="#C0C0EA"/>
</linearGradient>
<linearGradient id="paint35_linear" x1="385.152" y1="156.398" x2="447.368" y2="156.398" gradientUnits="userSpaceOnUse">
<stop stop-color="#E5E5F6"/>
<stop offset="1" stop-color="#C0C0EA"/>
</linearGradient>
<linearGradient id="paint36_linear" x1="385.152" y1="155.68" x2="447.368" y2="155.68" gradientUnits="userSpaceOnUse">
<stop stop-color="#E5E5F6"/>
<stop offset="1" stop-color="#C0C0EA"/>
</linearGradient>
<linearGradient id="paint37_linear" x1="385.152" y1="154.941" x2="447.368" y2="154.941" gradientUnits="userSpaceOnUse">
<stop stop-color="#E5E5F6"/>
<stop offset="1" stop-color="#C0C0EA"/>
</linearGradient>
<linearGradient id="paint38_linear" x1="385.152" y1="154.172" x2="447.368" y2="154.172" gradientUnits="userSpaceOnUse">
<stop stop-color="#E5E5F6"/>
<stop offset="1" stop-color="#C0C0EA"/>
</linearGradient>
<linearGradient id="paint39_linear" x1="385.152" y1="153.368" x2="447.368" y2="153.368" gradientUnits="userSpaceOnUse">
<stop stop-color="#E5E5F6"/>
<stop offset="1" stop-color="#C0C0EA"/>
</linearGradient>
<linearGradient id="paint40_linear" x1="385.152" y1="152.52" x2="447.368" y2="152.52" gradientUnits="userSpaceOnUse">
<stop stop-color="#E5E5F6"/>
<stop offset="1" stop-color="#C0C0EA"/>
</linearGradient>
<linearGradient id="paint41_linear" x1="385.152" y1="151.603" x2="447.368" y2="151.603" gradientUnits="userSpaceOnUse">
<stop stop-color="#E5E5F6"/>
<stop offset="1" stop-color="#C0C0EA"/>
</linearGradient>
<linearGradient id="paint42_linear" x1="385.152" y1="150.801" x2="447.368" y2="150.801" gradientUnits="userSpaceOnUse">
<stop stop-color="#E5E5F6"/>
<stop offset="1" stop-color="#C0C0EA"/>
</linearGradient>
<linearGradient id="paint43_linear" x1="385.152" y1="141.828" x2="447.368" y2="141.828" gradientUnits="userSpaceOnUse">
<stop stop-color="#E5E5F6"/>
<stop offset="1" stop-color="#C0C0EA"/>
</linearGradient>
<linearGradient id="paint44_linear" x1="385.152" y1="138.345" x2="447.368" y2="138.345" gradientUnits="userSpaceOnUse">
<stop stop-color="#E5E5F6"/>
<stop offset="1" stop-color="#C0C0EA"/>
</linearGradient>
<linearGradient id="paint45_linear" x1="385.152" y1="143.765" x2="447.368" y2="143.765" gradientUnits="userSpaceOnUse">
<stop stop-color="#E5E5F6"/>
<stop offset="1" stop-color="#C0C0EA"/>
</linearGradient>
<linearGradient id="paint46_linear" x1="385.152" y1="144.823" x2="447.368" y2="144.823" gradientUnits="userSpaceOnUse">
<stop stop-color="#E5E5F6"/>
<stop offset="1" stop-color="#C0C0EA"/>
</linearGradient>
<linearGradient id="paint47_linear" x1="385.152" y1="145.632" x2="447.367" y2="145.632" gradientUnits="userSpaceOnUse">
<stop stop-color="#E5E5F6"/>
<stop offset="1" stop-color="#C0C0EA"/>
</linearGradient>
<linearGradient id="paint48_linear" x1="385.152" y1="146.302" x2="447.368" y2="146.302" gradientUnits="userSpaceOnUse">
<stop stop-color="#E5E5F6"/>
<stop offset="1" stop-color="#C0C0EA"/>
</linearGradient>
<linearGradient id="paint49_linear" x1="385.152" y1="146.879" x2="447.368" y2="146.879" gradientUnits="userSpaceOnUse">
<stop stop-color="#E5E5F6"/>
<stop offset="1" stop-color="#C0C0EA"/>
</linearGradient>
<linearGradient id="paint50_linear" x1="385.152" y1="147.379" x2="447.368" y2="147.379" gradientUnits="userSpaceOnUse">
<stop stop-color="#E5E5F6"/>
<stop offset="1" stop-color="#C0C0EA"/>
</linearGradient>
<linearGradient id="paint51_linear" x1="385.152" y1="147.818" x2="447.367" y2="147.818" gradientUnits="userSpaceOnUse">
<stop stop-color="#E5E5F6"/>
<stop offset="1" stop-color="#C0C0EA"/>
</linearGradient>
<linearGradient id="paint52_linear" x1="385.152" y1="148.213" x2="447.368" y2="148.213" gradientUnits="userSpaceOnUse">
<stop stop-color="#E5E5F6"/>
<stop offset="1" stop-color="#C0C0EA"/>
</linearGradient>
<linearGradient id="paint53_linear" x1="385.152" y1="148.567" x2="447.368" y2="148.567" gradientUnits="userSpaceOnUse">
<stop stop-color="#E5E5F6"/>
<stop offset="1" stop-color="#C0C0EA"/>
</linearGradient>
<linearGradient id="paint54_linear" x1="385.153" y1="148.884" x2="447.368" y2="148.884" gradientUnits="userSpaceOnUse">
<stop stop-color="#E5E5F6"/>
<stop offset="1" stop-color="#C0C0EA"/>
</linearGradient>
<linearGradient id="paint55_linear" x1="385.152" y1="149.169" x2="447.368" y2="149.169" gradientUnits="userSpaceOnUse">
<stop stop-color="#E5E5F6"/>
<stop offset="1" stop-color="#C0C0EA"/>
</linearGradient>
<linearGradient id="paint56_linear" x1="385.152" y1="149.422" x2="447.368" y2="149.422" gradientUnits="userSpaceOnUse">
<stop stop-color="#E5E5F6"/>
<stop offset="1" stop-color="#C0C0EA"/>
</linearGradient>
<linearGradient id="paint57_linear" x1="385.151" y1="149.644" x2="447.368" y2="149.644" gradientUnits="userSpaceOnUse">
<stop stop-color="#E5E5F6"/>
<stop offset="1" stop-color="#C0C0EA"/>
</linearGradient>
<linearGradient id="paint58_linear" x1="385.152" y1="149.837" x2="447.368" y2="149.837" gradientUnits="userSpaceOnUse">
<stop stop-color="#E5E5F6"/>
<stop offset="1" stop-color="#C0C0EA"/>
</linearGradient>
<linearGradient id="paint59_linear" x1="385.151" y1="149.997" x2="447.368" y2="149.997" gradientUnits="userSpaceOnUse">
<stop stop-color="#E5E5F6"/>
<stop offset="1" stop-color="#C0C0EA"/>
</linearGradient>
<linearGradient id="paint60_linear" x1="385.152" y1="150.124" x2="447.368" y2="150.124" gradientUnits="userSpaceOnUse">
<stop stop-color="#E5E5F6"/>
<stop offset="1" stop-color="#C0C0EA"/>
</linearGradient>
<linearGradient id="paint61_linear" x1="385.152" y1="150.215" x2="447.368" y2="150.215" gradientUnits="userSpaceOnUse">
<stop stop-color="#E5E5F6"/>
<stop offset="1" stop-color="#C0C0EA"/>
</linearGradient>
<linearGradient id="paint62_linear" x1="385.152" y1="150.268" x2="447.368" y2="150.268" gradientUnits="userSpaceOnUse">
<stop stop-color="#E5E5F6"/>
<stop offset="1" stop-color="#C0C0EA"/>
</linearGradient>
<linearGradient id="paint63_linear" x1="385.152" y1="150.279" x2="447.368" y2="150.279" gradientUnits="userSpaceOnUse">
<stop stop-color="#E5E5F6"/>
<stop offset="1" stop-color="#C0C0EA"/>
</linearGradient>
<linearGradient id="paint64_linear" x1="385.152" y1="150.232" x2="447.368" y2="150.232" gradientUnits="userSpaceOnUse">
<stop stop-color="#E5E5F6"/>
<stop offset="1" stop-color="#C0C0EA"/>
</linearGradient>
<linearGradient id="paint65_linear" x1="385.152" y1="150.095" x2="447.368" y2="150.095" gradientUnits="userSpaceOnUse">
<stop stop-color="#E5E5F6"/>
<stop offset="1" stop-color="#C0C0EA"/>
</linearGradient>
<linearGradient id="paint66_linear" x1="385.152" y1="148.934" x2="447.368" y2="148.934" gradientUnits="userSpaceOnUse">
<stop stop-color="#E5E5F6"/>
<stop offset="1" stop-color="#C0C0EA"/>
</linearGradient>
<linearGradient id="paint67_linear" x1="385.152" y1="147.386" x2="447.368" y2="147.386" gradientUnits="userSpaceOnUse">
<stop stop-color="#E5E5F6"/>
<stop offset="1" stop-color="#C0C0EA"/>
</linearGradient>
<linearGradient id="paint68_linear" x1="385.152" y1="146.469" x2="447.368" y2="146.469" gradientUnits="userSpaceOnUse">
<stop stop-color="#E5E5F6"/>
<stop offset="1" stop-color="#C0C0EA"/>
</linearGradient>
<linearGradient id="paint69_linear" x1="385.151" y1="145.632" x2="447.368" y2="145.632" gradientUnits="userSpaceOnUse">
<stop stop-color="#E5E5F6"/>
<stop offset="1" stop-color="#C0C0EA"/>
</linearGradient>
<linearGradient id="paint70_linear" x1="385.152" y1="144.853" x2="447.368" y2="144.853" gradientUnits="userSpaceOnUse">
<stop stop-color="#E5E5F6"/>
<stop offset="1" stop-color="#C0C0EA"/>
</linearGradient>
<linearGradient id="paint71_linear" x1="385.152" y1="144.122" x2="447.368" y2="144.122" gradientUnits="userSpaceOnUse">
<stop stop-color="#E5E5F6"/>
<stop offset="1" stop-color="#C0C0EA"/>
</linearGradient>
<linearGradient id="paint72_linear" x1="385.152" y1="143.416" x2="447.367" y2="143.416" gradientUnits="userSpaceOnUse">
<stop stop-color="#E5E5F6"/>
<stop offset="1" stop-color="#C0C0EA"/>
</linearGradient>
<linearGradient id="paint73_linear" x1="385.152" y1="142.723" x2="447.368" y2="142.723" gradientUnits="userSpaceOnUse">
<stop stop-color="#E5E5F6"/>
<stop offset="1" stop-color="#C0C0EA"/>
</linearGradient>
<linearGradient id="paint74_linear" x1="385.152" y1="142.043" x2="447.368" y2="142.043" gradientUnits="userSpaceOnUse">
<stop stop-color="#E5E5F6"/>
<stop offset="1" stop-color="#C0C0EA"/>
</linearGradient>
<linearGradient id="paint75_linear" x1="385.152" y1="141.363" x2="447.368" y2="141.363" gradientUnits="userSpaceOnUse">
<stop stop-color="#E5E5F6"/>
<stop offset="1" stop-color="#C0C0EA"/>
</linearGradient>
<linearGradient id="paint76_linear" x1="385.152" y1="140.681" x2="447.368" y2="140.681" gradientUnits="userSpaceOnUse">
<stop stop-color="#E5E5F6"/>
<stop offset="1" stop-color="#C0C0EA"/>
</linearGradient>
<linearGradient id="paint77_linear" x1="385.152" y1="139.992" x2="447.368" y2="139.992" gradientUnits="userSpaceOnUse">
<stop stop-color="#E5E5F6"/>
<stop offset="1" stop-color="#C0C0EA"/>
</linearGradient>
<linearGradient id="paint78_linear" x1="385.152" y1="139.291" x2="447.368" y2="139.291" gradientUnits="userSpaceOnUse">
<stop stop-color="#E5E5F6"/>
<stop offset="1" stop-color="#C0C0EA"/>
</linearGradient>
<linearGradient id="paint79_linear" x1="385.152" y1="138.572" x2="447.368" y2="138.572" gradientUnits="userSpaceOnUse">
<stop stop-color="#E5E5F6"/>
<stop offset="1" stop-color="#C0C0EA"/>
</linearGradient>
<linearGradient id="paint80_linear" x1="385.152" y1="137.834" x2="447.368" y2="137.834" gradientUnits="userSpaceOnUse">
<stop stop-color="#E5E5F6"/>
<stop offset="1" stop-color="#C0C0EA"/>
</linearGradient>
<linearGradient id="paint81_linear" x1="385.152" y1="137.065" x2="447.368" y2="137.065" gradientUnits="userSpaceOnUse">
<stop stop-color="#E5E5F6"/>
<stop offset="1" stop-color="#C0C0EA"/>
</linearGradient>
<linearGradient id="paint82_linear" x1="385.152" y1="136.26" x2="447.368" y2="136.26" gradientUnits="userSpaceOnUse">
<stop stop-color="#E5E5F6"/>
<stop offset="1" stop-color="#C0C0EA"/>
</linearGradient>
<linearGradient id="paint83_linear" x1="385.152" y1="135.412" x2="447.368" y2="135.412" gradientUnits="userSpaceOnUse">
<stop stop-color="#E5E5F6"/>
<stop offset="1" stop-color="#C0C0EA"/>
</linearGradient>
<linearGradient id="paint84_linear" x1="385.152" y1="134.495" x2="447.368" y2="134.495" gradientUnits="userSpaceOnUse">
<stop stop-color="#E5E5F6"/>
<stop offset="1" stop-color="#C0C0EA"/>
</linearGradient>
<linearGradient id="paint85_linear" x1="385.152" y1="133.693" x2="447.368" y2="133.693" gradientUnits="userSpaceOnUse">
<stop stop-color="#E5E5F6"/>
<stop offset="1" stop-color="#C0C0EA"/>
</linearGradient>
<clipPath id="clip0">
<rect width="36" height="36" fill="white" transform="translate(60 39)"/>
</clipPath>
<clipPath id="clip1">
<rect width="57.6471" height="60" fill="white" transform="translate(388 112)"/>
</clipPath>
<clipPath id="clip2">
<rect width="136" height="25" fill="white" transform="translate(20 247)"/>
</clipPath>
</defs>
</svg>
