<svg width="518" height="428" viewBox="0 0 518 428" fill="none" xmlns="http://www.w3.org/2000/svg">
<rect x="31.5" y="0.5" width="265" height="95" rx="7.5" stroke="#141446" stroke-dasharray="1 4"/>
<path d="M124.714 50.9392C124.714 47.3767 127.604 44.6047 131.246 44.6047C133.583 44.6047 135.391 45.7183 136.446 47.4248L134.588 48.8598C133.783 47.7462 132.754 47.0038 131.272 47.0038C129.011 47.0038 127.403 48.736 127.403 50.9375C127.403 53.1887 129.011 54.8952 131.272 54.8952C132.729 54.8952 133.759 54.1786 134.588 53.065L136.446 54.4759C135.366 56.1824 133.556 57.296 131.246 57.296C127.604 57.2977 124.714 54.5257 124.714 50.9392Z" fill="#141446"/>
<path d="M138.732 51.9291V44.8781H141.344V52.1268C141.344 53.8333 142.574 54.897 144.133 54.897C145.641 54.897 146.846 53.8333 146.846 52.1268V44.8781H149.485V51.9291C149.485 55.2201 147.148 57.2978 144.135 57.2978C141.069 57.2978 138.732 55.2201 138.732 51.9291Z" fill="#141446"/>
<path d="M165.489 50.9632C165.489 54.5755 162.952 57.2977 159.46 57.2977C157.65 57.2977 156.067 56.581 155.139 55.3437V57.0261H152.677V38.4696H155.315V46.3628C156.245 45.2492 157.727 44.6064 159.435 44.6064C162.952 44.6047 165.489 47.3509 165.489 50.9632ZM162.775 50.9392C162.775 48.5882 161.117 46.9814 159.006 46.9814C157.148 46.9814 155.287 48.2187 155.287 50.9649C155.287 53.7352 157.172 54.9227 159.006 54.9227C161.142 54.9227 162.775 53.2901 162.775 50.9392Z" fill="#141446"/>
<path d="M179.13 51.8053H169.935C170.288 53.8091 171.844 54.9966 173.954 54.9966C175.387 54.9966 176.516 54.4518 177.547 53.5616L178.804 55.3437C177.496 56.5553 175.839 57.2977 173.879 57.2977C170.061 57.2977 167.246 54.5515 167.246 50.9632C167.246 47.4008 170.035 44.6047 173.628 44.6047C176.919 44.6047 179.331 46.9797 179.331 50.171C179.331 50.8395 179.205 51.484 179.13 51.8053ZM169.986 49.7757H176.694C176.643 47.8699 175.212 46.8062 173.528 46.8062C171.794 46.8079 170.387 47.9696 169.986 49.7757Z" fill="#141446"/>
<g opacity="0.4">
<path d="M190.4 57.6696C192.723 57.6696 194.591 56.5992 195.739 54.968L194.271 53.8721C193.31 55.0955 192.082 55.8601 190.427 55.8601C187.704 55.8601 185.702 53.7957 185.702 51.1706C185.702 48.5709 187.704 46.5065 190.427 46.5065C192.109 46.5065 193.336 47.2966 194.297 48.52L195.766 47.3986C194.618 45.7674 192.749 44.697 190.4 44.697C186.61 44.697 183.593 47.5515 183.593 51.1706C183.593 54.8151 186.61 57.6696 190.4 57.6696Z" fill="#141446"/>
<path d="M198.429 57.3893H200.485V38.2744H198.429V57.3893Z" fill="#141446"/>
<path d="M210.043 57.6441C213.861 57.6441 216.877 54.7642 216.877 51.1706C216.877 47.5515 213.861 44.697 210.07 44.697C206.253 44.697 203.263 47.526 203.263 51.1706C203.263 54.7642 206.253 57.6441 210.043 57.6441ZM210.043 55.8346C207.374 55.8346 205.372 53.8466 205.372 51.196C205.372 48.52 207.374 46.5065 210.07 46.5065C212.739 46.5065 214.768 48.52 214.768 51.196C214.768 53.8212 212.713 55.8346 210.043 55.8346Z" fill="#141446"/>
<path d="M224.921 57.6696C227.911 57.6696 230.287 55.6307 230.287 52.4449V44.9774H228.231V52.5723C228.231 54.6112 226.736 55.8601 224.921 55.8601C223.053 55.8601 221.558 54.6112 221.558 52.5723V44.9774H219.529V52.4449C219.529 55.6307 221.878 57.6696 224.921 57.6696Z" fill="#141446"/>
<path d="M244.129 38.2744V46.8124C243.088 45.4871 241.273 44.697 239.324 44.697C235.614 44.697 232.891 47.526 232.891 51.196C232.891 54.8406 235.614 57.6696 239.324 57.6696C241.353 57.6696 243.222 56.8286 244.236 55.4268V57.3893H246.185V38.2744H244.129ZM239.618 55.8601C236.949 55.8601 235 53.8721 235 51.1706C235 48.469 236.975 46.5065 239.618 46.5065C241.86 46.5065 244.156 47.9338 244.156 51.196C244.156 54.4583 241.86 55.8601 239.618 55.8601Z" fill="#141446"/>
</g>
<g clip-path="url(#clip0)">
<path d="M108 66L117 60.885L108 55.7267L99 60.885L108 66Z" fill="#141446"/>
<path d="M117 60.885V50.6008L108 45.4425V55.7267L117 60.885Z" fill="#FF6492"/>
<path d="M99 60.885V50.6008L108 45.4425V55.7267L99 60.885Z" fill="#7A77FF"/>
<path d="M99 50.5575L108 45.4425L99 40.2842L90 45.4425L99 50.5575Z" fill="#141446"/>
<path d="M108 45.4425V35.1583L99 30V40.2842L108 45.4425Z" fill="#FF6492"/>
<path d="M90 45.4425V35.1583L99 30V40.2842L90 45.4425Z" fill="#7A77FF"/>
<path d="M90 66L99 60.885L90 55.7267L81 60.885L90 66Z" fill="#141446"/>
<path d="M99 60.885V50.6008L90 45.4425V55.7267L99 60.885Z" fill="#FF6492"/>
<path d="M81 60.885V50.6008L90 45.4425V55.7267L81 60.885Z" fill="#7A77FF"/>
</g>
<rect x="368" y="161" width="120" height="120" rx="8" fill="#F3F3FB"/>
<rect x="31" y="161" width="266" height="189" rx="8" fill="#F3F3FB"/>
<g clip-path="url(#clip1)">
<path d="M456.647 225.033L456.556 234.259C456.556 238.536 453.774 242.813 448.209 246.081C437.018 252.65 418.78 252.65 407.529 246.081C401.813 242.782 399 238.444 399 234.106L399.091 224.88C399.091 229.218 401.904 233.556 407.59 236.855C418.871 243.424 437.079 243.424 448.269 236.855C453.834 233.586 456.617 229.309 456.647 225.033Z" fill="url(#paint0_linear)"/>
<path d="M456.647 225.032L456.557 234.259C456.557 237.619 454.802 241.01 451.354 243.882L451.445 234.656C454.893 231.784 456.617 228.393 456.647 225.032Z" fill="url(#paint1_linear)"/>
<path d="M451.445 234.656L451.354 243.882C450.84 244.309 450.326 244.707 449.721 245.104L449.811 235.878C450.386 235.48 450.931 235.053 451.445 234.656Z" fill="url(#paint2_linear)"/>
<path d="M449.812 235.878L449.721 245.104C449.267 245.409 448.814 245.715 448.33 245.99L448.42 236.764C448.904 236.458 449.388 236.183 449.812 235.878Z" fill="url(#paint3_linear)"/>
<path d="M448.42 236.764L448.329 245.99C448.269 246.02 448.239 246.051 448.178 246.081C447.815 246.295 447.422 246.509 447.029 246.723L447.12 237.497C447.513 237.283 447.906 237.069 448.269 236.855C448.329 236.825 448.36 236.794 448.42 236.764Z" fill="url(#paint4_linear)"/>
<path d="M447.12 237.497L447.029 246.723C446.636 246.937 446.212 247.151 445.789 247.334L445.88 238.108C446.303 237.894 446.727 237.711 447.12 237.497Z" fill="url(#paint5_linear)"/>
<path d="M445.88 238.108L445.789 247.334C445.396 247.517 445.003 247.701 444.579 247.884L444.67 238.658C445.093 238.475 445.486 238.291 445.88 238.108Z" fill="url(#paint6_linear)"/>
<path d="M444.67 238.627L444.579 247.853C444.186 248.006 443.823 248.159 443.43 248.312L443.52 239.086C443.914 238.963 444.307 238.811 444.67 238.627Z" fill="url(#paint7_linear)"/>
<path d="M443.521 239.085L443.43 248.311C443.037 248.464 442.644 248.586 442.281 248.739L442.371 239.513C442.765 239.391 443.128 239.238 443.521 239.085Z" fill="url(#paint8_linear)"/>
<path d="M442.372 239.513L442.281 248.739C441.888 248.861 441.525 248.984 441.132 249.106L441.223 239.88C441.586 239.757 441.979 239.635 442.372 239.513Z" fill="url(#paint9_linear)"/>
<path d="M441.192 239.88L441.101 249.106C440.708 249.228 440.315 249.32 439.922 249.442L440.013 240.216C440.436 240.124 440.829 240.002 441.192 239.88Z" fill="url(#paint10_linear)"/>
<path d="M440.043 240.216L439.952 249.442C439.559 249.534 439.166 249.656 438.772 249.747L438.863 240.521C439.256 240.43 439.65 240.338 440.043 240.216Z" fill="url(#paint11_linear)"/>
<path d="M438.863 240.521L438.772 249.748C438.379 249.839 437.986 249.931 437.562 250.023L437.653 240.796C438.077 240.705 438.47 240.613 438.863 240.521Z" fill="url(#paint12_linear)"/>
<path d="M437.653 240.796L437.562 250.022C437.169 250.114 436.746 250.175 436.353 250.267L436.443 241.041C436.836 240.949 437.26 240.888 437.653 240.796Z" fill="url(#paint13_linear)"/>
<path d="M436.443 241.041L436.352 250.267C435.929 250.328 435.505 250.419 435.112 250.48L435.203 241.254C435.596 241.163 436.02 241.102 436.443 241.041Z" fill="url(#paint14_linear)"/>
<path d="M435.173 241.224L435.082 250.45C434.659 250.511 434.235 250.572 433.782 250.633L433.872 241.407C434.326 241.377 434.75 241.316 435.173 241.224Z" fill="url(#paint15_linear)"/>
<path d="M433.902 241.407L433.812 250.633C433.388 250.695 432.935 250.725 432.481 250.786L432.572 241.56C433.025 241.53 433.449 241.468 433.902 241.407Z" fill="url(#paint16_linear)"/>
<path d="M432.572 241.56L432.481 250.786C432.027 250.817 431.574 250.878 431.12 250.908L431.211 241.682C431.665 241.652 432.118 241.591 432.572 241.56Z" fill="url(#paint17_linear)"/>
<path d="M431.211 241.682L431.12 250.908C430.667 250.939 430.183 250.969 429.699 250.969L429.789 241.743C430.273 241.713 430.757 241.713 431.211 241.682Z" fill="url(#paint18_linear)"/>
<path d="M429.82 241.743L429.729 250.969C429.245 251 428.731 251 428.247 251L428.338 241.774C428.822 241.774 429.306 241.774 429.82 241.743Z" fill="url(#paint19_linear)"/>
<path d="M428.338 241.774L428.247 251C427.703 251 427.188 251 426.644 251L426.735 241.774C427.249 241.774 427.793 241.774 428.338 241.774Z" fill="url(#paint20_linear)"/>
<path d="M426.735 241.774L426.644 251C426.039 251 425.434 250.969 424.859 250.908L424.95 241.682C425.525 241.713 426.13 241.743 426.735 241.774Z" fill="url(#paint21_linear)"/>
<path d="M424.92 241.682L424.829 250.908C424.073 250.847 423.287 250.786 422.531 250.725L422.621 241.499C423.408 241.56 424.164 241.621 424.92 241.682Z" fill="url(#paint22_linear)"/>
<path d="M422.621 241.499L422.531 250.725C419.204 250.358 415.967 249.656 412.973 248.586L413.064 239.36C416.058 240.399 419.294 241.132 422.621 241.499Z" fill="url(#paint23_linear)"/>
<path d="M413.094 239.36L413.004 248.586C412.157 248.281 411.34 247.975 410.554 247.609L410.644 238.383C411.431 238.749 412.247 239.055 413.094 239.36Z" fill="url(#paint24_linear)"/>
<path d="M410.614 238.383L410.523 247.609C409.918 247.334 409.313 247.059 408.708 246.753L408.799 237.527C409.404 237.833 410.009 238.108 410.614 238.383Z" fill="url(#paint25_linear)"/>
<path d="M408.83 237.527L408.739 246.754C408.315 246.54 407.892 246.295 407.499 246.081C407.438 246.051 407.348 245.99 407.287 245.959L407.378 236.733C407.438 236.764 407.529 236.825 407.59 236.855C407.983 237.069 408.406 237.314 408.83 237.527Z" fill="url(#paint26_linear)"/>
<path d="M407.378 236.733L407.287 245.959C406.864 245.715 406.47 245.47 406.107 245.196L406.198 235.969C406.561 236.214 406.954 236.458 407.378 236.733Z" fill="url(#paint27_linear)"/>
<path d="M406.168 235.969L406.077 245.195C405.744 244.951 405.382 244.737 405.079 244.493L405.17 235.267C405.503 235.511 405.835 235.725 406.168 235.969Z" fill="url(#paint28_linear)"/>
<path d="M405.17 235.267L405.079 244.493C404.776 244.249 404.474 244.035 404.202 243.79L404.292 234.564C404.565 234.778 404.867 235.022 405.17 235.267Z" fill="url(#paint29_linear)"/>
<path d="M404.293 234.564L404.202 243.79C403.93 243.576 403.688 243.332 403.416 243.118L403.507 233.892C403.779 234.106 404.021 234.32 404.293 234.564Z" fill="url(#paint30_linear)"/>
<path d="M403.507 233.861L403.416 243.087C403.174 242.874 402.932 242.629 402.721 242.415L402.811 233.189C403.053 233.434 403.265 233.648 403.507 233.861Z" fill="url(#paint31_linear)"/>
<path d="M402.811 233.189L402.72 242.415C402.508 242.201 402.297 241.957 402.085 241.743L402.176 232.517C402.387 232.731 402.599 232.975 402.811 233.189Z" fill="url(#paint32_linear)"/>
<path d="M402.206 232.517L402.115 241.743C401.934 241.529 401.722 241.285 401.571 241.071L401.662 231.845C401.813 232.059 401.994 232.273 402.206 232.517Z" fill="url(#paint33_linear)"/>
<path d="M401.631 231.814L401.541 241.041C401.359 240.796 401.208 240.582 401.026 240.338L401.117 231.112C401.299 231.356 401.45 231.601 401.631 231.814Z" fill="url(#paint34_linear)"/>
<path d="M401.147 231.142L401.057 240.368C400.905 240.124 400.754 239.91 400.603 239.666L400.694 230.44C400.815 230.654 400.966 230.898 401.147 231.142Z" fill="url(#paint35_linear)"/>
<path d="M400.694 230.44L400.603 239.666C400.452 239.421 400.331 239.177 400.21 238.933L400.301 229.707C400.422 229.951 400.543 230.195 400.694 230.44Z" fill="url(#paint36_linear)"/>
<path d="M400.271 229.707L400.18 238.933C400.059 238.688 399.938 238.444 399.817 238.169L399.908 228.943C400.029 229.187 400.15 229.462 400.271 229.707Z" fill="url(#paint37_linear)"/>
<path d="M399.938 228.943L399.847 238.169C399.726 237.894 399.635 237.649 399.544 237.375L399.635 228.148C399.726 228.423 399.817 228.698 399.938 228.943Z" fill="url(#paint38_linear)"/>
<path d="M399.635 228.149L399.544 237.375C399.453 237.1 399.363 236.825 399.302 236.55L399.393 227.354C399.453 227.629 399.544 227.874 399.635 228.149Z" fill="url(#paint39_linear)"/>
<path d="M399.393 227.354L399.302 236.58C399.242 236.275 399.181 236 399.121 235.694L399.211 226.468C399.272 226.743 399.332 227.049 399.393 227.354Z" fill="url(#paint40_linear)"/>
<path d="M399.212 226.469L399.121 235.695C399.06 235.389 399.03 235.053 399 234.748L399.121 225.521C399.121 225.827 399.151 226.132 399.212 226.469Z" fill="url(#paint41_linear)"/>
<path d="M399.121 225.521L399.03 234.747C399.03 234.534 399 234.32 399 234.106L399.091 224.88C399.091 225.063 399.091 225.277 399.121 225.521Z" fill="url(#paint42_linear)"/>
<path d="M448.088 213.026C459.37 219.595 459.43 230.257 448.209 236.825C437.018 243.393 418.781 243.393 407.53 236.825C396.278 230.257 396.218 219.625 407.409 213.026C418.599 206.428 436.837 206.458 448.088 213.026Z" fill="white"/>
<path d="M456.647 207.925L456.556 217.151C456.556 221.428 453.774 225.705 448.209 228.974C437.018 235.542 418.78 235.542 407.529 228.974C401.813 225.674 399 221.336 399 216.998L399.091 207.772C399.091 212.11 401.904 216.448 407.59 219.748C418.871 226.316 437.079 226.316 448.269 219.748C453.834 216.479 456.617 212.202 456.647 207.925Z" fill="url(#paint43_linear)"/>
<path d="M456.647 207.925L456.557 217.151C456.557 220.511 454.802 223.902 451.354 226.774L451.445 217.548C454.893 214.676 456.617 211.285 456.647 207.925Z" fill="url(#paint44_linear)"/>
<path d="M451.445 217.548L451.354 226.774C450.84 227.202 450.326 227.599 449.721 227.996L449.811 218.77C450.386 218.373 450.931 217.945 451.445 217.548Z" fill="url(#paint45_linear)"/>
<path d="M449.812 218.77L449.721 227.996C449.267 228.301 448.814 228.607 448.33 228.882L448.42 219.656C448.904 219.35 449.388 219.075 449.812 218.77Z" fill="url(#paint46_linear)"/>
<path d="M448.42 219.656L448.329 228.882C448.269 228.912 448.239 228.943 448.178 228.973C447.815 229.187 447.422 229.401 447.029 229.615L447.12 220.389C447.513 220.175 447.906 219.961 448.269 219.747C448.329 219.717 448.36 219.686 448.42 219.656Z" fill="url(#paint47_linear)"/>
<path d="M447.12 220.389L447.029 229.615C446.636 229.829 446.212 230.043 445.789 230.226L445.88 221C446.303 220.786 446.727 220.603 447.12 220.389Z" fill="url(#paint48_linear)"/>
<path d="M445.88 221L445.789 230.226C445.396 230.41 445.003 230.593 444.579 230.776L444.67 221.55C445.093 221.367 445.486 221.183 445.88 221Z" fill="url(#paint49_linear)"/>
<path d="M444.67 221.52L444.579 230.746C444.186 230.898 443.823 231.051 443.43 231.204L443.52 221.978C443.914 221.856 444.307 221.703 444.67 221.52Z" fill="url(#paint50_linear)"/>
<path d="M443.521 221.978L443.43 231.204C443.037 231.356 442.644 231.479 442.281 231.631L442.371 222.405C442.765 222.283 443.128 222.13 443.521 221.978Z" fill="url(#paint51_linear)"/>
<path d="M442.372 222.405L442.281 231.631C441.888 231.754 441.525 231.876 441.132 231.998L441.223 222.772C441.586 222.65 441.979 222.527 442.372 222.405Z" fill="url(#paint52_linear)"/>
<path d="M441.192 222.772L441.101 231.998C440.708 232.12 440.315 232.212 439.922 232.334L440.013 223.108C440.436 223.016 440.829 222.894 441.192 222.772Z" fill="url(#paint53_linear)"/>
<path d="M440.043 223.108L439.952 232.334C439.559 232.426 439.166 232.548 438.772 232.64L438.863 223.414C439.256 223.322 439.65 223.23 440.043 223.108Z" fill="url(#paint54_linear)"/>
<path d="M438.863 223.414L438.772 232.64C438.379 232.731 437.986 232.823 437.562 232.915L437.653 223.689C438.077 223.597 438.47 223.505 438.863 223.414Z" fill="url(#paint55_linear)"/>
<path d="M437.653 223.688L437.562 232.914C437.169 233.006 436.746 233.067 436.353 233.159L436.443 223.933C436.836 223.841 437.26 223.78 437.653 223.688Z" fill="url(#paint56_linear)"/>
<path d="M436.443 223.933L436.352 233.159C435.929 233.22 435.505 233.312 435.112 233.373L435.203 224.147C435.596 224.055 436.02 223.994 436.443 223.933Z" fill="url(#paint57_linear)"/>
<path d="M435.173 224.116L435.082 233.342C434.659 233.404 434.235 233.465 433.782 233.526L433.872 224.3C434.326 224.269 434.75 224.208 435.173 224.116Z" fill="url(#paint58_linear)"/>
<path d="M433.902 224.3L433.812 233.526C433.388 233.587 432.935 233.617 432.481 233.678L432.572 224.452C433.025 224.422 433.449 224.361 433.902 224.3Z" fill="url(#paint59_linear)"/>
<path d="M432.572 224.452L432.481 233.678C432.027 233.709 431.574 233.77 431.12 233.801L431.211 224.574C431.665 224.544 432.118 224.483 432.572 224.452Z" fill="url(#paint60_linear)"/>
<path d="M431.211 224.574L431.12 233.801C430.667 233.831 430.183 233.862 429.699 233.862L429.789 224.636C430.273 224.605 430.757 224.605 431.211 224.574Z" fill="url(#paint61_linear)"/>
<path d="M429.82 224.635L429.729 233.861C429.245 233.892 428.731 233.892 428.247 233.892L428.338 224.666C428.822 224.666 429.306 224.666 429.82 224.635Z" fill="url(#paint62_linear)"/>
<path d="M428.338 224.666L428.247 233.892C427.703 233.892 427.188 233.892 426.644 233.892L426.735 224.666C427.249 224.666 427.793 224.666 428.338 224.666Z" fill="url(#paint63_linear)"/>
<path d="M426.735 224.666L426.644 233.892C426.039 233.892 425.434 233.862 424.859 233.801L424.95 224.574C425.525 224.605 426.13 224.636 426.735 224.666Z" fill="url(#paint64_linear)"/>
<path d="M424.92 224.574L424.829 233.8C424.073 233.739 423.287 233.678 422.531 233.617L422.621 224.391C423.408 224.452 424.164 224.513 424.92 224.574Z" fill="url(#paint65_linear)"/>
<path d="M422.621 224.391L422.531 233.617C419.204 233.251 415.967 232.548 412.973 231.479L413.064 222.253C416.058 223.291 419.294 224.024 422.621 224.391Z" fill="url(#paint66_linear)"/>
<path d="M413.094 222.252L413.004 231.478C412.157 231.173 411.34 230.867 410.554 230.501L410.644 221.275C411.431 221.641 412.247 221.947 413.094 222.252Z" fill="url(#paint67_linear)"/>
<path d="M410.614 221.275L410.523 230.501C409.918 230.226 409.313 229.951 408.708 229.646L408.799 220.42C409.404 220.725 410.009 221 410.614 221.275Z" fill="url(#paint68_linear)"/>
<path d="M408.83 220.42L408.739 229.646C408.315 229.432 407.892 229.187 407.499 228.974C407.438 228.943 407.348 228.882 407.287 228.851L407.378 219.625C407.438 219.656 407.529 219.717 407.59 219.748C407.983 219.961 408.406 220.206 408.83 220.42Z" fill="url(#paint69_linear)"/>
<path d="M407.378 219.625L407.287 228.852C406.864 228.607 406.47 228.363 406.107 228.088L406.198 218.862C406.561 219.106 406.954 219.35 407.378 219.625Z" fill="url(#paint70_linear)"/>
<path d="M406.168 218.862L406.077 228.088C405.744 227.843 405.382 227.629 405.079 227.385L405.17 218.159C405.503 218.403 405.835 218.617 406.168 218.862Z" fill="url(#paint71_linear)"/>
<path d="M405.17 218.159L405.079 227.385C404.776 227.141 404.474 226.927 404.202 226.682L404.292 217.456C404.565 217.67 404.867 217.915 405.17 218.159Z" fill="url(#paint72_linear)"/>
<path d="M404.293 217.456L404.202 226.682C403.93 226.469 403.688 226.224 403.416 226.01L403.507 216.784C403.779 216.998 404.021 217.212 404.293 217.456Z" fill="url(#paint73_linear)"/>
<path d="M403.507 216.754L403.416 225.98C403.174 225.766 402.932 225.521 402.721 225.308L402.811 216.082C403.053 216.326 403.265 216.54 403.507 216.754Z" fill="url(#paint74_linear)"/>
<path d="M402.811 216.081L402.72 225.307C402.508 225.094 402.297 224.849 402.085 224.635L402.176 215.409C402.387 215.623 402.599 215.868 402.811 216.081Z" fill="url(#paint75_linear)"/>
<path d="M402.206 215.41L402.115 224.636C401.934 224.422 401.722 224.177 401.571 223.964L401.662 214.738C401.813 214.951 401.994 215.165 402.206 215.41Z" fill="url(#paint76_linear)"/>
<path d="M401.631 214.707L401.541 223.933C401.359 223.688 401.208 223.474 401.026 223.23L401.117 214.004C401.299 214.248 401.45 214.493 401.631 214.707Z" fill="url(#paint77_linear)"/>
<path d="M401.147 214.035L401.057 223.261C400.905 223.016 400.754 222.802 400.603 222.558L400.694 213.332C400.815 213.546 400.966 213.79 401.147 214.035Z" fill="url(#paint78_linear)"/>
<path d="M400.694 213.332L400.603 222.558C400.452 222.314 400.331 222.069 400.21 221.825L400.301 212.599C400.422 212.843 400.543 213.088 400.694 213.332Z" fill="url(#paint79_linear)"/>
<path d="M400.271 212.599L400.18 221.825C400.059 221.581 399.938 221.336 399.817 221.061L399.908 211.835C400.029 212.079 400.15 212.354 400.271 212.599Z" fill="url(#paint80_linear)"/>
<path d="M399.938 211.835L399.847 221.092C399.726 220.817 399.635 220.572 399.544 220.297L399.635 211.071C399.726 211.316 399.817 211.591 399.938 211.835Z" fill="url(#paint81_linear)"/>
<path d="M399.635 211.041L399.544 220.297C399.453 220.023 399.363 219.748 399.302 219.473L399.393 210.247C399.453 210.522 399.544 210.766 399.635 211.041Z" fill="url(#paint82_linear)"/>
<path d="M399.393 210.247L399.302 219.473C399.242 219.167 399.181 218.892 399.121 218.587L399.211 209.361C399.272 209.636 399.332 209.941 399.393 210.247Z" fill="url(#paint83_linear)"/>
<path d="M399.212 209.361L399.121 218.587C399.06 218.281 399.03 217.945 399 217.64L399.121 208.414C399.121 208.719 399.151 209.025 399.212 209.361Z" fill="url(#paint84_linear)"/>
<path d="M399.121 208.414L399.03 217.64C399 217.426 399 217.212 399 216.998L399.091 207.772C399.091 207.955 399.091 208.169 399.121 208.414Z" fill="url(#paint85_linear)"/>
<path d="M448.088 195.919C459.37 202.487 459.43 213.149 448.209 219.717C436.988 226.285 418.781 226.285 407.53 219.717C396.278 213.149 396.218 202.517 407.409 195.919C418.599 189.32 436.837 189.35 448.088 195.919Z" fill="white"/>
</g>
<rect x="51" y="224" width="136" height="30" rx="4" fill="white"/>
<path d="M67.256 244.176C69.176 244.176 70.792 243.248 71.64 241.904L70.712 241.168C69.928 242.32 68.744 243.024 67.272 243.024C64.888 243.024 63.064 241.184 63.064 238.72C63.064 236.256 64.888 234.416 67.272 234.416C68.744 234.416 69.928 235.12 70.712 236.272L71.64 235.536C70.76 234.192 69.176 233.264 67.256 233.264C64.2 233.264 61.768 235.632 61.768 238.72C61.768 241.808 64.2 244.176 67.256 244.176ZM76.9335 244.176C78.7255 244.176 80.1495 242.896 80.1495 240.896V236.208H78.9175V240.976C78.9175 242.256 78.0215 243.04 76.9335 243.04C75.8135 243.04 74.9175 242.256 74.9175 240.976V236.208H73.7015V240.896C73.7015 242.896 75.1095 244.176 76.9335 244.176ZM86.8466 236.032C85.6786 236.032 84.6066 236.528 83.9826 237.344V232H82.7506V244H83.9026V242.768C84.5106 243.648 85.6466 244.176 86.8626 244.176C89.0866 244.176 90.7026 242.4 90.7026 240.112C90.7026 237.808 89.0706 236.032 86.8466 236.032ZM86.6706 243.04C85.3266 243.04 83.9666 242.16 83.9666 240.112C83.9666 238.064 85.3106 237.168 86.6706 237.168C88.2546 237.168 89.4386 238.4 89.4386 240.096C89.4386 241.792 88.2706 243.04 86.6706 243.04ZM99.836 239.552C99.836 237.472 98.284 236.032 96.284 236.032C94.044 236.032 92.3 237.84 92.3 240.112C92.3 242.4 94.076 244.176 96.428 244.176C97.708 244.176 98.764 243.648 99.548 242.816L98.828 241.984C98.188 242.624 97.42 243.04 96.444 243.04C94.908 243.04 93.74 242.032 93.58 240.48H99.74C99.772 240.32 99.836 239.968 99.836 239.552ZM96.252 237.152C97.484 237.152 98.556 237.952 98.572 239.392H93.628C93.9 238.048 94.94 237.152 96.252 237.152ZM102.881 244.176C103.425 244.176 103.889 243.76 103.889 243.168C103.889 242.576 103.425 242.16 102.881 242.16C102.337 242.16 101.873 242.576 101.873 243.168C101.873 243.76 102.337 244.176 102.881 244.176ZM108.062 234.128C108.558 234.128 108.974 233.744 108.974 233.232C108.974 232.736 108.558 232.336 108.062 232.336C107.55 232.336 107.134 232.736 107.134 233.232C107.134 233.744 107.55 234.128 108.062 234.128ZM106.11 247.056C107.598 247.056 108.67 246.304 108.67 244.528V236.208H107.438V244.448C107.438 245.6 106.782 245.936 105.838 245.936C105.582 245.936 105.39 245.92 105.118 245.888V246.928C105.406 247.008 105.71 247.056 106.11 247.056ZM113.68 244.176C115.12 244.176 116.416 243.408 116.416 241.888C116.416 240.784 115.744 240.176 114.352 239.584L113.632 239.28C112.768 238.912 112.368 238.672 112.368 238.144C112.368 237.504 112.928 237.168 113.664 237.168C114.4 237.168 115.072 237.504 115.584 238.032L116.336 237.264C115.728 236.512 114.848 236.032 113.728 236.032C112.304 236.032 111.104 236.8 111.104 238.208C111.104 239.312 111.856 239.872 113.04 240.368L113.792 240.688C114.576 241.008 115.152 241.264 115.152 241.936C115.152 242.64 114.48 243.04 113.664 243.04C112.72 243.04 112.064 242.512 111.424 241.84L110.64 242.656C111.264 243.488 112.304 244.176 113.68 244.176ZM126.31 244.176C128.262 244.176 129.718 243.008 129.718 241.232C129.718 239.792 128.79 239.024 127.254 238.288L126.086 237.728C125.126 237.264 124.39 236.912 124.39 235.952C124.39 234.912 125.286 234.416 126.262 234.416C127.222 234.416 128.102 234.896 128.678 235.744L129.59 235.056C128.934 234.016 127.718 233.264 126.278 233.264C124.566 233.264 123.094 234.336 123.094 236.016C123.094 237.584 124.374 238.32 125.478 238.848L126.662 239.408C127.702 239.904 128.422 240.288 128.422 241.264C128.422 242.336 127.542 243.024 126.294 243.024C124.934 243.024 123.99 242.192 123.35 241.216L122.422 241.904C123.238 243.296 124.63 244.176 126.31 244.176ZM139.024 239.552C139.024 237.472 137.472 236.032 135.472 236.032C133.232 236.032 131.488 237.84 131.488 240.112C131.488 242.4 133.264 244.176 135.616 244.176C136.896 244.176 137.952 243.648 138.736 242.816L138.016 241.984C137.376 242.624 136.608 243.04 135.632 243.04C134.096 243.04 132.928 242.032 132.768 240.48H138.928C138.96 240.32 139.024 239.968 139.024 239.552ZM135.44 237.152C136.672 237.152 137.744 237.952 137.76 239.392H132.816C133.088 238.048 134.128 237.152 135.44 237.152ZM144.756 236.144C143.828 236.144 142.916 236.544 142.34 237.312V236.208H141.188V244H142.42V239.584C142.42 238.096 143.604 237.296 144.868 237.296H145.332V236.208C145.172 236.176 145.012 236.144 144.756 236.144ZM152.521 236.208L149.945 242.08L147.353 236.208H146.041L149.721 244.176H150.169L153.833 236.208H152.521ZM162.274 239.552C162.274 237.472 160.722 236.032 158.722 236.032C156.482 236.032 154.738 237.84 154.738 240.112C154.738 242.4 156.514 244.176 158.866 244.176C160.146 244.176 161.202 243.648 161.986 242.816L161.266 241.984C160.626 242.624 159.858 243.04 158.882 243.04C157.346 243.04 156.178 242.032 156.018 240.48H162.178C162.21 240.32 162.274 239.968 162.274 239.552ZM158.69 237.152C159.922 237.152 160.994 237.952 161.01 239.392H156.066C156.338 238.048 157.378 237.152 158.69 237.152ZM168.006 236.144C167.078 236.144 166.166 236.544 165.59 237.312V236.208H164.438V244H165.67V239.584C165.67 238.096 166.854 237.296 168.118 237.296H168.582V236.208C168.422 236.176 168.262 236.144 168.006 236.144ZM172.539 244.176C173.979 244.176 175.275 243.408 175.275 241.888C175.275 240.784 174.603 240.176 173.211 239.584L172.491 239.28C171.627 238.912 171.227 238.672 171.227 238.144C171.227 237.504 171.787 237.168 172.523 237.168C173.259 237.168 173.931 237.504 174.443 238.032L175.195 237.264C174.587 236.512 173.707 236.032 172.587 236.032C171.163 236.032 169.963 236.8 169.963 238.208C169.963 239.312 170.715 239.872 171.899 240.368L172.651 240.688C173.435 241.008 174.011 241.264 174.011 241.936C174.011 242.64 173.339 243.04 172.523 243.04C171.579 243.04 170.923 242.512 170.283 241.84L169.499 242.656C170.123 243.488 171.163 244.176 172.539 244.176Z" fill="#43436B"/>
<rect x="195" y="224" width="61" height="30" rx="4" fill="white"/>
<path d="M214.696 244L211.32 239.424C212.712 239.024 213.544 237.92 213.544 236.496C213.544 234.72 212.248 233.44 210.168 233.44H206.456V244H207.704V239.568H209.96L213.24 244H214.696ZM207.704 234.56H210.12C211.512 234.56 212.248 235.392 212.248 236.512C212.248 237.648 211.512 238.448 210.12 238.448H207.704V234.56ZM223.055 239.552C223.055 237.472 221.503 236.032 219.503 236.032C217.263 236.032 215.519 237.84 215.519 240.112C215.519 242.4 217.295 244.176 219.647 244.176C220.927 244.176 221.983 243.648 222.767 242.816L222.047 241.984C221.407 242.624 220.639 243.04 219.663 243.04C218.127 243.04 216.959 242.032 216.799 240.48H222.959C222.991 240.32 223.055 239.968 223.055 239.552ZM219.471 237.152C220.703 237.152 221.775 237.952 221.791 239.392H216.847C217.119 238.048 218.159 237.152 219.471 237.152ZM231.395 232V237.36C230.771 236.528 229.683 236.032 228.515 236.032C226.291 236.032 224.659 237.808 224.659 240.112C224.659 242.4 226.291 244.176 228.515 244.176C229.731 244.176 230.851 243.648 231.459 242.768V244H232.627V232H231.395ZM228.691 243.04C227.091 243.04 225.923 241.792 225.923 240.096C225.923 238.4 227.107 237.168 228.691 237.168C230.035 237.168 231.411 238.064 231.411 240.112C231.411 242.16 230.035 243.04 228.691 243.04ZM235.953 234.128C236.449 234.128 236.865 233.744 236.865 233.232C236.865 232.736 236.449 232.336 235.953 232.336C235.441 232.336 235.025 232.736 235.025 233.232C235.025 233.744 235.441 234.128 235.953 234.128ZM235.329 244H236.561V236.208H235.329V244ZM241.57 244.176C243.01 244.176 244.306 243.408 244.306 241.888C244.306 240.784 243.634 240.176 242.242 239.584L241.522 239.28C240.658 238.912 240.258 238.672 240.258 238.144C240.258 237.504 240.818 237.168 241.554 237.168C242.29 237.168 242.962 237.504 243.474 238.032L244.226 237.264C243.618 236.512 242.738 236.032 241.618 236.032C240.194 236.032 238.994 236.8 238.994 238.208C238.994 239.312 239.746 239.872 240.93 240.368L241.682 240.688C242.466 241.008 243.042 241.264 243.042 241.936C243.042 242.64 242.37 243.04 241.554 243.04C240.61 243.04 239.954 242.512 239.314 241.84L238.53 242.656C239.154 243.488 240.194 244.176 241.57 244.176Z" fill="#43436B"/>
<rect x="51" y="262" width="223" height="30" rx="4" fill="white"/>
<path d="M62.456 282H63.704V277.584H66.168C68.248 277.584 69.544 276.288 69.544 274.496C69.544 272.72 68.248 271.44 66.168 271.44H62.456V282ZM63.704 276.464V272.56H66.136C67.528 272.56 68.248 273.392 68.248 274.512C68.248 275.648 67.528 276.464 66.136 276.464H63.704ZM75.0843 274.144C74.1562 274.144 73.2443 274.544 72.6683 275.312V274.208H71.5163V282H72.7483V277.584C72.7483 276.096 73.9323 275.296 75.1963 275.296H75.6603V274.208C75.5003 274.176 75.3403 274.144 75.0843 274.144ZM84.1329 277.552C84.1329 275.472 82.5809 274.032 80.5809 274.032C78.3409 274.032 76.5969 275.84 76.5969 278.112C76.5969 280.4 78.3729 282.176 80.7249 282.176C82.0049 282.176 83.0609 281.648 83.8449 280.816L83.1249 279.984C82.4849 280.624 81.7169 281.04 80.7409 281.04C79.2049 281.04 78.0369 280.032 77.8769 278.48H84.0369C84.0689 278.32 84.1329 277.968 84.1329 277.552ZM80.5489 275.152C81.7809 275.152 82.8529 275.952 82.8689 277.392H77.9249C78.1969 276.048 79.2369 275.152 80.5489 275.152ZM85.7855 277.488H89.6095V276.448H85.7855V277.488ZM98.6121 282H99.9401L95.3641 271.264H94.9001L90.3241 282H91.6361L92.5321 279.856H97.7161L98.6121 282ZM97.2361 278.736H93.0121L95.1241 273.536L97.2361 278.736ZM107.868 274.208V275.456C107.26 274.56 106.14 274.032 104.908 274.032C102.716 274.032 101.084 275.728 101.084 277.984C101.084 280.256 102.716 281.92 104.908 281.92C106.076 281.92 107.18 281.44 107.804 280.624V281.312C107.804 283.04 106.796 283.92 105.212 283.92C103.932 283.92 103.052 283.344 102.299 282.688L101.58 283.552C102.348 284.32 103.612 285.056 105.244 285.056C107.516 285.056 109.036 283.648 109.036 281.248V274.208H107.868ZM105.1 280.784C103.516 280.784 102.332 279.648 102.332 278C102.332 276.352 103.516 275.2 105.1 275.2C106.444 275.2 107.82 276.032 107.82 277.984C107.82 279.936 106.46 280.784 105.1 280.784ZM118.055 274.208V275.456C117.447 274.56 116.327 274.032 115.095 274.032C112.903 274.032 111.271 275.728 111.271 277.984C111.271 280.256 112.903 281.92 115.095 281.92C116.263 281.92 117.367 281.44 117.991 280.624V281.312C117.991 283.04 116.983 283.92 115.399 283.92C114.119 283.92 113.239 283.344 112.487 282.688L111.767 283.552C112.535 284.32 113.799 285.056 115.431 285.056C117.703 285.056 119.223 283.648 119.223 281.248V274.208H118.055ZM115.287 280.784C113.703 280.784 112.519 279.648 112.519 278C112.519 276.352 113.703 275.2 115.287 275.2C116.631 275.2 118.007 276.032 118.007 277.984C118.007 279.936 116.647 280.784 115.287 280.784ZM125.491 274.144C124.562 274.144 123.651 274.544 123.075 275.312V274.208H121.923V282H123.155V277.584C123.155 276.096 124.339 275.296 125.603 275.296H126.067V274.208C125.907 274.176 125.747 274.144 125.491 274.144ZM134.539 277.552C134.539 275.472 132.987 274.032 130.987 274.032C128.747 274.032 127.003 275.84 127.003 278.112C127.003 280.4 128.779 282.176 131.131 282.176C132.411 282.176 133.467 281.648 134.251 280.816L133.531 279.984C132.891 280.624 132.123 281.04 131.147 281.04C129.611 281.04 128.443 280.032 128.283 278.48H134.443C134.475 278.32 134.539 277.968 134.539 277.552ZM130.955 275.152C132.187 275.152 133.259 275.952 133.275 277.392H128.331C128.603 276.048 129.643 275.152 130.955 275.152ZM143.024 274.208V275.456C142.416 274.56 141.296 274.032 140.064 274.032C137.872 274.032 136.24 275.728 136.24 277.984C136.24 280.256 137.872 281.92 140.064 281.92C141.232 281.92 142.336 281.44 142.96 280.624V281.312C142.96 283.04 141.952 283.92 140.368 283.92C139.088 283.92 138.208 283.344 137.456 282.688L136.736 283.552C137.504 284.32 138.768 285.056 140.4 285.056C142.672 285.056 144.192 283.648 144.192 281.248V274.208H143.024ZM140.256 280.784C138.672 280.784 137.488 279.648 137.488 278C137.488 276.352 138.672 275.2 140.256 275.2C141.6 275.2 142.976 276.032 142.976 277.984C142.976 279.936 141.616 280.784 140.256 280.784ZM149.691 274.032C148.443 274.032 147.259 274.56 146.523 275.744L147.339 276.416C147.947 275.632 148.635 275.168 149.611 275.168C150.763 275.168 151.499 275.824 151.499 277.136V277.808H149.035C147.339 277.808 146.235 278.672 146.235 279.984C146.235 281.344 147.387 282.176 148.955 282.176C150.107 282.176 151.019 281.744 151.579 280.992V282H152.731V277.2C152.731 275.104 151.467 274.032 149.691 274.032ZM149.115 281.152C148.251 281.152 147.499 280.752 147.499 279.92C147.499 279.184 148.091 278.816 149.179 278.816H151.499V279.008C151.499 280.224 150.395 281.152 149.115 281.152ZM158.56 281.056C157.584 281.056 156.912 280.736 156.912 279.568V275.312H159.344V274.208H156.912V272.08H155.68V274.208H154.368V275.312H155.68V279.648C155.68 281.424 156.768 282.176 158.304 282.176C158.8 282.176 159.2 282.096 159.6 282V280.96C159.2 281.024 158.864 281.056 158.56 281.056ZM162.062 272.128C162.558 272.128 162.974 271.744 162.974 271.232C162.974 270.736 162.558 270.336 162.062 270.336C161.55 270.336 161.134 270.736 161.134 271.232C161.134 271.744 161.55 272.128 162.062 272.128ZM161.438 282H162.67V274.208H161.438V282ZM168.88 282.16C171.168 282.16 172.976 280.352 172.976 278.096C172.976 275.824 171.168 274.032 168.896 274.032C166.608 274.032 164.816 275.808 164.816 278.096C164.816 280.352 166.608 282.16 168.88 282.16ZM168.88 281.024C167.28 281.024 166.08 279.776 166.08 278.112C166.08 276.432 167.28 275.168 168.896 275.168C170.496 275.168 171.712 276.432 171.712 278.112C171.712 279.76 170.48 281.024 168.88 281.024ZM178.693 274.032C177.685 274.032 176.853 274.416 176.293 275.04V274.208H175.141V282H176.373V277.248C176.373 276.032 177.221 275.168 178.421 275.168C179.621 275.168 180.357 276.016 180.357 277.248V282H181.589V277.104C181.589 275.296 180.533 274.032 178.693 274.032ZM188.784 282H191.92C195.504 282 197.664 279.728 197.664 276.704C197.664 273.632 195.504 271.44 191.92 271.44H188.784V282ZM190.032 280.88V272.56H191.904C194.736 272.56 196.368 274.288 196.368 276.704C196.368 279.072 194.736 280.88 191.904 280.88H190.032ZM202.598 274.032C201.35 274.032 200.166 274.56 199.43 275.744L200.246 276.416C200.854 275.632 201.542 275.168 202.518 275.168C203.67 275.168 204.406 275.824 204.406 277.136V277.808H201.942C200.246 277.808 199.142 278.672 199.142 279.984C199.142 281.344 200.294 282.176 201.862 282.176C203.014 282.176 203.926 281.744 204.486 280.992V282H205.638V277.2C205.638 275.104 204.374 274.032 202.598 274.032ZM202.022 281.152C201.158 281.152 200.406 280.752 200.406 279.92C200.406 279.184 200.998 278.816 202.086 278.816H204.406V279.008C204.406 280.224 203.302 281.152 202.022 281.152ZM211.467 281.056C210.491 281.056 209.819 280.736 209.819 279.568V275.312H212.251V274.208H209.819V272.08H208.587V274.208H207.275V275.312H208.587V279.648C208.587 281.424 209.675 282.176 211.211 282.176C211.707 282.176 212.107 282.096 212.507 282V280.96C212.107 281.024 211.771 281.056 211.467 281.056ZM217.144 274.032C215.896 274.032 214.712 274.56 213.976 275.744L214.792 276.416C215.4 275.632 216.088 275.168 217.064 275.168C218.216 275.168 218.952 275.824 218.952 277.136V277.808H216.488C214.792 277.808 213.688 278.672 213.688 279.984C213.688 281.344 214.84 282.176 216.408 282.176C217.56 282.176 218.472 281.744 219.032 280.992V282H220.184V277.2C220.184 275.104 218.92 274.032 217.144 274.032ZM216.568 281.152C215.704 281.152 214.952 280.752 214.952 279.92C214.952 279.184 215.544 278.816 216.632 278.816H218.952V279.008C218.952 280.224 217.848 281.152 216.568 281.152ZM226.894 274.032C225.726 274.032 224.654 274.528 224.03 275.344V270H222.798V282H223.95V280.768C224.558 281.648 225.694 282.176 226.91 282.176C229.134 282.176 230.75 280.4 230.75 278.112C230.75 275.808 229.118 274.032 226.894 274.032ZM226.718 281.04C225.374 281.04 224.014 280.16 224.014 278.112C224.014 276.064 225.358 275.168 226.718 275.168C228.302 275.168 229.486 276.4 229.486 278.096C229.486 279.792 228.318 281.04 226.718 281.04ZM235.707 274.032C234.459 274.032 233.275 274.56 232.539 275.744L233.355 276.416C233.963 275.632 234.651 275.168 235.627 275.168C236.779 275.168 237.515 275.824 237.515 277.136V277.808H235.051C233.355 277.808 232.251 278.672 232.251 279.984C232.251 281.344 233.403 282.176 234.971 282.176C236.123 282.176 237.035 281.744 237.595 280.992V282H238.747V277.2C238.747 275.104 237.483 274.032 235.707 274.032ZM235.131 281.152C234.267 281.152 233.515 280.752 233.515 279.92C233.515 279.184 234.107 278.816 235.195 278.816H237.515V279.008C237.515 280.224 236.411 281.152 235.131 281.152ZM243.664 282.176C245.104 282.176 246.4 281.408 246.4 279.888C246.4 278.784 245.728 278.176 244.336 277.584L243.616 277.28C242.752 276.912 242.352 276.672 242.352 276.144C242.352 275.504 242.912 275.168 243.648 275.168C244.384 275.168 245.056 275.504 245.568 276.032L246.32 275.264C245.712 274.512 244.832 274.032 243.712 274.032C242.288 274.032 241.088 274.8 241.088 276.208C241.088 277.312 241.84 277.872 243.024 278.368L243.776 278.688C244.56 279.008 245.136 279.264 245.136 279.936C245.136 280.64 244.464 281.04 243.648 281.04C242.704 281.04 242.048 280.512 241.408 279.84L240.624 280.656C241.248 281.488 242.288 282.176 243.664 282.176ZM255.602 277.552C255.602 275.472 254.05 274.032 252.05 274.032C249.81 274.032 248.066 275.84 248.066 278.112C248.066 280.4 249.842 282.176 252.194 282.176C253.474 282.176 254.53 281.648 255.314 280.816L254.594 279.984C253.954 280.624 253.186 281.04 252.21 281.04C250.674 281.04 249.506 280.032 249.346 278.48H255.506C255.538 278.32 255.602 277.968 255.602 277.552ZM252.018 275.152C253.25 275.152 254.322 275.952 254.338 277.392H249.394C249.666 276.048 250.706 275.152 252.018 275.152ZM260.07 282.176C261.51 282.176 262.806 281.408 262.806 279.888C262.806 278.784 262.134 278.176 260.742 277.584L260.022 277.28C259.158 276.912 258.758 276.672 258.758 276.144C258.758 275.504 259.318 275.168 260.054 275.168C260.79 275.168 261.462 275.504 261.974 276.032L262.726 275.264C262.118 274.512 261.238 274.032 260.118 274.032C258.694 274.032 257.494 274.8 257.494 276.208C257.494 277.312 258.246 277.872 259.43 278.368L260.182 278.688C260.966 279.008 261.542 279.264 261.542 279.936C261.542 280.64 260.87 281.04 260.054 281.04C259.11 281.04 258.454 280.512 257.814 279.84L257.03 280.656C257.654 281.488 258.694 282.176 260.07 282.176Z" fill="#43436B"/>
<rect x="51" y="300" width="195" height="30" rx="4" fill="white"/>
<path d="M68.088 314.192C68.728 313.712 69.096 312.992 69.096 312.112C69.096 310.576 67.96 309.44 66.088 309.44H62.456V320H66.808C68.904 320 70.152 318.704 70.152 316.96C70.152 315.6 69.4 314.576 68.088 314.192ZM65.96 310.56C67.208 310.56 67.816 311.216 67.816 312.192C67.816 313.168 67.192 313.84 65.96 313.84H63.704V310.56H65.96ZM66.68 318.88H63.704V314.976H66.68C68.104 314.976 68.872 315.792 68.872 316.928C68.872 318.08 68.104 318.88 66.68 318.88ZM75.0194 312.032C73.7714 312.032 72.5874 312.56 71.8514 313.744L72.6674 314.416C73.2754 313.632 73.9634 313.168 74.9394 313.168C76.0914 313.168 76.8274 313.824 76.8274 315.136V315.808H74.3634C72.6674 315.808 71.5634 316.672 71.5634 317.984C71.5634 319.344 72.7154 320.176 74.2834 320.176C75.4354 320.176 76.3474 319.744 76.9074 318.992V320H78.0594V315.2C78.0594 313.104 76.7954 312.032 75.0194 312.032ZM74.4434 319.152C73.5794 319.152 72.8274 318.752 72.8274 317.92C72.8274 317.184 73.4194 316.816 74.5074 316.816H76.8274V317.008C76.8274 318.224 75.7234 319.152 74.4434 319.152ZM84.1925 320.176C85.5845 320.176 86.7045 319.504 87.3925 318.48L86.5125 317.792C85.9365 318.56 85.2005 319.04 84.2085 319.04C82.5765 319.04 81.3765 317.744 81.3765 316.096C81.3765 314.464 82.5765 313.168 84.2085 313.168C85.2165 313.168 85.9525 313.664 86.5285 314.432L87.4085 313.728C86.7205 312.704 85.6005 312.032 84.1925 312.032C81.9205 312.032 80.1125 313.824 80.1125 316.096C80.1125 318.384 81.9205 320.176 84.1925 320.176ZM89.485 320H90.717V308H89.485V320ZM92.333 315.632L95.709 312.208H94.093L90.845 315.616L94.429 320H96.013L92.333 315.632ZM103.586 312.208V313.456C102.978 312.56 101.858 312.032 100.626 312.032C98.4343 312.032 96.8023 313.728 96.8023 315.984C96.8023 318.256 98.4343 319.92 100.626 319.92C101.794 319.92 102.898 319.44 103.522 318.624V319.312C103.522 321.04 102.514 321.92 100.93 321.92C99.6503 321.92 98.7703 321.344 98.0182 320.688L97.2983 321.552C98.0663 322.32 99.3303 323.056 100.962 323.056C103.234 323.056 104.754 321.648 104.754 319.248V312.208H103.586ZM100.818 318.784C99.2343 318.784 98.0503 317.648 98.0503 316C98.0503 314.352 99.2343 313.2 100.818 313.2C102.162 313.2 103.538 314.032 103.538 315.984C103.538 317.936 102.178 318.784 100.818 318.784ZM111.022 312.144C110.094 312.144 109.182 312.544 108.606 313.312V312.208H107.454V320H108.686V315.584C108.686 314.096 109.87 313.296 111.134 313.296H111.598V312.208C111.438 312.176 111.278 312.144 111.022 312.144ZM116.598 320.16C118.886 320.16 120.694 318.352 120.694 316.096C120.694 313.824 118.886 312.032 116.614 312.032C114.326 312.032 112.534 313.808 112.534 316.096C112.534 318.352 114.326 320.16 116.598 320.16ZM116.598 319.024C114.998 319.024 113.798 317.776 113.798 316.112C113.798 314.432 114.998 313.168 116.614 313.168C118.214 313.168 119.43 314.432 119.43 316.112C119.43 317.76 118.198 319.024 116.598 319.024ZM125.996 320.176C127.788 320.176 129.212 318.896 129.212 316.896V312.208H127.98V316.976C127.98 318.256 127.084 319.04 125.996 319.04C124.876 319.04 123.98 318.256 123.98 316.976V312.208H122.764V316.896C122.764 318.896 124.172 320.176 125.996 320.176ZM135.365 312.032C134.357 312.032 133.525 312.416 132.965 313.04V312.208H131.813V320H133.045V315.248C133.045 314.032 133.893 313.168 135.093 313.168C136.293 313.168 137.029 314.016 137.029 315.248V320H138.261V315.104C138.261 313.296 137.205 312.032 135.365 312.032ZM147.052 308V313.36C146.428 312.528 145.34 312.032 144.172 312.032C141.948 312.032 140.316 313.808 140.316 316.112C140.316 318.4 141.948 320.176 144.172 320.176C145.388 320.176 146.508 319.648 147.116 318.768V320H148.284V308H147.052ZM144.348 319.04C142.748 319.04 141.58 317.792 141.58 316.096C141.58 314.4 142.764 313.168 144.348 313.168C145.692 313.168 147.068 314.064 147.068 316.112C147.068 318.16 145.692 319.04 144.348 319.04ZM158.653 320.176C160.605 320.176 162.061 319.008 162.061 317.232C162.061 315.792 161.133 315.024 159.597 314.288L158.429 313.728C157.469 313.264 156.733 312.912 156.733 311.952C156.733 310.912 157.629 310.416 158.605 310.416C159.565 310.416 160.445 310.896 161.021 311.744L161.933 311.056C161.277 310.016 160.061 309.264 158.621 309.264C156.909 309.264 155.437 310.336 155.437 312.016C155.437 313.584 156.717 314.32 157.821 314.848L159.005 315.408C160.045 315.904 160.765 316.288 160.765 317.264C160.765 318.336 159.885 319.024 158.637 319.024C157.277 319.024 156.333 318.192 155.693 317.216L154.765 317.904C155.581 319.296 156.973 320.176 158.653 320.176ZM167.911 320.176C169.303 320.176 170.423 319.504 171.111 318.48L170.231 317.792C169.655 318.56 168.919 319.04 167.927 319.04C166.295 319.04 165.095 317.744 165.095 316.096C165.095 314.464 166.295 313.168 167.927 313.168C168.935 313.168 169.671 313.664 170.247 314.432L171.127 313.728C170.439 312.704 169.319 312.032 167.911 312.032C165.639 312.032 163.831 313.824 163.831 316.096C163.831 318.384 165.639 320.176 167.911 320.176ZM176.772 312.032C175.764 312.032 174.964 312.432 174.436 313.088V308H173.204V320H174.436V315.264C174.436 314.048 175.284 313.168 176.484 313.168C177.684 313.168 178.42 314.032 178.42 315.264V320H179.652V315.104C179.652 313.296 178.596 312.032 176.772 312.032ZM189.242 315.552C189.242 313.472 187.69 312.032 185.69 312.032C183.45 312.032 181.706 313.84 181.706 316.112C181.706 318.4 183.482 320.176 185.834 320.176C187.114 320.176 188.17 319.648 188.954 318.816L188.234 317.984C187.594 318.624 186.826 319.04 185.85 319.04C184.314 319.04 183.146 318.032 182.986 316.48H189.146C189.178 316.32 189.242 315.968 189.242 315.552ZM185.658 313.152C186.89 313.152 187.962 313.952 187.978 315.392H183.034C183.306 314.048 184.346 313.152 185.658 313.152ZM197.583 308V313.36C196.959 312.528 195.871 312.032 194.703 312.032C192.479 312.032 190.847 313.808 190.847 316.112C190.847 318.4 192.479 320.176 194.703 320.176C195.919 320.176 197.039 319.648 197.647 318.768V320H198.815V308H197.583ZM194.879 319.04C193.279 319.04 192.111 317.792 192.111 316.096C192.111 314.4 193.295 313.168 194.879 313.168C196.223 313.168 197.599 314.064 197.599 316.112C197.599 318.16 196.223 319.04 194.879 319.04ZM204.652 320.176C206.444 320.176 207.868 318.896 207.868 316.896V312.208H206.636V316.976C206.636 318.256 205.74 319.04 204.652 319.04C203.532 319.04 202.636 318.256 202.636 316.976V312.208H201.42V316.896C201.42 318.896 202.828 320.176 204.652 320.176ZM210.469 320H211.701V308H210.469V320ZM221.383 315.552C221.383 313.472 219.831 312.032 217.831 312.032C215.591 312.032 213.847 313.84 213.847 316.112C213.847 318.4 215.623 320.176 217.975 320.176C219.255 320.176 220.311 319.648 221.095 318.816L220.375 317.984C219.735 318.624 218.967 319.04 217.991 319.04C216.455 319.04 215.287 318.032 215.127 316.48H221.287C221.319 316.32 221.383 315.968 221.383 315.552ZM217.799 313.152C219.031 313.152 220.103 313.952 220.119 315.392H215.175C215.447 314.048 216.487 313.152 217.799 313.152ZM227.116 312.144C226.188 312.144 225.276 312.544 224.7 313.312V312.208H223.548V320H224.78V315.584C224.78 314.096 225.964 313.296 227.228 313.296H227.692V312.208C227.532 312.176 227.372 312.144 227.116 312.144ZM231.648 320.176C233.088 320.176 234.384 319.408 234.384 317.888C234.384 316.784 233.712 316.176 232.32 315.584L231.6 315.28C230.736 314.912 230.336 314.672 230.336 314.144C230.336 313.504 230.896 313.168 231.632 313.168C232.368 313.168 233.04 313.504 233.552 314.032L234.304 313.264C233.696 312.512 232.816 312.032 231.696 312.032C230.272 312.032 229.072 312.8 229.072 314.208C229.072 315.312 229.824 315.872 231.008 316.368L231.76 316.688C232.544 317.008 233.12 317.264 233.12 317.936C233.12 318.64 232.448 319.04 231.632 319.04C230.688 319.04 230.032 318.512 229.392 317.84L228.608 318.656C229.232 319.488 230.272 320.176 231.648 320.176Z" fill="#43436B"/>
<path d="M91.02 202.198C93.252 202.198 95.124 201.118 96.114 199.462L94.674 198.4C93.846 199.678 92.622 200.452 91.038 200.452C88.59 200.452 86.754 198.598 86.754 196.06C86.754 193.522 88.59 191.668 91.038 191.668C92.622 191.668 93.846 192.442 94.674 193.72L96.114 192.658C95.106 191.002 93.252 189.922 91.02 189.922C87.546 189.922 84.774 192.586 84.774 196.06C84.774 199.552 87.546 202.198 91.02 202.198ZM102.05 202.198C104.21 202.198 105.884 200.686 105.884 198.292V193.162H103.994V198.436C103.994 199.678 103.13 200.452 102.05 200.452C100.934 200.452 100.052 199.678 100.052 198.436V193.162H98.1803V198.292C98.1803 200.686 99.8543 202.198 102.05 202.198ZM113.378 192.964C112.154 192.964 111.092 193.432 110.426 194.242V188.5H108.536V202H110.3V200.776C110.966 201.676 112.1 202.198 113.396 202.198C115.898 202.198 117.716 200.218 117.716 197.59C117.716 194.962 115.898 192.964 113.378 192.964ZM113.072 200.47C111.758 200.47 110.408 199.606 110.408 197.59C110.408 195.592 111.74 194.692 113.072 194.692C114.584 194.692 115.772 195.862 115.772 197.572C115.772 199.282 114.602 200.47 113.072 200.47ZM127.991 197.014C127.991 194.692 126.263 192.964 123.905 192.964C121.331 192.964 119.333 194.998 119.333 197.59C119.333 200.2 121.349 202.198 124.085 202.198C125.489 202.198 126.677 201.658 127.613 200.776L126.713 199.48C125.975 200.128 125.165 200.524 124.139 200.524C122.627 200.524 121.511 199.66 121.259 198.202H127.847C127.901 197.968 127.991 197.5 127.991 197.014ZM123.833 194.566C125.039 194.566 126.065 195.34 126.101 196.726H121.295C121.583 195.412 122.591 194.566 123.833 194.566ZM131.327 202.198C132.101 202.198 132.713 201.622 132.713 200.812C132.713 200.002 132.101 199.408 131.327 199.408C130.535 199.408 129.905 200.002 129.905 200.812C129.905 201.622 130.535 202.198 131.327 202.198ZM137.228 191.11C137.93 191.11 138.506 190.57 138.506 189.868C138.506 189.166 137.93 188.608 137.228 188.608C136.508 188.608 135.932 189.166 135.932 189.868C135.932 190.57 136.508 191.11 137.228 191.11ZM135.032 205.438C136.886 205.438 138.164 204.502 138.164 202.36V193.162H136.274V202.198C136.274 203.35 135.644 203.728 134.582 203.728C134.312 203.728 134.096 203.71 133.808 203.674V205.276C134.132 205.384 134.51 205.438 135.032 205.438ZM143.633 202.198C145.397 202.198 146.909 201.28 146.909 199.498C146.909 198.202 146.099 197.5 144.497 196.834L143.651 196.492C142.841 196.15 142.481 195.916 142.481 195.448C142.481 194.872 142.985 194.602 143.687 194.602C144.461 194.602 145.199 194.926 145.757 195.502L146.783 194.332C146.045 193.45 145.001 192.964 143.723 192.964C141.977 192.964 140.609 193.882 140.609 195.52C140.609 196.852 141.491 197.5 142.913 198.094L143.813 198.472C144.533 198.76 145.055 198.994 145.055 199.57C145.055 200.236 144.407 200.56 143.633 200.56C142.625 200.56 141.851 200.038 141.149 199.3L140.069 200.488C140.825 201.478 142.067 202.198 143.633 202.198ZM157.896 202.198C160.164 202.198 161.874 200.866 161.874 198.76C161.874 197.122 160.83 196.204 159.03 195.376L157.698 194.764C156.726 194.296 156.042 193.972 156.042 193.072C156.042 192.1 156.888 191.632 157.842 191.632C158.868 191.632 159.732 192.154 160.344 193.072L161.676 192.046C160.956 190.822 159.588 189.922 157.842 189.922C155.79 189.922 154.098 191.182 154.098 193.144C154.098 194.89 155.43 195.772 156.87 196.438L158.184 197.05C159.228 197.536 159.93 197.896 159.93 198.832C159.93 199.858 159.102 200.488 157.878 200.488C156.402 200.488 155.448 199.588 154.764 198.598L153.414 199.624C154.314 201.19 155.916 202.198 157.896 202.198ZM168.186 200.488C167.088 200.488 166.44 200.128 166.44 198.958V194.8H169.068V193.162H166.44V190.84H164.532V193.162H163.092V194.8H164.532V199.12C164.532 201.262 165.828 202.198 167.79 202.198C168.384 202.198 168.87 202.108 169.356 202V200.398C168.888 200.452 168.51 200.488 168.186 200.488ZM174.674 192.964C173.18 192.964 171.866 193.558 170.948 194.854L172.046 195.97C172.748 195.142 173.468 194.656 174.494 194.656C175.7 194.656 176.384 195.322 176.384 196.546V197.122H173.882C171.902 197.122 170.624 198.094 170.624 199.642C170.624 201.172 171.848 202.198 173.702 202.198C174.926 202.198 175.898 201.766 176.528 201.01V202H178.292V196.654C178.292 194.206 176.798 192.964 174.674 192.964ZM174.098 200.74C173.234 200.74 172.55 200.344 172.55 199.57C172.55 198.85 173.108 198.49 174.116 198.49H176.384V198.652C176.384 199.858 175.34 200.74 174.098 200.74ZM185.045 202.198C186.701 202.198 187.997 201.388 188.771 200.146L187.439 199.12C186.845 199.93 186.107 200.452 185.063 200.452C183.443 200.452 182.291 199.21 182.291 197.572C182.291 195.97 183.443 194.71 185.063 194.71C186.125 194.71 186.863 195.25 187.439 196.06L188.771 195.016C188.015 193.774 186.719 192.964 185.045 192.964C182.435 192.964 180.365 194.98 180.365 197.572C180.365 200.182 182.435 202.198 185.045 202.198ZM190.854 202H192.744V188.5H190.854V202ZM195.03 197.05L198.594 193.162H196.254L192.798 197.032L196.632 202H198.9L195.03 197.05Z" fill="#141446"/>
<path d="M297 221H368" stroke="#141446" stroke-width="0.5"/>
<g clip-path="url(#clip2)">
<path d="M478.211 331.605L480.755 329.012L480.926 327.919C476.294 323.628 468.947 324.116 464.771 328.93C463.607 330.267 462.751 331.93 462.295 333.663L463.208 333.535L468.285 332.686L468.673 332.279C470.932 329.756 474.754 329.407 477.355 331.558L478.211 331.605Z" fill="#EA4335"/>
<path d="M484.372 333.593C483.79 331.407 482.592 329.43 480.926 327.93L477.366 331.558C478.873 332.814 479.728 334.698 479.694 336.674V337.314C481.451 337.314 482.866 338.756 482.866 340.546C482.866 342.337 481.451 343.744 479.694 343.744H473.339L472.711 344.43V348.302L473.339 348.907H479.694C484.246 348.942 487.977 345.244 488.011 340.605C488.023 337.814 486.654 335.174 484.372 333.593Z" fill="#4285F4"/>
<path d="M466.996 348.93H473.339V343.756H466.996C466.539 343.756 466.106 343.651 465.695 343.465L464.794 343.744L462.238 346.337L462.01 347.221C463.447 348.314 465.193 348.942 466.996 348.93Z" fill="#34A853"/>
<path d="M466.995 332.14C462.443 332.163 458.769 335.954 458.792 340.593C458.804 343.186 459.99 345.628 462.01 347.209L465.683 343.465C464.086 342.733 463.379 340.814 464.097 339.186C464.816 337.558 466.699 336.837 468.296 337.57C469.004 337.895 469.563 338.465 469.882 339.186L473.556 335.442C472.004 333.349 469.563 332.128 466.995 332.14Z" fill="#FBBC05"/>
<path d="M413.2 335.221C413.2 335.651 413.246 336 413.326 336.256C413.417 336.512 413.531 336.791 413.691 337.093C413.748 337.186 413.771 337.279 413.771 337.36C413.771 337.477 413.702 337.593 413.554 337.709L412.835 338.198C412.732 338.267 412.63 338.302 412.538 338.302C412.424 338.302 412.31 338.244 412.196 338.14C412.036 337.965 411.899 337.779 411.785 337.593C411.671 337.395 411.557 337.174 411.432 336.907C410.542 337.977 409.424 338.512 408.077 338.512C407.119 338.512 406.355 338.233 405.795 337.674C405.236 337.116 404.951 336.372 404.951 335.442C404.951 334.454 405.293 333.651 405.989 333.047C406.685 332.442 407.61 332.14 408.785 332.14C409.173 332.14 409.572 332.174 409.994 332.233C410.416 332.291 410.85 332.384 411.306 332.488V331.64C411.306 330.756 411.124 330.14 410.77 329.779C410.405 329.419 409.789 329.244 408.91 329.244C408.511 329.244 408.1 329.291 407.678 329.395C407.256 329.5 406.845 329.628 406.446 329.791C406.263 329.872 406.126 329.919 406.046 329.942C405.967 329.965 405.91 329.977 405.864 329.977C405.704 329.977 405.624 329.86 405.624 329.616V329.047C405.624 328.86 405.647 328.721 405.704 328.64C405.761 328.558 405.864 328.477 406.024 328.395C406.423 328.186 406.902 328.012 407.461 327.872C408.02 327.721 408.614 327.651 409.241 327.651C410.599 327.651 411.591 327.965 412.23 328.593C412.858 329.221 413.177 330.174 413.177 331.454V335.221H413.2ZM408.568 336.988C408.944 336.988 409.332 336.919 409.743 336.779C410.154 336.64 410.519 336.384 410.827 336.035C411.01 335.814 411.146 335.57 411.215 335.291C411.283 335.012 411.329 334.674 411.329 334.279V333.791C410.998 333.709 410.644 333.64 410.279 333.593C409.914 333.547 409.561 333.523 409.207 333.523C408.442 333.523 407.883 333.674 407.507 333.988C407.13 334.302 406.948 334.744 406.948 335.326C406.948 335.872 407.085 336.279 407.37 336.558C407.644 336.849 408.043 336.988 408.568 336.988ZM417.73 338.244C417.524 338.244 417.387 338.209 417.296 338.128C417.205 338.058 417.125 337.895 417.057 337.674L414.375 328.686C414.307 328.454 414.273 328.302 414.273 328.221C414.273 328.035 414.364 327.93 414.546 327.93H415.665C415.881 327.93 416.03 327.965 416.11 328.047C416.201 328.116 416.269 328.279 416.338 328.5L418.255 336.198L420.034 328.5C420.091 328.267 420.16 328.116 420.251 328.047C420.342 327.977 420.502 327.93 420.708 327.93H421.62C421.837 327.93 421.985 327.965 422.077 328.047C422.168 328.116 422.248 328.279 422.293 328.5L424.096 336.291L426.07 328.5C426.138 328.267 426.218 328.116 426.298 328.047C426.389 327.977 426.538 327.93 426.743 327.93H427.804C427.987 327.93 428.089 328.023 428.089 328.221C428.089 328.279 428.078 328.337 428.067 328.407C428.055 328.477 428.032 328.57 427.987 328.698L425.237 337.686C425.169 337.919 425.089 338.07 424.997 338.14C424.906 338.209 424.758 338.256 424.564 338.256H423.583C423.366 338.256 423.218 338.221 423.126 338.14C423.035 338.058 422.955 337.907 422.91 337.674L421.141 330.174L419.384 337.663C419.327 337.895 419.259 338.047 419.167 338.128C419.076 338.209 418.916 338.244 418.711 338.244H417.73ZM432.391 338.558C431.797 338.558 431.204 338.488 430.634 338.349C430.063 338.209 429.618 338.058 429.322 337.884C429.139 337.779 429.014 337.663 428.968 337.558C428.922 337.454 428.899 337.337 428.899 337.233V336.64C428.899 336.395 428.991 336.279 429.162 336.279C429.23 336.279 429.299 336.291 429.367 336.314C429.436 336.337 429.538 336.384 429.652 336.43C430.04 336.605 430.463 336.744 430.907 336.837C431.364 336.93 431.809 336.977 432.265 336.977C432.984 336.977 433.543 336.849 433.931 336.593C434.319 336.337 434.524 335.965 434.524 335.488C434.524 335.163 434.422 334.895 434.216 334.674C434.011 334.454 433.623 334.256 433.064 334.07L431.41 333.547C430.577 333.279 429.961 332.884 429.584 332.36C429.208 331.849 429.014 331.279 429.014 330.674C429.014 330.186 429.116 329.756 429.322 329.384C429.527 329.012 429.801 328.686 430.143 328.43C430.485 328.163 430.873 327.965 431.33 327.826C431.786 327.686 432.265 327.628 432.767 327.628C433.018 327.628 433.281 327.64 433.532 327.674C433.794 327.709 434.034 327.756 434.273 327.802C434.501 327.86 434.718 327.919 434.924 327.988C435.129 328.058 435.289 328.128 435.403 328.198C435.563 328.291 435.677 328.384 435.745 328.488C435.814 328.581 435.848 328.709 435.848 328.872V329.419C435.848 329.663 435.756 329.791 435.585 329.791C435.494 329.791 435.346 329.744 435.152 329.651C434.501 329.349 433.771 329.198 432.961 329.198C432.311 329.198 431.797 329.302 431.444 329.523C431.09 329.744 430.907 330.081 430.907 330.558C430.907 330.884 431.022 331.163 431.25 331.384C431.478 331.605 431.9 331.826 432.505 332.023L434.125 332.547C434.946 332.814 435.54 333.186 435.893 333.663C436.247 334.14 436.418 334.686 436.418 335.291C436.418 335.791 436.316 336.244 436.122 336.64C435.916 337.035 435.642 337.384 435.289 337.663C434.935 337.954 434.513 338.163 434.022 338.314C433.509 338.477 432.973 338.558 432.391 338.558Z" fill="#252F3E"/>
<path d="M434.547 344.209C430.793 347.035 425.34 348.535 420.65 348.535C414.079 348.535 408.157 346.058 403.685 341.942C403.331 341.616 403.65 341.174 404.073 341.43C408.91 344.291 414.877 346.023 421.05 346.023C425.214 346.023 429.789 345.14 433.999 343.326C434.627 343.035 435.163 343.744 434.547 344.209Z" fill="#FF9900"/>
<path d="M436.11 342.395C435.631 341.767 432.938 342.093 431.717 342.244C431.352 342.291 431.295 341.965 431.626 341.721C433.771 340.186 437.296 340.628 437.707 341.14C438.118 341.663 437.593 345.256 435.585 346.977C435.277 347.244 434.98 347.105 435.117 346.756C435.574 345.605 436.589 343.012 436.11 342.395Z" fill="#FF9900"/>
<path d="M358.469 335.477C359.736 330.453 364.208 326.744 369.525 326.744C373.552 326.744 377.089 328.872 379.12 332.07C383.935 332.116 387.826 336.116 387.826 341.035C387.826 345.988 383.889 350 379.029 350C377.42 350 360.865 350 359.142 350C355.195 350 352 346.744 352 342.721C352 338.93 354.841 335.826 358.469 335.477Z" fill="#35A8E1"/>
<path d="M360.169 338.686C361.675 338.477 363.182 338.256 364.688 338.047C364.688 339.395 364.688 340.744 364.688 342.093C363.182 342.093 361.675 342.093 360.169 342.093C360.169 340.965 360.169 339.826 360.169 338.686Z" fill="white"/>
<path d="M381.756 338.709C381.916 338.5 382.224 338.442 382.429 338.593C382.269 338.64 382.076 338.628 381.927 338.709C381.802 338.895 381.87 339.14 381.847 339.349C382.144 339.349 382.441 339.349 382.749 339.349C382.749 339.128 382.76 338.907 382.76 338.686H382.92C382.92 338.907 382.92 339.128 382.92 339.337C383.08 339.337 383.239 339.337 383.388 339.349V339.477C383.228 339.477 383.068 339.477 382.92 339.477C382.92 339.953 382.92 340.419 382.92 340.895C382.931 341.023 382.886 341.198 383.011 341.279C383.114 341.372 383.274 341.349 383.399 341.372C383.399 341.407 383.399 341.465 383.399 341.488C383.159 341.488 382.817 341.442 382.783 341.14C382.749 340.581 382.783 340.023 382.771 339.465C382.475 339.465 382.167 339.465 381.87 339.465C381.87 340.14 381.87 340.814 381.87 341.488C381.836 341.477 381.767 341.453 381.722 341.442C381.688 340.791 381.71 340.128 381.71 339.477C381.562 339.453 381.357 339.535 381.277 339.36C381.414 339.349 381.562 339.337 381.71 339.337C381.699 339.14 381.676 338.907 381.756 338.709Z" fill="white"/>
<path d="M366.992 338.535C367.061 338.547 367.186 338.57 367.243 338.593C367.688 339.477 368.053 340.395 368.464 341.291C368.932 340.419 369.274 339.477 369.685 338.581C369.776 338.581 369.868 338.581 369.959 338.581C369.959 339.558 369.959 340.523 369.959 341.512C369.913 341.512 369.81 341.5 369.765 341.488C369.765 340.593 369.776 339.698 369.765 338.791C369.343 339.686 368.978 340.593 368.567 341.488C368.521 341.488 368.43 341.488 368.396 341.488C368.122 340.895 367.859 340.291 367.586 339.686C367.46 339.395 367.357 339.093 367.164 338.849C367.129 339.721 367.152 340.605 367.152 341.488C367.106 341.488 367.015 341.488 366.981 341.5C366.992 340.5 366.981 339.512 366.992 338.535Z" fill="white"/>
<path d="M370.541 338.57C370.575 338.57 370.655 338.57 370.689 338.57V338.965C370.655 338.965 370.575 338.965 370.529 338.965C370.541 338.826 370.541 338.698 370.541 338.57Z" fill="white"/>
<path d="M356.564 339.198C357.705 339.035 358.857 338.895 359.998 338.698C360.01 339.837 359.998 340.965 359.998 342.105C358.857 342.116 357.705 342.093 356.564 342.116C356.564 341.14 356.575 340.174 356.564 339.198Z" fill="white"/>
<path d="M371.419 339.593C371.898 339.081 372.913 339.232 373.096 339.965C373.062 339.977 372.993 340 372.948 340.023C372.822 339.325 371.784 339.232 371.442 339.791C371.202 340.174 371.213 340.732 371.476 341.105C371.807 341.546 372.651 341.512 372.856 340.965C372.913 340.86 372.948 340.709 373.107 340.744C373.005 341.325 372.389 341.674 371.841 341.5C371.065 341.302 370.882 340.139 371.419 339.593Z" fill="white"/>
<path d="M370.541 339.349H370.7C370.7 340.058 370.7 340.767 370.7 341.477L370.552 341.488C370.541 340.779 370.541 340.07 370.541 339.349Z" fill="white"/>
<path d="M373.507 339.36C373.541 339.36 373.621 339.36 373.667 339.36C373.667 339.488 373.667 339.616 373.678 339.756C373.907 339.547 374.18 339.314 374.523 339.372C374.545 339.395 374.58 339.442 374.591 339.465C374.203 339.488 373.781 339.686 373.701 340.105C373.644 340.581 373.701 341.058 373.667 341.535C373.633 341.512 373.564 341.465 373.53 341.453C373.496 340.744 373.507 340.058 373.507 339.36Z" fill="white"/>
<path d="M375.355 339.465C374.591 339.709 374.545 340.977 375.253 341.337C375.561 341.465 375.96 341.442 376.2 341.186C376.565 340.802 376.576 340.116 376.245 339.709C376.028 339.442 375.663 339.384 375.355 339.465ZM375.275 339.36C375.64 339.233 376.085 339.314 376.348 339.593C376.781 340.058 376.747 340.895 376.257 341.314C375.8 341.686 375.036 341.57 374.751 341.035C374.42 340.477 374.614 339.581 375.275 339.36Z" fill="white"/>
<path d="M377.306 339.442C377.66 339.256 378.117 339.244 378.447 339.454C378.641 339.558 378.676 339.802 378.733 339.988C378.482 339.988 378.539 339.663 378.356 339.558C378.071 339.384 377.694 339.395 377.409 339.547C377.181 339.674 377.181 340.047 377.421 340.163C377.786 340.36 378.242 340.302 378.596 340.523C378.801 340.651 378.835 340.954 378.755 341.163C378.653 341.407 378.368 341.488 378.139 341.523C377.774 341.581 377.341 341.5 377.124 341.163C377.044 341.035 376.941 340.826 377.124 340.744C377.192 340.919 377.227 341.116 377.386 341.244C377.672 341.465 378.071 341.442 378.39 341.326C378.676 341.233 378.744 340.791 378.482 340.628C378.105 340.419 377.614 340.488 377.261 340.233C376.998 340.047 377.021 339.593 377.306 339.442Z" fill="white"/>
<path d="M380.022 339.442C379.337 339.5 379.086 340.384 379.36 340.942C379.554 341.419 380.216 341.558 380.615 341.267C381.037 340.942 381.094 340.267 380.821 339.825C380.649 339.535 380.33 339.395 380.022 339.442ZM379.702 339.384C380.102 339.209 380.604 339.302 380.889 339.639C381.243 340.093 381.231 340.802 380.843 341.232C380.478 341.605 379.828 341.639 379.451 341.279C378.892 340.791 378.995 339.686 379.702 339.384Z" fill="white"/>
<path d="M356.575 342.267C357.716 342.267 358.869 342.267 360.01 342.267C360.01 343.395 360.01 344.523 360.01 345.651C358.857 345.547 357.716 345.326 356.575 345.186C356.564 344.209 356.564 343.244 356.575 342.267Z" fill="white"/>
<path d="M360.169 345.686C360.181 344.547 360.158 343.407 360.181 342.256C361.687 342.267 363.193 342.256 364.688 342.256C364.688 343.616 364.688 344.965 364.688 346.314C363.182 346.128 361.675 345.907 360.169 345.686Z" fill="white"/>
<path d="M367.586 344.302C367.951 344.302 368.304 344.302 368.669 344.302C368.498 343.837 368.339 343.372 368.145 342.93C367.928 343.372 367.78 343.849 367.586 344.302ZM367.916 342.581C368.076 342.581 368.224 342.581 368.373 342.593C368.772 343.57 369.171 344.547 369.594 345.523C369.445 345.523 369.297 345.523 369.137 345.523C369.023 345.233 368.909 344.942 368.806 344.651C368.35 344.651 367.905 344.651 367.46 344.651C367.346 344.942 367.232 345.233 367.106 345.523C366.969 345.523 366.833 345.523 366.707 345.523C367.106 344.535 367.506 343.547 367.916 342.581Z" fill="white"/>
<path d="M374.705 343.791C374.91 343.523 375.184 343.291 375.549 343.302C375.549 343.419 375.549 343.535 375.549 343.663C375.241 343.674 374.876 343.802 374.785 344.14C374.682 344.581 374.751 345.046 374.728 345.5C374.602 345.5 374.477 345.5 374.363 345.5C374.363 344.791 374.363 344.07 374.363 343.36H374.705V343.791Z" fill="white"/>
<path d="M375.983 344.244C376.439 344.256 376.895 344.256 377.363 344.244C377.295 343.895 376.998 343.558 376.61 343.616C376.257 343.605 376.051 343.942 375.983 344.244ZM375.88 343.709C376.245 343.244 377.021 343.198 377.409 343.64C377.626 343.884 377.694 344.233 377.706 344.546C377.124 344.546 376.553 344.546 375.983 344.546C376.028 344.721 376.04 344.919 376.177 345.046C376.508 345.384 377.169 345.314 377.352 344.837C377.443 344.837 377.614 344.837 377.694 344.849C377.489 345.593 376.485 345.756 375.96 345.279C375.561 344.872 375.515 344.151 375.88 343.709Z" fill="white"/>
<path d="M369.719 343.372C370.324 343.372 370.917 343.36 371.522 343.372C371.51 343.605 371.328 343.767 371.191 343.942C370.837 344.36 370.472 344.779 370.118 345.198C370.597 345.291 371.077 345.139 371.556 345.256C371.556 345.314 371.556 345.442 371.556 345.512C370.928 345.512 370.289 345.512 369.65 345.512V345.244C370.095 344.732 370.563 344.232 370.985 343.698C370.575 343.663 370.164 343.698 369.753 343.663C369.742 343.593 369.73 343.453 369.719 343.372Z" fill="white"/>
<path d="M371.887 343.372C372.012 343.372 372.126 343.372 372.252 343.372C372.263 343.895 372.229 344.43 372.263 344.953C372.457 345.523 373.404 345.256 373.404 344.686C373.416 344.244 373.404 343.802 373.404 343.36C373.496 343.36 373.667 343.36 373.758 343.36C373.758 344.07 373.758 344.791 373.758 345.5C373.678 345.5 373.518 345.5 373.427 345.5C373.416 345.43 373.404 345.291 373.393 345.209C373.096 345.547 372.606 345.64 372.206 345.453C371.955 345.337 371.875 345.047 371.875 344.791C371.887 344.314 371.898 343.849 371.887 343.372Z" fill="white"/>
</g>
<path d="M71.9033 189.032L61.4536 183V187.174L71.9033 193.18L71.9033 189.032Z" fill="#FF6492"/>
<path d="M71.903 193.18L68.7681 195L61.4514 190.784L57.2707 193.184L54.1353 191.497L61.4533 187.174L71.903 193.18Z" fill="#141446"/>
<path d="M57.2707 193.184L54.1353 191.497V195L57.2707 193.184Z" fill="#A14474"/>
<path d="M51 200.968L61.4516 195L71.9032 200.968L61.4516 207L51 200.968Z" fill="#141446"/>
<path d="M71.9033 196.826L61.4517 190.719V195L71.9033 200.968L71.9033 196.826Z" fill="#FF6492"/>
<path d="M54.1355 195V191.497L61.4536 187.174V183L51 189.032V200.968L61.4516 195V190.719L54.1355 195Z" fill="#7A77FF"/>
<rect x="1.5" y="131.5" width="516" height="248" rx="7.5" stroke="#141446" stroke-dasharray="1 4"/>
<path d="M223.223 409.12H221.117L218.165 414.286L215.231 409.12H213.107L217.211 416.212V421H219.119V416.212L223.223 409.12ZM227.743 421.198C230.371 421.198 232.441 419.146 232.441 416.572C232.441 413.998 230.371 411.964 227.743 411.964C225.133 411.964 223.081 413.98 223.081 416.572C223.081 419.146 225.133 421.198 227.743 421.198ZM227.743 419.452C226.177 419.452 225.007 418.228 225.007 416.59C225.007 414.934 226.177 413.692 227.761 413.692C229.309 413.692 230.497 414.934 230.497 416.59C230.497 418.21 229.309 419.452 227.743 419.452ZM238.387 421.198C240.547 421.198 242.221 419.686 242.221 417.292V412.162H240.331V417.436C240.331 418.678 239.467 419.452 238.387 419.452C237.271 419.452 236.389 418.678 236.389 417.436V412.162H234.517V417.292C234.517 419.686 236.191 421.198 238.387 421.198ZM249.211 412.072C248.203 412.072 247.267 412.504 246.637 413.314V412.162H244.873V421H246.763V416.284C246.763 414.646 247.951 413.836 249.355 413.836H249.931V412.162C249.733 412.108 249.517 412.072 249.211 412.072ZM262.32 421.198C264.552 421.198 266.424 420.118 267.414 418.462L265.974 417.4C265.146 418.678 263.922 419.452 262.338 419.452C259.89 419.452 258.054 417.598 258.054 415.06C258.054 412.522 259.89 410.668 262.338 410.668C263.922 410.668 265.146 411.442 265.974 412.72L267.414 411.658C266.406 410.002 264.552 408.922 262.32 408.922C258.846 408.922 256.074 411.586 256.074 415.06C256.074 418.552 258.846 421.198 262.32 421.198ZM269.57 421H271.46V407.5H269.57V421ZM278.297 421.198C280.925 421.198 282.995 419.146 282.995 416.572C282.995 413.998 280.925 411.964 278.297 411.964C275.687 411.964 273.635 413.98 273.635 416.572C273.635 419.146 275.687 421.198 278.297 421.198ZM278.297 419.452C276.731 419.452 275.561 418.228 275.561 416.59C275.561 414.934 276.731 413.692 278.315 413.692C279.863 413.692 281.051 414.934 281.051 416.59C281.051 418.21 279.863 419.452 278.297 419.452ZM288.942 421.198C291.102 421.198 292.776 419.686 292.776 417.292V412.162H290.886V417.436C290.886 418.678 290.022 419.452 288.942 419.452C287.826 419.452 286.944 418.678 286.944 417.436V412.162H285.072V417.292C285.072 419.686 286.746 421.198 288.942 421.198ZM302.142 407.5V413.242C301.476 412.432 300.414 411.964 299.19 411.964C296.688 411.964 294.87 413.962 294.87 416.59C294.87 419.218 296.67 421.198 299.19 421.198C300.504 421.198 301.638 420.658 302.286 419.74V421H304.05V407.5H302.142ZM299.514 419.47C297.966 419.47 296.796 418.282 296.796 416.572C296.796 414.862 297.984 413.692 299.514 413.692C300.828 413.692 302.178 414.592 302.178 416.59C302.178 418.606 300.828 419.47 299.514 419.47Z" fill="#141446"/>
<path d="M156 161L156 107" stroke="#141446" stroke-width="0.5"/>
<path d="M156 96L162.928 108H149.072L156 96Z" fill="#141446"/>
<defs>
<linearGradient id="paint0_linear" x1="396.152" y1="237.936" x2="458.368" y2="237.936" gradientUnits="userSpaceOnUse">
<stop stop-color="#E5E5F6"/>
<stop offset="1" stop-color="#C0C0EA"/>
</linearGradient>
<linearGradient id="paint1_linear" x1="396.152" y1="234.453" x2="458.368" y2="234.453" gradientUnits="userSpaceOnUse">
<stop stop-color="#E5E5F6"/>
<stop offset="1" stop-color="#C0C0EA"/>
</linearGradient>
<linearGradient id="paint2_linear" x1="396.152" y1="239.873" x2="458.368" y2="239.873" gradientUnits="userSpaceOnUse">
<stop stop-color="#E5E5F6"/>
<stop offset="1" stop-color="#C0C0EA"/>
</linearGradient>
<linearGradient id="paint3_linear" x1="396.152" y1="240.931" x2="458.368" y2="240.931" gradientUnits="userSpaceOnUse">
<stop stop-color="#E5E5F6"/>
<stop offset="1" stop-color="#C0C0EA"/>
</linearGradient>
<linearGradient id="paint4_linear" x1="396.152" y1="241.74" x2="458.367" y2="241.74" gradientUnits="userSpaceOnUse">
<stop stop-color="#E5E5F6"/>
<stop offset="1" stop-color="#C0C0EA"/>
</linearGradient>
<linearGradient id="paint5_linear" x1="396.152" y1="242.41" x2="458.368" y2="242.41" gradientUnits="userSpaceOnUse">
<stop stop-color="#E5E5F6"/>
<stop offset="1" stop-color="#C0C0EA"/>
</linearGradient>
<linearGradient id="paint6_linear" x1="396.152" y1="242.987" x2="458.368" y2="242.987" gradientUnits="userSpaceOnUse">
<stop stop-color="#E5E5F6"/>
<stop offset="1" stop-color="#C0C0EA"/>
</linearGradient>
<linearGradient id="paint7_linear" x1="396.152" y1="243.487" x2="458.367" y2="243.487" gradientUnits="userSpaceOnUse">
<stop stop-color="#E5E5F6"/>
<stop offset="1" stop-color="#C0C0EA"/>
</linearGradient>
<linearGradient id="paint8_linear" x1="396.152" y1="243.926" x2="458.368" y2="243.926" gradientUnits="userSpaceOnUse">
<stop stop-color="#E5E5F6"/>
<stop offset="1" stop-color="#C0C0EA"/>
</linearGradient>
<linearGradient id="paint9_linear" x1="396.152" y1="244.321" x2="458.368" y2="244.321" gradientUnits="userSpaceOnUse">
<stop stop-color="#E5E5F6"/>
<stop offset="1" stop-color="#C0C0EA"/>
</linearGradient>
<linearGradient id="paint10_linear" x1="396.152" y1="244.674" x2="458.368" y2="244.674" gradientUnits="userSpaceOnUse">
<stop stop-color="#E5E5F6"/>
<stop offset="1" stop-color="#C0C0EA"/>
</linearGradient>
<linearGradient id="paint11_linear" x1="396.153" y1="244.992" x2="458.368" y2="244.992" gradientUnits="userSpaceOnUse">
<stop stop-color="#E5E5F6"/>
<stop offset="1" stop-color="#C0C0EA"/>
</linearGradient>
<linearGradient id="paint12_linear" x1="396.152" y1="245.277" x2="458.368" y2="245.277" gradientUnits="userSpaceOnUse">
<stop stop-color="#E5E5F6"/>
<stop offset="1" stop-color="#C0C0EA"/>
</linearGradient>
<linearGradient id="paint13_linear" x1="396.152" y1="245.53" x2="458.368" y2="245.53" gradientUnits="userSpaceOnUse">
<stop stop-color="#E5E5F6"/>
<stop offset="1" stop-color="#C0C0EA"/>
</linearGradient>
<linearGradient id="paint14_linear" x1="396.151" y1="245.752" x2="458.368" y2="245.752" gradientUnits="userSpaceOnUse">
<stop stop-color="#E5E5F6"/>
<stop offset="1" stop-color="#C0C0EA"/>
</linearGradient>
<linearGradient id="paint15_linear" x1="396.152" y1="245.945" x2="458.368" y2="245.945" gradientUnits="userSpaceOnUse">
<stop stop-color="#E5E5F6"/>
<stop offset="1" stop-color="#C0C0EA"/>
</linearGradient>
<linearGradient id="paint16_linear" x1="396.151" y1="246.104" x2="458.368" y2="246.104" gradientUnits="userSpaceOnUse">
<stop stop-color="#E5E5F6"/>
<stop offset="1" stop-color="#C0C0EA"/>
</linearGradient>
<linearGradient id="paint17_linear" x1="396.152" y1="246.231" x2="458.368" y2="246.231" gradientUnits="userSpaceOnUse">
<stop stop-color="#E5E5F6"/>
<stop offset="1" stop-color="#C0C0EA"/>
</linearGradient>
<linearGradient id="paint18_linear" x1="396.152" y1="246.323" x2="458.368" y2="246.323" gradientUnits="userSpaceOnUse">
<stop stop-color="#E5E5F6"/>
<stop offset="1" stop-color="#C0C0EA"/>
</linearGradient>
<linearGradient id="paint19_linear" x1="396.152" y1="246.376" x2="458.368" y2="246.376" gradientUnits="userSpaceOnUse">
<stop stop-color="#E5E5F6"/>
<stop offset="1" stop-color="#C0C0EA"/>
</linearGradient>
<linearGradient id="paint20_linear" x1="396.152" y1="246.386" x2="458.368" y2="246.386" gradientUnits="userSpaceOnUse">
<stop stop-color="#E5E5F6"/>
<stop offset="1" stop-color="#C0C0EA"/>
</linearGradient>
<linearGradient id="paint21_linear" x1="396.152" y1="246.34" x2="458.368" y2="246.34" gradientUnits="userSpaceOnUse">
<stop stop-color="#E5E5F6"/>
<stop offset="1" stop-color="#C0C0EA"/>
</linearGradient>
<linearGradient id="paint22_linear" x1="396.152" y1="246.203" x2="458.368" y2="246.203" gradientUnits="userSpaceOnUse">
<stop stop-color="#E5E5F6"/>
<stop offset="1" stop-color="#C0C0EA"/>
</linearGradient>
<linearGradient id="paint23_linear" x1="396.152" y1="245.042" x2="458.368" y2="245.042" gradientUnits="userSpaceOnUse">
<stop stop-color="#E5E5F6"/>
<stop offset="1" stop-color="#C0C0EA"/>
</linearGradient>
<linearGradient id="paint24_linear" x1="396.152" y1="243.494" x2="458.368" y2="243.494" gradientUnits="userSpaceOnUse">
<stop stop-color="#E5E5F6"/>
<stop offset="1" stop-color="#C0C0EA"/>
</linearGradient>
<linearGradient id="paint25_linear" x1="396.152" y1="242.576" x2="458.368" y2="242.576" gradientUnits="userSpaceOnUse">
<stop stop-color="#E5E5F6"/>
<stop offset="1" stop-color="#C0C0EA"/>
</linearGradient>
<linearGradient id="paint26_linear" x1="396.152" y1="241.74" x2="458.368" y2="241.74" gradientUnits="userSpaceOnUse">
<stop stop-color="#E5E5F6"/>
<stop offset="1" stop-color="#C0C0EA"/>
</linearGradient>
<linearGradient id="paint27_linear" x1="396.152" y1="240.961" x2="458.368" y2="240.961" gradientUnits="userSpaceOnUse">
<stop stop-color="#E5E5F6"/>
<stop offset="1" stop-color="#C0C0EA"/>
</linearGradient>
<linearGradient id="paint28_linear" x1="396.152" y1="240.23" x2="458.368" y2="240.23" gradientUnits="userSpaceOnUse">
<stop stop-color="#E5E5F6"/>
<stop offset="1" stop-color="#C0C0EA"/>
</linearGradient>
<linearGradient id="paint29_linear" x1="396.151" y1="239.523" x2="458.367" y2="239.523" gradientUnits="userSpaceOnUse">
<stop stop-color="#E5E5F6"/>
<stop offset="1" stop-color="#C0C0EA"/>
</linearGradient>
<linearGradient id="paint30_linear" x1="396.152" y1="238.831" x2="458.368" y2="238.831" gradientUnits="userSpaceOnUse">
<stop stop-color="#E5E5F6"/>
<stop offset="1" stop-color="#C0C0EA"/>
</linearGradient>
<linearGradient id="paint31_linear" x1="396.152" y1="238.151" x2="458.368" y2="238.151" gradientUnits="userSpaceOnUse">
<stop stop-color="#E5E5F6"/>
<stop offset="1" stop-color="#C0C0EA"/>
</linearGradient>
<linearGradient id="paint32_linear" x1="396.152" y1="237.471" x2="458.368" y2="237.471" gradientUnits="userSpaceOnUse">
<stop stop-color="#E5E5F6"/>
<stop offset="1" stop-color="#C0C0EA"/>
</linearGradient>
<linearGradient id="paint33_linear" x1="396.152" y1="236.788" x2="458.368" y2="236.788" gradientUnits="userSpaceOnUse">
<stop stop-color="#E5E5F6"/>
<stop offset="1" stop-color="#C0C0EA"/>
</linearGradient>
<linearGradient id="paint34_linear" x1="396.152" y1="236.1" x2="458.368" y2="236.1" gradientUnits="userSpaceOnUse">
<stop stop-color="#E5E5F6"/>
<stop offset="1" stop-color="#C0C0EA"/>
</linearGradient>
<linearGradient id="paint35_linear" x1="396.152" y1="235.398" x2="458.368" y2="235.398" gradientUnits="userSpaceOnUse">
<stop stop-color="#E5E5F6"/>
<stop offset="1" stop-color="#C0C0EA"/>
</linearGradient>
<linearGradient id="paint36_linear" x1="396.152" y1="234.68" x2="458.368" y2="234.68" gradientUnits="userSpaceOnUse">
<stop stop-color="#E5E5F6"/>
<stop offset="1" stop-color="#C0C0EA"/>
</linearGradient>
<linearGradient id="paint37_linear" x1="396.152" y1="233.941" x2="458.368" y2="233.941" gradientUnits="userSpaceOnUse">
<stop stop-color="#E5E5F6"/>
<stop offset="1" stop-color="#C0C0EA"/>
</linearGradient>
<linearGradient id="paint38_linear" x1="396.152" y1="233.172" x2="458.368" y2="233.172" gradientUnits="userSpaceOnUse">
<stop stop-color="#E5E5F6"/>
<stop offset="1" stop-color="#C0C0EA"/>
</linearGradient>
<linearGradient id="paint39_linear" x1="396.152" y1="232.368" x2="458.368" y2="232.368" gradientUnits="userSpaceOnUse">
<stop stop-color="#E5E5F6"/>
<stop offset="1" stop-color="#C0C0EA"/>
</linearGradient>
<linearGradient id="paint40_linear" x1="396.151" y1="231.52" x2="458.367" y2="231.52" gradientUnits="userSpaceOnUse">
<stop stop-color="#E5E5F6"/>
<stop offset="1" stop-color="#C0C0EA"/>
</linearGradient>
<linearGradient id="paint41_linear" x1="396.152" y1="230.603" x2="458.368" y2="230.603" gradientUnits="userSpaceOnUse">
<stop stop-color="#E5E5F6"/>
<stop offset="1" stop-color="#C0C0EA"/>
</linearGradient>
<linearGradient id="paint42_linear" x1="396.152" y1="229.801" x2="458.368" y2="229.801" gradientUnits="userSpaceOnUse">
<stop stop-color="#E5E5F6"/>
<stop offset="1" stop-color="#C0C0EA"/>
</linearGradient>
<linearGradient id="paint43_linear" x1="396.152" y1="220.828" x2="458.368" y2="220.828" gradientUnits="userSpaceOnUse">
<stop stop-color="#E5E5F6"/>
<stop offset="1" stop-color="#C0C0EA"/>
</linearGradient>
<linearGradient id="paint44_linear" x1="396.152" y1="217.345" x2="458.368" y2="217.345" gradientUnits="userSpaceOnUse">
<stop stop-color="#E5E5F6"/>
<stop offset="1" stop-color="#C0C0EA"/>
</linearGradient>
<linearGradient id="paint45_linear" x1="396.152" y1="222.765" x2="458.368" y2="222.765" gradientUnits="userSpaceOnUse">
<stop stop-color="#E5E5F6"/>
<stop offset="1" stop-color="#C0C0EA"/>
</linearGradient>
<linearGradient id="paint46_linear" x1="396.152" y1="223.823" x2="458.368" y2="223.823" gradientUnits="userSpaceOnUse">
<stop stop-color="#E5E5F6"/>
<stop offset="1" stop-color="#C0C0EA"/>
</linearGradient>
<linearGradient id="paint47_linear" x1="396.152" y1="224.632" x2="458.367" y2="224.632" gradientUnits="userSpaceOnUse">
<stop stop-color="#E5E5F6"/>
<stop offset="1" stop-color="#C0C0EA"/>
</linearGradient>
<linearGradient id="paint48_linear" x1="396.152" y1="225.302" x2="458.368" y2="225.302" gradientUnits="userSpaceOnUse">
<stop stop-color="#E5E5F6"/>
<stop offset="1" stop-color="#C0C0EA"/>
</linearGradient>
<linearGradient id="paint49_linear" x1="396.152" y1="225.879" x2="458.368" y2="225.879" gradientUnits="userSpaceOnUse">
<stop stop-color="#E5E5F6"/>
<stop offset="1" stop-color="#C0C0EA"/>
</linearGradient>
<linearGradient id="paint50_linear" x1="396.152" y1="226.379" x2="458.367" y2="226.379" gradientUnits="userSpaceOnUse">
<stop stop-color="#E5E5F6"/>
<stop offset="1" stop-color="#C0C0EA"/>
</linearGradient>
<linearGradient id="paint51_linear" x1="396.152" y1="226.818" x2="458.368" y2="226.818" gradientUnits="userSpaceOnUse">
<stop stop-color="#E5E5F6"/>
<stop offset="1" stop-color="#C0C0EA"/>
</linearGradient>
<linearGradient id="paint52_linear" x1="396.152" y1="227.213" x2="458.368" y2="227.213" gradientUnits="userSpaceOnUse">
<stop stop-color="#E5E5F6"/>
<stop offset="1" stop-color="#C0C0EA"/>
</linearGradient>
<linearGradient id="paint53_linear" x1="396.152" y1="227.567" x2="458.368" y2="227.567" gradientUnits="userSpaceOnUse">
<stop stop-color="#E5E5F6"/>
<stop offset="1" stop-color="#C0C0EA"/>
</linearGradient>
<linearGradient id="paint54_linear" x1="396.153" y1="227.884" x2="458.368" y2="227.884" gradientUnits="userSpaceOnUse">
<stop stop-color="#E5E5F6"/>
<stop offset="1" stop-color="#C0C0EA"/>
</linearGradient>
<linearGradient id="paint55_linear" x1="396.152" y1="228.169" x2="458.368" y2="228.169" gradientUnits="userSpaceOnUse">
<stop stop-color="#E5E5F6"/>
<stop offset="1" stop-color="#C0C0EA"/>
</linearGradient>
<linearGradient id="paint56_linear" x1="396.152" y1="228.422" x2="458.368" y2="228.422" gradientUnits="userSpaceOnUse">
<stop stop-color="#E5E5F6"/>
<stop offset="1" stop-color="#C0C0EA"/>
</linearGradient>
<linearGradient id="paint57_linear" x1="396.151" y1="228.644" x2="458.368" y2="228.644" gradientUnits="userSpaceOnUse">
<stop stop-color="#E5E5F6"/>
<stop offset="1" stop-color="#C0C0EA"/>
</linearGradient>
<linearGradient id="paint58_linear" x1="396.152" y1="228.837" x2="458.368" y2="228.837" gradientUnits="userSpaceOnUse">
<stop stop-color="#E5E5F6"/>
<stop offset="1" stop-color="#C0C0EA"/>
</linearGradient>
<linearGradient id="paint59_linear" x1="396.151" y1="228.997" x2="458.368" y2="228.997" gradientUnits="userSpaceOnUse">
<stop stop-color="#E5E5F6"/>
<stop offset="1" stop-color="#C0C0EA"/>
</linearGradient>
<linearGradient id="paint60_linear" x1="396.152" y1="229.124" x2="458.368" y2="229.124" gradientUnits="userSpaceOnUse">
<stop stop-color="#E5E5F6"/>
<stop offset="1" stop-color="#C0C0EA"/>
</linearGradient>
<linearGradient id="paint61_linear" x1="396.152" y1="229.215" x2="458.368" y2="229.215" gradientUnits="userSpaceOnUse">
<stop stop-color="#E5E5F6"/>
<stop offset="1" stop-color="#C0C0EA"/>
</linearGradient>
<linearGradient id="paint62_linear" x1="396.152" y1="229.268" x2="458.368" y2="229.268" gradientUnits="userSpaceOnUse">
<stop stop-color="#E5E5F6"/>
<stop offset="1" stop-color="#C0C0EA"/>
</linearGradient>
<linearGradient id="paint63_linear" x1="396.152" y1="229.279" x2="458.368" y2="229.279" gradientUnits="userSpaceOnUse">
<stop stop-color="#E5E5F6"/>
<stop offset="1" stop-color="#C0C0EA"/>
</linearGradient>
<linearGradient id="paint64_linear" x1="396.152" y1="229.232" x2="458.368" y2="229.232" gradientUnits="userSpaceOnUse">
<stop stop-color="#E5E5F6"/>
<stop offset="1" stop-color="#C0C0EA"/>
</linearGradient>
<linearGradient id="paint65_linear" x1="396.152" y1="229.095" x2="458.368" y2="229.095" gradientUnits="userSpaceOnUse">
<stop stop-color="#E5E5F6"/>
<stop offset="1" stop-color="#C0C0EA"/>
</linearGradient>
<linearGradient id="paint66_linear" x1="396.152" y1="227.934" x2="458.368" y2="227.934" gradientUnits="userSpaceOnUse">
<stop stop-color="#E5E5F6"/>
<stop offset="1" stop-color="#C0C0EA"/>
</linearGradient>
<linearGradient id="paint67_linear" x1="396.152" y1="226.386" x2="458.368" y2="226.386" gradientUnits="userSpaceOnUse">
<stop stop-color="#E5E5F6"/>
<stop offset="1" stop-color="#C0C0EA"/>
</linearGradient>
<linearGradient id="paint68_linear" x1="396.152" y1="225.469" x2="458.368" y2="225.469" gradientUnits="userSpaceOnUse">
<stop stop-color="#E5E5F6"/>
<stop offset="1" stop-color="#C0C0EA"/>
</linearGradient>
<linearGradient id="paint69_linear" x1="396.152" y1="224.632" x2="458.368" y2="224.632" gradientUnits="userSpaceOnUse">
<stop stop-color="#E5E5F6"/>
<stop offset="1" stop-color="#C0C0EA"/>
</linearGradient>
<linearGradient id="paint70_linear" x1="396.152" y1="223.853" x2="458.368" y2="223.853" gradientUnits="userSpaceOnUse">
<stop stop-color="#E5E5F6"/>
<stop offset="1" stop-color="#C0C0EA"/>
</linearGradient>
<linearGradient id="paint71_linear" x1="396.152" y1="223.122" x2="458.368" y2="223.122" gradientUnits="userSpaceOnUse">
<stop stop-color="#E5E5F6"/>
<stop offset="1" stop-color="#C0C0EA"/>
</linearGradient>
<linearGradient id="paint72_linear" x1="396.151" y1="222.416" x2="458.367" y2="222.416" gradientUnits="userSpaceOnUse">
<stop stop-color="#E5E5F6"/>
<stop offset="1" stop-color="#C0C0EA"/>
</linearGradient>
<linearGradient id="paint73_linear" x1="396.152" y1="221.723" x2="458.368" y2="221.723" gradientUnits="userSpaceOnUse">
<stop stop-color="#E5E5F6"/>
<stop offset="1" stop-color="#C0C0EA"/>
</linearGradient>
<linearGradient id="paint74_linear" x1="396.152" y1="221.043" x2="458.368" y2="221.043" gradientUnits="userSpaceOnUse">
<stop stop-color="#E5E5F6"/>
<stop offset="1" stop-color="#C0C0EA"/>
</linearGradient>
<linearGradient id="paint75_linear" x1="396.152" y1="220.363" x2="458.368" y2="220.363" gradientUnits="userSpaceOnUse">
<stop stop-color="#E5E5F6"/>
<stop offset="1" stop-color="#C0C0EA"/>
</linearGradient>
<linearGradient id="paint76_linear" x1="396.152" y1="219.681" x2="458.368" y2="219.681" gradientUnits="userSpaceOnUse">
<stop stop-color="#E5E5F6"/>
<stop offset="1" stop-color="#C0C0EA"/>
</linearGradient>
<linearGradient id="paint77_linear" x1="396.152" y1="218.992" x2="458.368" y2="218.992" gradientUnits="userSpaceOnUse">
<stop stop-color="#E5E5F6"/>
<stop offset="1" stop-color="#C0C0EA"/>
</linearGradient>
<linearGradient id="paint78_linear" x1="396.152" y1="218.291" x2="458.368" y2="218.291" gradientUnits="userSpaceOnUse">
<stop stop-color="#E5E5F6"/>
<stop offset="1" stop-color="#C0C0EA"/>
</linearGradient>
<linearGradient id="paint79_linear" x1="396.152" y1="217.572" x2="458.368" y2="217.572" gradientUnits="userSpaceOnUse">
<stop stop-color="#E5E5F6"/>
<stop offset="1" stop-color="#C0C0EA"/>
</linearGradient>
<linearGradient id="paint80_linear" x1="396.152" y1="216.834" x2="458.368" y2="216.834" gradientUnits="userSpaceOnUse">
<stop stop-color="#E5E5F6"/>
<stop offset="1" stop-color="#C0C0EA"/>
</linearGradient>
<linearGradient id="paint81_linear" x1="396.152" y1="216.065" x2="458.368" y2="216.065" gradientUnits="userSpaceOnUse">
<stop stop-color="#E5E5F6"/>
<stop offset="1" stop-color="#C0C0EA"/>
</linearGradient>
<linearGradient id="paint82_linear" x1="396.152" y1="215.26" x2="458.368" y2="215.26" gradientUnits="userSpaceOnUse">
<stop stop-color="#E5E5F6"/>
<stop offset="1" stop-color="#C0C0EA"/>
</linearGradient>
<linearGradient id="paint83_linear" x1="396.151" y1="214.412" x2="458.367" y2="214.412" gradientUnits="userSpaceOnUse">
<stop stop-color="#E5E5F6"/>
<stop offset="1" stop-color="#C0C0EA"/>
</linearGradient>
<linearGradient id="paint84_linear" x1="396.152" y1="213.495" x2="458.368" y2="213.495" gradientUnits="userSpaceOnUse">
<stop stop-color="#E5E5F6"/>
<stop offset="1" stop-color="#C0C0EA"/>
</linearGradient>
<linearGradient id="paint85_linear" x1="396.152" y1="212.693" x2="458.368" y2="212.693" gradientUnits="userSpaceOnUse">
<stop stop-color="#E5E5F6"/>
<stop offset="1" stop-color="#C0C0EA"/>
</linearGradient>
<clipPath id="clip0">
<rect width="36" height="36" fill="white" transform="translate(81 30)"/>
</clipPath>
<clipPath id="clip1">
<rect width="57.6471" height="60" fill="white" transform="translate(399 191)"/>
</clipPath>
<clipPath id="clip2">
<rect width="136" height="25" fill="white" transform="translate(352 325)"/>
</clipPath>
</defs>
</svg>
