<svg width="518" height="342" viewBox="0 0 518 342" fill="none" xmlns="http://www.w3.org/2000/svg">
<rect x="368" y="30" width="120" height="120" rx="8" fill="#F3F3FB"/>
<rect x="31" y="30" width="266" height="234" rx="8" fill="#F3F3FB"/>
<g clip-path="url(#clip0)">
<path d="M456.647 94.0325L456.556 103.259C456.556 107.536 453.774 111.813 448.209 115.081C437.018 121.65 418.78 121.65 407.529 115.081C401.813 111.782 399 107.444 399 103.106L399.091 93.8798C399.091 98.2178 401.904 102.556 407.59 105.855C418.871 112.424 437.079 112.424 448.269 105.855C453.834 102.586 456.617 98.3095 456.647 94.0325Z" fill="url(#paint0_linear)"/>
<path d="M456.647 94.0325L456.556 103.259C456.556 106.619 454.802 110.01 451.354 112.882L451.445 103.656C454.893 100.784 456.617 97.393 456.647 94.0325Z" fill="url(#paint1_linear)"/>
<path d="M451.445 103.656L451.354 112.882C450.84 113.309 450.326 113.707 449.721 114.104L449.811 104.878C450.386 104.48 450.931 104.053 451.445 103.656Z" fill="url(#paint2_linear)"/>
<path d="M449.812 104.878L449.721 114.104C449.267 114.409 448.814 114.715 448.33 114.99L448.42 105.764C448.904 105.458 449.388 105.183 449.812 104.878Z" fill="url(#paint3_linear)"/>
<path d="M448.42 105.764L448.329 114.99C448.269 115.02 448.239 115.051 448.178 115.081C447.815 115.295 447.422 115.509 447.029 115.723L447.12 106.497C447.513 106.283 447.906 106.069 448.269 105.855C448.329 105.825 448.36 105.794 448.42 105.764Z" fill="url(#paint4_linear)"/>
<path d="M447.12 106.497L447.029 115.723C446.636 115.937 446.212 116.151 445.789 116.334L445.88 107.108C446.303 106.894 446.727 106.711 447.12 106.497Z" fill="url(#paint5_linear)"/>
<path d="M445.88 107.108L445.789 116.334C445.396 116.517 445.003 116.701 444.579 116.884L444.67 107.658C445.094 107.475 445.487 107.291 445.88 107.108Z" fill="url(#paint6_linear)"/>
<path d="M444.67 107.627L444.579 116.853C444.186 117.006 443.823 117.159 443.43 117.312L443.521 108.086C443.914 107.963 444.307 107.811 444.67 107.627Z" fill="url(#paint7_linear)"/>
<path d="M443.521 108.085L443.43 117.311C443.037 117.464 442.643 117.586 442.281 117.739L442.371 108.513C442.764 108.391 443.127 108.238 443.521 108.085Z" fill="url(#paint8_linear)"/>
<path d="M442.372 108.513L442.281 117.739C441.888 117.861 441.525 117.984 441.132 118.106L441.222 108.88C441.585 108.757 441.978 108.635 442.372 108.513Z" fill="url(#paint9_linear)"/>
<path d="M441.192 108.88L441.101 118.106C440.708 118.228 440.315 118.32 439.922 118.442L440.013 109.216C440.436 109.124 440.829 109.002 441.192 108.88Z" fill="url(#paint10_linear)"/>
<path d="M440.043 109.216L439.952 118.442C439.559 118.534 439.166 118.656 438.772 118.747L438.863 109.521C439.256 109.43 439.65 109.338 440.043 109.216Z" fill="url(#paint11_linear)"/>
<path d="M438.863 109.521L438.772 118.748C438.379 118.839 437.986 118.931 437.562 119.023L437.653 109.796C438.077 109.705 438.47 109.613 438.863 109.521Z" fill="url(#paint12_linear)"/>
<path d="M437.653 109.796L437.563 119.022C437.169 119.114 436.746 119.175 436.353 119.267L436.444 110.041C436.837 109.949 437.26 109.888 437.653 109.796Z" fill="url(#paint13_linear)"/>
<path d="M436.443 110.041L436.353 119.267C435.929 119.328 435.506 119.419 435.113 119.48L435.203 110.254C435.596 110.163 436.02 110.102 436.443 110.041Z" fill="url(#paint14_linear)"/>
<path d="M435.173 110.224L435.082 119.45C434.659 119.511 434.235 119.572 433.782 119.633L433.872 110.407C434.326 110.377 434.75 110.316 435.173 110.224Z" fill="url(#paint15_linear)"/>
<path d="M433.902 110.407L433.812 119.633C433.388 119.695 432.935 119.725 432.481 119.786L432.572 110.56C433.025 110.53 433.449 110.468 433.902 110.407Z" fill="url(#paint16_linear)"/>
<path d="M432.572 110.56L432.481 119.786C432.027 119.817 431.574 119.878 431.12 119.908L431.211 110.682C431.665 110.652 432.118 110.591 432.572 110.56Z" fill="url(#paint17_linear)"/>
<path d="M431.211 110.682L431.12 119.908C430.667 119.939 430.183 119.969 429.699 119.969L429.789 110.743C430.273 110.713 430.757 110.713 431.211 110.682Z" fill="url(#paint18_linear)"/>
<path d="M429.82 110.743L429.729 119.969C429.245 120 428.731 120 428.247 120L428.338 110.774C428.822 110.774 429.306 110.774 429.82 110.743Z" fill="url(#paint19_linear)"/>
<path d="M428.338 110.774L428.247 120C427.703 120 427.188 120 426.644 120L426.735 110.774C427.249 110.774 427.793 110.774 428.338 110.774Z" fill="url(#paint20_linear)"/>
<path d="M426.735 110.774L426.644 120C426.039 120 425.434 119.969 424.859 119.908L424.95 110.682C425.525 110.713 426.13 110.743 426.735 110.774Z" fill="url(#paint21_linear)"/>
<path d="M424.92 110.682L424.829 119.908C424.073 119.847 423.287 119.786 422.531 119.725L422.621 110.499C423.408 110.56 424.164 110.621 424.92 110.682Z" fill="url(#paint22_linear)"/>
<path d="M422.622 110.499L422.531 119.725C419.204 119.358 415.968 118.656 412.973 117.586L413.064 108.36C416.058 109.399 419.295 110.132 422.622 110.499Z" fill="url(#paint23_linear)"/>
<path d="M413.094 108.36L413.004 117.586C412.157 117.281 411.34 116.975 410.554 116.609L410.644 107.383C411.431 107.749 412.247 108.055 413.094 108.36Z" fill="url(#paint24_linear)"/>
<path d="M410.614 107.383L410.523 116.609C409.918 116.334 409.313 116.059 408.708 115.753L408.799 106.527C409.404 106.833 410.009 107.108 410.614 107.383Z" fill="url(#paint25_linear)"/>
<path d="M408.829 106.527L408.739 115.754C408.315 115.54 407.892 115.295 407.499 115.081C407.438 115.051 407.347 114.99 407.287 114.959L407.378 105.733C407.438 105.764 407.529 105.825 407.589 105.855C407.983 106.069 408.406 106.314 408.829 106.527Z" fill="url(#paint26_linear)"/>
<path d="M407.378 105.733L407.287 114.959C406.864 114.715 406.471 114.47 406.108 114.196L406.198 104.969C406.561 105.214 406.955 105.458 407.378 105.733Z" fill="url(#paint27_linear)"/>
<path d="M406.168 104.969L406.077 114.195C405.744 113.951 405.382 113.737 405.079 113.493L405.17 104.267C405.503 104.511 405.835 104.725 406.168 104.969Z" fill="url(#paint28_linear)"/>
<path d="M405.17 104.267L405.079 113.493C404.777 113.249 404.474 113.035 404.202 112.79L404.293 103.564C404.565 103.778 404.867 104.022 405.17 104.267Z" fill="url(#paint29_linear)"/>
<path d="M404.293 103.564L404.202 112.79C403.93 112.576 403.688 112.332 403.416 112.118L403.507 102.892C403.779 103.106 404.021 103.32 404.293 103.564Z" fill="url(#paint30_linear)"/>
<path d="M403.507 102.861L403.416 112.087C403.174 111.874 402.932 111.629 402.72 111.415L402.811 102.189C403.053 102.434 403.265 102.648 403.507 102.861Z" fill="url(#paint31_linear)"/>
<path d="M402.811 102.189L402.72 111.415C402.508 111.201 402.297 110.957 402.085 110.743L402.176 101.517C402.387 101.731 402.599 101.975 402.811 102.189Z" fill="url(#paint32_linear)"/>
<path d="M402.206 101.517L402.115 110.743C401.934 110.529 401.722 110.285 401.571 110.071L401.662 100.845C401.813 101.059 401.994 101.273 402.206 101.517Z" fill="url(#paint33_linear)"/>
<path d="M401.632 100.814L401.541 110.041C401.359 109.796 401.208 109.582 401.027 109.338L401.117 100.112C401.299 100.356 401.45 100.601 401.632 100.814Z" fill="url(#paint34_linear)"/>
<path d="M401.147 100.142L401.057 109.368C400.905 109.124 400.754 108.91 400.603 108.666L400.694 99.4397C400.815 99.6535 400.966 99.8979 401.147 100.142Z" fill="url(#paint35_linear)"/>
<path d="M400.694 99.4397L400.603 108.666C400.452 108.421 400.331 108.177 400.21 107.933L400.3 98.7065C400.421 98.9509 400.542 99.1953 400.694 99.4397Z" fill="url(#paint36_linear)"/>
<path d="M400.27 98.7066L400.18 107.933C400.059 107.688 399.938 107.444 399.817 107.169L399.907 97.9429C400.028 98.1873 400.149 98.4622 400.27 98.7066Z" fill="url(#paint37_linear)"/>
<path d="M399.938 97.9427L399.847 107.169C399.726 106.894 399.635 106.649 399.544 106.375L399.635 97.1484C399.726 97.4234 399.817 97.6983 399.938 97.9427Z" fill="url(#paint38_linear)"/>
<path d="M399.635 97.1487L399.544 106.375C399.453 106.1 399.363 105.825 399.302 105.55L399.393 96.3544C399.453 96.6293 399.544 96.8737 399.635 97.1487Z" fill="url(#paint39_linear)"/>
<path d="M399.393 96.3543L399.302 105.58C399.242 105.275 399.181 105 399.121 104.694L399.212 95.4684C399.272 95.7433 399.333 96.0488 399.393 96.3543Z" fill="url(#paint40_linear)"/>
<path d="M399.212 95.4685L399.121 104.695C399.06 104.389 399.03 104.053 399 103.748L399.121 94.5215C399.121 94.827 399.151 95.1325 399.212 95.4685Z" fill="url(#paint41_linear)"/>
<path d="M399.121 94.5213L399.03 103.747C399.03 103.534 399 103.32 399 103.106L399.091 93.8798C399.091 94.0631 399.091 94.2769 399.121 94.5213Z" fill="url(#paint42_linear)"/>
<path d="M448.088 82.0264C459.369 88.5946 459.43 99.2565 448.209 105.825C437.018 112.393 418.78 112.393 407.529 105.825C396.278 99.2565 396.218 88.6252 407.408 82.0264C418.599 75.4276 436.837 75.4582 448.088 82.0264Z" fill="white"/>
<path d="M456.647 76.9247L456.556 86.1508C456.556 90.4278 453.774 94.7048 448.209 97.9736C437.018 104.542 418.78 104.542 407.529 97.9736C401.813 94.6742 399 90.3361 399 85.998L399.091 76.772C399.091 81.1101 401.904 85.4481 407.59 88.7475C418.871 95.3158 437.079 95.3158 448.269 88.7475C453.834 85.4787 456.617 81.2017 456.647 76.9247Z" fill="url(#paint43_linear)"/>
<path d="M456.647 76.9247L456.556 86.1507C456.556 89.5112 454.802 92.9023 451.354 95.774L451.445 86.5479C454.893 83.6762 456.617 80.2852 456.647 76.9247Z" fill="url(#paint44_linear)"/>
<path d="M451.445 86.5479L451.354 95.7739C450.84 96.2016 450.326 96.5988 449.721 96.9959L449.811 87.7698C450.386 87.3727 450.931 86.945 451.445 86.5479Z" fill="url(#paint45_linear)"/>
<path d="M449.812 87.7699L449.721 96.996C449.267 97.3015 448.814 97.607 448.33 97.8819L448.42 88.6558C448.904 88.3503 449.388 88.0754 449.812 87.7699Z" fill="url(#paint46_linear)"/>
<path d="M448.42 88.6558L448.329 97.8818C448.269 97.9124 448.239 97.9429 448.178 97.9735C447.815 98.1873 447.422 98.4012 447.029 98.615L447.12 89.389C447.513 89.1751 447.906 88.9613 448.269 88.7474C448.329 88.7169 448.36 88.6863 448.42 88.6558Z" fill="url(#paint47_linear)"/>
<path d="M447.12 89.3893L447.029 98.6154C446.636 98.8292 446.212 99.043 445.789 99.2263L445.88 90.0003C446.303 89.7864 446.727 89.6031 447.12 89.3893Z" fill="url(#paint48_linear)"/>
<path d="M445.88 90.0001L445.789 99.2262C445.396 99.4095 445.003 99.5928 444.579 99.7761L444.67 90.55C445.094 90.3667 445.487 90.1834 445.88 90.0001Z" fill="url(#paint49_linear)"/>
<path d="M444.67 90.5195L444.579 99.7456C444.186 99.8984 443.823 100.051 443.43 100.204L443.521 90.9778C443.914 90.8556 444.307 90.7028 444.67 90.5195Z" fill="url(#paint50_linear)"/>
<path d="M443.521 90.9775L443.43 100.204C443.037 100.356 442.643 100.479 442.281 100.631L442.371 91.4052C442.764 91.283 443.127 91.1303 443.521 90.9775Z" fill="url(#paint51_linear)"/>
<path d="M442.372 91.4053L442.281 100.631C441.888 100.754 441.525 100.876 441.132 100.998L441.222 91.7719C441.585 91.6497 441.978 91.5275 442.372 91.4053Z" fill="url(#paint52_linear)"/>
<path d="M441.192 91.7721L441.101 100.998C440.708 101.12 440.315 101.212 439.922 101.334L440.013 92.1081C440.436 92.0165 440.829 91.8943 441.192 91.7721Z" fill="url(#paint53_linear)"/>
<path d="M440.043 92.108L439.952 101.334C439.559 101.426 439.166 101.548 438.772 101.64L438.863 92.4135C439.256 92.3219 439.65 92.2302 440.043 92.108Z" fill="url(#paint54_linear)"/>
<path d="M438.863 92.4137L438.772 101.64C438.379 101.731 437.986 101.823 437.562 101.915L437.653 92.6886C438.077 92.597 438.47 92.5053 438.863 92.4137Z" fill="url(#paint55_linear)"/>
<path d="M437.653 92.6884L437.563 101.914C437.169 102.006 436.746 102.067 436.353 102.159L436.444 92.9328C436.837 92.8411 437.26 92.78 437.653 92.6884Z" fill="url(#paint56_linear)"/>
<path d="M436.443 92.9327L436.353 102.159C435.929 102.22 435.506 102.312 435.113 102.373L435.203 93.1466C435.596 93.0549 436.02 92.9938 436.443 92.9327Z" fill="url(#paint57_linear)"/>
<path d="M435.173 93.1163L435.082 102.342C434.659 102.404 434.235 102.465 433.782 102.526L433.872 93.2996C434.326 93.2691 434.75 93.208 435.173 93.1163Z" fill="url(#paint58_linear)"/>
<path d="M433.902 93.2996L433.812 102.526C433.388 102.587 432.935 102.617 432.481 102.678L432.572 93.4523C433.025 93.4218 433.449 93.3607 433.902 93.2996Z" fill="url(#paint59_linear)"/>
<path d="M432.572 93.4523L432.481 102.678C432.027 102.709 431.574 102.77 431.12 102.801L431.211 93.5745C431.665 93.5439 432.118 93.4828 432.572 93.4523Z" fill="url(#paint60_linear)"/>
<path d="M431.211 93.5745L431.12 102.801C430.667 102.831 430.183 102.862 429.699 102.862L429.789 93.6356C430.273 93.605 430.757 93.605 431.211 93.5745Z" fill="url(#paint61_linear)"/>
<path d="M429.82 93.6354L429.729 102.861C429.245 102.892 428.731 102.892 428.247 102.892L428.338 93.6659C428.822 93.6659 429.306 93.6659 429.82 93.6354Z" fill="url(#paint62_linear)"/>
<path d="M428.338 93.6661L428.247 102.892C427.703 102.892 427.188 102.892 426.644 102.892L426.735 93.6661C427.249 93.6661 427.793 93.6661 428.338 93.6661Z" fill="url(#paint63_linear)"/>
<path d="M426.735 93.6661L426.644 102.892C426.039 102.892 425.434 102.862 424.859 102.801L424.95 93.5745C425.525 93.605 426.13 93.6356 426.735 93.6661Z" fill="url(#paint64_linear)"/>
<path d="M424.92 93.5743L424.829 102.8C424.073 102.739 423.287 102.678 422.531 102.617L422.621 93.391C423.408 93.4521 424.164 93.5132 424.92 93.5743Z" fill="url(#paint65_linear)"/>
<path d="M422.622 93.3911L422.531 102.617C419.204 102.251 415.968 101.548 412.973 100.479L413.064 91.2526C416.058 92.2913 419.295 93.0245 422.622 93.3911Z" fill="url(#paint66_linear)"/>
<path d="M413.094 91.2524L413.004 100.478C412.157 100.173 411.34 99.8674 410.554 99.5008L410.644 90.2748C411.431 90.6414 412.247 90.9469 413.094 91.2524Z" fill="url(#paint67_linear)"/>
<path d="M410.614 90.2751L410.523 99.5011C409.918 99.2262 409.313 98.9512 408.708 98.6458L408.799 89.4197C409.404 89.7252 410.009 90.0001 410.614 90.2751Z" fill="url(#paint68_linear)"/>
<path d="M408.829 89.4197L408.739 98.6457C408.315 98.4319 407.892 98.1875 407.499 97.9736C407.438 97.9431 407.347 97.882 407.287 97.8514L407.378 88.6254C407.438 88.6559 407.529 88.717 407.589 88.7476C407.983 88.9614 408.406 89.2058 408.829 89.4197Z" fill="url(#paint69_linear)"/>
<path d="M407.378 88.6254L407.287 97.8515C406.864 97.6071 406.471 97.3627 406.108 97.0878L406.198 87.8617C406.561 88.1061 406.955 88.3505 407.378 88.6254Z" fill="url(#paint70_linear)"/>
<path d="M406.168 87.8616L406.077 97.0876C405.744 96.8432 405.382 96.6294 405.079 96.385L405.17 87.1589C405.503 87.4033 405.835 87.6172 406.168 87.8616Z" fill="url(#paint71_linear)"/>
<path d="M405.17 87.1591L405.079 96.3851C404.777 96.1407 404.474 95.9269 404.202 95.6825L404.293 86.4564C404.565 86.6703 404.867 86.9147 405.17 87.1591Z" fill="url(#paint72_linear)"/>
<path d="M404.293 86.4564L404.202 95.6825C403.93 95.4686 403.688 95.2242 403.416 95.0104L403.507 85.7843C403.779 85.9982 404.021 86.212 404.293 86.4564Z" fill="url(#paint73_linear)"/>
<path d="M403.507 85.7536L403.416 94.9797C403.174 94.7659 402.932 94.5215 402.72 94.3076L402.811 85.0815C403.053 85.3259 403.265 85.5398 403.507 85.7536Z" fill="url(#paint74_linear)"/>
<path d="M402.811 85.0814L402.72 94.3075C402.508 94.0936 402.297 93.8492 402.085 93.6354L402.176 84.4093C402.387 84.6232 402.599 84.8675 402.811 85.0814Z" fill="url(#paint75_linear)"/>
<path d="M402.206 84.4096L402.115 93.6357C401.934 93.4219 401.722 93.1775 401.571 92.9636L401.662 83.7375C401.813 83.9514 401.994 84.1652 402.206 84.4096Z" fill="url(#paint76_linear)"/>
<path d="M401.632 83.7067L401.541 92.9327C401.359 92.6883 401.208 92.4745 401.027 92.2301L401.117 83.004C401.299 83.2484 401.45 83.4928 401.632 83.7067Z" fill="url(#paint77_linear)"/>
<path d="M401.147 83.0346L401.057 92.2606C400.905 92.0162 400.754 91.8024 400.603 91.558L400.694 82.3319C400.815 82.5458 400.966 82.7902 401.147 83.0346Z" fill="url(#paint78_linear)"/>
<path d="M400.694 82.332L400.603 91.558C400.452 91.3136 400.331 91.0692 400.21 90.8248L400.3 81.5988C400.421 81.8432 400.542 82.0876 400.694 82.332Z" fill="url(#paint79_linear)"/>
<path d="M400.27 81.5988L400.18 90.8249C400.059 90.5805 399.938 90.3361 399.817 90.0612L399.907 80.8351C400.028 81.0795 400.149 81.3544 400.27 81.5988Z" fill="url(#paint80_linear)"/>
<path d="M399.938 80.8352L399.847 90.0918C399.726 89.8168 399.635 89.5724 399.544 89.2975L399.635 80.0714C399.726 80.3158 399.817 80.5908 399.938 80.8352Z" fill="url(#paint81_linear)"/>
<path d="M399.635 80.0409L399.544 89.2975C399.453 89.0225 399.363 88.7476 399.302 88.4727L399.393 79.2466C399.453 79.5215 399.544 79.7659 399.635 80.0409Z" fill="url(#paint82_linear)"/>
<path d="M399.393 79.2465L399.302 88.4726C399.242 88.1671 399.181 87.8922 399.121 87.5867L399.212 78.3606C399.272 78.6355 399.333 78.941 399.393 79.2465Z" fill="url(#paint83_linear)"/>
<path d="M399.212 78.3607L399.121 87.5868C399.06 87.2813 399.03 86.9453 399 86.6398L399.121 77.4137C399.121 77.7192 399.151 78.0247 399.212 78.3607Z" fill="url(#paint84_linear)"/>
<path d="M399.121 77.4135L399.03 86.6396C399 86.4257 399 86.2119 399 85.998L399.091 76.772C399.091 76.9553 399.091 77.1691 399.121 77.4135Z" fill="url(#paint85_linear)"/>
<path d="M448.088 64.9186C459.369 71.4868 459.43 82.1487 448.209 88.717C436.988 95.2852 418.78 95.2852 407.529 88.717C396.278 82.1487 396.218 71.5174 407.408 64.9186C418.599 58.3198 436.837 58.3504 448.088 64.9186Z" fill="white"/>
</g>
<rect x="51" y="138" width="136" height="30" rx="4" fill="white"/>
<path d="M67.256 158.176C69.176 158.176 70.792 157.248 71.64 155.904L70.712 155.168C69.928 156.32 68.744 157.024 67.272 157.024C64.888 157.024 63.064 155.184 63.064 152.72C63.064 150.256 64.888 148.416 67.272 148.416C68.744 148.416 69.928 149.12 70.712 150.272L71.64 149.536C70.76 148.192 69.176 147.264 67.256 147.264C64.2 147.264 61.768 149.632 61.768 152.72C61.768 155.808 64.2 158.176 67.256 158.176ZM76.9335 158.176C78.7255 158.176 80.1495 156.896 80.1495 154.896V150.208H78.9175V154.976C78.9175 156.256 78.0215 157.04 76.9335 157.04C75.8135 157.04 74.9175 156.256 74.9175 154.976V150.208H73.7015V154.896C73.7015 156.896 75.1095 158.176 76.9335 158.176ZM86.8466 150.032C85.6786 150.032 84.6066 150.528 83.9826 151.344V146H82.7506V158H83.9026V156.768C84.5106 157.648 85.6466 158.176 86.8626 158.176C89.0866 158.176 90.7026 156.4 90.7026 154.112C90.7026 151.808 89.0706 150.032 86.8466 150.032ZM86.6706 157.04C85.3266 157.04 83.9666 156.16 83.9666 154.112C83.9666 152.064 85.3106 151.168 86.6706 151.168C88.2546 151.168 89.4386 152.4 89.4386 154.096C89.4386 155.792 88.2706 157.04 86.6706 157.04ZM99.836 153.552C99.836 151.472 98.284 150.032 96.284 150.032C94.044 150.032 92.3 151.84 92.3 154.112C92.3 156.4 94.076 158.176 96.428 158.176C97.708 158.176 98.764 157.648 99.548 156.816L98.828 155.984C98.188 156.624 97.42 157.04 96.444 157.04C94.908 157.04 93.74 156.032 93.58 154.48H99.74C99.772 154.32 99.836 153.968 99.836 153.552ZM96.252 151.152C97.484 151.152 98.556 151.952 98.572 153.392H93.628C93.9 152.048 94.94 151.152 96.252 151.152ZM102.881 158.176C103.425 158.176 103.889 157.76 103.889 157.168C103.889 156.576 103.425 156.16 102.881 156.16C102.337 156.16 101.873 156.576 101.873 157.168C101.873 157.76 102.337 158.176 102.881 158.176ZM108.062 148.128C108.558 148.128 108.974 147.744 108.974 147.232C108.974 146.736 108.558 146.336 108.062 146.336C107.55 146.336 107.134 146.736 107.134 147.232C107.134 147.744 107.55 148.128 108.062 148.128ZM106.11 161.056C107.598 161.056 108.67 160.304 108.67 158.528V150.208H107.438V158.448C107.438 159.6 106.782 159.936 105.838 159.936C105.582 159.936 105.39 159.92 105.118 159.888V160.928C105.406 161.008 105.71 161.056 106.11 161.056ZM113.68 158.176C115.12 158.176 116.416 157.408 116.416 155.888C116.416 154.784 115.744 154.176 114.352 153.584L113.632 153.28C112.768 152.912 112.368 152.672 112.368 152.144C112.368 151.504 112.928 151.168 113.664 151.168C114.4 151.168 115.072 151.504 115.584 152.032L116.336 151.264C115.728 150.512 114.848 150.032 113.728 150.032C112.304 150.032 111.104 150.8 111.104 152.208C111.104 153.312 111.856 153.872 113.04 154.368L113.792 154.688C114.576 155.008 115.152 155.264 115.152 155.936C115.152 156.64 114.48 157.04 113.664 157.04C112.72 157.04 112.064 156.512 111.424 155.84L110.64 156.656C111.264 157.488 112.304 158.176 113.68 158.176ZM126.31 158.176C128.262 158.176 129.718 157.008 129.718 155.232C129.718 153.792 128.79 153.024 127.254 152.288L126.086 151.728C125.126 151.264 124.39 150.912 124.39 149.952C124.39 148.912 125.286 148.416 126.262 148.416C127.222 148.416 128.102 148.896 128.678 149.744L129.59 149.056C128.934 148.016 127.718 147.264 126.278 147.264C124.566 147.264 123.094 148.336 123.094 150.016C123.094 151.584 124.374 152.32 125.478 152.848L126.662 153.408C127.702 153.904 128.422 154.288 128.422 155.264C128.422 156.336 127.542 157.024 126.294 157.024C124.934 157.024 123.99 156.192 123.35 155.216L122.422 155.904C123.238 157.296 124.63 158.176 126.31 158.176ZM139.024 153.552C139.024 151.472 137.472 150.032 135.472 150.032C133.232 150.032 131.488 151.84 131.488 154.112C131.488 156.4 133.264 158.176 135.616 158.176C136.896 158.176 137.952 157.648 138.736 156.816L138.016 155.984C137.376 156.624 136.608 157.04 135.632 157.04C134.096 157.04 132.928 156.032 132.768 154.48H138.928C138.96 154.32 139.024 153.968 139.024 153.552ZM135.44 151.152C136.672 151.152 137.744 151.952 137.76 153.392H132.816C133.088 152.048 134.128 151.152 135.44 151.152ZM144.756 150.144C143.828 150.144 142.916 150.544 142.34 151.312V150.208H141.188V158H142.42V153.584C142.42 152.096 143.604 151.296 144.868 151.296H145.332V150.208C145.172 150.176 145.012 150.144 144.756 150.144ZM152.521 150.208L149.945 156.08L147.353 150.208H146.041L149.721 158.176H150.169L153.833 150.208H152.521ZM162.274 153.552C162.274 151.472 160.722 150.032 158.722 150.032C156.482 150.032 154.738 151.84 154.738 154.112C154.738 156.4 156.514 158.176 158.866 158.176C160.146 158.176 161.202 157.648 161.986 156.816L161.266 155.984C160.626 156.624 159.858 157.04 158.882 157.04C157.346 157.04 156.178 156.032 156.018 154.48H162.178C162.21 154.32 162.274 153.968 162.274 153.552ZM158.69 151.152C159.922 151.152 160.994 151.952 161.01 153.392H156.066C156.338 152.048 157.378 151.152 158.69 151.152ZM168.006 150.144C167.078 150.144 166.166 150.544 165.59 151.312V150.208H164.438V158H165.67V153.584C165.67 152.096 166.854 151.296 168.118 151.296H168.582V150.208C168.422 150.176 168.262 150.144 168.006 150.144ZM172.539 158.176C173.979 158.176 175.275 157.408 175.275 155.888C175.275 154.784 174.603 154.176 173.211 153.584L172.491 153.28C171.627 152.912 171.227 152.672 171.227 152.144C171.227 151.504 171.787 151.168 172.523 151.168C173.259 151.168 173.931 151.504 174.443 152.032L175.195 151.264C174.587 150.512 173.707 150.032 172.587 150.032C171.163 150.032 169.963 150.8 169.963 152.208C169.963 153.312 170.715 153.872 171.899 154.368L172.651 154.688C173.435 155.008 174.011 155.264 174.011 155.936C174.011 156.64 173.339 157.04 172.523 157.04C171.579 157.04 170.923 156.512 170.283 155.84L169.499 156.656C170.123 157.488 171.163 158.176 172.539 158.176Z" fill="#43436B"/>
<rect x="195" y="138" width="61" height="30" rx="4" fill="white"/>
<path d="M214.696 158L211.32 153.424C212.712 153.024 213.544 151.92 213.544 150.496C213.544 148.72 212.248 147.44 210.168 147.44H206.456V158H207.704V153.568H209.96L213.24 158H214.696ZM207.704 148.56H210.12C211.512 148.56 212.248 149.392 212.248 150.512C212.248 151.648 211.512 152.448 210.12 152.448H207.704V148.56ZM223.055 153.552C223.055 151.472 221.503 150.032 219.503 150.032C217.263 150.032 215.519 151.84 215.519 154.112C215.519 156.4 217.295 158.176 219.647 158.176C220.927 158.176 221.983 157.648 222.767 156.816L222.047 155.984C221.407 156.624 220.639 157.04 219.663 157.04C218.127 157.04 216.959 156.032 216.799 154.48H222.959C222.991 154.32 223.055 153.968 223.055 153.552ZM219.471 151.152C220.703 151.152 221.775 151.952 221.791 153.392H216.847C217.119 152.048 218.159 151.152 219.471 151.152ZM231.395 146V151.36C230.771 150.528 229.683 150.032 228.515 150.032C226.291 150.032 224.659 151.808 224.659 154.112C224.659 156.4 226.291 158.176 228.515 158.176C229.731 158.176 230.851 157.648 231.459 156.768V158H232.627V146H231.395ZM228.691 157.04C227.091 157.04 225.923 155.792 225.923 154.096C225.923 152.4 227.107 151.168 228.691 151.168C230.035 151.168 231.411 152.064 231.411 154.112C231.411 156.16 230.035 157.04 228.691 157.04ZM235.953 148.128C236.449 148.128 236.865 147.744 236.865 147.232C236.865 146.736 236.449 146.336 235.953 146.336C235.441 146.336 235.025 146.736 235.025 147.232C235.025 147.744 235.441 148.128 235.953 148.128ZM235.329 158H236.561V150.208H235.329V158ZM241.57 158.176C243.01 158.176 244.306 157.408 244.306 155.888C244.306 154.784 243.634 154.176 242.242 153.584L241.522 153.28C240.658 152.912 240.258 152.672 240.258 152.144C240.258 151.504 240.818 151.168 241.554 151.168C242.29 151.168 242.962 151.504 243.474 152.032L244.226 151.264C243.618 150.512 242.738 150.032 241.618 150.032C240.194 150.032 238.994 150.8 238.994 152.208C238.994 153.312 239.746 153.872 240.93 154.368L241.682 154.688C242.466 155.008 243.042 155.264 243.042 155.936C243.042 156.64 242.37 157.04 241.554 157.04C240.61 157.04 239.954 156.512 239.314 155.84L238.53 156.656C239.154 157.488 240.194 158.176 241.57 158.176Z" fill="#43436B"/>
<rect x="51" y="176" width="223" height="30" rx="4" fill="white"/>
<path d="M62.456 196H63.704V191.584H66.168C68.248 191.584 69.544 190.288 69.544 188.496C69.544 186.72 68.248 185.44 66.168 185.44H62.456V196ZM63.704 190.464V186.56H66.136C67.528 186.56 68.248 187.392 68.248 188.512C68.248 189.648 67.528 190.464 66.136 190.464H63.704ZM75.0843 188.144C74.1562 188.144 73.2443 188.544 72.6683 189.312V188.208H71.5163V196H72.7483V191.584C72.7483 190.096 73.9323 189.296 75.1963 189.296H75.6603V188.208C75.5003 188.176 75.3403 188.144 75.0843 188.144ZM84.1329 191.552C84.1329 189.472 82.5809 188.032 80.5809 188.032C78.3409 188.032 76.5969 189.84 76.5969 192.112C76.5969 194.4 78.3729 196.176 80.7249 196.176C82.0049 196.176 83.0609 195.648 83.8449 194.816L83.1249 193.984C82.4849 194.624 81.7169 195.04 80.7409 195.04C79.2049 195.04 78.0369 194.032 77.8769 192.48H84.0369C84.0689 192.32 84.1329 191.968 84.1329 191.552ZM80.5489 189.152C81.7809 189.152 82.8529 189.952 82.8689 191.392H77.9249C78.1969 190.048 79.2369 189.152 80.5489 189.152ZM85.7855 191.488H89.6095V190.448H85.7855V191.488ZM98.6121 196H99.9401L95.3641 185.264H94.9001L90.3241 196H91.6361L92.5321 193.856H97.7161L98.6121 196ZM97.2361 192.736H93.0121L95.1241 187.536L97.2361 192.736ZM107.868 188.208V189.456C107.26 188.56 106.14 188.032 104.908 188.032C102.716 188.032 101.084 189.728 101.084 191.984C101.084 194.256 102.716 195.92 104.908 195.92C106.076 195.92 107.18 195.44 107.804 194.624V195.312C107.804 197.04 106.796 197.92 105.212 197.92C103.932 197.92 103.052 197.344 102.299 196.688L101.58 197.552C102.348 198.32 103.612 199.056 105.244 199.056C107.516 199.056 109.036 197.648 109.036 195.248V188.208H107.868ZM105.1 194.784C103.516 194.784 102.332 193.648 102.332 192C102.332 190.352 103.516 189.2 105.1 189.2C106.444 189.2 107.82 190.032 107.82 191.984C107.82 193.936 106.46 194.784 105.1 194.784ZM118.055 188.208V189.456C117.447 188.56 116.327 188.032 115.095 188.032C112.903 188.032 111.271 189.728 111.271 191.984C111.271 194.256 112.903 195.92 115.095 195.92C116.263 195.92 117.367 195.44 117.991 194.624V195.312C117.991 197.04 116.983 197.92 115.399 197.92C114.119 197.92 113.239 197.344 112.487 196.688L111.767 197.552C112.535 198.32 113.799 199.056 115.431 199.056C117.703 199.056 119.223 197.648 119.223 195.248V188.208H118.055ZM115.287 194.784C113.703 194.784 112.519 193.648 112.519 192C112.519 190.352 113.703 189.2 115.287 189.2C116.631 189.2 118.007 190.032 118.007 191.984C118.007 193.936 116.647 194.784 115.287 194.784ZM125.491 188.144C124.562 188.144 123.651 188.544 123.075 189.312V188.208H121.923V196H123.155V191.584C123.155 190.096 124.339 189.296 125.603 189.296H126.067V188.208C125.907 188.176 125.747 188.144 125.491 188.144ZM134.539 191.552C134.539 189.472 132.987 188.032 130.987 188.032C128.747 188.032 127.003 189.84 127.003 192.112C127.003 194.4 128.779 196.176 131.131 196.176C132.411 196.176 133.467 195.648 134.251 194.816L133.531 193.984C132.891 194.624 132.123 195.04 131.147 195.04C129.611 195.04 128.443 194.032 128.283 192.48H134.443C134.475 192.32 134.539 191.968 134.539 191.552ZM130.955 189.152C132.187 189.152 133.259 189.952 133.275 191.392H128.331C128.603 190.048 129.643 189.152 130.955 189.152ZM143.024 188.208V189.456C142.416 188.56 141.296 188.032 140.064 188.032C137.872 188.032 136.24 189.728 136.24 191.984C136.24 194.256 137.872 195.92 140.064 195.92C141.232 195.92 142.336 195.44 142.96 194.624V195.312C142.96 197.04 141.952 197.92 140.368 197.92C139.088 197.92 138.208 197.344 137.456 196.688L136.736 197.552C137.504 198.32 138.768 199.056 140.4 199.056C142.672 199.056 144.192 197.648 144.192 195.248V188.208H143.024ZM140.256 194.784C138.672 194.784 137.488 193.648 137.488 192C137.488 190.352 138.672 189.2 140.256 189.2C141.6 189.2 142.976 190.032 142.976 191.984C142.976 193.936 141.616 194.784 140.256 194.784ZM149.691 188.032C148.443 188.032 147.259 188.56 146.523 189.744L147.339 190.416C147.947 189.632 148.635 189.168 149.611 189.168C150.763 189.168 151.499 189.824 151.499 191.136V191.808H149.035C147.339 191.808 146.235 192.672 146.235 193.984C146.235 195.344 147.387 196.176 148.955 196.176C150.107 196.176 151.019 195.744 151.579 194.992V196H152.731V191.2C152.731 189.104 151.467 188.032 149.691 188.032ZM149.115 195.152C148.251 195.152 147.499 194.752 147.499 193.92C147.499 193.184 148.091 192.816 149.179 192.816H151.499V193.008C151.499 194.224 150.395 195.152 149.115 195.152ZM158.56 195.056C157.584 195.056 156.912 194.736 156.912 193.568V189.312H159.344V188.208H156.912V186.08H155.68V188.208H154.368V189.312H155.68V193.648C155.68 195.424 156.768 196.176 158.304 196.176C158.8 196.176 159.2 196.096 159.6 196V194.96C159.2 195.024 158.864 195.056 158.56 195.056ZM162.062 186.128C162.558 186.128 162.974 185.744 162.974 185.232C162.974 184.736 162.558 184.336 162.062 184.336C161.55 184.336 161.134 184.736 161.134 185.232C161.134 185.744 161.55 186.128 162.062 186.128ZM161.438 196H162.67V188.208H161.438V196ZM168.88 196.16C171.168 196.16 172.976 194.352 172.976 192.096C172.976 189.824 171.168 188.032 168.896 188.032C166.608 188.032 164.816 189.808 164.816 192.096C164.816 194.352 166.608 196.16 168.88 196.16ZM168.88 195.024C167.28 195.024 166.08 193.776 166.08 192.112C166.08 190.432 167.28 189.168 168.896 189.168C170.496 189.168 171.712 190.432 171.712 192.112C171.712 193.76 170.48 195.024 168.88 195.024ZM178.693 188.032C177.685 188.032 176.853 188.416 176.293 189.04V188.208H175.141V196H176.373V191.248C176.373 190.032 177.221 189.168 178.421 189.168C179.621 189.168 180.357 190.016 180.357 191.248V196H181.589V191.104C181.589 189.296 180.533 188.032 178.693 188.032ZM188.784 196H191.92C195.504 196 197.664 193.728 197.664 190.704C197.664 187.632 195.504 185.44 191.92 185.44H188.784V196ZM190.032 194.88V186.56H191.904C194.736 186.56 196.368 188.288 196.368 190.704C196.368 193.072 194.736 194.88 191.904 194.88H190.032ZM202.598 188.032C201.35 188.032 200.166 188.56 199.43 189.744L200.246 190.416C200.854 189.632 201.542 189.168 202.518 189.168C203.67 189.168 204.406 189.824 204.406 191.136V191.808H201.942C200.246 191.808 199.142 192.672 199.142 193.984C199.142 195.344 200.294 196.176 201.862 196.176C203.014 196.176 203.926 195.744 204.486 194.992V196H205.638V191.2C205.638 189.104 204.374 188.032 202.598 188.032ZM202.022 195.152C201.158 195.152 200.406 194.752 200.406 193.92C200.406 193.184 200.998 192.816 202.086 192.816H204.406V193.008C204.406 194.224 203.302 195.152 202.022 195.152ZM211.467 195.056C210.491 195.056 209.819 194.736 209.819 193.568V189.312H212.251V188.208H209.819V186.08H208.587V188.208H207.275V189.312H208.587V193.648C208.587 195.424 209.675 196.176 211.211 196.176C211.707 196.176 212.107 196.096 212.507 196V194.96C212.107 195.024 211.771 195.056 211.467 195.056ZM217.144 188.032C215.896 188.032 214.712 188.56 213.976 189.744L214.792 190.416C215.4 189.632 216.088 189.168 217.064 189.168C218.216 189.168 218.952 189.824 218.952 191.136V191.808H216.488C214.792 191.808 213.688 192.672 213.688 193.984C213.688 195.344 214.84 196.176 216.408 196.176C217.56 196.176 218.472 195.744 219.032 194.992V196H220.184V191.2C220.184 189.104 218.92 188.032 217.144 188.032ZM216.568 195.152C215.704 195.152 214.952 194.752 214.952 193.92C214.952 193.184 215.544 192.816 216.632 192.816H218.952V193.008C218.952 194.224 217.848 195.152 216.568 195.152ZM226.894 188.032C225.726 188.032 224.654 188.528 224.03 189.344V184H222.798V196H223.95V194.768C224.558 195.648 225.694 196.176 226.91 196.176C229.134 196.176 230.75 194.4 230.75 192.112C230.75 189.808 229.118 188.032 226.894 188.032ZM226.718 195.04C225.374 195.04 224.014 194.16 224.014 192.112C224.014 190.064 225.358 189.168 226.718 189.168C228.302 189.168 229.486 190.4 229.486 192.096C229.486 193.792 228.318 195.04 226.718 195.04ZM235.707 188.032C234.459 188.032 233.275 188.56 232.539 189.744L233.355 190.416C233.963 189.632 234.651 189.168 235.627 189.168C236.779 189.168 237.515 189.824 237.515 191.136V191.808H235.051C233.355 191.808 232.251 192.672 232.251 193.984C232.251 195.344 233.403 196.176 234.971 196.176C236.123 196.176 237.035 195.744 237.595 194.992V196H238.747V191.2C238.747 189.104 237.483 188.032 235.707 188.032ZM235.131 195.152C234.267 195.152 233.515 194.752 233.515 193.92C233.515 193.184 234.107 192.816 235.195 192.816H237.515V193.008C237.515 194.224 236.411 195.152 235.131 195.152ZM243.664 196.176C245.104 196.176 246.4 195.408 246.4 193.888C246.4 192.784 245.728 192.176 244.336 191.584L243.616 191.28C242.752 190.912 242.352 190.672 242.352 190.144C242.352 189.504 242.912 189.168 243.648 189.168C244.384 189.168 245.056 189.504 245.568 190.032L246.32 189.264C245.712 188.512 244.832 188.032 243.712 188.032C242.288 188.032 241.088 188.8 241.088 190.208C241.088 191.312 241.84 191.872 243.024 192.368L243.776 192.688C244.56 193.008 245.136 193.264 245.136 193.936C245.136 194.64 244.464 195.04 243.648 195.04C242.704 195.04 242.048 194.512 241.408 193.84L240.624 194.656C241.248 195.488 242.288 196.176 243.664 196.176ZM255.602 191.552C255.602 189.472 254.05 188.032 252.05 188.032C249.81 188.032 248.066 189.84 248.066 192.112C248.066 194.4 249.842 196.176 252.194 196.176C253.474 196.176 254.53 195.648 255.314 194.816L254.594 193.984C253.954 194.624 253.186 195.04 252.21 195.04C250.674 195.04 249.506 194.032 249.346 192.48H255.506C255.538 192.32 255.602 191.968 255.602 191.552ZM252.018 189.152C253.25 189.152 254.322 189.952 254.338 191.392H249.394C249.666 190.048 250.706 189.152 252.018 189.152ZM260.07 196.176C261.51 196.176 262.806 195.408 262.806 193.888C262.806 192.784 262.134 192.176 260.742 191.584L260.022 191.28C259.158 190.912 258.758 190.672 258.758 190.144C258.758 189.504 259.318 189.168 260.054 189.168C260.79 189.168 261.462 189.504 261.974 190.032L262.726 189.264C262.118 188.512 261.238 188.032 260.118 188.032C258.694 188.032 257.494 188.8 257.494 190.208C257.494 191.312 258.246 191.872 259.43 192.368L260.182 192.688C260.966 193.008 261.542 193.264 261.542 193.936C261.542 194.64 260.87 195.04 260.054 195.04C259.11 195.04 258.454 194.512 257.814 193.84L257.03 194.656C257.654 195.488 258.694 196.176 260.07 196.176Z" fill="#43436B"/>
<rect x="51" y="214" width="195" height="30" rx="4" fill="white"/>
<path d="M68.088 228.192C68.728 227.712 69.096 226.992 69.096 226.112C69.096 224.576 67.96 223.44 66.088 223.44H62.456V234H66.808C68.904 234 70.152 232.704 70.152 230.96C70.152 229.6 69.4 228.576 68.088 228.192ZM65.96 224.56C67.208 224.56 67.816 225.216 67.816 226.192C67.816 227.168 67.192 227.84 65.96 227.84H63.704V224.56H65.96ZM66.68 232.88H63.704V228.976H66.68C68.104 228.976 68.872 229.792 68.872 230.928C68.872 232.08 68.104 232.88 66.68 232.88ZM75.0194 226.032C73.7714 226.032 72.5874 226.56 71.8514 227.744L72.6674 228.416C73.2754 227.632 73.9634 227.168 74.9394 227.168C76.0914 227.168 76.8274 227.824 76.8274 229.136V229.808H74.3634C72.6674 229.808 71.5634 230.672 71.5634 231.984C71.5634 233.344 72.7154 234.176 74.2834 234.176C75.4354 234.176 76.3474 233.744 76.9074 232.992V234H78.0594V229.2C78.0594 227.104 76.7954 226.032 75.0194 226.032ZM74.4434 233.152C73.5794 233.152 72.8274 232.752 72.8274 231.92C72.8274 231.184 73.4194 230.816 74.5074 230.816H76.8274V231.008C76.8274 232.224 75.7234 233.152 74.4434 233.152ZM84.1925 234.176C85.5845 234.176 86.7045 233.504 87.3925 232.48L86.5125 231.792C85.9365 232.56 85.2005 233.04 84.2085 233.04C82.5765 233.04 81.3765 231.744 81.3765 230.096C81.3765 228.464 82.5765 227.168 84.2085 227.168C85.2165 227.168 85.9525 227.664 86.5285 228.432L87.4085 227.728C86.7205 226.704 85.6005 226.032 84.1925 226.032C81.9205 226.032 80.1125 227.824 80.1125 230.096C80.1125 232.384 81.9205 234.176 84.1925 234.176ZM89.485 234H90.717V222H89.485V234ZM92.333 229.632L95.709 226.208H94.093L90.845 229.616L94.429 234H96.013L92.333 229.632ZM103.586 226.208V227.456C102.978 226.56 101.858 226.032 100.626 226.032C98.4343 226.032 96.8023 227.728 96.8023 229.984C96.8023 232.256 98.4343 233.92 100.626 233.92C101.794 233.92 102.898 233.44 103.522 232.624V233.312C103.522 235.04 102.514 235.92 100.93 235.92C99.6503 235.92 98.7703 235.344 98.0182 234.688L97.2983 235.552C98.0663 236.32 99.3303 237.056 100.962 237.056C103.234 237.056 104.754 235.648 104.754 233.248V226.208H103.586ZM100.818 232.784C99.2343 232.784 98.0503 231.648 98.0503 230C98.0503 228.352 99.2343 227.2 100.818 227.2C102.162 227.2 103.538 228.032 103.538 229.984C103.538 231.936 102.178 232.784 100.818 232.784ZM111.022 226.144C110.094 226.144 109.182 226.544 108.606 227.312V226.208H107.454V234H108.686V229.584C108.686 228.096 109.87 227.296 111.134 227.296H111.598V226.208C111.438 226.176 111.278 226.144 111.022 226.144ZM116.598 234.16C118.886 234.16 120.694 232.352 120.694 230.096C120.694 227.824 118.886 226.032 116.614 226.032C114.326 226.032 112.534 227.808 112.534 230.096C112.534 232.352 114.326 234.16 116.598 234.16ZM116.598 233.024C114.998 233.024 113.798 231.776 113.798 230.112C113.798 228.432 114.998 227.168 116.614 227.168C118.214 227.168 119.43 228.432 119.43 230.112C119.43 231.76 118.198 233.024 116.598 233.024ZM125.996 234.176C127.788 234.176 129.212 232.896 129.212 230.896V226.208H127.98V230.976C127.98 232.256 127.084 233.04 125.996 233.04C124.876 233.04 123.98 232.256 123.98 230.976V226.208H122.764V230.896C122.764 232.896 124.172 234.176 125.996 234.176ZM135.365 226.032C134.357 226.032 133.525 226.416 132.965 227.04V226.208H131.813V234H133.045V229.248C133.045 228.032 133.893 227.168 135.093 227.168C136.293 227.168 137.029 228.016 137.029 229.248V234H138.261V229.104C138.261 227.296 137.205 226.032 135.365 226.032ZM147.052 222V227.36C146.428 226.528 145.34 226.032 144.172 226.032C141.948 226.032 140.316 227.808 140.316 230.112C140.316 232.4 141.948 234.176 144.172 234.176C145.388 234.176 146.508 233.648 147.116 232.768V234H148.284V222H147.052ZM144.348 233.04C142.748 233.04 141.58 231.792 141.58 230.096C141.58 228.4 142.764 227.168 144.348 227.168C145.692 227.168 147.068 228.064 147.068 230.112C147.068 232.16 145.692 233.04 144.348 233.04ZM158.653 234.176C160.605 234.176 162.061 233.008 162.061 231.232C162.061 229.792 161.133 229.024 159.597 228.288L158.429 227.728C157.469 227.264 156.733 226.912 156.733 225.952C156.733 224.912 157.629 224.416 158.605 224.416C159.565 224.416 160.445 224.896 161.021 225.744L161.933 225.056C161.277 224.016 160.061 223.264 158.621 223.264C156.909 223.264 155.437 224.336 155.437 226.016C155.437 227.584 156.717 228.32 157.821 228.848L159.005 229.408C160.045 229.904 160.765 230.288 160.765 231.264C160.765 232.336 159.885 233.024 158.637 233.024C157.277 233.024 156.333 232.192 155.693 231.216L154.765 231.904C155.581 233.296 156.973 234.176 158.653 234.176ZM167.911 234.176C169.303 234.176 170.423 233.504 171.111 232.48L170.231 231.792C169.655 232.56 168.919 233.04 167.927 233.04C166.295 233.04 165.095 231.744 165.095 230.096C165.095 228.464 166.295 227.168 167.927 227.168C168.935 227.168 169.671 227.664 170.247 228.432L171.127 227.728C170.439 226.704 169.319 226.032 167.911 226.032C165.639 226.032 163.831 227.824 163.831 230.096C163.831 232.384 165.639 234.176 167.911 234.176ZM176.772 226.032C175.764 226.032 174.964 226.432 174.436 227.088V222H173.204V234H174.436V229.264C174.436 228.048 175.284 227.168 176.484 227.168C177.684 227.168 178.42 228.032 178.42 229.264V234H179.652V229.104C179.652 227.296 178.596 226.032 176.772 226.032ZM189.242 229.552C189.242 227.472 187.69 226.032 185.69 226.032C183.45 226.032 181.706 227.84 181.706 230.112C181.706 232.4 183.482 234.176 185.834 234.176C187.114 234.176 188.17 233.648 188.954 232.816L188.234 231.984C187.594 232.624 186.826 233.04 185.85 233.04C184.314 233.04 183.146 232.032 182.986 230.48H189.146C189.178 230.32 189.242 229.968 189.242 229.552ZM185.658 227.152C186.89 227.152 187.962 227.952 187.978 229.392H183.034C183.306 228.048 184.346 227.152 185.658 227.152ZM197.583 222V227.36C196.959 226.528 195.871 226.032 194.703 226.032C192.479 226.032 190.847 227.808 190.847 230.112C190.847 232.4 192.479 234.176 194.703 234.176C195.919 234.176 197.039 233.648 197.647 232.768V234H198.815V222H197.583ZM194.879 233.04C193.279 233.04 192.111 231.792 192.111 230.096C192.111 228.4 193.295 227.168 194.879 227.168C196.223 227.168 197.599 228.064 197.599 230.112C197.599 232.16 196.223 233.04 194.879 233.04ZM204.652 234.176C206.444 234.176 207.868 232.896 207.868 230.896V226.208H206.636V230.976C206.636 232.256 205.74 233.04 204.652 233.04C203.532 233.04 202.636 232.256 202.636 230.976V226.208H201.42V230.896C201.42 232.896 202.828 234.176 204.652 234.176ZM210.469 234H211.701V222H210.469V234ZM221.383 229.552C221.383 227.472 219.831 226.032 217.831 226.032C215.591 226.032 213.847 227.84 213.847 230.112C213.847 232.4 215.623 234.176 217.975 234.176C219.255 234.176 220.311 233.648 221.095 232.816L220.375 231.984C219.735 232.624 218.967 233.04 217.991 233.04C216.455 233.04 215.287 232.032 215.127 230.48H221.287C221.319 230.32 221.383 229.968 221.383 229.552ZM217.799 227.152C219.031 227.152 220.103 227.952 220.119 229.392H215.175C215.447 228.048 216.487 227.152 217.799 227.152ZM227.116 226.144C226.188 226.144 225.276 226.544 224.7 227.312V226.208H223.548V234H224.78V229.584C224.78 228.096 225.964 227.296 227.228 227.296H227.692V226.208C227.532 226.176 227.372 226.144 227.116 226.144ZM231.648 234.176C233.088 234.176 234.384 233.408 234.384 231.888C234.384 230.784 233.712 230.176 232.32 229.584L231.6 229.28C230.736 228.912 230.336 228.672 230.336 228.144C230.336 227.504 230.896 227.168 231.632 227.168C232.368 227.168 233.04 227.504 233.552 228.032L234.304 227.264C233.696 226.512 232.816 226.032 231.696 226.032C230.272 226.032 229.072 226.8 229.072 228.208C229.072 229.312 229.824 229.872 231.008 230.368L231.76 230.688C232.544 231.008 233.12 231.264 233.12 231.936C233.12 232.64 232.448 233.04 231.632 233.04C230.688 233.04 230.032 232.512 229.392 231.84L228.608 232.656C229.232 233.488 230.272 234.176 231.648 234.176Z" fill="#43436B"/>
<path d="M297 90H368" stroke="#141446" stroke-width="0.5"/>
<path d="M124.714 88.9392C124.714 85.3767 127.604 82.6047 131.246 82.6047C133.583 82.6047 135.391 83.7183 136.446 85.4248L134.588 86.8598C133.783 85.7462 132.754 85.0038 131.272 85.0038C129.011 85.0038 127.403 86.736 127.403 88.9375C127.403 91.1887 129.011 92.8952 131.272 92.8952C132.729 92.8952 133.759 92.1786 134.588 91.065L136.446 92.4759C135.366 94.1824 133.556 95.296 131.246 95.296C127.604 95.2977 124.714 92.5257 124.714 88.9392Z" fill="#141446"/>
<path d="M138.732 89.9291V82.8781H141.344V90.1268C141.344 91.8333 142.575 92.897 144.133 92.897C145.641 92.897 146.847 91.8333 146.847 90.1268V82.8781H149.485V89.9291C149.485 93.2201 147.148 95.2978 144.135 95.2978C141.069 95.2978 138.732 93.2201 138.732 89.9291Z" fill="#141446"/>
<path d="M165.489 88.9632C165.489 92.5755 162.952 95.2977 159.46 95.2977C157.65 95.2977 156.067 94.581 155.139 93.3437V95.0261H152.677V76.4696H155.315V84.3628C156.245 83.2492 157.727 82.6064 159.435 82.6064C162.952 82.6047 165.489 85.3509 165.489 88.9632ZM162.775 88.9392C162.775 86.5882 161.117 84.9814 159.006 84.9814C157.148 84.9814 155.287 86.2187 155.287 88.9649C155.287 91.7352 157.172 92.9227 159.006 92.9227C161.142 92.9227 162.775 91.2901 162.775 88.9392Z" fill="#141446"/>
<path d="M179.13 89.8053H169.935C170.288 91.8091 171.844 92.9966 173.954 92.9966C175.387 92.9966 176.516 92.4518 177.547 91.5616L178.804 93.3437C177.496 94.5553 175.839 95.2977 173.879 95.2977C170.061 95.2977 167.246 92.5515 167.246 88.9632C167.246 85.4008 170.035 82.6047 173.628 82.6047C176.919 82.6047 179.331 84.9797 179.331 88.171C179.331 88.8395 179.205 89.484 179.13 89.8053ZM169.986 87.7757H176.694C176.643 85.8699 175.212 84.8062 173.528 84.8062C171.794 84.8079 170.387 85.9696 169.986 87.7757Z" fill="#141446"/>
<g opacity="0.4">
<path d="M190.4 95.6696C192.723 95.6696 194.591 94.5992 195.739 92.968L194.271 91.8721C193.31 93.0955 192.082 93.8601 190.427 93.8601C187.704 93.8601 185.702 91.7957 185.702 89.1706C185.702 86.5709 187.704 84.5065 190.427 84.5065C192.109 84.5065 193.336 85.2966 194.297 86.52L195.766 85.3986C194.618 83.7674 192.749 82.697 190.4 82.697C186.61 82.697 183.593 85.5515 183.593 89.1706C183.593 92.8151 186.61 95.6696 190.4 95.6696Z" fill="#141446"/>
<path d="M198.429 95.3893H200.485V76.2744H198.429V95.3893Z" fill="#141446"/>
<path d="M210.043 95.6441C213.861 95.6441 216.877 92.7642 216.877 89.1706C216.877 85.5515 213.861 82.697 210.07 82.697C206.253 82.697 203.263 85.526 203.263 89.1706C203.263 92.7642 206.253 95.6441 210.043 95.6441ZM210.043 93.8346C207.374 93.8346 205.372 91.8466 205.372 89.196C205.372 86.52 207.374 84.5065 210.07 84.5065C212.739 84.5065 214.768 86.52 214.768 89.196C214.768 91.8212 212.713 93.8346 210.043 93.8346Z" fill="#141446"/>
<path d="M224.921 95.6696C227.911 95.6696 230.287 93.6307 230.287 90.4449V82.9774H228.231V90.5723C228.231 92.6112 226.736 93.8601 224.921 93.8601C223.053 93.8601 221.558 92.6112 221.558 90.5723V82.9774H219.529V90.4449C219.529 93.6307 221.878 95.6696 224.921 95.6696Z" fill="#141446"/>
<path d="M244.129 76.2744V84.8124C243.088 83.4871 241.273 82.697 239.324 82.697C235.614 82.697 232.891 85.526 232.891 89.196C232.891 92.8406 235.614 95.6696 239.324 95.6696C241.353 95.6696 243.222 94.8286 244.236 93.4268V95.3893H246.185V76.2744H244.129ZM239.618 93.8601C236.949 93.8601 235 91.8721 235 89.1706C235 86.469 236.975 84.5065 239.618 84.5065C241.86 84.5065 244.156 85.9338 244.156 89.196C244.156 92.4583 241.86 93.8601 239.618 93.8601Z" fill="#141446"/>
</g>
<g clip-path="url(#clip1)">
<path d="M108 104L117 98.885L108 93.7267L99 98.885L108 104Z" fill="#141446"/>
<path d="M117 98.885V88.6008L108 83.4425V93.7267L117 98.885Z" fill="#FF6492"/>
<path d="M99 98.885V88.6008L108 83.4425V93.7267L99 98.885Z" fill="#7A77FF"/>
<path d="M99 88.5575L108 83.4425L99 78.2842L90 83.4425L99 88.5575Z" fill="#141446"/>
<path d="M108 83.4425V73.1583L99 68V78.2842L108 83.4425Z" fill="#FF6492"/>
<path d="M90 83.4425V73.1583L99 68V78.2842L90 83.4425Z" fill="#7A77FF"/>
<path d="M90 104L99 98.885L90 93.7267L81 98.885L90 104Z" fill="#141446"/>
<path d="M99 98.885V88.6008L90 83.4425V93.7267L99 98.885Z" fill="#FF6492"/>
<path d="M81 98.885V88.6008L90 83.4425V93.7267L81 98.885Z" fill="#7A77FF"/>
</g>
<rect x="1.5" y="0.5" width="516" height="293" rx="7.5" stroke="#141446" stroke-dasharray="1 4"/>
<path d="M223.223 323.12H221.117L218.165 328.286L215.231 323.12H213.107L217.211 330.212V335H219.119V330.212L223.223 323.12ZM227.743 335.198C230.371 335.198 232.441 333.146 232.441 330.572C232.441 327.998 230.371 325.964 227.743 325.964C225.133 325.964 223.081 327.98 223.081 330.572C223.081 333.146 225.133 335.198 227.743 335.198ZM227.743 333.452C226.177 333.452 225.007 332.228 225.007 330.59C225.007 328.934 226.177 327.692 227.761 327.692C229.309 327.692 230.497 328.934 230.497 330.59C230.497 332.21 229.309 333.452 227.743 333.452ZM238.387 335.198C240.547 335.198 242.221 333.686 242.221 331.292V326.162H240.331V331.436C240.331 332.678 239.467 333.452 238.387 333.452C237.271 333.452 236.389 332.678 236.389 331.436V326.162H234.517V331.292C234.517 333.686 236.191 335.198 238.387 335.198ZM249.211 326.072C248.203 326.072 247.267 326.504 246.637 327.314V326.162H244.873V335H246.763V330.284C246.763 328.646 247.951 327.836 249.355 327.836H249.931V326.162C249.733 326.108 249.517 326.072 249.211 326.072ZM262.32 335.198C264.552 335.198 266.424 334.118 267.414 332.462L265.974 331.4C265.146 332.678 263.922 333.452 262.338 333.452C259.89 333.452 258.054 331.598 258.054 329.06C258.054 326.522 259.89 324.668 262.338 324.668C263.922 324.668 265.146 325.442 265.974 326.72L267.414 325.658C266.406 324.002 264.552 322.922 262.32 322.922C258.846 322.922 256.074 325.586 256.074 329.06C256.074 332.552 258.846 335.198 262.32 335.198ZM269.57 335H271.46V321.5H269.57V335ZM278.297 335.198C280.925 335.198 282.995 333.146 282.995 330.572C282.995 327.998 280.925 325.964 278.297 325.964C275.687 325.964 273.635 327.98 273.635 330.572C273.635 333.146 275.687 335.198 278.297 335.198ZM278.297 333.452C276.731 333.452 275.561 332.228 275.561 330.59C275.561 328.934 276.731 327.692 278.315 327.692C279.863 327.692 281.051 328.934 281.051 330.59C281.051 332.21 279.863 333.452 278.297 333.452ZM288.942 335.198C291.102 335.198 292.776 333.686 292.776 331.292V326.162H290.886V331.436C290.886 332.678 290.022 333.452 288.942 333.452C287.826 333.452 286.944 332.678 286.944 331.436V326.162H285.072V331.292C285.072 333.686 286.746 335.198 288.942 335.198ZM302.142 321.5V327.242C301.476 326.432 300.414 325.964 299.19 325.964C296.688 325.964 294.87 327.962 294.87 330.59C294.87 333.218 296.67 335.198 299.19 335.198C300.504 335.198 301.638 334.658 302.286 333.74V335H304.05V321.5H302.142ZM299.514 333.47C297.966 333.47 296.796 332.282 296.796 330.572C296.796 328.862 297.984 327.692 299.514 327.692C300.828 327.692 302.178 328.592 302.178 330.59C302.178 332.606 300.828 333.47 299.514 333.47Z" fill="#141446"/>
<g clip-path="url(#clip2)">
<path d="M478.211 245.605L480.755 243.012L480.926 241.919C476.294 237.628 468.946 238.116 464.771 242.93C463.607 244.267 462.751 245.93 462.295 247.663L463.207 247.535L468.285 246.686L468.673 246.279C470.932 243.756 474.754 243.407 477.355 245.558L478.211 245.605Z" fill="#EA4335"/>
<path d="M484.372 247.593C483.79 245.407 482.592 243.43 480.926 241.93L477.366 245.558C478.873 246.814 479.728 248.698 479.694 250.674V251.314C481.451 251.314 482.866 252.756 482.866 254.546C482.866 256.337 481.451 257.744 479.694 257.744H473.339L472.711 258.43V262.302L473.339 262.907H479.694C484.246 262.942 487.977 259.244 488.011 254.605C488.023 251.814 486.654 249.174 484.372 247.593Z" fill="#4285F4"/>
<path d="M466.995 262.93H473.339V257.756H466.995C466.539 257.756 466.105 257.651 465.695 257.465L464.793 257.744L462.238 260.337L462.01 261.221C463.447 262.314 465.193 262.942 466.995 262.93Z" fill="#34A853"/>
<path d="M466.995 246.14C462.443 246.163 458.769 249.954 458.792 254.593C458.804 257.186 459.99 259.628 462.01 261.209L465.683 257.465C464.086 256.733 463.379 254.814 464.097 253.186C464.816 251.558 466.699 250.837 468.296 251.57C469.004 251.895 469.563 252.465 469.882 253.186L473.556 249.442C472.004 247.349 469.563 246.128 466.995 246.14Z" fill="#FBBC05"/>
<path d="M413.2 249.221C413.2 249.651 413.246 250 413.325 250.256C413.417 250.512 413.531 250.791 413.691 251.093C413.748 251.186 413.77 251.279 413.77 251.36C413.77 251.477 413.702 251.593 413.554 251.709L412.835 252.198C412.732 252.267 412.629 252.302 412.538 252.302C412.424 252.302 412.31 252.244 412.196 252.14C412.036 251.965 411.899 251.779 411.785 251.593C411.671 251.395 411.557 251.174 411.431 250.907C410.542 251.977 409.423 252.512 408.077 252.512C407.119 252.512 406.354 252.233 405.795 251.674C405.236 251.116 404.951 250.372 404.951 249.442C404.951 248.454 405.293 247.651 405.989 247.047C406.685 246.442 407.609 246.14 408.784 246.14C409.172 246.14 409.572 246.174 409.994 246.233C410.416 246.291 410.85 246.384 411.306 246.488V245.64C411.306 244.756 411.123 244.14 410.77 243.779C410.405 243.419 409.789 243.244 408.91 243.244C408.511 243.244 408.1 243.291 407.678 243.395C407.256 243.5 406.845 243.628 406.446 243.791C406.263 243.872 406.126 243.919 406.046 243.942C405.966 243.965 405.909 243.977 405.864 243.977C405.704 243.977 405.624 243.86 405.624 243.616V243.047C405.624 242.86 405.647 242.721 405.704 242.64C405.761 242.558 405.864 242.477 406.023 242.395C406.423 242.186 406.902 242.012 407.461 241.872C408.02 241.721 408.613 241.651 409.241 241.651C410.599 241.651 411.591 241.965 412.23 242.593C412.858 243.221 413.177 244.174 413.177 245.454V249.221H413.2ZM408.568 250.988C408.944 250.988 409.332 250.919 409.743 250.779C410.154 250.64 410.519 250.384 410.827 250.035C411.009 249.814 411.146 249.57 411.215 249.291C411.283 249.012 411.329 248.674 411.329 248.279V247.791C410.998 247.709 410.644 247.64 410.279 247.593C409.914 247.547 409.56 247.523 409.207 247.523C408.442 247.523 407.883 247.674 407.507 247.988C407.13 248.302 406.948 248.744 406.948 249.326C406.948 249.872 407.084 250.279 407.37 250.558C407.644 250.849 408.043 250.988 408.568 250.988ZM417.729 252.244C417.524 252.244 417.387 252.209 417.296 252.128C417.205 252.058 417.125 251.895 417.056 251.674L414.375 242.686C414.307 242.454 414.272 242.302 414.272 242.221C414.272 242.035 414.364 241.93 414.546 241.93H415.664C415.881 241.93 416.029 241.965 416.109 242.047C416.201 242.116 416.269 242.279 416.337 242.5L418.254 250.198L420.034 242.5C420.091 242.267 420.16 242.116 420.251 242.047C420.342 241.977 420.502 241.93 420.707 241.93H421.62C421.837 241.93 421.985 241.965 422.076 242.047C422.168 242.116 422.248 242.279 422.293 242.5L424.096 250.291L426.07 242.5C426.138 242.267 426.218 242.116 426.298 242.047C426.389 241.977 426.537 241.93 426.743 241.93H427.804C427.986 241.93 428.089 242.023 428.089 242.221C428.089 242.279 428.078 242.337 428.066 242.407C428.055 242.477 428.032 242.57 427.986 242.698L425.237 251.686C425.168 251.919 425.088 252.07 424.997 252.14C424.906 252.209 424.758 252.256 424.564 252.256H423.582C423.366 252.256 423.217 252.221 423.126 252.14C423.035 252.058 422.955 251.907 422.909 251.674L421.141 244.174L419.384 251.663C419.327 251.895 419.258 252.047 419.167 252.128C419.076 252.209 418.916 252.244 418.711 252.244H417.729ZM432.39 252.558C431.797 252.558 431.204 252.488 430.633 252.349C430.063 252.209 429.618 252.058 429.321 251.884C429.139 251.779 429.013 251.663 428.968 251.558C428.922 251.454 428.899 251.337 428.899 251.233V250.64C428.899 250.395 428.99 250.279 429.162 250.279C429.23 250.279 429.299 250.291 429.367 250.314C429.435 250.337 429.538 250.384 429.652 250.43C430.04 250.605 430.462 250.744 430.907 250.837C431.364 250.93 431.809 250.977 432.265 250.977C432.984 250.977 433.543 250.849 433.931 250.593C434.319 250.337 434.524 249.965 434.524 249.488C434.524 249.163 434.421 248.895 434.216 248.674C434.011 248.454 433.623 248.256 433.064 248.07L431.409 247.547C430.576 247.279 429.96 246.884 429.584 246.36C429.207 245.849 429.013 245.279 429.013 244.674C429.013 244.186 429.116 243.756 429.321 243.384C429.527 243.012 429.801 242.686 430.143 242.43C430.485 242.163 430.873 241.965 431.329 241.826C431.786 241.686 432.265 241.628 432.767 241.628C433.018 241.628 433.28 241.64 433.531 241.674C433.794 241.709 434.033 241.756 434.273 241.802C434.501 241.86 434.718 241.919 434.923 241.988C435.129 242.058 435.288 242.128 435.403 242.198C435.562 242.291 435.676 242.384 435.745 242.488C435.813 242.581 435.848 242.709 435.848 242.872V243.419C435.848 243.663 435.756 243.791 435.585 243.791C435.494 243.791 435.346 243.744 435.152 243.651C434.501 243.349 433.771 243.198 432.961 243.198C432.311 243.198 431.797 243.302 431.443 243.523C431.09 243.744 430.907 244.081 430.907 244.558C430.907 244.884 431.021 245.163 431.25 245.384C431.478 245.605 431.9 245.826 432.505 246.023L434.125 246.547C434.946 246.814 435.539 247.186 435.893 247.663C436.247 248.14 436.418 248.686 436.418 249.291C436.418 249.791 436.315 250.244 436.121 250.64C435.916 251.035 435.642 251.384 435.288 251.663C434.935 251.954 434.513 252.163 434.022 252.314C433.509 252.477 432.972 252.558 432.39 252.558Z" fill="#252F3E"/>
<path d="M434.547 258.209C430.793 261.035 425.339 262.535 420.65 262.535C414.078 262.535 408.157 260.058 403.684 255.942C403.331 255.616 403.65 255.174 404.072 255.43C408.91 258.291 414.877 260.023 421.05 260.023C425.214 260.023 429.789 259.14 433.999 257.326C434.627 257.035 435.163 257.744 434.547 258.209Z" fill="#FF9900"/>
<path d="M436.11 256.395C435.631 255.767 432.938 256.093 431.717 256.244C431.352 256.291 431.295 255.965 431.626 255.721C433.771 254.186 437.296 254.628 437.707 255.14C438.118 255.663 437.593 259.256 435.585 260.977C435.277 261.244 434.98 261.105 435.117 260.756C435.574 259.605 436.589 257.012 436.11 256.395Z" fill="#FF9900"/>
<path d="M358.469 249.477C359.736 244.453 364.208 240.744 369.525 240.744C373.552 240.744 377.089 242.872 379.12 246.07C383.935 246.116 387.826 250.116 387.826 255.035C387.826 259.988 383.889 264 379.029 264C377.42 264 360.865 264 359.142 264C355.195 264 352 260.744 352 256.721C352 252.93 354.841 249.826 358.469 249.477Z" fill="#35A8E1"/>
<path d="M360.169 252.686C361.675 252.477 363.181 252.256 364.687 252.047C364.687 253.395 364.687 254.744 364.687 256.093C363.181 256.093 361.675 256.093 360.169 256.093C360.169 254.965 360.169 253.826 360.169 252.686Z" fill="white"/>
<path d="M381.756 252.709C381.915 252.5 382.223 252.442 382.429 252.593C382.269 252.64 382.075 252.628 381.927 252.709C381.801 252.895 381.87 253.14 381.847 253.349C382.143 253.349 382.44 253.349 382.748 253.349C382.748 253.128 382.76 252.907 382.76 252.686H382.919C382.919 252.907 382.919 253.128 382.919 253.337C383.079 253.337 383.239 253.337 383.387 253.349V253.477C383.227 253.477 383.068 253.477 382.919 253.477C382.919 253.953 382.919 254.419 382.919 254.895C382.931 255.023 382.885 255.198 383.011 255.279C383.113 255.372 383.273 255.349 383.399 255.372C383.399 255.407 383.399 255.465 383.399 255.488C383.159 255.488 382.817 255.442 382.782 255.14C382.748 254.581 382.782 254.023 382.771 253.465C382.474 253.465 382.166 253.465 381.87 253.465C381.87 254.14 381.87 254.814 381.87 255.488C381.835 255.477 381.767 255.453 381.721 255.442C381.687 254.791 381.71 254.128 381.71 253.477C381.562 253.453 381.356 253.535 381.276 253.36C381.413 253.349 381.562 253.337 381.71 253.337C381.699 253.14 381.676 252.907 381.756 252.709Z" fill="white"/>
<path d="M366.992 252.535C367.061 252.547 367.186 252.57 367.243 252.593C367.688 253.477 368.053 254.395 368.464 255.291C368.932 254.419 369.274 253.477 369.685 252.581C369.776 252.581 369.867 252.581 369.959 252.581C369.959 253.558 369.959 254.523 369.959 255.512C369.913 255.512 369.81 255.5 369.765 255.488C369.765 254.593 369.776 253.698 369.765 252.791C369.342 253.686 368.977 254.593 368.567 255.488C368.521 255.488 368.43 255.488 368.395 255.488C368.122 254.895 367.859 254.291 367.585 253.686C367.46 253.395 367.357 253.093 367.163 252.849C367.129 253.721 367.152 254.605 367.152 255.488C367.106 255.488 367.015 255.488 366.981 255.5C366.992 254.5 366.981 253.512 366.992 252.535Z" fill="white"/>
<path d="M370.54 252.57C370.574 252.57 370.654 252.57 370.689 252.57V252.965C370.654 252.965 370.574 252.965 370.529 252.965C370.54 252.826 370.54 252.698 370.54 252.57Z" fill="white"/>
<path d="M356.564 253.198C357.705 253.035 358.857 252.895 359.998 252.698C360.009 253.837 359.998 254.965 359.998 256.105C358.857 256.116 357.705 256.093 356.564 256.116C356.564 255.14 356.575 254.174 356.564 253.198Z" fill="white"/>
<path d="M371.419 253.593C371.898 253.081 372.913 253.232 373.096 253.965C373.062 253.977 372.993 254 372.948 254.023C372.822 253.325 371.784 253.232 371.442 253.791C371.202 254.174 371.213 254.732 371.476 255.105C371.807 255.546 372.651 255.512 372.856 254.965C372.913 254.86 372.948 254.709 373.107 254.744C373.005 255.325 372.389 255.674 371.841 255.5C371.065 255.302 370.882 254.139 371.419 253.593Z" fill="white"/>
<path d="M370.54 253.349H370.7C370.7 254.058 370.7 254.767 370.7 255.477L370.552 255.488C370.54 254.779 370.54 254.07 370.54 253.349Z" fill="white"/>
<path d="M373.507 253.36C373.541 253.36 373.621 253.36 373.666 253.36C373.666 253.488 373.666 253.616 373.678 253.756C373.906 253.547 374.18 253.314 374.522 253.372C374.545 253.395 374.579 253.442 374.591 253.465C374.203 253.488 373.781 253.686 373.701 254.105C373.644 254.581 373.701 255.058 373.666 255.535C373.632 255.512 373.564 255.465 373.53 255.453C373.495 254.744 373.507 254.058 373.507 253.36Z" fill="white"/>
<path d="M375.355 253.465C374.591 253.709 374.545 254.977 375.252 255.337C375.56 255.465 375.96 255.442 376.199 255.186C376.564 254.802 376.576 254.116 376.245 253.709C376.028 253.442 375.663 253.384 375.355 253.465ZM375.275 253.36C375.64 253.233 376.085 253.314 376.348 253.593C376.781 254.058 376.747 254.895 376.256 255.314C375.8 255.686 375.036 255.57 374.75 255.035C374.419 254.477 374.613 253.581 375.275 253.36Z" fill="white"/>
<path d="M377.306 253.442C377.66 253.256 378.116 253.244 378.447 253.454C378.641 253.558 378.675 253.802 378.732 253.988C378.481 253.988 378.538 253.663 378.356 253.558C378.07 253.384 377.694 253.395 377.409 253.547C377.18 253.674 377.18 254.047 377.42 254.163C377.785 254.36 378.242 254.302 378.595 254.523C378.801 254.651 378.835 254.954 378.755 255.163C378.652 255.407 378.367 255.488 378.139 255.523C377.774 255.581 377.34 255.5 377.123 255.163C377.044 255.035 376.941 254.826 377.123 254.744C377.192 254.919 377.226 255.116 377.386 255.244C377.671 255.465 378.07 255.442 378.39 255.326C378.675 255.233 378.744 254.791 378.481 254.628C378.105 254.419 377.614 254.488 377.26 254.233C376.998 254.047 377.021 253.593 377.306 253.442Z" fill="white"/>
<path d="M380.021 253.442C379.337 253.5 379.086 254.384 379.36 254.942C379.554 255.419 380.215 255.558 380.615 255.267C381.037 254.942 381.094 254.267 380.82 253.825C380.649 253.535 380.329 253.395 380.021 253.442ZM379.702 253.384C380.101 253.209 380.603 253.302 380.889 253.639C381.242 254.093 381.231 254.802 380.843 255.232C380.478 255.605 379.827 255.639 379.451 255.279C378.892 254.791 378.995 253.686 379.702 253.384Z" fill="white"/>
<path d="M356.575 256.267C357.716 256.267 358.868 256.267 360.009 256.267C360.009 257.395 360.009 258.523 360.009 259.651C358.857 259.547 357.716 259.326 356.575 259.186C356.564 258.209 356.564 257.244 356.575 256.267Z" fill="white"/>
<path d="M360.169 259.686C360.18 258.547 360.158 257.407 360.18 256.256C361.686 256.267 363.192 256.256 364.687 256.256C364.687 257.616 364.687 258.965 364.687 260.314C363.181 260.128 361.675 259.907 360.169 259.686Z" fill="white"/>
<path d="M367.585 258.302C367.95 258.302 368.304 258.302 368.669 258.302C368.498 257.837 368.338 257.372 368.144 256.93C367.928 257.372 367.779 257.849 367.585 258.302ZM367.916 256.581C368.076 256.581 368.224 256.581 368.373 256.593C368.772 257.57 369.171 258.547 369.593 259.523C369.445 259.523 369.297 259.523 369.137 259.523C369.023 259.233 368.909 258.942 368.806 258.651C368.35 258.651 367.905 258.651 367.46 258.651C367.346 258.942 367.232 259.233 367.106 259.523C366.969 259.523 366.832 259.523 366.707 259.523C367.106 258.535 367.505 257.547 367.916 256.581Z" fill="white"/>
<path d="M374.705 257.791C374.91 257.523 375.184 257.291 375.549 257.302C375.549 257.419 375.549 257.535 375.549 257.663C375.241 257.674 374.876 257.802 374.784 258.14C374.682 258.581 374.75 259.046 374.727 259.5C374.602 259.5 374.476 259.5 374.362 259.5C374.362 258.791 374.362 258.07 374.362 257.36H374.705V257.791Z" fill="white"/>
<path d="M375.982 258.244C376.439 258.256 376.895 258.256 377.363 258.244C377.295 257.895 376.998 257.558 376.61 257.616C376.256 257.605 376.051 257.942 375.982 258.244ZM375.88 257.709C376.245 257.244 377.021 257.198 377.409 257.64C377.625 257.884 377.694 258.233 377.705 258.546C377.123 258.546 376.553 258.546 375.982 258.546C376.028 258.721 376.039 258.919 376.176 259.046C376.507 259.384 377.169 259.314 377.352 258.837C377.443 258.837 377.614 258.837 377.694 258.849C377.488 259.593 376.484 259.756 375.96 259.279C375.56 258.872 375.515 258.151 375.88 257.709Z" fill="white"/>
<path d="M369.719 257.372C370.323 257.372 370.917 257.36 371.521 257.372C371.51 257.605 371.327 257.767 371.19 257.942C370.837 258.36 370.472 258.779 370.118 259.198C370.597 259.291 371.076 259.139 371.556 259.256C371.556 259.314 371.556 259.442 371.556 259.512C370.928 259.512 370.289 259.512 369.65 259.512V259.244C370.095 258.732 370.563 258.232 370.985 257.698C370.574 257.663 370.164 257.698 369.753 257.663C369.741 257.593 369.73 257.453 369.719 257.372Z" fill="white"/>
<path d="M371.886 257.372C372.012 257.372 372.126 257.372 372.252 257.372C372.263 257.895 372.229 258.43 372.263 258.953C372.457 259.523 373.404 259.256 373.404 258.686C373.415 258.244 373.404 257.802 373.404 257.36C373.495 257.36 373.666 257.36 373.758 257.36C373.758 258.07 373.758 258.791 373.758 259.5C373.678 259.5 373.518 259.5 373.427 259.5C373.415 259.43 373.404 259.291 373.392 259.209C373.096 259.547 372.605 259.64 372.206 259.453C371.955 259.337 371.875 259.047 371.875 258.791C371.886 258.314 371.898 257.849 371.886 257.372Z" fill="white"/>
</g>
<defs>
<linearGradient id="paint0_linear" x1="396.152" y1="106.936" x2="458.368" y2="106.936" gradientUnits="userSpaceOnUse">
<stop stop-color="#E5E5F6"/>
<stop offset="1" stop-color="#C0C0EA"/>
</linearGradient>
<linearGradient id="paint1_linear" x1="396.152" y1="103.453" x2="458.368" y2="103.453" gradientUnits="userSpaceOnUse">
<stop stop-color="#E5E5F6"/>
<stop offset="1" stop-color="#C0C0EA"/>
</linearGradient>
<linearGradient id="paint2_linear" x1="396.152" y1="108.873" x2="458.368" y2="108.873" gradientUnits="userSpaceOnUse">
<stop stop-color="#E5E5F6"/>
<stop offset="1" stop-color="#C0C0EA"/>
</linearGradient>
<linearGradient id="paint3_linear" x1="396.152" y1="109.931" x2="458.368" y2="109.931" gradientUnits="userSpaceOnUse">
<stop stop-color="#E5E5F6"/>
<stop offset="1" stop-color="#C0C0EA"/>
</linearGradient>
<linearGradient id="paint4_linear" x1="396.152" y1="110.74" x2="458.367" y2="110.74" gradientUnits="userSpaceOnUse">
<stop stop-color="#E5E5F6"/>
<stop offset="1" stop-color="#C0C0EA"/>
</linearGradient>
<linearGradient id="paint5_linear" x1="396.152" y1="111.41" x2="458.368" y2="111.41" gradientUnits="userSpaceOnUse">
<stop stop-color="#E5E5F6"/>
<stop offset="1" stop-color="#C0C0EA"/>
</linearGradient>
<linearGradient id="paint6_linear" x1="396.152" y1="111.987" x2="458.368" y2="111.987" gradientUnits="userSpaceOnUse">
<stop stop-color="#E5E5F6"/>
<stop offset="1" stop-color="#C0C0EA"/>
</linearGradient>
<linearGradient id="paint7_linear" x1="396.152" y1="112.487" x2="458.368" y2="112.487" gradientUnits="userSpaceOnUse">
<stop stop-color="#E5E5F6"/>
<stop offset="1" stop-color="#C0C0EA"/>
</linearGradient>
<linearGradient id="paint8_linear" x1="396.152" y1="112.926" x2="458.367" y2="112.926" gradientUnits="userSpaceOnUse">
<stop stop-color="#E5E5F6"/>
<stop offset="1" stop-color="#C0C0EA"/>
</linearGradient>
<linearGradient id="paint9_linear" x1="396.152" y1="113.321" x2="458.368" y2="113.321" gradientUnits="userSpaceOnUse">
<stop stop-color="#E5E5F6"/>
<stop offset="1" stop-color="#C0C0EA"/>
</linearGradient>
<linearGradient id="paint10_linear" x1="396.152" y1="113.674" x2="458.368" y2="113.674" gradientUnits="userSpaceOnUse">
<stop stop-color="#E5E5F6"/>
<stop offset="1" stop-color="#C0C0EA"/>
</linearGradient>
<linearGradient id="paint11_linear" x1="396.153" y1="113.992" x2="458.368" y2="113.992" gradientUnits="userSpaceOnUse">
<stop stop-color="#E5E5F6"/>
<stop offset="1" stop-color="#C0C0EA"/>
</linearGradient>
<linearGradient id="paint12_linear" x1="396.152" y1="114.277" x2="458.368" y2="114.277" gradientUnits="userSpaceOnUse">
<stop stop-color="#E5E5F6"/>
<stop offset="1" stop-color="#C0C0EA"/>
</linearGradient>
<linearGradient id="paint13_linear" x1="396.152" y1="114.53" x2="458.368" y2="114.53" gradientUnits="userSpaceOnUse">
<stop stop-color="#E5E5F6"/>
<stop offset="1" stop-color="#C0C0EA"/>
</linearGradient>
<linearGradient id="paint14_linear" x1="396.151" y1="114.752" x2="458.368" y2="114.752" gradientUnits="userSpaceOnUse">
<stop stop-color="#E5E5F6"/>
<stop offset="1" stop-color="#C0C0EA"/>
</linearGradient>
<linearGradient id="paint15_linear" x1="396.152" y1="114.945" x2="458.368" y2="114.945" gradientUnits="userSpaceOnUse">
<stop stop-color="#E5E5F6"/>
<stop offset="1" stop-color="#C0C0EA"/>
</linearGradient>
<linearGradient id="paint16_linear" x1="396.151" y1="115.104" x2="458.368" y2="115.104" gradientUnits="userSpaceOnUse">
<stop stop-color="#E5E5F6"/>
<stop offset="1" stop-color="#C0C0EA"/>
</linearGradient>
<linearGradient id="paint17_linear" x1="396.152" y1="115.231" x2="458.368" y2="115.231" gradientUnits="userSpaceOnUse">
<stop stop-color="#E5E5F6"/>
<stop offset="1" stop-color="#C0C0EA"/>
</linearGradient>
<linearGradient id="paint18_linear" x1="396.152" y1="115.323" x2="458.368" y2="115.323" gradientUnits="userSpaceOnUse">
<stop stop-color="#E5E5F6"/>
<stop offset="1" stop-color="#C0C0EA"/>
</linearGradient>
<linearGradient id="paint19_linear" x1="396.152" y1="115.376" x2="458.368" y2="115.376" gradientUnits="userSpaceOnUse">
<stop stop-color="#E5E5F6"/>
<stop offset="1" stop-color="#C0C0EA"/>
</linearGradient>
<linearGradient id="paint20_linear" x1="396.152" y1="115.386" x2="458.368" y2="115.386" gradientUnits="userSpaceOnUse">
<stop stop-color="#E5E5F6"/>
<stop offset="1" stop-color="#C0C0EA"/>
</linearGradient>
<linearGradient id="paint21_linear" x1="396.152" y1="115.34" x2="458.368" y2="115.34" gradientUnits="userSpaceOnUse">
<stop stop-color="#E5E5F6"/>
<stop offset="1" stop-color="#C0C0EA"/>
</linearGradient>
<linearGradient id="paint22_linear" x1="396.152" y1="115.203" x2="458.368" y2="115.203" gradientUnits="userSpaceOnUse">
<stop stop-color="#E5E5F6"/>
<stop offset="1" stop-color="#C0C0EA"/>
</linearGradient>
<linearGradient id="paint23_linear" x1="396.152" y1="114.042" x2="458.368" y2="114.042" gradientUnits="userSpaceOnUse">
<stop stop-color="#E5E5F6"/>
<stop offset="1" stop-color="#C0C0EA"/>
</linearGradient>
<linearGradient id="paint24_linear" x1="396.152" y1="112.494" x2="458.368" y2="112.494" gradientUnits="userSpaceOnUse">
<stop stop-color="#E5E5F6"/>
<stop offset="1" stop-color="#C0C0EA"/>
</linearGradient>
<linearGradient id="paint25_linear" x1="396.152" y1="111.576" x2="458.368" y2="111.576" gradientUnits="userSpaceOnUse">
<stop stop-color="#E5E5F6"/>
<stop offset="1" stop-color="#C0C0EA"/>
</linearGradient>
<linearGradient id="paint26_linear" x1="396.151" y1="110.74" x2="458.368" y2="110.74" gradientUnits="userSpaceOnUse">
<stop stop-color="#E5E5F6"/>
<stop offset="1" stop-color="#C0C0EA"/>
</linearGradient>
<linearGradient id="paint27_linear" x1="396.152" y1="109.961" x2="458.368" y2="109.961" gradientUnits="userSpaceOnUse">
<stop stop-color="#E5E5F6"/>
<stop offset="1" stop-color="#C0C0EA"/>
</linearGradient>
<linearGradient id="paint28_linear" x1="396.152" y1="109.23" x2="458.368" y2="109.23" gradientUnits="userSpaceOnUse">
<stop stop-color="#E5E5F6"/>
<stop offset="1" stop-color="#C0C0EA"/>
</linearGradient>
<linearGradient id="paint29_linear" x1="396.152" y1="108.523" x2="458.367" y2="108.523" gradientUnits="userSpaceOnUse">
<stop stop-color="#E5E5F6"/>
<stop offset="1" stop-color="#C0C0EA"/>
</linearGradient>
<linearGradient id="paint30_linear" x1="396.152" y1="107.831" x2="458.368" y2="107.831" gradientUnits="userSpaceOnUse">
<stop stop-color="#E5E5F6"/>
<stop offset="1" stop-color="#C0C0EA"/>
</linearGradient>
<linearGradient id="paint31_linear" x1="396.152" y1="107.151" x2="458.368" y2="107.151" gradientUnits="userSpaceOnUse">
<stop stop-color="#E5E5F6"/>
<stop offset="1" stop-color="#C0C0EA"/>
</linearGradient>
<linearGradient id="paint32_linear" x1="396.152" y1="106.471" x2="458.368" y2="106.471" gradientUnits="userSpaceOnUse">
<stop stop-color="#E5E5F6"/>
<stop offset="1" stop-color="#C0C0EA"/>
</linearGradient>
<linearGradient id="paint33_linear" x1="396.152" y1="105.788" x2="458.368" y2="105.788" gradientUnits="userSpaceOnUse">
<stop stop-color="#E5E5F6"/>
<stop offset="1" stop-color="#C0C0EA"/>
</linearGradient>
<linearGradient id="paint34_linear" x1="396.152" y1="105.1" x2="458.368" y2="105.1" gradientUnits="userSpaceOnUse">
<stop stop-color="#E5E5F6"/>
<stop offset="1" stop-color="#C0C0EA"/>
</linearGradient>
<linearGradient id="paint35_linear" x1="396.152" y1="104.398" x2="458.368" y2="104.398" gradientUnits="userSpaceOnUse">
<stop stop-color="#E5E5F6"/>
<stop offset="1" stop-color="#C0C0EA"/>
</linearGradient>
<linearGradient id="paint36_linear" x1="396.152" y1="103.68" x2="458.368" y2="103.68" gradientUnits="userSpaceOnUse">
<stop stop-color="#E5E5F6"/>
<stop offset="1" stop-color="#C0C0EA"/>
</linearGradient>
<linearGradient id="paint37_linear" x1="396.152" y1="102.941" x2="458.368" y2="102.941" gradientUnits="userSpaceOnUse">
<stop stop-color="#E5E5F6"/>
<stop offset="1" stop-color="#C0C0EA"/>
</linearGradient>
<linearGradient id="paint38_linear" x1="396.152" y1="102.172" x2="458.368" y2="102.172" gradientUnits="userSpaceOnUse">
<stop stop-color="#E5E5F6"/>
<stop offset="1" stop-color="#C0C0EA"/>
</linearGradient>
<linearGradient id="paint39_linear" x1="396.152" y1="101.368" x2="458.368" y2="101.368" gradientUnits="userSpaceOnUse">
<stop stop-color="#E5E5F6"/>
<stop offset="1" stop-color="#C0C0EA"/>
</linearGradient>
<linearGradient id="paint40_linear" x1="396.152" y1="100.52" x2="458.368" y2="100.52" gradientUnits="userSpaceOnUse">
<stop stop-color="#E5E5F6"/>
<stop offset="1" stop-color="#C0C0EA"/>
</linearGradient>
<linearGradient id="paint41_linear" x1="396.152" y1="99.6029" x2="458.368" y2="99.6029" gradientUnits="userSpaceOnUse">
<stop stop-color="#E5E5F6"/>
<stop offset="1" stop-color="#C0C0EA"/>
</linearGradient>
<linearGradient id="paint42_linear" x1="396.152" y1="98.8007" x2="458.368" y2="98.8007" gradientUnits="userSpaceOnUse">
<stop stop-color="#E5E5F6"/>
<stop offset="1" stop-color="#C0C0EA"/>
</linearGradient>
<linearGradient id="paint43_linear" x1="396.152" y1="89.8278" x2="458.368" y2="89.8278" gradientUnits="userSpaceOnUse">
<stop stop-color="#E5E5F6"/>
<stop offset="1" stop-color="#C0C0EA"/>
</linearGradient>
<linearGradient id="paint44_linear" x1="396.152" y1="86.3448" x2="458.368" y2="86.3448" gradientUnits="userSpaceOnUse">
<stop stop-color="#E5E5F6"/>
<stop offset="1" stop-color="#C0C0EA"/>
</linearGradient>
<linearGradient id="paint45_linear" x1="396.152" y1="91.7652" x2="458.368" y2="91.7652" gradientUnits="userSpaceOnUse">
<stop stop-color="#E5E5F6"/>
<stop offset="1" stop-color="#C0C0EA"/>
</linearGradient>
<linearGradient id="paint46_linear" x1="396.152" y1="92.8233" x2="458.368" y2="92.8233" gradientUnits="userSpaceOnUse">
<stop stop-color="#E5E5F6"/>
<stop offset="1" stop-color="#C0C0EA"/>
</linearGradient>
<linearGradient id="paint47_linear" x1="396.152" y1="93.6317" x2="458.367" y2="93.6317" gradientUnits="userSpaceOnUse">
<stop stop-color="#E5E5F6"/>
<stop offset="1" stop-color="#C0C0EA"/>
</linearGradient>
<linearGradient id="paint48_linear" x1="396.152" y1="94.3017" x2="458.368" y2="94.3017" gradientUnits="userSpaceOnUse">
<stop stop-color="#E5E5F6"/>
<stop offset="1" stop-color="#C0C0EA"/>
</linearGradient>
<linearGradient id="paint49_linear" x1="396.152" y1="94.8791" x2="458.368" y2="94.8791" gradientUnits="userSpaceOnUse">
<stop stop-color="#E5E5F6"/>
<stop offset="1" stop-color="#C0C0EA"/>
</linearGradient>
<linearGradient id="paint50_linear" x1="396.152" y1="95.379" x2="458.368" y2="95.379" gradientUnits="userSpaceOnUse">
<stop stop-color="#E5E5F6"/>
<stop offset="1" stop-color="#C0C0EA"/>
</linearGradient>
<linearGradient id="paint51_linear" x1="396.152" y1="95.818" x2="458.367" y2="95.818" gradientUnits="userSpaceOnUse">
<stop stop-color="#E5E5F6"/>
<stop offset="1" stop-color="#C0C0EA"/>
</linearGradient>
<linearGradient id="paint52_linear" x1="396.152" y1="96.2128" x2="458.368" y2="96.2128" gradientUnits="userSpaceOnUse">
<stop stop-color="#E5E5F6"/>
<stop offset="1" stop-color="#C0C0EA"/>
</linearGradient>
<linearGradient id="paint53_linear" x1="396.152" y1="96.5666" x2="458.368" y2="96.5666" gradientUnits="userSpaceOnUse">
<stop stop-color="#E5E5F6"/>
<stop offset="1" stop-color="#C0C0EA"/>
</linearGradient>
<linearGradient id="paint54_linear" x1="396.153" y1="96.8843" x2="458.368" y2="96.8843" gradientUnits="userSpaceOnUse">
<stop stop-color="#E5E5F6"/>
<stop offset="1" stop-color="#C0C0EA"/>
</linearGradient>
<linearGradient id="paint55_linear" x1="396.152" y1="97.1691" x2="458.368" y2="97.1691" gradientUnits="userSpaceOnUse">
<stop stop-color="#E5E5F6"/>
<stop offset="1" stop-color="#C0C0EA"/>
</linearGradient>
<linearGradient id="paint56_linear" x1="396.152" y1="97.4219" x2="458.368" y2="97.4219" gradientUnits="userSpaceOnUse">
<stop stop-color="#E5E5F6"/>
<stop offset="1" stop-color="#C0C0EA"/>
</linearGradient>
<linearGradient id="paint57_linear" x1="396.151" y1="97.6444" x2="458.368" y2="97.6444" gradientUnits="userSpaceOnUse">
<stop stop-color="#E5E5F6"/>
<stop offset="1" stop-color="#C0C0EA"/>
</linearGradient>
<linearGradient id="paint58_linear" x1="396.152" y1="97.8369" x2="458.368" y2="97.8369" gradientUnits="userSpaceOnUse">
<stop stop-color="#E5E5F6"/>
<stop offset="1" stop-color="#C0C0EA"/>
</linearGradient>
<linearGradient id="paint59_linear" x1="396.151" y1="97.9967" x2="458.368" y2="97.9967" gradientUnits="userSpaceOnUse">
<stop stop-color="#E5E5F6"/>
<stop offset="1" stop-color="#C0C0EA"/>
</linearGradient>
<linearGradient id="paint60_linear" x1="396.152" y1="98.1235" x2="458.368" y2="98.1235" gradientUnits="userSpaceOnUse">
<stop stop-color="#E5E5F6"/>
<stop offset="1" stop-color="#C0C0EA"/>
</linearGradient>
<linearGradient id="paint61_linear" x1="396.152" y1="98.2151" x2="458.368" y2="98.2151" gradientUnits="userSpaceOnUse">
<stop stop-color="#E5E5F6"/>
<stop offset="1" stop-color="#C0C0EA"/>
</linearGradient>
<linearGradient id="paint62_linear" x1="396.152" y1="98.268" x2="458.368" y2="98.268" gradientUnits="userSpaceOnUse">
<stop stop-color="#E5E5F6"/>
<stop offset="1" stop-color="#C0C0EA"/>
</linearGradient>
<linearGradient id="paint63_linear" x1="396.152" y1="98.2786" x2="458.368" y2="98.2786" gradientUnits="userSpaceOnUse">
<stop stop-color="#E5E5F6"/>
<stop offset="1" stop-color="#C0C0EA"/>
</linearGradient>
<linearGradient id="paint64_linear" x1="396.152" y1="98.232" x2="458.368" y2="98.232" gradientUnits="userSpaceOnUse">
<stop stop-color="#E5E5F6"/>
<stop offset="1" stop-color="#C0C0EA"/>
</linearGradient>
<linearGradient id="paint65_linear" x1="396.152" y1="98.095" x2="458.368" y2="98.095" gradientUnits="userSpaceOnUse">
<stop stop-color="#E5E5F6"/>
<stop offset="1" stop-color="#C0C0EA"/>
</linearGradient>
<linearGradient id="paint66_linear" x1="396.152" y1="96.9338" x2="458.368" y2="96.9338" gradientUnits="userSpaceOnUse">
<stop stop-color="#E5E5F6"/>
<stop offset="1" stop-color="#C0C0EA"/>
</linearGradient>
<linearGradient id="paint67_linear" x1="396.152" y1="95.3857" x2="458.368" y2="95.3857" gradientUnits="userSpaceOnUse">
<stop stop-color="#E5E5F6"/>
<stop offset="1" stop-color="#C0C0EA"/>
</linearGradient>
<linearGradient id="paint68_linear" x1="396.152" y1="94.4689" x2="458.368" y2="94.4689" gradientUnits="userSpaceOnUse">
<stop stop-color="#E5E5F6"/>
<stop offset="1" stop-color="#C0C0EA"/>
</linearGradient>
<linearGradient id="paint69_linear" x1="396.151" y1="93.6324" x2="458.368" y2="93.6324" gradientUnits="userSpaceOnUse">
<stop stop-color="#E5E5F6"/>
<stop offset="1" stop-color="#C0C0EA"/>
</linearGradient>
<linearGradient id="paint70_linear" x1="396.152" y1="92.853" x2="458.368" y2="92.853" gradientUnits="userSpaceOnUse">
<stop stop-color="#E5E5F6"/>
<stop offset="1" stop-color="#C0C0EA"/>
</linearGradient>
<linearGradient id="paint71_linear" x1="396.152" y1="92.1219" x2="458.368" y2="92.1219" gradientUnits="userSpaceOnUse">
<stop stop-color="#E5E5F6"/>
<stop offset="1" stop-color="#C0C0EA"/>
</linearGradient>
<linearGradient id="paint72_linear" x1="396.152" y1="91.4157" x2="458.367" y2="91.4157" gradientUnits="userSpaceOnUse">
<stop stop-color="#E5E5F6"/>
<stop offset="1" stop-color="#C0C0EA"/>
</linearGradient>
<linearGradient id="paint73_linear" x1="396.152" y1="90.7234" x2="458.368" y2="90.7234" gradientUnits="userSpaceOnUse">
<stop stop-color="#E5E5F6"/>
<stop offset="1" stop-color="#C0C0EA"/>
</linearGradient>
<linearGradient id="paint74_linear" x1="396.152" y1="90.0429" x2="458.368" y2="90.0429" gradientUnits="userSpaceOnUse">
<stop stop-color="#E5E5F6"/>
<stop offset="1" stop-color="#C0C0EA"/>
</linearGradient>
<linearGradient id="paint75_linear" x1="396.152" y1="89.3629" x2="458.368" y2="89.3629" gradientUnits="userSpaceOnUse">
<stop stop-color="#E5E5F6"/>
<stop offset="1" stop-color="#C0C0EA"/>
</linearGradient>
<linearGradient id="paint76_linear" x1="396.152" y1="88.6811" x2="458.368" y2="88.6811" gradientUnits="userSpaceOnUse">
<stop stop-color="#E5E5F6"/>
<stop offset="1" stop-color="#C0C0EA"/>
</linearGradient>
<linearGradient id="paint77_linear" x1="396.152" y1="87.9922" x2="458.368" y2="87.9922" gradientUnits="userSpaceOnUse">
<stop stop-color="#E5E5F6"/>
<stop offset="1" stop-color="#C0C0EA"/>
</linearGradient>
<linearGradient id="paint78_linear" x1="396.152" y1="87.2907" x2="458.368" y2="87.2907" gradientUnits="userSpaceOnUse">
<stop stop-color="#E5E5F6"/>
<stop offset="1" stop-color="#C0C0EA"/>
</linearGradient>
<linearGradient id="paint79_linear" x1="396.152" y1="86.5722" x2="458.368" y2="86.5722" gradientUnits="userSpaceOnUse">
<stop stop-color="#E5E5F6"/>
<stop offset="1" stop-color="#C0C0EA"/>
</linearGradient>
<linearGradient id="paint80_linear" x1="396.152" y1="85.8337" x2="458.368" y2="85.8337" gradientUnits="userSpaceOnUse">
<stop stop-color="#E5E5F6"/>
<stop offset="1" stop-color="#C0C0EA"/>
</linearGradient>
<linearGradient id="paint81_linear" x1="396.152" y1="85.0645" x2="458.368" y2="85.0645" gradientUnits="userSpaceOnUse">
<stop stop-color="#E5E5F6"/>
<stop offset="1" stop-color="#C0C0EA"/>
</linearGradient>
<linearGradient id="paint82_linear" x1="396.152" y1="84.2604" x2="458.368" y2="84.2604" gradientUnits="userSpaceOnUse">
<stop stop-color="#E5E5F6"/>
<stop offset="1" stop-color="#C0C0EA"/>
</linearGradient>
<linearGradient id="paint83_linear" x1="396.152" y1="83.4122" x2="458.368" y2="83.4122" gradientUnits="userSpaceOnUse">
<stop stop-color="#E5E5F6"/>
<stop offset="1" stop-color="#C0C0EA"/>
</linearGradient>
<linearGradient id="paint84_linear" x1="396.152" y1="82.4951" x2="458.368" y2="82.4951" gradientUnits="userSpaceOnUse">
<stop stop-color="#E5E5F6"/>
<stop offset="1" stop-color="#C0C0EA"/>
</linearGradient>
<linearGradient id="paint85_linear" x1="396.152" y1="81.6929" x2="458.368" y2="81.6929" gradientUnits="userSpaceOnUse">
<stop stop-color="#E5E5F6"/>
<stop offset="1" stop-color="#C0C0EA"/>
</linearGradient>
<clipPath id="clip0">
<rect width="57.6471" height="60" fill="white" transform="translate(399 60)"/>
</clipPath>
<clipPath id="clip1">
<rect width="36" height="36" fill="white" transform="translate(81 68)"/>
</clipPath>
<clipPath id="clip2">
<rect width="136" height="25" fill="white" transform="translate(352 239)"/>
</clipPath>
</defs>
</svg>
