<svg width="30" height="30" viewBox="0 0 30 30" fill="none" xmlns="http://www.w3.org/2000/svg">
<path d="M8.0423 18.1659C8.0423 19.5535 6.90876 20.6871 5.52115 20.6871C4.13354 20.6871 3 19.5535 3 18.1659C3 16.7783 4.13354 15.6448 5.52115 15.6448H8.0423V18.1659Z" fill="white"/>
<path d="M9.31262 18.1659C9.31262 16.7783 10.4462 15.6448 11.8338 15.6448C13.2214 15.6448 14.3549 16.7783 14.3549 18.1659V24.4786C14.3549 25.8662 13.2214 26.9997 11.8338 26.9997C10.4462 26.9997 9.31262 25.8662 9.31262 24.4786V18.1659Z" fill="white"/>
<path d="M11.8338 8.04254C10.4462 8.04254 9.31262 6.909 9.31262 5.52139C9.31262 4.13378 10.4462 3.00024 11.8338 3.00024C13.2214 3.00024 14.3549 4.13378 14.3549 5.52139V8.04254H11.8338Z" fill="white"/>
<path d="M11.8338 9.31274C13.2214 9.31274 14.355 10.4463 14.355 11.8339C14.355 13.2215 13.2214 14.355 11.8338 14.355H5.52116C4.13354 14.355 3 13.2215 3 11.8339C3 10.4463 4.13354 9.31274 5.52116 9.31274H11.8338Z" fill="white"/>
<path d="M21.9576 11.8339C21.9576 10.4463 23.0912 9.31274 24.4788 9.31274C25.8664 9.31274 26.9999 10.4463 26.9999 11.8339C26.9999 13.2215 25.8664 14.355 24.4788 14.355H21.9576V11.8339Z" fill="white"/>
<path d="M20.6873 11.8341C20.6873 13.2217 19.5538 14.3552 18.1662 14.3552C16.7786 14.3552 15.645 13.2217 15.645 11.8341V5.5214C15.645 4.13379 16.7786 3.00024 18.1662 3.00024C19.5538 3.00024 20.6873 4.13379 20.6873 5.5214V11.8341Z" fill="white"/>
<path d="M18.1662 21.9573C19.5538 21.9573 20.6873 23.0908 20.6873 24.4784C20.6873 25.866 19.5538 26.9996 18.1662 26.9996C16.7786 26.9996 15.645 25.866 15.645 24.4784V21.9573H18.1662Z" fill="white"/>
<path d="M18.1662 20.6871C16.7786 20.6871 15.645 19.5535 15.645 18.1659C15.645 16.7783 16.7786 15.6448 18.1662 15.6448H24.4788C25.8665 15.6448 27 16.7783 27 18.1659C27 19.5535 25.8665 20.6871 24.4788 20.6871H18.1662Z" fill="white"/>
</svg>
